<svg width="383" height="483" viewBox="0 0 383 483" fill="none" xmlns="http://www.w3.org/2000/svg">
<path fill-rule="evenodd" clip-rule="evenodd" d="M4.00903 142.465C3.66448 142.5 3.31838 142.521 2.99583 142.542C3.00075 142.52 2.98255 142.516 2.98648 142.498C3.32225 142.503 3.66842 142.482 4.00903 142.465Z" fill="#2F3656"/>
<path fill-rule="evenodd" clip-rule="evenodd" d="M17.4691 3.40432C14.6284 2.79597 11.8145 3.56991 9.1835 4.75315C8.43647 5.07259 7.67432 6.30491 7.68289 7.08519C7.70827 10.1142 8.05978 13.1277 8.33129 16.6699C12.6967 13.4372 16.8845 12.9623 20.9822 13.8398C23.2647 14.3286 25.5233 15.2396 27.7677 16.3277C34.2732 19.4583 38.1555 30.1864 35.1542 36.2696C32.4684 41.699 24.7327 46.1322 18.7549 45.5023C14.314 45.0306 9.89461 44.3263 4.90889 43.6288C4.61615 45.4173 4.23497 47.4859 3.98835 49.569C3.91644 49.9713 4.22865 50.6411 4.56026 50.8212C8.9612 53.164 13.0416 56.1833 18.0288 57.2513C18.7729 57.4107 19.5359 57.5267 20.3196 57.59C29.9749 58.4 38.0091 53.5037 41.6469 44.4478C43.47 39.878 44.241 35.1683 44.2036 30.2666C44.0896 20.5352 39.0567 13.6522 31.2894 8.78959C27.4715 6.4056 22.9051 5.1903 18.6061 3.72376C18.2266 3.5903 17.8457 3.48497 17.4691 3.40432ZM21.4359 0.703356C31.5869 2.87732 40.995 9.91877 45.5584 19.4828C48.5708 25.8286 48.4515 32.6809 46.8735 39.4534C46.6238 40.6199 46.4159 41.7904 46.1027 42.9432C42.8789 54.765 32.4622 62.2553 20.3935 61.4127C19.3087 61.337 18.2549 61.1825 17.2293 60.9629C11.2349 59.6791 6.18587 56.1296 0.986858 52.9703C0.450729 52.6372 -0.0926361 51.6285 0.0135918 51.0437C0.697845 47.2268 1.3944 43.3745 2.46764 39.6694C2.83729 38.3863 3.75446 37.9372 4.87986 38.1782C5.30189 38.2686 5.75077 38.4549 6.21399 38.7297C7.52127 39.5175 8.95726 40.3472 10.4321 40.663C10.5455 40.6874 10.6544 40.7107 10.7698 40.7259C14.1939 41.2693 17.6733 41.6205 21.1291 41.7056C24.7479 41.7828 31.0043 36.8334 32.0282 33.4689C33.3305 29.1152 29.7842 21.4066 25.5226 19.4544C23.795 18.6572 22.0816 18.015 20.3799 17.6506C16.7179 16.8663 13.1284 17.3839 9.62964 20.4699C8.72611 21.2542 7.90385 21.5481 7.20505 21.3984C6.35192 21.2157 5.67801 20.3736 5.24831 18.9668C4.67015 17.1009 4.21381 15.1757 3.99791 13.2356C2.95406 3.68016 6.15873 -0.13809 15.3543 0.0038029C17.3891 0.0313659 19.4256 0.272824 21.4359 0.703356Z" fill="black"/>
<path fill-rule="evenodd" clip-rule="evenodd" d="M17.4734 3.40526C17.8501 3.48591 18.2264 3.59025 18.6014 3.72279C22.9014 5.18476 27.4713 6.40555 31.2846 8.78856C39.0565 13.6522 44.0849 20.5342 44.1989 30.2655C44.2363 35.1673 43.4653 39.8769 41.6422 44.4468C38.0034 53.5073 29.9747 58.3999 20.315 57.5891C19.5312 57.5257 18.7682 57.4097 18.024 57.2503C13.037 56.1823 8.96103 53.1639 4.55552 50.8202C4.22847 50.641 3.91724 49.9668 3.98361 49.568C4.2303 47.4848 4.61141 45.4163 4.90415 43.6278C9.89443 44.3263 14.3094 45.0296 18.7547 45.5023C24.7325 46.1321 32.4682 41.6989 35.1495 36.2686C38.1508 30.1854 34.2685 19.4572 27.7594 16.3212C25.5196 15.234 23.2645 14.3286 20.982 13.8398C16.8843 12.9623 12.6965 13.4372 8.32655 16.6688C8.05961 13.1276 7.7081 10.1142 7.68272 7.08513C7.67611 6.29579 8.43629 5.07254 9.18332 4.7531C11.8189 3.57077 14.6328 2.7969 17.4734 3.40526Z" fill="#FED58A"/>
<path fill-rule="evenodd" clip-rule="evenodd" d="M22.9908 77.6327C18.7811 79.5175 15.0517 81.2867 11.2219 82.8161C9.60105 83.4705 9.08292 84.2947 9.29418 86.0345C11.0004 99.1683 12.6519 112.314 14.2476 125.477C14.6601 128.826 14.8908 132.226 15.2644 136.156C18.8443 135.883 22.5026 135.599 26.2373 135.311C25.5552 130.162 24.9749 125.358 24.2132 120.581C23.7898 117.97 24.7408 116.099 27.0497 115.246C29.6474 114.307 32.3926 113.566 35.1439 113.305C35.2898 113.289 35.4434 113.303 35.6022 113.337C36.587 113.548 37.8298 114.592 38.4212 115.488C41.759 120.513 44.8538 125.675 48.065 130.782C49.3894 132.865 50.3152 133.993 51.4315 134.233C52.6658 134.497 54.1223 133.679 56.5979 131.869C45.3197 113.657 33.9993 95.3979 22.9908 77.6327ZM23.2928 73.2735C24.0733 73.4407 24.7567 73.9953 25.3986 74.9872C29.4766 81.3428 33.6814 87.6165 37.6315 94.0825C44.6641 105.613 51.5278 117.246 58.4686 128.828C61.4987 133.873 61.2492 134.617 55.7476 136.861C55.3441 137.017 54.9474 137.14 54.5478 137.278C52.515 137.972 51.1881 138.296 50.099 138.063C48.8194 137.788 47.8614 136.743 46.4574 134.634C43.2193 129.764 40.0493 124.841 36.9601 119.874C35.754 117.926 35.1652 117.041 34.2078 116.836C33.4182 116.667 32.383 116.957 30.5499 117.495C28.158 118.227 27.3366 119.403 27.8772 121.954C28.7546 126.191 29.2982 130.48 29.9445 134.776C30.2287 136.574 30.2037 138.42 27.8883 138.684C24.2122 139.074 20.4997 139.256 16.81 139.51C16.4839 139.526 16.1524 139.545 15.8302 139.543C15.8075 139.339 15.8055 139.148 15.7828 138.944C15.2246 138.825 14.6273 138.777 14.0736 138.659C13.7152 138.582 13.3771 138.476 13.0727 138.302C12.3509 137.905 11.4581 137.088 11.374 136.372C10.2024 126.504 9.11737 116.631 8.11788 106.758C7.38688 99.5099 6.87366 92.242 6.21099 84.985C5.91748 81.7893 7.55244 80.2265 10.2833 79.0647C13.7767 77.5771 17.1752 75.8462 20.4608 73.9772C21.5533 73.3519 22.476 73.0987 23.2928 73.2735Z" fill="black"/>
<path fill-rule="evenodd" clip-rule="evenodd" d="M19.8283 90.1655C17.2383 89.6725 16.0813 90.6873 16.4161 92.7811C16.8155 95.2827 17.6187 97.7378 17.9487 100.253C18.3358 102.923 18.473 105.629 18.5295 108.314C18.5631 109.731 18.9636 111.008 19.9937 111.228C20.2978 111.294 20.6595 111.267 21.0846 111.12C24.7204 109.877 28.2375 108.19 31.6619 106.427C33.3455 105.568 33.2357 103.93 31.9922 102.534C28.754 98.9501 25.5307 95.3406 22.2115 91.8245C21.4326 91.0074 20.3237 90.4899 19.8283 90.1655ZM22.9908 77.6328C33.9948 95.397 45.3198 113.657 56.6025 131.87C54.1268 133.68 52.6659 134.497 51.4361 134.234C50.3152 133.994 49.3894 132.865 48.0651 130.782C44.8539 125.675 41.7636 120.514 38.4212 115.488C37.8298 114.593 36.5915 113.549 35.6068 113.338C35.4434 113.303 35.2898 113.289 35.144 113.305C32.3926 113.566 29.6474 114.307 27.0497 115.246C24.7409 116.099 23.7944 117.971 24.2178 120.582C24.975 125.358 25.5553 130.162 26.2373 135.311C22.5071 135.6 18.8534 135.885 15.2689 136.157C14.8908 132.226 14.6647 128.827 14.2477 125.477C12.6555 112.32 11.004 99.1739 9.29421 86.0345C9.07838 84.2938 9.60108 83.4706 11.2219 82.8162C15.0518 81.2868 18.7765 79.5166 22.9908 77.6328Z" fill="#A6DFDA"/>
<path fill-rule="evenodd" clip-rule="evenodd" d="M20.9669 95.8205C21.7078 99.9853 22.2827 103.374 22.9328 107.054C24.7695 106.389 26.6858 105.684 29.0447 104.841C26.3216 101.799 23.8809 99.0789 20.9669 95.8205ZM19.8283 90.1655C20.3237 90.4899 21.4326 91.0074 22.2115 91.8245C25.5307 95.3406 28.7585 98.951 31.9922 102.534C33.2357 103.93 33.3465 105.563 31.6628 106.422C28.2375 108.19 24.7204 109.877 21.0846 111.12C20.6604 111.262 20.3032 111.29 19.9947 111.224C18.9646 111.003 18.5631 109.731 18.5305 108.309C18.474 105.625 18.3368 102.918 17.9497 100.248C17.6187 97.7378 16.8155 95.2826 16.4161 92.7811C16.0813 90.6873 17.2382 89.6724 19.8283 90.1655Z" fill="black"/>
<path fill-rule="evenodd" clip-rule="evenodd" d="M86.5253 49.1841C85.1458 48.8887 83.7057 48.6989 82.1934 48.6029C74.5285 48.1386 69.3835 52.951 69.1358 60.6255C69.0768 62.8295 69.3209 65.0368 69.2201 67.2366C69.182 68.0354 68.6529 69.1989 68.0507 69.4402C67.8274 69.53 67.5208 69.5213 67.1941 69.4514C66.6223 69.3289 65.9977 69.01 65.6758 68.6515C63.2597 65.9269 60.0954 64.6797 56.7601 63.9654C56.438 63.8964 56.1193 63.8329 55.7997 63.774C48.6586 62.482 41.848 69.5104 42.9603 77.1059C43.9803 84.0456 46.622 90.4829 51.5104 95.6024C55.9039 100.175 60.6001 104.574 66.442 106.437C77.1058 95.4212 87.5592 84.6113 98.0233 73.8181C99.1666 72.6674 100.373 71.6013 101.614 70.5667C104.363 68.2125 104.95 66.2687 103.381 63.0466C99.7506 55.5527 94.1534 50.8177 86.5253 49.1841ZM87.2871 46.224C95.8318 48.0539 102.418 53.6225 106.217 62.2776C107.132 64.391 107.002 66.9501 107.237 69.3074C107.275 69.8186 106.974 70.5373 106.59 70.8917C103.789 73.5102 100.77 75.9299 98.1093 78.6923C88.9881 88.1783 80.0115 97.8092 70.8991 107.321C68.8205 109.515 67.4279 110.455 65.5493 110.053C64.7189 109.875 63.7892 109.429 62.6657 108.714C57.8972 105.695 53.1784 102.353 49.1915 98.4094C43.338 92.6323 40.2408 85.1529 39.3061 77.0164C38.1896 67.1795 47.0604 58.575 56.5521 60.171C56.791 60.208 57.0325 60.2549 57.2776 60.3074C60.0365 60.8982 62.6883 62.2113 65.5414 63.1831C65.6394 61.7944 65.7705 60.3842 65.8561 58.9643C66.3069 52.4915 71.7589 46.1119 78.2549 45.6519C81.46 45.4222 84.4783 45.6225 87.2871 46.224Z" fill="black"/>
<path fill-rule="evenodd" clip-rule="evenodd" d="M86.4257 58.694C83.0048 58.1133 80.2583 58.5504 78.2699 61.1434C76.3383 63.6489 76.7529 66.3008 78.1726 68.8026C79.546 71.2327 81.0917 73.5668 82.792 75.7774C82.9162 75.9512 83.2147 76.0863 83.5687 76.1621C84.1541 76.2875 84.8862 76.2591 85.2236 76.0134C88.2794 73.91 91.391 71.79 94.0697 69.231C94.9142 68.434 95.0678 65.899 94.4298 64.8225C92.5763 61.6868 89.6806 59.562 86.4257 58.694ZM61.9853 78.3749C57.7269 77.9377 55.6667 78.517 54.0704 80.9851C52.1877 83.9046 52.2028 87.0928 54.3823 90.0136C56.0558 92.2611 58.0173 94.2713 59.7669 96.4735C60.2717 97.1085 60.7657 97.4611 61.2558 97.566C61.9501 97.7147 62.6456 97.37 63.3669 96.5941C66.0852 93.6733 68.794 90.7741 71.4352 87.7703C73.0743 85.8999 72.9178 84.2145 70.7411 82.8987C67.923 81.2319 64.9068 79.8693 61.9853 78.3749ZM86.5253 49.1841C94.1534 50.8177 99.7461 55.5517 103.376 63.0457C104.95 66.2686 104.363 68.2125 101.614 70.5667C100.373 71.6013 99.1667 72.6674 98.0234 73.818C87.5593 84.6113 77.1058 95.4211 66.4431 106.433C60.6002 104.574 55.904 100.174 51.5105 95.6024C46.6265 90.4838 43.9804 84.0455 42.9603 77.1058C41.8481 69.5104 48.6586 62.482 55.7998 63.774C56.1194 63.8329 56.438 63.8964 56.7557 63.9644C60.091 64.6787 63.2598 65.9269 65.6758 68.6515C65.9978 69.01 66.6224 69.3289 67.1942 69.4513C67.5209 69.5213 67.8274 69.53 68.0508 69.4402C68.6529 69.1989 69.182 68.0354 69.2202 67.2366C69.321 65.0367 69.0769 62.8295 69.1313 60.6245C69.3826 52.9556 74.5285 48.1386 82.1934 48.6028C83.7058 48.6989 85.1458 48.8887 86.5253 49.1841Z" fill="#FEB8B3"/>
<path fill-rule="evenodd" clip-rule="evenodd" d="M60.7262 81.6179C59.5872 81.3739 57.5427 81.724 57.3441 82.2749C56.8021 83.7869 56.5555 85.87 57.2188 87.2272C58.2845 89.4538 60.1773 91.2974 61.7542 93.3534C64.42 90.8769 66.9763 88.491 70.2112 85.4624C66.9594 84.092 64.0213 82.6748 60.933 81.6717C60.8658 81.6525 60.7988 81.6334 60.7262 81.6179ZM61.9852 78.375C64.9067 79.8693 67.9229 81.232 70.74 82.9033C72.9167 84.2191 73.0787 85.9009 71.4386 87.7758C68.7939 90.7741 66.0841 93.6778 63.3714 96.5951C62.6455 97.3701 61.9545 97.7157 61.2602 97.567C60.7656 97.4611 60.2716 97.1085 59.7668 96.4735C58.0172 94.2713 56.0557 92.2611 54.3822 90.0136C52.2027 87.0929 52.1876 83.9046 54.0703 80.9852C55.6666 78.517 57.7268 77.9377 61.9852 78.375Z" fill="black"/>
<path fill-rule="evenodd" clip-rule="evenodd" d="M86.0558 61.553C85.7518 61.4878 85.4348 61.439 85.1084 61.4118C83.7792 61.3027 82.0132 61.8596 81.1369 62.7827C80.5144 63.4515 80.6116 65.3472 81.0509 66.4429L81.0464 66.4419C81.8349 68.3671 83.1197 70.0804 84.1922 71.8765C86.8778 69.8172 89.3998 67.8796 91.9808 65.8882C90.7868 64.3936 88.96 62.175 86.0558 61.553ZM86.4304 58.695C89.6808 59.562 92.5774 61.6823 94.43 64.8226C95.068 65.8991 94.9144 68.4341 94.0699 69.231C91.3912 71.7901 88.2806 73.9055 85.2238 76.0134C84.8829 76.2537 84.1507 76.282 83.5653 76.1566C83.2159 76.0818 82.9164 75.9512 82.7922 75.7775C81.0929 73.5624 79.5462 71.2327 78.1728 68.8027C76.7531 66.3009 76.3385 63.6489 78.2701 61.1434C80.2595 58.5459 83.0051 58.1133 86.4304 58.695Z" fill="black"/>
<path fill-rule="evenodd" clip-rule="evenodd" d="M112.931 112.207C109.7 111.515 105.532 113.627 102.729 117.764C100.281 121.397 101.809 125.921 106.507 128.669C109.465 123.497 112.339 118.412 115.207 113.326C114.537 112.755 113.766 112.386 112.931 112.207ZM118.367 115.545C115.508 120.676 112.708 125.711 109.848 130.842C110.772 131.429 111.718 131.817 112.662 132.019C115.893 132.711 119.126 131.22 121.462 128.003C124.426 123.934 123.53 119.959 118.367 115.545ZM151.411 129.851C149.088 129.353 146.616 129.593 144.605 130.672C140.131 133.06 137.673 137.736 138.665 142.258C139.594 146.634 142.946 148.263 148.152 149.464C148.312 149.512 148.474 149.556 148.646 149.593C151.069 150.112 154.299 149.347 157.343 147.478C161.274 145.054 162.355 140.515 159.799 136.712C158.917 135.36 157.928 134.08 156.857 132.878C155.447 131.327 153.49 130.296 151.411 129.851ZM170.241 61.1411C165.276 60.0779 160.381 61.0185 156.033 64.7011C155.451 65.1839 154.759 65.5768 154.248 66.1225C148.373 72.2169 141.094 73.634 132.979 73.0116C129.21 72.7265 125.325 73.0909 121.559 73.6134C118.133 74.0758 113.529 79.1323 113.06 82.3212C112.385 86.7855 116.393 93.0456 120.742 94.2762C121.553 94.5019 122.384 94.7226 123.214 94.9004C123.795 95.0248 124.38 95.131 124.962 95.2036C125.448 95.2603 125.911 95.3402 126.364 95.4374C131.406 96.5171 134.652 99.9321 136.271 104.65C138.026 109.754 141.401 112.342 146.248 113.38C146.334 113.399 146.425 113.418 146.511 113.436C151.502 114.42 156.525 115.344 161.568 115.949C162.493 116.062 163.387 116.21 164.249 116.395C171.183 117.88 176.148 121.711 179.378 128.768C180.901 132.051 179.831 133.678 178.467 135.992C176.508 139.36 174.717 142.826 172.876 146.257C172.623 146.711 172.299 147.225 172.328 147.687C172.433 149.039 172.683 150.398 172.893 151.743C174.174 151.567 175.479 151.367 176.762 151.162C176.925 151.131 177.079 151.012 177.192 150.884C180.079 147.131 184.154 148.046 187.981 148.234C188.366 148.255 188.736 148.301 189.085 148.376C191.422 148.876 192.926 150.565 193.423 153.097C193.538 153.848 193.584 154.608 193.568 155.369C193.363 164.771 186.494 173.87 176.134 177.68C177.205 178.863 177.916 179.908 178.848 180.634C180.841 182.186 182.883 183.73 185.06 185.045C185.866 185.536 186.625 185.85 187.328 186.001C189.751 186.52 191.476 185.048 192.072 181.867C193.387 175.014 193.762 174.701 200.802 174.229C202.583 174.112 204.355 173.969 206.127 173.741C212.353 172.877 216.896 167.731 216.268 161.507C215.9 157.84 214.761 154.226 213.601 150.712C212.371 147.102 210.699 143.63 209.212 140.112C208.091 137.523 208.52 135.094 209.99 132.841C210.995 131.271 212.091 129.721 213.306 128.301C219.444 120.982 218.425 109.666 210.632 103.217C207.686 100.797 204.643 98.4505 201.489 96.3367C194.652 91.8062 190.194 85.6966 188.055 77.7958C185.972 70.0589 180.769 64.9005 173.549 62.1345C172.449 61.709 171.343 61.3773 170.241 61.1411ZM187.912 227.275C185.948 234.211 182.111 239.741 175.948 242.925C166.826 247.65 157.125 250.775 146.603 249.737C142.957 249.388 139.341 248.922 135.363 248.483C134.996 249.819 134.552 251.162 134.282 252.533C131.84 264.65 131.719 277.008 130.965 289.288L130.96 289.287C130.887 290.558 131.433 290.912 132.205 291.077C132.441 291.128 132.7 291.159 132.967 291.198C145.346 293.004 157.761 294.158 170.249 292.2C179.316 290.814 188.44 289.763 197.429 288.095C202.815 287.122 208.068 285.243 213.522 283.733C202.824 265.759 193.667 247.347 187.912 227.275ZM355.928 335.263C354.907 335.045 353.535 335.648 351.063 336.818C348.008 338.276 344.934 339.73 341.883 341.17C344.433 344.934 347.077 348.851 349.75 352.794C350.431 352.095 351.162 351.895 351.893 352.052C352.65 352.214 353.416 352.762 354.142 353.54C358.601 358.316 363.058 363.101 367.456 367.94L367.46 367.94C370.822 371.637 374.105 375.387 377.438 379.124L378.248 378.6C377.849 377.603 377.501 376.594 377.034 375.625C371.067 363.572 365.105 351.544 359.139 339.53C357.79 336.811 357.085 335.511 355.928 335.263ZM216 286.699C187.786 295.652 159.861 300.199 130.555 295.034C130.169 302.935 129.809 310.623 129.428 318.81C143.272 320.47 156.971 322.122 170.39 323.752C171.279 322.77 171.961 322.024 172.638 321.276C173.453 322.058 174.461 322.735 175.023 323.657C178.386 329.077 181.932 334.279 186.775 338.572C190.022 341.494 192.364 345.494 195.775 348.161C202.232 353.246 209.196 357.695 215.922 362.458C216.366 362.776 216.757 362.969 217.129 363.048C217.891 363.212 218.56 362.88 219.379 362.068C224.397 357.119 230.294 354.467 237.541 355.064C238.091 355.111 238.648 355.192 239.206 355.312C246.58 356.891 254.717 364.705 255.653 371.863C255.835 373.251 255.522 374.712 255.443 376.413C258.637 377.097 261.921 377.962 265.257 378.676C267.344 379.123 269.459 379.51 271.58 379.755C280.597 380.818 289.669 381.626 298.75 381.791C303.93 381.894 309.22 380.858 314.335 379.732C320.868 378.259 327.294 376.284 333.73 374.378C341.012 372.173 347.093 367.822 352.622 363.543C347.725 356.556 342.884 349.619 338.087 342.739C334.851 344.334 331.512 346.121 328.036 347.636C319.608 351.337 310.707 351.633 301.75 350.712C297.45 350.27 293.207 349.627 289.037 348.734C279.966 346.792 271.243 343.666 263.047 338.854C256.049 334.744 250.575 328.92 244.652 323.56C234.013 313.929 225.912 302.293 218.041 290.468C217.257 289.275 216.675 287.935 216 286.699ZM238.138 358.705C231.527 357.289 226.049 360.022 221.462 364.93C221.414 365.29 221.351 365.671 221.276 366.02L221.272 366.019C231.286 369.341 241.301 372.663 251.937 376.204C252.017 374.194 252.406 372.905 252.093 371.818C250.136 365.242 245.721 360.751 239.189 358.963C238.835 358.864 238.488 358.78 238.138 358.705ZM171.876 327.317C171.754 327.291 171.635 327.27 171.514 327.258C159.036 325.911 146.544 324.607 134.048 323.345C132.623 323.192 131.186 323.103 129.776 322.972C129.579 337.924 129.382 352.653 129.177 367.533C129.825 367.586 130.437 367.675 131.018 367.799C136.123 368.892 138.871 372.704 140.978 377.74C145.047 387.597 142.098 395.362 134.845 402.619C134.023 403.421 132.91 404.141 131.813 404.386C131.553 404.449 131.278 404.427 130.987 404.365C130.366 404.232 129.692 403.898 129.058 403.734C129.385 402.935 129.563 401.996 130.079 401.337C132.428 398.366 135.043 395.594 137.249 392.52C141.235 386.999 136.959 372.745 130.143 371.157L128.373 370.778C128.212 381.794 128.053 392.777 127.889 403.721C127.648 422.423 127.399 440.986 127.129 459.407C130.285 460.714 133.125 462.39 136.202 463.049C136.274 463.065 136.347 463.08 136.415 463.095C141.043 464.086 145.83 464.451 150.565 465.057C153.595 465.421 156.652 465.687 159.665 466.133C161.352 466.385 162.12 465.947 162.436 464.182C164.961 449.951 167.481 435.719 170.133 421.516C172.292 409.898 174.767 398.338 176.845 386.703C179.406 372.304 181.73 357.879 183.969 343.454C184.168 342.148 183.095 340.442 182.207 339.203C179.599 335.536 176.852 331.985 174.035 328.496C173.556 327.919 172.684 327.49 171.876 327.317ZM157.447 469.355C152.638 468.871 147.903 468.621 143.24 467.86C141.915 467.643 140.598 467.385 139.282 467.103C135.97 466.393 132.679 465.537 129.357 464.825C128.001 464.554 126.522 464.171 125.213 464.455C117.452 466.192 109.716 468.1 101.964 469.947C101.978 470.102 101.98 470.25 101.975 470.405C119.714 473.293 137.464 476.15 155.366 479.072L157.447 469.355ZM172.05 57.679C175.181 58.3496 177.968 59.5398 179.917 60.9872C185.738 65.3001 190.301 70.3879 192.056 77.7508C193.609 84.3064 197.773 89.152 203.328 92.9569C206.842 95.3378 210.284 97.8596 213.45 100.65C218.533 105.151 221.149 110.823 221.057 117.767C220.954 123.992 217.94 128.757 214.207 133.293C212.407 135.495 212.256 137.617 213.364 140.356C215.795 146.402 218.362 152.5 219.797 158.812C221.955 168.326 215.513 176.473 205.841 177.558C203.974 177.747 202.116 177.89 200.257 178.038C196.323 178.325 196.304 178.302 195.843 182.271C195.201 187.754 191.035 190.763 186.284 189.746C185.368 189.549 184.426 189.205 183.486 188.696C182.099 187.948 180.786 187.097 179.491 186.321C180.383 192.104 181.317 197.719 182.092 203.344C182.261 204.681 181.89 206.106 181.782 207.63C183.174 209.149 184.891 210.907 186.486 212.791C187.041 213.456 187.411 214.342 187.704 215.212C191.059 225.367 193.739 235.794 197.883 245.629C203.728 259.559 210.676 273.037 219.176 285.652C227.595 298.134 235.954 310.628 247.247 320.86C253.043 326.107 258.425 331.759 265.268 335.774C273.032 340.318 281.291 343.24 289.885 345.081C293.466 345.847 297.105 346.427 300.791 346.856C309.917 347.923 319.015 347.764 327.57 343.805C331.046 342.176 334.179 339.738 337.664 338.087C342.334 335.893 347.17 334.033 351.986 332.15C354.114 331.324 355.737 331.012 357.09 331.302C358.868 331.683 360.178 333.102 361.549 335.764C363.778 340.072 365.795 344.463 367.961 348.8C372.223 357.331 376.491 365.835 380.769 374.318C381.299 375.39 381.757 376.508 382.028 377.658C382.554 379.793 383.379 382.234 381.063 383.717C380.213 384.252 379.408 384.355 378.664 384.195C377.416 383.928 376.324 382.935 375.42 382.01C371.284 377.768 367.308 373.352 363.319 368.952C360.733 366.092 358.245 363.167 355.782 360.351C355.325 361.891 355.149 363.22 354.55 364.288C351.096 370.27 345.538 373.973 339.361 376.115C329.441 379.559 319.222 382.178 309.08 384.948C306.585 385.629 303.856 385.875 301.241 385.785C293.7 385.565 286.132 385.335 278.629 384.625C272.205 384.014 265.872 382.961 259.601 381.618C250.838 379.742 242.198 377.293 233.622 374.659C217.702 369.793 204.412 360.334 191.631 350.117C190.131 348.898 188.779 347.498 187.017 345.863C186.829 347.341 186.686 348.317 186.564 349.288C186.012 354.106 185.717 358.965 184.846 363.72C179.573 392.936 174.209 422.137 168.768 451.322C167.808 456.513 166.709 461.67 165.477 466.803C165.25 467.756 164.067 469.221 163.396 469.186C160.753 469.052 160.227 470.487 160.062 472.588C159.982 473.762 159.732 474.928 159.651 476.107C159.254 482.658 157.766 483.801 151.27 482.557C150.727 482.455 150.187 482.339 149.647 482.224C149.102 482.107 148.562 481.992 148.02 481.885C142.172 480.851 136.315 479.767 130.43 478.816C119.687 477.056 108.943 475.41 98.2055 473.671C97.9203 473.629 97.6315 473.581 97.3456 473.52C96.5243 473.344 95.7233 473.073 95.077 472.612C94.1849 472.012 92.9972 470.865 93.08 470.057C93.1664 469.055 94.2552 467.827 95.2275 467.342C96.5446 466.665 98.1775 466.663 99.6713 466.314C107.513 464.51 115.373 462.666 123.064 460.881C123.422 447.838 123.882 435.116 124.059 422.385C124.253 410.418 123.965 398.438 124.223 386.46C124.533 372.619 125.363 358.789 125.699 344.939C125.889 336.626 125.277 328.288 125.534 319.994C125.843 309.309 126.691 298.654 127.252 288.009C127.954 274.84 128.234 261.652 131.807 248.818C131.891 248.537 131.773 248.18 131.721 247.603C126.811 246.552 121.867 245.659 116.975 244.612C113.726 243.916 110.497 243.148 107.316 242.225C99.8399 240.059 92.3076 237.535 85.4789 233.875C77.75 229.742 70.2252 225.254 63.2308 219.84C64.2569 219.082 65.2148 218.243 66.0956 217.32C66.5297 217.665 66.9349 217.989 67.3625 218.342C70.9101 221.19 75.1077 223.219 78.8802 225.792C91.4684 234.317 105.515 238.645 119.982 241.743C123.707 242.541 127.465 243.255 131.228 243.943C131.959 244.075 132.992 244.04 133.499 243.598C134.56 242.743 135.146 242.29 135.546 242.375C135.995 242.472 136.207 243.253 136.592 244.911C140.158 245.328 143.51 245.942 146.884 246.118C158.094 246.692 168.518 244.158 177.546 237.301C183.807 232.552 186.497 223.336 184.024 215.909C182.872 212.535 180.406 210.132 176.914 209.194C176.076 208.967 175.235 208.768 174.396 208.588C166.736 206.948 158.917 207.048 151.099 207.121C143.703 207.175 136.299 207.113 128.996 206.109C129.623 204.956 129.959 203.676 129.918 202.447C130.465 202.507 131.008 202.586 131.568 202.63L132.418 198.658C131.783 198.323 131.146 197.997 130.5 197.664C131.116 196.917 131.572 196.052 131.838 195.117C132.015 195.221 132.199 195.317 132.373 195.411L135.508 180.77C130.91 178.48 126.701 176.487 122.62 174.308C118.509 172.098 114.198 170.069 110.482 167.294C100.596 159.937 98.0193 152.156 101.763 141.584C102.769 138.705 103.696 135.814 104.642 132.992C97.3643 127.062 95.0936 121.397 98.664 116.115C102.365 110.642 107.494 106.657 114.469 108.15C115.585 108.389 116.747 108.771 117.957 109.305C119.553 106.947 121.094 104.514 122.799 102.226C123.314 101.553 124.369 101.323 125.178 100.889C125.224 101.805 125.577 102.863 125.267 103.623C124.494 105.503 123.576 107.352 122.454 109.049C121.21 110.89 120.997 112.282 122.795 114.039C125.981 117.157 127.424 121.078 127.036 125.129C130.559 127.251 133.876 129.247 137.267 131.298C138.379 130.273 139.511 129.13 140.755 128.11C143.783 125.625 148.98 124.712 153.128 125.6C155.12 126.027 156.867 126.866 158.016 128.151C160.525 130.953 162.524 134.338 164.093 137.76C164.916 139.502 164.753 141.993 164.271 143.959C164.164 144.325 164.066 144.693 163.944 145.061C162.011 150.433 155.999 153.821 149.146 153.512C147.858 153.454 146.634 153.297 145.486 153.051C138.171 151.484 133.844 146.224 134.155 138.81C134.212 137.322 134.737 135.868 135.08 134.266C131.926 132.437 128.896 130.654 125.819 128.865C122.057 134.8 117.283 137.503 110.907 136.138C109.936 135.93 108.928 135.629 107.879 135.228C106.751 138.993 105.681 142.547 104.662 146.112C103.302 150.823 104.289 155.169 107.552 158.702C109.934 161.3 112.547 163.925 115.559 165.614C122.584 169.577 129.902 172.995 137.081 176.659C137.939 177.104 139.133 177.735 139.301 178.483C139.69 180.166 139.754 181.907 139.488 183.616C138.673 188.729 137.645 193.821 136.726 198.931C136.491 200.228 136.301 201.536 136.027 203.305C143.404 203.384 150.454 203.285 157.461 203.566C164.521 203.839 171.561 204.473 178.717 204.985C178.624 204.4 178.571 203.739 178.428 203.077C176.659 194.89 174.847 186.665 173.065 178.451C172.386 175.302 172.623 174.617 175.635 173.762C183.719 171.468 187.104 165.077 189.253 157.9C190.286 154.405 189.769 152.5 187.781 152.074C186.728 151.849 185.265 152.034 183.402 152.622C181.075 153.339 178.802 154.29 176.461 155.071C174.796 155.625 173.312 155.749 172.064 155.482C169.323 154.895 167.749 152.426 168.02 148.568C168.067 147.729 168.226 146.899 168.487 146.1C168.596 145.768 168.735 145.451 168.881 145.145C170.61 141.638 172.383 138.144 174.341 134.78C176.503 131.09 176.406 129.085 173.539 125.714C170.882 122.586 167.556 121.053 163.849 120.259C162.664 120.005 161.444 119.829 160.191 119.698C155.637 119.222 151.078 118.573 146.604 117.614C139.933 116.162 134.423 113.24 132.179 105.939C131.162 102.669 128.913 100.36 125.563 99.4904C125.296 99.4094 125.026 99.3374 124.754 99.2791C124.423 99.2082 124.083 99.1544 123.744 99.1197C123.107 99.0593 122.466 98.9504 121.835 98.8153C120.968 98.6297 120.108 98.3932 119.252 98.1577C112.979 96.4678 107.033 86.9542 109.04 80.8148C110.834 75.2751 114.616 70.7545 120.692 69.7964C125.581 69.016 130.655 69.2768 135.653 69.4073C140.958 69.5229 145.793 68.6643 149.771 64.822C151.06 63.5932 152.593 62.6399 153.907 61.4451C158.806 57.0263 166.046 56.3933 172.05 57.679Z" fill="black"/>
<path fill-rule="evenodd" clip-rule="evenodd" d="M81.0219 195.085C80.6634 195.008 79.636 195.595 79.3509 196.084C78.5531 197.461 78.0111 198.973 77.1294 200.963C77.549 201.641 78.0745 202.556 78.6172 203.479C79.5046 202.881 80.7909 202.459 81.1862 201.632C81.855 200.238 82.1166 198.594 82.2383 197.007C82.2903 196.386 81.6471 195.489 81.0789 195.106C81.0617 195.098 81.0446 195.09 81.0219 195.085ZM149.571 212.532C149.516 212.521 149.478 212.522 149.461 212.537C148.738 213.275 148.138 214.148 147.462 214.976L147.458 214.975C147.635 216.584 147.696 218.031 148.013 219.409C148.189 220.182 148.506 220.587 148.905 220.673C149.323 220.762 149.824 220.504 150.351 219.948C151.498 218.76 151.699 214.497 150.652 213.181C150.421 212.904 149.825 212.587 149.571 212.532ZM97.0275 203.363C96.8959 203.335 96.7912 203.337 96.7351 203.377C95.8669 203.974 95.2078 204.925 94.6672 205.521C94.6925 207.354 94.5977 208.705 94.771 210.024L94.7665 210.023C94.8453 210.586 95.4461 211.327 95.9329 211.469C95.941 211.475 95.9501 211.477 95.9591 211.479C96.4719 211.589 97.5369 211.115 97.588 210.765C98.0295 208.614 98.3202 206.436 98.4664 204.246C98.4757 204.025 97.5494 203.475 97.0275 203.363ZM113.76 206.653C113.265 206.547 112.669 206.761 112.175 207.338C111.512 208.127 111.167 209.23 110.631 210.292C110.76 211.73 110.705 213.204 111.092 214.545C111.257 215.192 112.209 215.847 112.894 215.994C113.293 216.06 114.25 215.135 114.326 214.582C114.617 212.404 114.849 210.189 114.731 208.014C114.692 207.241 114.286 206.765 113.76 206.653ZM131.808 211.111C131.104 210.96 130.545 211.557 130.141 212.468C129.296 214.375 130.06 218.431 131.66 220.492C134.047 218.805 134.68 213.786 132.832 211.781C132.46 211.388 132.121 211.178 131.808 211.111ZM162.534 219.97C161.625 220.758 160.722 221.542 159.817 222.307L159.813 222.306C160.059 225.724 160.16 228.708 160.561 231.623C160.656 232.402 161.669 233.056 162.274 233.774C163.038 233.069 164.184 232.46 164.438 231.603C164.828 230.381 164.613 228.945 164.558 227.585C164.494 226.066 164.473 224.5 164.137 223.033C163.87 221.955 163.1 220.983 162.534 219.97ZM85.3631 211.916C84.873 211.811 84.2436 211.847 83.9691 212.087C82.2707 213.636 80.6856 215.343 79.0368 217.059C79.4586 218.236 79.5311 219.339 80.0316 219.617C80.1969 219.709 80.4099 219.779 80.6413 219.828C81.3628 219.983 82.2655 219.934 82.5383 219.613C84.0089 217.82 85.2393 215.819 86.4152 213.807C86.6232 213.434 86.2597 212.383 85.8422 212.094C85.7213 212.016 85.5537 211.956 85.3631 211.916ZM141.84 226.455C141.712 226.428 141.604 226.424 141.539 226.462C140.648 226.988 140.02 227.969 139.484 228.566C139.519 230.619 139.411 232.144 139.659 233.625C139.767 234.275 140.498 235.272 140.997 235.379C141.02 235.384 141.043 235.384 141.067 235.384C141.823 235.399 143.167 234.728 143.255 234.206C143.547 232.004 143.606 229.776 143.438 227.566C143.425 227.208 142.407 226.577 141.84 226.455ZM104.05 217.669C103.041 218.236 101.658 218.576 101.087 219.427C100.131 220.855 99.4759 222.585 99.0879 224.287C98.9014 225.158 99.6075 226.249 99.8964 227.227C100.806 226.833 102.076 226.688 102.554 225.988C103.595 224.492 104.232 222.735 105.253 220.585C104.915 219.724 104.479 218.701 104.05 217.669ZM120.996 221.797C120.384 221.665 119.122 222.15 118.954 222.646C118.017 225.317 117.247 228.047 116.641 230.813C116.53 231.33 117.35 232.465 117.946 232.63C117.968 232.64 117.986 232.644 118.009 232.648C118.644 232.785 119.771 232.376 120.087 231.874C120.916 230.442 121.435 228.835 121.88 227.753C122.078 226.034 122.395 224.864 122.291 223.707C122.219 223.022 121.613 221.995 121.045 221.812C121.027 221.808 121.014 221.801 120.996 221.797ZM174.396 208.588C175.236 208.768 176.076 208.967 176.915 209.194C180.406 210.132 182.872 212.535 184.024 215.909C186.497 223.336 183.807 232.552 177.546 237.301C168.518 244.158 158.095 246.692 146.884 246.118C143.501 245.94 140.158 245.328 136.593 244.911C136.207 243.253 135.995 242.472 135.546 242.375C135.146 242.29 134.56 242.743 133.499 243.599C132.992 244.04 131.959 244.076 131.228 243.943C127.465 243.256 123.707 242.541 119.982 241.743C105.515 238.645 91.4685 234.317 78.8803 225.792C75.1078 223.219 70.9102 221.19 67.3626 218.342C66.935 217.989 66.5298 217.665 66.1022 217.312C66.5199 216.913 66.9124 216.499 67.287 216.057C69.9725 213.067 72.3387 209.33 74.4493 205.169C74.7102 204.66 74.9723 204.123 75.2189 203.592C76.1715 201.603 77.0709 199.507 77.9191 197.363C78.3283 196.383 78.6961 195.375 79.0683 194.367C79.1541 194.144 79.2484 193.903 79.3197 193.681C79.7412 192.532 80.1449 191.356 80.544 190.179L80.5624 190.093C80.6247 189.935 80.6778 189.775 80.7374 189.608C92.9427 195.687 105.828 200.231 118.973 204.048C120.457 204.475 121.939 204.844 123.432 205.164C132.522 207.111 141.816 207.188 151.1 207.121C158.917 207.048 166.736 206.948 174.396 208.588Z" fill="#FEB8B3"/>
<path fill-rule="evenodd" clip-rule="evenodd" d="M75.2168 203.6C74.9693 204.136 74.7091 204.664 74.4482 205.173C74.7091 204.664 74.9712 204.127 75.2168 203.6Z" fill="#F46C8A"/>
<path fill-rule="evenodd" clip-rule="evenodd" d="M79.0662 194.376C78.6949 195.379 78.3271 196.387 77.918 197.368C78.309 196.383 78.6949 195.379 79.0662 194.376Z" fill="#F46C8A"/>
<path fill-rule="evenodd" clip-rule="evenodd" d="M80.543 190.183C80.1438 191.36 79.7402 192.537 79.3187 193.685C79.7402 192.537 80.1438 191.36 80.543 190.183Z" fill="#F46C8A"/>
<path fill-rule="evenodd" clip-rule="evenodd" d="M81.0261 195.086C81.0488 195.09 81.066 195.099 81.0832 195.107C81.6514 195.49 82.2901 196.386 82.238 197.006C82.1164 198.594 81.8548 200.238 81.186 201.632C80.7897 202.463 79.5034 202.886 78.617 203.479C78.0742 202.556 77.5496 201.637 77.1292 200.963C78.0108 198.973 78.5529 197.461 79.3506 196.084C79.6403 195.596 80.6631 195.008 81.0261 195.086Z" fill="#2F3656"/>
<path fill-rule="evenodd" clip-rule="evenodd" d="M80.7351 189.617C80.6775 189.775 80.6233 189.939 80.5611 190.097C80.6233 189.939 80.6719 189.779 80.7124 189.612L80.7351 189.617Z" fill="#F46C8A"/>
<path fill-rule="evenodd" clip-rule="evenodd" d="M84.0088 178.893C83.3602 181.213 82.6654 183.527 81.9494 185.852L81.9313 185.848C82.6654 183.527 83.3651 181.19 84.0088 178.893Z" fill="#F46C8A"/>
<path fill-rule="evenodd" clip-rule="evenodd" d="M85.3592 211.91C85.5497 211.951 85.7209 212.016 85.8418 212.094C86.2603 212.378 86.6183 213.433 86.4102 213.806C85.2389 215.819 84.0095 217.815 82.5379 219.612C82.2651 219.934 81.3624 219.982 80.6409 219.828C80.4095 219.778 80.1965 219.709 80.0312 219.617C79.5262 219.338 79.4582 218.236 79.0319 217.058C80.6852 215.342 82.2703 213.636 83.9687 212.087C84.2432 211.847 84.8691 211.805 85.3592 211.91Z" fill="#2F3656"/>
<path fill-rule="evenodd" clip-rule="evenodd" d="M170.235 61.1447C171.338 61.3808 172.443 61.7172 173.544 62.138C180.763 64.9041 185.966 70.0624 188.054 77.8004C190.194 85.6966 194.646 91.8097 201.483 96.3403C204.642 98.455 207.685 100.801 210.631 103.222C218.423 109.675 219.438 120.985 213.304 128.31C212.086 129.725 210.994 131.276 209.99 132.841C208.52 135.094 208.09 137.527 209.211 140.117C210.698 143.634 212.371 147.102 213.595 150.715C214.76 154.23 215.899 157.844 216.267 161.512C216.89 167.735 212.353 172.877 206.121 173.745C204.355 173.969 202.582 174.117 200.796 174.233C193.752 174.703 193.387 175.014 192.071 181.871C191.475 185.052 189.75 186.525 187.327 186.006C186.628 185.856 185.866 185.536 185.06 185.045C182.878 183.733 180.841 182.186 178.849 180.63C177.916 179.908 177.201 178.858 176.125 177.678C186.494 173.87 193.36 164.765 193.564 155.363C193.584 154.608 193.533 153.847 193.419 153.096C192.921 150.564 191.422 148.876 189.085 148.376C188.736 148.301 188.366 148.255 187.981 148.234C184.149 148.045 180.08 147.126 177.193 150.879C177.074 151.011 176.916 151.129 176.763 151.158C175.48 151.362 174.171 151.561 172.893 151.743C172.684 150.393 172.428 149.038 172.323 147.686C172.294 147.224 172.623 146.706 172.872 146.256C174.713 142.82 176.503 139.359 178.463 135.991C179.828 133.672 180.892 132.049 179.378 128.768C176.148 121.711 171.179 117.874 164.245 116.39C163.383 116.205 162.489 116.056 161.569 115.945C156.52 115.343 151.494 114.413 146.506 113.435C146.425 113.418 146.343 113.401 146.261 113.383C141.415 112.345 138.026 109.754 136.271 104.65C134.647 99.9311 131.416 96.5145 126.374 95.4348C125.916 95.3367 125.444 95.2593 124.958 95.2026C124.389 95.133 123.822 95.0306 123.255 94.9092C122.407 94.7274 121.568 94.5003 120.743 94.2716C116.394 93.0411 112.385 86.7855 113.06 82.3212C113.525 79.1313 118.13 74.0702 121.56 73.6088C125.326 73.0863 129.211 72.722 132.978 73.016C141.093 73.6385 148.372 72.2214 154.248 66.1225C154.758 65.5814 155.45 65.1884 156.032 64.7056C160.38 61.023 165.275 60.0824 170.235 61.1447Z" fill="#A6DFDA"/>
<path fill-rule="evenodd" clip-rule="evenodd" d="M98.3799 182.526C98.4526 182.541 98.5151 182.56 98.5766 182.582C98.9815 182.731 99.3217 183.89 99.1915 184.499C98.9156 185.788 98.5453 187.185 97.7822 188.222C97.1425 189.082 95.9021 189.466 94.9244 190.088C94.5541 189.069 94.2006 188.082 93.8478 187.18C94.8209 185.495 95.4226 184.081 96.3673 182.949C96.7124 182.534 97.7265 182.386 98.3799 182.526Z" fill="#2F3656"/>
<path fill-rule="evenodd" clip-rule="evenodd" d="M97.0275 203.363C97.5494 203.475 98.4803 204.026 98.4664 204.246C98.3257 206.432 98.0305 208.61 97.589 210.76C97.5378 211.11 96.4628 211.587 95.9591 211.479C95.9546 211.478 95.9456 211.476 95.942 211.471C95.4461 211.327 94.8453 210.586 94.7665 210.023C94.5977 208.705 94.688 207.353 94.6673 205.521C95.2078 204.925 95.8679 203.969 96.7351 203.377C96.7912 203.336 96.9004 203.336 97.0275 203.363Z" fill="#2F3656"/>
<path fill-rule="evenodd" clip-rule="evenodd" d="M118.449 120.371C118.549 120.392 118.653 120.419 118.75 120.454C120.448 121.055 120.731 122.972 119.608 125.798C119.006 127.302 118.362 128.892 116.497 128.492C116.352 128.461 116.195 128.418 116.032 128.359C113.952 127.634 114.018 125.906 114.424 124.408C115.139 121.537 116.77 120.011 118.449 120.371Z" fill="black"/>
<path fill-rule="evenodd" clip-rule="evenodd" d="M126.216 135.187C126.902 135.334 127.671 135.821 128.376 136.072C127.662 136.66 127.026 137.482 126.194 137.822C123.97 138.741 121.665 139.443 119.007 140.398C120.087 141.958 120.936 142.985 121.557 144.138C121.84 144.636 121.897 145.588 121.596 145.974C121.346 146.343 120.385 146.641 120 146.558C119.945 146.546 119.902 146.527 119.874 146.503C118.441 145.08 116.754 143.698 115.939 141.938C115.07 140.077 116.139 138.146 118.084 137.371C120.484 136.428 123.034 135.711 125.59 135.167C125.788 135.129 125.999 135.141 126.216 135.187Z" fill="black"/>
<path fill-rule="evenodd" clip-rule="evenodd" d="M104.049 217.669C104.483 218.702 104.914 219.729 105.252 220.585C104.228 222.734 103.59 224.491 102.549 225.986C102.076 226.687 100.806 226.833 99.8962 227.227C99.6072 226.249 98.9011 225.158 99.0876 224.286C99.4757 222.585 100.131 220.855 101.087 219.427C101.659 218.571 103.041 218.236 104.049 217.669Z" fill="#2F3656"/>
<path fill-rule="evenodd" clip-rule="evenodd" d="M122.299 153.354C121.458 153.933 120.304 154.336 119.853 155.137C119.277 156.21 119.156 157.594 119.056 158.858C119.034 159.139 119.785 159.774 120.144 159.851C120.189 159.861 120.228 159.859 120.258 159.852C120.99 159.577 121.919 159.097 122.165 158.456C122.718 157.094 122.87 155.584 123.182 154.127L122.299 153.354ZM122.112 149.882C123.165 150.107 124.114 150.705 124.61 151.604C125.911 153.885 126.827 156.279 125.932 159.064C124.881 162.266 122.069 164.269 119.142 163.643C119.092 163.632 119.047 163.622 118.997 163.611C116.056 162.896 114.262 159.702 114.479 156.051C115.824 154.246 116.968 152.25 118.576 150.748C119.515 149.867 120.882 149.619 122.112 149.882Z" fill="black"/>
<path fill-rule="evenodd" clip-rule="evenodd" d="M113.759 206.653C114.286 206.765 114.697 207.238 114.731 208.009C114.853 210.19 114.622 212.4 114.326 214.582C114.254 215.136 113.293 216.06 112.894 215.994C112.209 215.847 111.258 215.188 111.098 214.541C110.706 213.199 110.76 211.73 110.632 210.288C111.163 209.225 111.508 208.126 112.176 207.334C112.669 206.756 113.265 206.547 113.759 206.653Z" fill="#2F3656"/>
<path fill-rule="evenodd" clip-rule="evenodd" d="M120.996 221.797C121.014 221.801 121.027 221.808 121.045 221.812C121.617 222.001 122.219 223.022 122.291 223.707C122.39 224.862 122.077 226.034 121.88 227.753C121.435 228.835 120.915 230.442 120.086 231.878C119.766 232.375 118.629 232.786 118.003 232.652C117.98 232.647 117.962 232.643 117.945 232.635C117.35 232.465 116.53 231.33 116.641 230.813C117.247 228.047 118.017 225.317 118.948 222.649C119.122 222.15 120.383 221.665 120.996 221.797Z" fill="black"/>
<path fill-rule="evenodd" clip-rule="evenodd" d="M131.807 211.111C132.121 211.178 132.46 211.388 132.831 211.781C134.68 213.786 134.047 218.805 131.659 220.492C130.055 218.43 129.296 214.375 130.141 212.467C130.544 211.557 131.104 210.96 131.807 211.111Z" fill="black"/>
<path fill-rule="evenodd" clip-rule="evenodd" d="M151.91 136.389C153.602 136.752 154.414 138.482 153.889 140.62C153.295 143.217 151.415 144.794 149.437 144.37C149.396 144.362 149.355 144.353 149.31 144.343C147.413 143.871 146.053 141.576 146.462 139.556C146.899 137.428 149.464 135.908 151.842 136.375C151.864 136.38 151.887 136.385 151.91 136.389Z" fill="black"/>
<path fill-rule="evenodd" clip-rule="evenodd" d="M156.639 160.03C160.356 160.825 162.132 163.722 161.307 167.579C160.375 171.932 157.639 173.824 153.524 172.942C153.487 172.935 153.456 172.928 153.419 172.92C149.449 172.046 146.467 167.995 147.285 164.577C148.123 161.058 152.116 159.08 156.549 160.01C156.58 160.017 156.608 160.023 156.639 160.03Z" fill="#FEB8B3"/>
<path fill-rule="evenodd" clip-rule="evenodd" d="M183.683 247.316C182.871 247.142 181.994 247.913 181.848 249.13L181.843 249.129C181.571 251.24 184.659 255.794 186.727 256.331C186.759 256.338 186.794 256.351 186.826 256.357C188.305 256.674 189.506 255.612 188.814 254.277C187.572 251.984 186.105 249.814 184.436 247.814C184.211 247.533 183.951 247.373 183.683 247.316ZM172.354 250.334C172.087 250.277 171.836 250.271 171.687 250.348C171.153 250.623 170.481 251.547 170.569 252.021L170.57 252.017C171.183 254.92 171.95 257.785 172.865 260.606C173.015 261.061 173.8 261.537 174.435 261.673C174.585 261.705 174.725 261.716 174.846 261.704C175.472 261.663 176.009 260.752 176.952 259.915C175.761 256.831 174.662 253.833 173.395 250.904C173.285 250.666 172.799 250.429 172.354 250.334ZM155.586 252.51C154.836 253.176 154.064 253.813 153.39 254.546C153.115 254.834 153.072 255.323 152.786 256.149C152.833 257.147 152.662 258.634 153.075 259.961C153.271 260.597 154.236 261.387 154.958 261.542C155.049 261.561 155.137 261.57 155.218 261.569C155.875 261.539 156.836 260.396 156.983 259.621C157.273 258.155 157.239 256.586 156.992 255.099C156.835 254.192 156.075 253.375 155.586 252.51ZM191.55 263.198C191.323 263.149 191.107 263.141 190.933 263.175C190.394 263.278 189.985 263.969 189.167 264.752L189.163 264.747C190.308 267.427 191.374 270.071 192.639 272.611C192.746 272.843 193.173 273.039 193.609 273.132C193.999 273.216 194.397 273.22 194.598 273.102C195.169 272.764 195.804 271.637 195.63 271.12C194.795 268.635 193.747 266.213 192.646 263.841C192.5 263.549 192.013 263.297 191.55 263.198ZM178.219 265.26C178.146 265.245 178.077 265.235 178.012 265.23C177.471 265.205 176.872 266.187 176.194 266.802C176.555 269.575 176.733 272.2 177.354 274.73C177.533 275.49 178.864 275.988 179.669 276.597C180.255 275.788 181.372 274.916 181.3 274.142C181.119 271.62 180.62 269.097 179.989 266.655C179.839 266.073 178.913 265.409 178.219 265.26ZM202.942 274.87C202.829 274.846 202.722 274.837 202.633 274.851C202.179 274.953 201.833 275.752 201.12 276.644C202.168 278.886 203.115 281.158 204.284 283.321C204.434 283.596 204.884 283.711 205.361 283.813C205.447 283.832 205.542 283.852 205.633 283.871C205.837 283.915 206.041 283.959 206.222 284.021C206.406 283.344 206.925 282.558 206.759 282.024C206.008 279.879 205.143 277.781 204.164 275.725C204.001 275.358 203.405 274.969 202.942 274.87ZM162.556 265.665C161.896 266.331 161.209 266.991 160.627 267.692C160.425 267.929 160.463 268.35 160.391 268.686C160.309 268.668 160.22 268.663 160.132 268.673L160.13 268.663C160.222 270.691 160.041 272.759 160.496 274.689C160.708 275.651 162.011 276.366 162.831 277.192C163.508 276.269 164.684 275.368 164.739 274.378C164.875 272.233 164.613 269.998 164.206 267.846C164.066 267.057 163.121 266.394 162.556 265.665ZM146.592 264.354C145.855 265.046 145.055 265.724 144.373 266.471C144.121 266.763 144.117 267.266 143.926 267.96C143.881 269.19 143.538 270.792 143.865 272.214C144.104 273.334 145.031 274.88 145.943 275.099C145.97 275.105 146.002 275.112 146.029 275.118C147.613 275.457 148.175 273.892 148.241 272.478C148.338 270.628 148.395 268.723 148.133 266.91C148.017 266.007 147.129 265.191 146.592 264.354ZM194.314 280.593C193.86 280.496 192.383 280.763 192.104 281.202C191.285 282.479 193.905 287.203 196.043 287.699L196.04 287.693C196.332 287.258 197.242 286.446 197.093 286.03C196.394 284.152 195.508 282.353 194.437 280.657C194.419 280.63 194.377 280.606 194.314 280.593ZM172.589 282.709C172.508 282.692 172.424 282.683 172.351 282.691C171.808 282.703 170.804 283.556 170.843 283.973L170.839 283.967C170.963 285.85 171.307 287.703 171.784 289.529C171.864 289.845 172.472 290.198 172.975 290.306C173.13 290.339 173.275 290.346 173.394 290.324C173.869 290.255 174.233 289.464 174.726 288.891C174.488 287.165 174.39 285.473 173.972 283.879C173.864 283.405 173.143 282.828 172.589 282.709ZM152.465 281.1C152.447 281.096 152.423 281.096 152.405 281.092C151.843 281.057 150.761 281.542 150.766 281.852L150.758 281.845C150.627 284.3 150.633 286.755 150.777 289.207C150.793 289.466 151.513 289.915 152.03 290.026C152.171 290.056 152.298 290.059 152.385 290.03C153.064 289.806 153.592 289.069 154.152 288.581C153.922 286.311 153.768 284.279 153.457 282.276C153.382 281.847 152.837 281.18 152.465 281.1ZM136.873 278.938C136.451 278.848 135.98 278.828 135.803 278.97C135.161 279.53 134.847 280.484 134.271 281.447C134.589 282.821 134.781 284.253 135.311 285.543C135.527 286.064 136.297 286.704 136.828 286.817C136.932 286.84 137.027 286.841 137.103 286.819C137.719 286.69 138.527 285.643 138.506 285.031C138.44 283.1 138.092 281.179 137.667 279.308C137.629 279.171 137.272 279.024 136.873 278.938ZM187.917 227.276C193.667 247.347 202.824 265.759 213.525 283.739C208.073 285.244 202.82 287.123 197.428 288.1C188.44 289.763 179.316 290.814 170.254 292.201C157.766 294.159 145.351 293.005 132.97 291.203C132.708 291.166 132.454 291.131 132.223 291.081C131.442 290.914 130.891 290.563 130.965 289.288C131.719 277.008 131.84 264.65 134.282 252.533C134.556 251.163 134.996 249.819 135.367 248.484C139.341 248.922 142.96 249.393 146.608 249.738C157.13 250.776 166.826 247.65 175.953 242.926C182.116 239.742 185.952 234.212 187.917 227.276Z" fill="#FEB8B3"/>
<path fill-rule="evenodd" clip-rule="evenodd" d="M141.839 226.455C142.407 226.576 143.425 227.207 143.438 227.566C143.606 229.776 143.546 232.004 143.255 234.206C143.167 234.728 141.823 235.399 141.067 235.384C141.043 235.384 141.02 235.383 140.997 235.379C140.498 235.272 139.768 234.27 139.659 233.625C139.411 232.144 139.519 230.619 139.484 228.566C140.021 227.964 140.648 226.988 141.539 226.462C141.604 226.424 141.712 226.428 141.839 226.455Z" fill="black"/>
<path fill-rule="evenodd" clip-rule="evenodd" d="M149.57 212.532C149.825 212.587 150.426 212.905 150.652 213.177C151.694 214.496 151.498 218.76 150.351 219.948C149.824 220.504 149.318 220.761 148.905 220.673C148.506 220.587 148.189 220.182 148.013 219.409C147.696 218.031 147.631 216.583 147.458 214.975C148.139 214.143 148.738 213.275 149.46 212.537C149.478 212.522 149.516 212.521 149.57 212.532Z" fill="black"/>
<path fill-rule="evenodd" clip-rule="evenodd" d="M136.886 278.941C137.281 279.026 137.635 279.168 137.668 279.303C138.096 281.18 138.44 283.1 138.506 285.031C138.527 285.643 137.714 286.689 137.103 286.819C137.027 286.841 136.932 286.84 136.828 286.817C136.297 286.704 135.528 286.06 135.312 285.539C134.781 284.253 134.59 282.816 134.271 281.447C134.847 280.484 135.162 279.526 135.803 278.97C135.98 278.828 136.46 278.85 136.886 278.941Z" fill="black"/>
<path fill-rule="evenodd" clip-rule="evenodd" d="M216 286.699C216.675 287.935 217.256 289.275 218.04 290.468C225.912 302.293 234.013 313.929 244.651 323.56C250.575 328.92 256.049 334.744 263.047 338.854C271.243 343.666 279.965 346.792 289.037 348.734C293.207 349.627 297.45 350.27 301.75 350.712C310.712 351.634 319.608 351.337 328.036 347.636C331.512 346.121 334.851 344.334 338.087 342.74C342.884 349.619 347.725 356.556 352.622 363.543C347.092 367.822 341.012 372.173 333.729 374.378C327.294 376.284 320.868 378.259 314.335 379.732C309.22 380.858 303.93 381.894 298.75 381.791C289.669 381.626 280.597 380.818 271.579 379.755C269.458 379.51 267.344 379.123 265.256 378.676C261.921 377.962 258.637 377.097 255.442 376.413C255.522 374.712 255.835 373.251 255.652 371.864C254.717 364.705 246.58 356.891 239.206 355.312C238.648 355.192 238.091 355.111 237.541 355.065C230.293 354.471 224.397 357.12 219.379 362.068C218.56 362.88 217.89 363.216 217.123 363.052C216.755 362.973 216.366 362.776 215.919 362.467C209.196 357.695 202.232 353.246 195.775 348.161C192.363 345.498 190.022 341.494 186.775 338.572C181.932 334.279 178.386 329.077 175.023 323.657C174.461 322.735 173.453 322.059 172.638 321.276C171.96 322.024 171.279 322.77 170.39 323.752C156.971 322.122 143.272 320.47 129.428 318.81C129.805 310.618 130.169 302.935 130.555 295.034C159.865 300.2 187.786 295.652 216 286.699Z" fill="#A6DFDA"/>
<path fill-rule="evenodd" clip-rule="evenodd" d="M171.876 327.317C172.684 327.49 173.555 327.919 174.035 328.496C176.852 331.985 179.603 335.537 182.207 339.203C183.095 340.442 184.168 342.148 183.969 343.454C181.73 357.879 179.406 372.304 176.845 386.703C174.772 398.339 172.297 409.899 170.133 421.516C167.481 435.719 164.961 449.951 162.436 464.182C162.12 465.947 161.352 466.385 159.669 466.134C156.652 465.687 153.595 465.421 150.565 465.057C145.83 464.451 141.048 464.087 136.415 463.095C136.347 463.08 136.274 463.065 136.202 463.049C133.125 462.39 130.285 460.714 127.129 459.407C127.399 440.986 127.648 422.423 127.888 403.721L129.062 403.735C129.696 403.899 130.37 404.233 130.992 404.366C131.282 404.429 131.558 404.45 131.818 404.387C132.91 404.141 134.027 403.422 134.849 402.62C142.098 395.362 145.051 387.598 140.978 377.74C138.877 372.7 136.123 368.892 131.018 367.799C130.437 367.675 129.825 367.586 129.177 367.533C129.382 352.654 129.579 337.924 129.775 322.976C131.186 323.103 132.623 323.192 134.048 323.345C146.544 324.607 159.036 325.911 171.514 327.259C171.635 327.27 171.754 327.291 171.876 327.317Z" fill="#A6DFDA"/>
<path fill-rule="evenodd" clip-rule="evenodd" d="M146.587 264.353C147.129 265.191 148.017 266.007 148.13 266.9C148.395 268.723 148.334 270.623 148.241 272.478C148.175 273.892 147.613 275.452 146.039 275.115C146.007 275.108 145.975 275.101 145.945 275.09C145.032 274.876 144.101 273.328 143.861 272.209C143.538 270.792 143.881 269.19 143.926 267.96C144.118 267.261 144.116 266.762 144.374 266.466C145.055 265.724 145.85 265.045 146.587 264.353Z" fill="black"/>
<path fill-rule="evenodd" clip-rule="evenodd" d="M162.529 219.969C163.1 220.983 163.869 221.955 164.137 223.033C164.473 224.5 164.489 226.065 164.553 227.584C164.608 228.944 164.823 230.38 164.433 231.602C164.182 232.465 163.037 233.069 162.269 233.773C161.664 233.055 160.655 232.402 160.561 231.623C160.16 228.708 160.058 225.724 159.812 222.306C160.712 221.54 161.622 220.747 162.529 219.969Z" fill="black"/>
<path fill-rule="evenodd" clip-rule="evenodd" d="M155.583 252.505C156.075 253.375 156.832 254.187 156.989 255.094C157.235 256.58 157.268 258.154 156.978 259.62C156.832 260.391 155.871 261.533 155.209 261.567C155.132 261.569 155.044 261.56 154.958 261.542C154.237 261.387 153.267 260.596 153.072 259.956C152.664 258.625 152.835 257.138 152.786 256.149C153.073 255.318 153.111 254.828 153.391 254.542C154.064 253.813 154.833 253.17 155.583 252.505Z" fill="black"/>
<path fill-rule="evenodd" clip-rule="evenodd" d="M152.465 281.1C152.837 281.18 153.382 281.847 153.453 282.271C153.764 284.274 153.922 286.311 154.147 288.581C153.587 289.068 153.06 289.805 152.38 290.03C152.289 290.057 152.166 290.055 152.025 290.025C151.508 289.914 150.788 289.465 150.772 289.206C150.631 286.76 150.627 284.3 150.757 281.85C150.761 281.542 151.843 281.057 152.405 281.092C152.423 281.096 152.447 281.096 152.465 281.1Z" fill="black"/>
<path fill-rule="evenodd" clip-rule="evenodd" d="M162.557 265.661C163.122 266.39 164.067 267.052 164.201 267.845C164.613 269.998 164.876 272.229 164.74 274.373C164.684 275.368 163.509 276.265 162.832 277.188C162.009 276.356 160.705 275.641 160.497 274.685C160.036 272.758 160.218 270.69 160.13 268.663C160.22 268.663 160.309 268.668 160.387 268.68C160.459 268.344 160.42 267.928 160.628 267.688C161.21 266.986 161.897 266.327 162.557 265.661Z" fill="black"/>
<path fill-rule="evenodd" clip-rule="evenodd" d="M172.355 250.33C172.8 250.425 173.285 250.662 173.395 250.904C174.661 253.833 175.761 256.831 176.947 259.914C176.008 260.753 175.467 261.662 174.847 261.7C174.726 261.712 174.581 261.7 174.427 261.667C173.792 261.531 173.011 261.055 172.865 260.606C171.95 257.785 171.182 254.92 170.57 252.017C170.473 251.541 171.15 250.618 171.688 250.343C171.837 250.266 172.087 250.272 172.355 250.33Z" fill="black"/>
<path fill-rule="evenodd" clip-rule="evenodd" d="M172.581 282.703C173.135 282.821 173.864 283.405 173.976 283.879C174.399 285.47 174.492 287.166 174.73 288.892C174.233 289.464 173.873 290.256 173.398 290.325C173.284 290.348 173.139 290.336 172.99 290.304C172.481 290.195 171.869 289.841 171.785 289.524C171.306 287.703 170.963 285.85 170.844 283.968C170.8 283.551 171.808 282.699 172.353 282.682C172.425 282.679 172.504 282.686 172.581 282.703Z" fill="black"/>
<path fill-rule="evenodd" clip-rule="evenodd" d="M178.214 265.259C178.913 265.409 179.839 266.073 179.98 266.653C180.615 269.096 181.12 271.616 181.297 274.136C181.373 274.912 180.252 275.782 179.665 276.592C178.861 275.983 177.53 275.48 177.349 274.729C176.733 272.2 176.555 269.575 176.194 266.802C176.873 266.183 177.472 265.2 178.007 265.229C178.072 265.234 178.141 265.244 178.214 265.259Z" fill="black"/>
<path fill-rule="evenodd" clip-rule="evenodd" d="M183.684 247.312C183.948 247.368 184.207 247.528 184.432 247.809C186.101 249.813 187.569 251.979 188.814 254.277C189.505 255.612 188.311 256.671 186.831 256.354C186.795 256.346 186.76 256.334 186.723 256.326C184.659 255.794 181.571 251.24 181.843 249.129C181.99 247.912 182.868 247.137 183.684 247.312Z" fill="black"/>
<path fill-rule="evenodd" clip-rule="evenodd" d="M191.551 263.193C192.014 263.292 192.501 263.544 192.642 263.835C193.748 266.208 194.791 268.629 195.63 271.116C195.805 271.628 195.169 272.759 194.601 273.088C194.399 273.211 193.996 273.206 193.606 273.122C193.171 273.029 192.746 272.838 192.639 272.606C191.374 270.071 190.307 267.427 189.163 264.747C189.986 263.964 190.395 263.273 190.934 263.17C191.108 263.132 191.324 263.145 191.551 263.193Z" fill="black"/>
<path fill-rule="evenodd" clip-rule="evenodd" d="M194.315 280.588C194.378 280.602 194.42 280.625 194.438 280.653C195.504 282.348 196.391 284.147 197.094 286.025C197.242 286.446 196.332 287.258 196.04 287.693C193.907 287.189 191.286 282.474 192.102 281.192C192.385 280.754 193.856 280.49 194.315 280.588Z" fill="black"/>
<path fill-rule="evenodd" clip-rule="evenodd" d="M202.942 274.87C203.405 274.969 203.999 275.362 204.168 275.726C205.147 277.782 206.008 279.879 206.759 282.024C206.929 282.559 206.41 283.345 206.227 284.022C206.046 283.96 205.841 283.916 205.637 283.872C205.546 283.853 205.456 283.833 205.365 283.814C204.888 283.712 204.439 283.597 204.284 283.321C203.114 281.158 202.168 278.886 201.129 276.646C201.838 275.749 202.179 274.953 202.642 274.853C202.726 274.838 202.833 274.847 202.942 274.87Z" fill="black"/>
<path fill-rule="evenodd" clip-rule="evenodd" d="M65.271 193.33C64.5292 194.201 63.9709 194.637 63.6948 195.195C62.5481 197.47 61.3569 199.731 60.4096 202.072C60.1287 202.852 60.5985 203.916 60.7024 204.85C61.6105 204.598 62.8007 204.625 63.3529 204.041C65.6544 201.581 66.5235 198.497 66.4631 195.166C66.4646 194.649 65.8072 194.128 65.271 193.33ZM108.588 210.306C108.556 210.299 108.528 210.298 108.494 210.3C107.726 210.316 106.516 210.982 106.24 211.673C105.674 213.118 105.606 214.746 105.292 216.544C105.896 217.224 106.371 218.199 107.07 218.392L107.075 218.393C107.079 218.394 107.084 218.395 107.088 218.396C107.565 218.498 108.661 217.679 108.886 217.067C109.456 215.514 109.859 213.853 109.943 212.2C109.965 211.588 109.119 210.419 108.588 210.306ZM53.6957 197.254C53.3281 197.176 52.935 197.305 52.5954 197.717C50.7401 199.887 49.3105 202.419 47.7571 204.821C47.631 204.988 47.7066 205.323 47.673 206.189C47.7829 206.208 47.9018 206.228 48.0153 206.253C48.3193 206.318 48.6331 206.404 48.9462 206.471C49.3591 206.559 49.7708 206.61 50.138 206.513C52.2447 205.939 55.2481 200.976 54.9046 198.857C54.757 197.994 54.2584 197.375 53.6957 197.254ZM82.772 205.043C82.1777 206.045 81.3131 206.98 81.0546 208.055C80.6225 209.785 80.439 211.573 80.4986 213.356C80.5344 214.275 81.3021 215.19 81.7511 216.107L81.7456 216.111C82.6725 215.55 84.1698 215.206 84.4546 214.408C85.1849 212.371 85.3722 210.166 85.8752 207.507C84.7928 206.643 83.7798 205.833 82.772 205.043ZM72.8063 209.473C70.5626 209.956 67.783 215.114 68.4989 216.625C68.8267 217.288 69.3321 217.677 69.8448 217.786C70.4212 217.91 71.0104 217.685 71.3749 217.113C72.5975 215.281 73.3459 213.116 74.0408 211C74.1562 210.617 73.1227 209.835 72.8063 209.473ZM93.6288 215.936C93.5062 215.909 93.3934 215.904 93.303 215.928C91.57 216.397 88.7909 221.796 89.0647 223.687C89.2194 224.627 89.7524 225.13 90.3105 225.25C90.8006 225.355 91.3101 225.17 91.6037 224.729C93.186 222.349 94.2616 219.607 95.4291 216.948C95.4378 216.907 94.3276 216.085 93.6288 215.936ZM111.032 223.607C111.022 223.605 111.013 223.603 111.004 223.601C110.369 223.532 109.275 223.834 109.027 224.326C107.939 226.438 107.072 228.712 106.148 230.858C106.902 231.836 107.263 232.763 107.794 232.877C107.799 232.878 107.799 232.878 107.799 232.878L107.808 232.88C108.492 233.007 109.818 232.665 109.978 232.21C110.857 229.873 111.53 227.464 112.09 225.025C112.194 224.63 111.472 223.701 111.032 223.607ZM48.6607 177.014C50.2307 178.902 51.6437 180.615 53.0721 182.278C53.3891 182.659 53.8283 182.957 54.2432 183.17C55.6588 183.895 57.3083 184.282 58.4565 185.259C71.8111 193.44 83.1186 197.394 96.4098 200.241C99.6407 200.933 102.99 201.56 106.515 202.163C110.41 202.836 115.045 203.686 118.981 204.054C119.007 204.221 118.809 209.4 118.812 209.567L118.827 209.651C118.875 210.89 118.922 212.134 118.944 213.359C118.96 213.595 118.957 213.855 118.954 214.088C118.975 215.165 118.973 216.242 118.965 217.299C118.945 219.606 118.852 221.883 118.684 224.083C118.654 224.67 118.594 225.26 118.532 225.835C118.066 230.473 117.204 234.811 115.773 238.568C115.563 239.126 115.347 239.649 115.128 240.163C104.232 236.68 93.3977 232.998 83.2312 227.593C72.7386 222.004 62.0772 216.716 51.6776 210.915C47.6394 208.674 44.1122 205.464 40.386 202.63C39.7237 202.132 38.6867 201.412 38.6921 200.81C38.7747 198.34 36.6306 197.582 35.4687 196.071C34.844 195.287 34.1078 194.602 33.1765 193.61C35.5927 190.748 37.8468 187.889 40.3236 185.253C42.8572 182.53 45.6202 179.999 48.6607 177.014Z" fill="#FEB8B3"/>
<path fill-rule="evenodd" clip-rule="evenodd" d="M53.6909 197.253C54.2536 197.374 54.7567 197.994 54.9043 198.857C55.2434 200.975 52.2398 205.938 50.1331 206.512C49.7705 206.61 49.3588 206.559 48.9459 206.471C48.6328 206.404 48.319 206.318 48.015 206.253C47.9015 206.228 47.7826 206.208 47.6727 206.189C47.7063 205.323 47.6307 204.988 47.7568 204.821C49.3102 202.419 50.7398 199.887 52.5951 197.717C52.9347 197.305 53.3233 197.175 53.6909 197.253Z" fill="black"/>
<path fill-rule="evenodd" clip-rule="evenodd" d="M65.2708 193.33C65.807 194.128 66.4654 194.644 66.4629 195.166C66.5234 198.497 65.6532 201.586 63.3527 204.041C62.8005 204.625 61.6148 204.599 60.7022 204.85C60.5973 203.921 60.1285 202.852 60.4094 202.072C61.3567 199.73 62.5479 197.47 63.6946 195.195C63.9707 194.637 64.529 194.201 65.2708 193.33Z" fill="black"/>
<path fill-rule="evenodd" clip-rule="evenodd" d="M72.8073 209.469C73.1237 209.831 74.1561 210.617 74.0417 210.996C73.3469 213.111 72.5894 215.275 71.3759 217.108C71.0113 217.68 70.4221 217.905 69.8458 217.782C69.333 217.672 68.8277 217.284 68.5008 216.616C67.783 215.114 70.5625 209.956 72.8073 209.469Z" fill="black"/>
<path fill-rule="evenodd" clip-rule="evenodd" d="M73.0233 175.762C72.5922 175.669 72.061 175.712 71.5563 175.875C69.6522 176.478 66.7697 181.652 67.2475 184.075C67.3898 184.718 67.7721 185.127 68.2349 185.226C68.6842 185.322 69.2066 185.121 69.6451 184.536C71.2744 182.312 72.763 179.926 73.7833 177.377C74.1666 176.429 73.7312 175.913 73.0233 175.762ZM93.5119 186.51C93.0218 186.405 91.995 187.078 91.8013 187.606C91.2017 189.343 90.7851 191.133 90.5374 192.955C90.474 193.473 91.2209 194.506 91.7064 194.61C91.7155 194.612 91.7201 194.613 91.7291 194.615C92.3891 194.681 93.5856 194.234 93.7839 193.707C94.4378 192.006 94.7554 190.189 95.2196 188.243C94.5647 187.533 94.127 186.651 93.5209 186.512C93.5209 186.512 93.5164 186.511 93.5119 186.51ZM111.391 194.459C111.305 194.441 111.222 194.432 111.15 194.436C109.527 194.52 107.759 198.015 108.224 200.697C108.593 200.856 109.211 201.364 109.851 201.501C109.978 201.528 110.108 201.542 110.233 201.535C111.605 201.487 113.531 197.609 113.029 195.811C112.864 195.273 112.013 194.592 111.391 194.459ZM63.617 167.249C80.0465 176.962 96.9038 184.787 115.006 189.988C115.775 190.21 131.655 198.457 132.417 198.663C132.665 201.032 133.196 201.08 133.413 203.547C133.64 205.921 118.403 202.673 118.552 205.106C113.377 204.648 108.226 203.925 103.103 202.828C99.3591 202.026 95.6299 201.023 91.9196 199.778C79.0644 195.449 68.2425 188.161 57.7187 179.837C59.6486 175.722 61.5456 171.671 63.617 167.249Z" fill="#FEB8B3"/>
<path fill-rule="evenodd" clip-rule="evenodd" d="M73.0233 175.762C73.7266 175.912 74.162 176.428 73.7787 177.376C72.763 179.926 71.2744 182.313 69.6405 184.535C69.2021 185.12 68.6796 185.322 68.2304 185.225C67.7721 185.127 67.3899 184.718 67.2475 184.075C66.7697 181.652 69.6523 176.478 71.5563 175.875C72.061 175.712 72.5922 175.669 73.0233 175.762Z" fill="black"/>
<path fill-rule="evenodd" clip-rule="evenodd" d="M82.7663 205.047C83.7751 205.832 84.7881 206.642 85.875 207.507C85.3711 210.171 85.1792 212.375 84.449 214.411C84.1697 215.206 82.6723 215.55 81.7464 216.106C81.3019 215.19 80.5297 214.274 80.4939 213.355C80.4343 211.572 80.6214 209.789 81.0499 208.054C81.3129 206.98 82.173 206.044 82.7663 205.047Z" fill="black"/>
<path fill-rule="evenodd" clip-rule="evenodd" d="M93.6333 215.937C94.3321 216.086 95.4424 216.908 95.4291 216.948C94.2616 219.607 93.186 222.348 91.6083 224.73C91.3147 225.171 90.8052 225.356 90.3151 225.251C89.7524 225.13 89.2195 224.627 89.0692 223.688C88.7909 221.796 91.5745 216.398 93.303 215.928C93.3934 215.904 93.5062 215.909 93.6333 215.937Z" fill="black"/>
<path fill-rule="evenodd" clip-rule="evenodd" d="M93.5062 186.514C93.5108 186.515 93.5153 186.515 93.5153 186.515C94.1224 186.65 94.5646 187.533 95.2195 188.243C94.7488 190.197 94.4376 192.006 93.7829 193.712C93.5865 194.23 92.389 194.681 91.729 194.615C91.72 194.613 91.7154 194.612 91.7063 194.61C91.2162 194.505 90.4694 193.472 90.5328 192.954C90.7804 191.132 91.2016 189.343 91.8012 187.606C91.994 187.082 93.0116 186.408 93.5062 186.514Z" fill="black"/>
<path fill-rule="evenodd" clip-rule="evenodd" d="M111.032 223.607C111.472 223.701 112.194 224.63 112.09 225.025C111.53 227.464 110.858 229.873 109.982 232.211C109.819 232.665 108.492 233.007 107.808 232.88C107.803 232.879 107.803 232.879 107.799 232.878C107.268 232.764 106.906 231.837 106.152 230.859C107.077 228.712 107.943 226.439 109.027 224.326C109.275 223.834 110.369 223.532 111.004 223.601C111.013 223.603 111.023 223.605 111.032 223.607Z" fill="black"/>
<path fill-rule="evenodd" clip-rule="evenodd" d="M108.586 210.31C109.117 210.424 109.969 211.589 109.947 212.201C109.864 213.854 109.456 215.514 108.891 217.068C108.665 217.68 107.56 218.497 107.088 218.396C107.083 218.395 107.079 218.394 107.074 218.393C106.38 218.201 105.896 217.224 105.296 216.545C105.614 214.748 105.674 213.118 106.244 211.674C106.52 210.983 107.726 210.316 108.503 210.302C108.527 210.298 108.559 210.304 108.586 210.31Z" fill="black"/>
<path fill-rule="evenodd" clip-rule="evenodd" d="M111.392 194.459C112.013 194.592 112.864 195.273 113.028 195.816C113.531 197.613 111.603 201.496 110.232 201.54C110.107 201.546 109.981 201.533 109.859 201.507C109.215 201.369 108.594 200.856 108.224 200.697C107.755 198.014 109.528 194.52 111.15 194.436C111.222 194.432 111.305 194.441 111.392 194.459Z" fill="black"/>
<path fill-rule="evenodd" clip-rule="evenodd" d="M115.768 238.567C115.581 239.111 115.362 239.643 115.123 240.162C115.342 239.648 115.559 239.125 115.768 238.567Z" fill="#F46C8A"/>
<path fill-rule="evenodd" clip-rule="evenodd" d="M27.1974 149.581C25.4186 149.2 24.9497 150.149 25.6667 152.453C26.8412 156.188 28.2364 159.824 29.5299 163.514C29.8458 164.388 30.1946 165.241 30.526 166.11C30.6722 166.07 30.9474 166.048 30.9769 165.955C31.9313 163.226 33.3706 162.134 34.8907 162.459C35.9934 162.695 37.137 163.671 38.1725 165.308C40.3589 168.728 42.3732 172.221 44.7691 176.171C45.1419 175.249 45.4722 174.461 45.7711 173.685C45.9837 173.113 46.0753 172.065 46.3893 171.994C46.6924 171.931 47.0644 171.944 47.4229 172.021C47.795 172.101 48.1562 172.254 48.42 172.462C50.4116 174 52.2963 175.704 54.5126 177.588C56.1126 174.238 57.6189 171.214 58.9804 168.136C59.2477 167.552 59.0648 166.678 58.8923 165.976C57.6777 161.43 54.3485 158.382 50.7976 155.305C51.2029 157.846 51.7793 160.385 51.9485 162.942C52.0246 164.116 51.3583 165.321 51.0081 166.514C49.9423 166.039 48.6524 165.791 47.825 165.044C43.6006 161.235 39.6496 157.123 35.3025 153.486C33.2957 151.799 30.6326 150.782 28.1384 149.863C27.7905 149.737 27.4787 149.641 27.1974 149.581ZM35.2138 166.293C34.7908 166.34 34.3675 166.41 33.9452 166.477C33.8066 169.119 33.7386 171.787 33.4856 174.409C33.3829 175.399 33.0591 176.867 32.4215 177.162C32.1441 177.283 31.7802 177.277 31.3854 177.192C30.741 177.054 30.023 176.706 29.5089 176.358C25.197 173.356 21.1758 169.86 16.6099 167.269C13.6281 165.591 9.94597 165.077 6.53285 164.194C6.47836 164.183 6.42395 164.171 6.37404 164.16C4.79941 163.823 4.093 164.773 4.59236 166.342C5.08983 167.854 5.53441 169.567 6.55851 170.703C10.5669 175.211 14.716 179.617 20.1509 182.495C23.4465 184.259 26.642 186.225 29.8598 188.153C30.2371 188.386 30.5836 188.541 30.9013 188.609C31.6636 188.772 32.3096 188.459 33.064 187.596C35.3917 184.881 37.9934 182.438 40.3263 179.743C40.8875 179.094 41.2477 177.7 40.9239 177.018C39.1636 173.38 37.1591 169.842 35.2138 166.293ZM50.2144 150.115C50.9813 150.279 51.8131 150.695 52.2517 151.173C55.6487 154.924 58.8374 158.873 62.2669 162.982C62.3168 162.993 62.3667 163.004 62.4211 163.015C62.6707 163.069 63.0094 163.127 63.3861 163.208C63.9396 163.326 64.5808 163.501 65.1399 163.816C74.7992 169.174 84.3233 174.764 94.6617 178.834C101.994 181.714 125.519 193.421 133.024 195.674C133.159 196.928 133.301 198.216 133.422 199.533C132.658 199.336 131.926 199.165 131.157 198.943C113.053 193.747 80.0385 176.955 63.6126 167.248C61.5412 171.67 59.6441 175.721 57.7123 179.845C68.2326 188.164 75.9733 191.089 92.0833 195.422C95.3726 196.307 100.62 197.535 106.387 198.77C116.298 200.892 127.744 203.045 133.408 203.546C133.506 204.863 134.464 205.22 134.527 206.543L120.977 204.97C114.84 204.197 107.001 203.064 103.135 202.236C83.8534 198.107 76.468 195.695 58.4418 185.26C57.2991 184.28 55.6396 183.896 54.2331 183.172C53.8091 182.958 53.3789 182.662 53.0619 182.281C51.6346 180.613 50.2214 178.9 48.646 177.015C45.6101 180.001 42.848 182.528 40.3125 185.26C37.8467 187.889 35.588 190.747 33.1719 193.609C34.1032 194.601 34.8394 195.286 35.4595 196.069C36.626 197.581 38.7692 198.344 38.6875 200.809C38.6847 201.421 39.7227 202.137 40.3813 202.629C44.1075 205.463 47.6337 208.677 51.673 210.914C62.0716 216.72 72.734 222.003 83.2266 227.592C93.393 232.997 104.227 236.679 115.122 240.166C114.63 241.337 114.041 242.469 113.355 243.547C111.615 243.027 109.866 242.486 108.132 241.873C95.9011 237.531 84.1186 232.359 72.5428 226.642C65.2256 223.025 58.1229 218.959 51.0399 214.913C42.3901 209.961 34.9632 203.619 29.9778 194.762C29.4351 193.772 28.9987 192.53 28.1345 191.956C24.7908 189.773 21.3452 187.734 17.8658 185.765C12.1144 182.525 7.64764 177.852 3.63589 172.783C2.28728 171.079 1.62285 168.663 1.16483 166.458C0.375336 162.719 2.28404 160.631 6.13943 160.512C7.9905 160.467 9.7887 160.625 11.5267 160.997C14.0634 161.54 16.4701 162.535 18.733 164.002C22.3035 166.3 25.7807 168.768 29.3036 171.155C29.3587 171.186 29.4203 171.208 29.4929 171.224C29.6336 171.254 29.8028 171.262 29.9934 171.303C30.0872 170.554 30.1617 169.896 30.1759 169.851C28.7908 168.562 27.2167 167.779 26.7462 166.563C24.9765 162.083 23.1812 157.545 22.0885 152.873C21.6442 151.003 21.7088 149.526 22.1546 148.397C22.7813 147.819 23.3598 147.179 23.8724 146.491C25.1144 145.855 26.8746 145.724 29.1253 146.206C29.1889 146.22 29.257 146.234 29.325 146.249C34.5513 147.397 38.4134 150.683 42.1241 154.254C43.7774 155.842 45.5424 157.307 47.5461 159.099C47.4037 156.704 47.0959 154.906 47.316 153.168C47.4419 152.07 48.1405 150.492 48.989 150.142C49.302 150.01 49.747 150.015 50.2144 150.115Z" fill="black"/>
</svg>
