<svg width="72" height="86" viewBox="0 0 72 86" fill="none" xmlns="http://www.w3.org/2000/svg">
<path fill-rule="evenodd" clip-rule="evenodd" d="M32.0829 18.6104C24.9053 18.6104 18.9521 24.3933 17.1502 31.0045C17.1217 31.1183 17.104 31.2355 17.0969 31.3528C16.251 32.0779 16.8019 33.832 17.9765 33.832C18.0174 33.832 18.06 33.8303 18.1027 33.8267C18.7709 33.7592 19.4355 33.7059 20.1019 33.6668C20.34 33.9582 20.6706 34.1573 21.0473 34.1573C21.1913 34.1573 21.3441 34.1271 21.4987 34.0631C21.8559 33.9156 22.2095 33.7467 22.5613 33.5761C22.9577 33.5708 23.354 33.5672 23.7502 33.5672C29.069 33.5672 34.402 34.1377 39.6958 34.1377C42.2015 34.1377 44.7001 34.0098 47.1826 33.633C47.9947 33.5086 48.3182 32.5613 48.1814 31.8665C46.5233 23.4248 41.3876 19.2626 33.0781 18.6477C32.744 18.6228 32.4116 18.6104 32.0829 18.6104Z" fill="#FEB8B3"/>
<path fill-rule="evenodd" clip-rule="evenodd" d="M32.0829 18.6104C24.9053 18.6104 18.9521 24.3933 17.1502 31.0045C17.1217 31.1183 17.104 31.2356 17.0969 31.3528C16.251 32.0779 16.8019 33.832 17.9765 33.832C18.0174 33.832 18.06 33.8303 18.1027 33.8267C18.7709 33.7592 19.4355 33.7059 20.1019 33.6668C20.34 33.9582 20.6706 34.1573 21.0473 34.1573C21.1913 34.1573 21.3441 34.1271 21.4987 34.0631C21.8559 33.9156 22.2095 33.7467 22.5613 33.5761C22.9577 33.5708 23.354 33.5672 23.7502 33.5672C29.069 33.5672 34.402 34.1377 39.6958 34.1377C42.2015 34.1377 44.7001 34.0098 47.1826 33.633C47.9947 33.5086 48.3182 32.5613 48.1814 31.8665C46.5233 23.4248 41.3876 19.2626 33.0781 18.6477C32.744 18.6228 32.4116 18.6104 32.0829 18.6104V18.6104Z" stroke="black" stroke-width="0.5" stroke-miterlimit="10" stroke-linejoin="round"/>
<path fill-rule="evenodd" clip-rule="evenodd" d="M10.2587 54.627C9.4182 54.627 8.66471 55.6524 8.97039 56.4468C9.14808 56.9089 9.3862 57.5291 9.67409 58.1849C9.04324 60.3015 9.16762 62.228 9.7274 64.1314C9.47506 67.3854 9.80381 69.9179 12.265 72.4505C12.258 72.8166 12.3912 73.1702 12.64 73.4368C14.6605 75.7116 17.1715 77.4177 20.1588 78.1108C20.2796 78.1393 20.3969 78.1517 20.5071 78.1517C20.9123 78.1517 21.241 77.9758 21.4863 77.7163C21.5147 77.7287 21.5431 77.7412 21.5698 77.7536C21.7599 78.221 22.1758 78.5942 22.8368 78.5942C22.8475 78.5942 22.8564 78.5942 22.8652 78.5942C23.1425 78.5942 23.4108 78.5089 23.6401 78.3507C24.1003 78.4218 24.5642 78.4538 25.0315 78.4538C25.7086 78.4538 26.3945 78.3845 27.0912 78.2548C27.2618 78.2246 27.4235 78.1624 27.571 78.07C28.6159 78.1108 29.6661 78.1233 30.7181 78.1233C31.7097 78.1233 32.7049 78.1126 33.6965 78.0984C39.0544 78.0149 45.235 78.2299 48.9579 73.7229C52.6578 69.2497 52.1069 61.5136 51.0513 56.2584C50.9412 55.7199 50.3352 55.201 49.7701 55.201C49.7345 55.201 49.7008 55.2028 49.6688 55.2063C49.4928 55.2259 49.3205 55.2436 49.1446 55.2596C49.077 55.2436 49.0219 55.2134 48.9509 55.2063C44.7001 54.7354 40.4511 54.7389 36.1826 54.6323C36.1666 54.6305 36.1524 54.6305 36.1382 54.6305C35.5482 54.6305 35.159 54.9344 34.9582 55.3396C34.0679 55.2312 33.1865 55.1334 32.3068 55.0624C30.1655 54.8882 28.0241 54.8384 25.8809 54.8384C23.1034 54.8384 20.3258 54.922 17.5465 54.922C15.1492 54.922 12.7502 54.8598 10.3547 54.6323C10.3227 54.6287 10.2907 54.627 10.2587 54.627Z" fill="#FEB8B3"/>
<path fill-rule="evenodd" clip-rule="evenodd" d="M10.2587 54.627C9.4182 54.627 8.66471 55.6524 8.97039 56.4468C9.14808 56.9089 9.3862 57.5291 9.67409 58.1849C9.04324 60.3015 9.16762 62.228 9.7274 64.1314C9.47506 67.3854 9.80381 69.9179 12.265 72.4505C12.258 72.8166 12.3912 73.1702 12.64 73.4368C14.6605 75.7116 17.1715 77.4177 20.1588 78.1108C20.2796 78.1393 20.3969 78.1517 20.5071 78.1517C20.9123 78.1517 21.241 77.9758 21.4863 77.7163C21.5147 77.7287 21.5431 77.7412 21.5698 77.7536C21.7599 78.221 22.1758 78.5942 22.8368 78.5942C22.8475 78.5942 22.8564 78.5942 22.8652 78.5942C23.1425 78.5942 23.4108 78.5089 23.6401 78.3507C24.1003 78.4218 24.5642 78.4538 25.0315 78.4538C25.7086 78.4538 26.3945 78.3845 27.0912 78.2548C27.2618 78.2246 27.4235 78.1624 27.571 78.0699C28.6159 78.1108 29.6661 78.1233 30.7181 78.1233C31.7097 78.1233 32.7049 78.1126 33.6965 78.0984C39.0544 78.0149 45.235 78.2299 48.9579 73.7229C52.6578 69.2497 52.1069 61.5136 51.0513 56.2584C50.9412 55.7199 50.3352 55.201 49.7701 55.201C49.7345 55.201 49.7008 55.2028 49.6688 55.2063C49.4928 55.2259 49.3205 55.2436 49.1446 55.2596C49.077 55.2436 49.0219 55.2134 48.9509 55.2063C44.7001 54.7354 40.4511 54.7389 36.1826 54.6323C36.1666 54.6305 36.1524 54.6305 36.1382 54.6305C35.5482 54.6305 35.159 54.9344 34.9582 55.3396C34.0679 55.2312 33.1865 55.1334 32.3068 55.0624C30.1655 54.8882 28.0241 54.8384 25.8809 54.8384C23.1034 54.8384 20.3258 54.922 17.5465 54.922C15.1492 54.922 12.7502 54.8598 10.3547 54.6323C10.3227 54.6287 10.2907 54.627 10.2587 54.627V54.627Z" stroke="black" stroke-width="0.5" stroke-miterlimit="10" stroke-linejoin="round"/>
<path fill-rule="evenodd" clip-rule="evenodd" d="M34.665 12.7224C34.9102 12.7224 35.1555 12.726 35.4042 12.7331C54.561 16.1684 57.5802 38.1114 57.7544 54.3728C57.8504 63.1806 56.5869 75.246 48.7234 80.7375C45.02 83.3215 39.6337 83.0816 35.342 83.4442C31.9585 83.7303 28.6567 84.0289 25.3318 84.0289C23.3575 84.0289 21.3743 83.924 19.3609 83.6485C-0.750203 80.885 1.13172 57.8437 4.87598 43.1374C8.65228 28.3031 17.8202 12.7224 34.665 12.7224V12.7224ZM34.6063 11.2847C16.4269 11.2847 7.19329 28.2036 3.15224 44.0793C0.971772 52.6596 0.0867755 62.0023 2.2264 70.6679C4.47259 79.7512 11.9363 84.0609 20.7825 85.2747C22.3304 85.4879 23.8835 85.5715 25.4402 85.5715C29.284 85.5715 33.1385 85.0632 36.9503 84.7433C41.3343 84.3736 45.4909 84.0573 49.4466 81.9744C57.2942 77.8407 58.6749 65.4074 59.1175 57.6873C60.1215 40.1268 56.3488 14.9315 35.653 11.3255C35.6424 11.3238 35.6335 11.322 35.6228 11.3202C35.5748 11.3095 35.5215 11.3024 35.4647 11.3007V11.2971C35.1768 11.29 34.8907 11.2847 34.6063 11.2847Z" fill="black"/>
<path fill-rule="evenodd" clip-rule="evenodd" d="M34.665 12.7224C34.9102 12.7224 35.1555 12.726 35.4042 12.7331C54.561 16.1684 57.5803 38.1114 57.7544 54.3728C57.8504 63.1806 56.5869 75.246 48.7234 80.7375C45.02 83.3215 39.6337 83.0816 35.342 83.4442C31.9585 83.7303 28.6567 84.0289 25.3318 84.0289C23.3575 84.0289 21.3743 83.924 19.3609 83.6485C-0.750203 80.885 1.13172 57.8437 4.87598 43.1374C8.65228 28.3031 17.8202 12.7224 34.665 12.7224V12.7224ZM34.6063 11.2847C16.4269 11.2847 7.19329 28.2036 3.15224 44.0793C0.971772 52.6596 0.0867755 62.0023 2.2264 70.6679C4.47259 79.7512 11.9363 84.0609 20.7825 85.2747C22.3304 85.4879 23.8835 85.5715 25.4402 85.5715C29.284 85.5715 33.1385 85.0632 36.9503 84.7433C41.3343 84.3736 45.4909 84.0573 49.4466 81.9744C57.2942 77.8407 58.6749 65.4074 59.1175 57.6873C60.1215 40.1268 56.3488 14.9315 35.653 11.3255C35.6424 11.3238 35.6335 11.322 35.6228 11.3202C35.5748 11.3095 35.5215 11.3024 35.4647 11.3007V11.2971C35.1768 11.29 34.8907 11.2847 34.6063 11.2847V11.2847Z" stroke="black" stroke-width="0.5" stroke-miterlimit="10" stroke-linejoin="round"/>
<path fill-rule="evenodd" clip-rule="evenodd" d="M35.6015 1C29.8278 1 22.0336 7.10112 25.9503 13.0974C26.1031 13.332 26.3235 13.4279 26.5438 13.4279C27.0467 13.4279 27.5443 12.9143 27.1907 12.3741L27.1871 12.3705C24.0737 7.60584 29.7923 3.85595 33.8227 2.72033C34.45 2.54261 35.0613 2.46086 35.6531 2.46086C38.0112 2.46086 40.078 3.76354 41.7715 5.5514C43.3531 7.21486 44.8121 11.4677 43.1061 13.659C42.8466 13.7425 42.6387 13.9611 42.6387 14.313V14.4569C42.6387 14.8835 42.9995 15.1678 43.3708 15.1678C43.545 15.1678 43.7209 15.1056 43.8631 14.9652C45.6775 13.1614 45.5673 9.45768 44.5153 7.27706C42.8751 3.87373 39.7439 1.1244 35.8396 1.00355C35.7615 1.00178 35.6815 1 35.6015 1Z" fill="black"/>
<path fill-rule="evenodd" clip-rule="evenodd" d="M35.6015 1C29.8278 1 22.0336 7.10112 25.9503 13.0974C26.1031 13.332 26.3235 13.4279 26.5438 13.4279C27.0467 13.4279 27.5443 12.9143 27.1907 12.3741L27.1871 12.3705C24.0737 7.60584 29.7923 3.85595 33.8227 2.72033C34.45 2.54261 35.0613 2.46086 35.6531 2.46086C38.0112 2.46086 40.078 3.76354 41.7715 5.5514C43.3531 7.21486 44.8121 11.4677 43.1061 13.659C42.8466 13.7425 42.6387 13.9611 42.6387 14.313V14.4569C42.6387 14.8835 42.9995 15.1678 43.3708 15.1678C43.545 15.1678 43.7209 15.1056 43.8631 14.9652C45.6775 13.1614 45.5673 9.45768 44.5153 7.27706C42.8751 3.87373 39.7439 1.1244 35.8396 1.00355C35.7615 1.00178 35.6815 1 35.6015 1V1Z" stroke="black" stroke-width="0.5" stroke-miterlimit="10" stroke-linejoin="round"/>
<path fill-rule="evenodd" clip-rule="evenodd" d="M35.2568 4.83691C31.3775 4.83691 28.7297 8.1816 29.6076 11.919C29.6929 12.278 29.963 12.4344 30.2455 12.4344C30.6702 12.4344 31.1199 12.079 30.9919 11.5369H30.9901C30.322 8.69699 32.2145 6.51281 35.0436 6.28355C35.1965 6.27111 35.3457 6.264 35.4896 6.264C38.6617 6.264 39.911 9.19993 39.3655 12.1128C39.2641 12.6548 39.7244 13.012 40.1438 13.012C40.421 13.012 40.6822 12.8556 40.7498 12.4949C41.4855 8.55303 39.6764 4.87779 35.3137 4.83691C35.2942 4.83691 35.2746 4.83691 35.2568 4.83691Z" fill="black"/>
<path fill-rule="evenodd" clip-rule="evenodd" d="M35.2568 4.83691C31.3775 4.83691 28.7297 8.1816 29.6076 11.919C29.6929 12.278 29.963 12.4344 30.2455 12.4344C30.6702 12.4344 31.1198 12.079 30.9919 11.5369H30.9901C30.322 8.69699 32.2145 6.51281 35.0436 6.28355C35.1965 6.27111 35.3457 6.264 35.4896 6.264C38.6617 6.264 39.911 9.19993 39.3655 12.1128C39.2641 12.6548 39.7244 13.012 40.1438 13.012C40.421 13.012 40.6822 12.8556 40.7498 12.4949C41.4855 8.55303 39.6764 4.87779 35.3137 4.83691C35.2942 4.83691 35.2746 4.83691 35.2568 4.83691V4.83691Z" stroke="black" stroke-width="0.5" stroke-miterlimit="10" stroke-linejoin="round"/>
<path fill-rule="evenodd" clip-rule="evenodd" d="M32.6748 19.2429C34.4732 19.2429 36.2449 19.5094 37.8549 20.0248C37.9367 20.0515 38.0149 20.0639 38.0877 20.0639C38.1588 20.0639 38.2263 20.0515 38.2868 20.0302C42.3083 21.4732 44.7962 24.4394 46.392 28.2799C47.3729 30.6329 48.3059 37.0646 43.8294 37.2316C43.0227 37.2601 42.2123 37.2725 41.3966 37.2725C36.5683 37.2725 31.6245 36.8336 26.7749 36.8336C26.4177 36.8336 26.0623 36.8353 25.7069 36.8407C25.387 36.8442 25.0672 36.8478 24.7491 36.8478C23.2315 36.8478 21.7351 36.7873 20.214 36.567C14.8704 35.7832 18.3409 29.069 19.7893 26.1686C22.1563 21.427 27.5213 19.2429 32.6748 19.2429ZM32.7352 17.7749C26.6239 17.7749 20.8057 20.933 17.9162 26.7195C16.9371 28.6762 14.4243 33.2667 15.9064 35.4776C17.6514 38.0865 20.7987 38.2002 23.6988 38.2802C24.2533 38.2962 24.8077 38.3015 25.3622 38.3015C28.6302 38.3015 31.8911 38.0776 35.1502 38.0776C37.0961 38.0776 39.0438 38.1576 40.9897 38.4135C41.7894 38.5166 42.9836 38.7014 44.1742 38.7014C45.9779 38.7014 47.7727 38.2784 48.1797 36.5119C49.923 28.9002 45.722 20.917 38.237 18.5C38.1553 18.4733 38.0771 18.4609 38.0042 18.4609C37.9243 18.4609 37.8514 18.4751 37.7838 18.5018C36.1152 18.013 34.4145 17.7749 32.7352 17.7749Z" fill="black"/>
<path fill-rule="evenodd" clip-rule="evenodd" d="M32.6748 19.2429C34.4732 19.2429 36.2449 19.5094 37.8549 20.0248C37.9367 20.0515 38.0149 20.0639 38.0877 20.0639C38.1588 20.0639 38.2263 20.0515 38.2868 20.0302C42.3083 21.4732 44.7962 24.4394 46.392 28.2799C47.3729 30.6329 48.3059 37.0646 43.8294 37.2316C43.0227 37.2601 42.2123 37.2725 41.3966 37.2725C36.5683 37.2725 31.6245 36.8336 26.7749 36.8336C26.4177 36.8336 26.0623 36.8353 25.7069 36.8407C25.387 36.8442 25.0672 36.8478 24.7491 36.8478C23.2315 36.8478 21.7351 36.7874 20.214 36.567C14.8704 35.7832 18.3409 29.069 19.7893 26.1686C22.1563 21.427 27.5213 19.2429 32.6748 19.2429V19.2429ZM32.7352 17.7749C26.6239 17.7749 20.8057 20.933 17.9162 26.7195C16.9371 28.6762 14.4243 33.2667 15.9064 35.4776C17.6514 38.0865 20.7987 38.2002 23.6988 38.2802C24.2533 38.2962 24.8077 38.3015 25.3622 38.3015C28.6302 38.3015 31.8911 38.0776 35.1502 38.0776C37.0961 38.0776 39.0438 38.1576 40.9897 38.4135C41.7894 38.5166 42.9836 38.7014 44.1742 38.7014C45.9779 38.7014 47.7727 38.2784 48.1797 36.5119C49.923 28.9002 45.722 20.917 38.237 18.5C38.1553 18.4733 38.0771 18.4609 38.0042 18.4609C37.9243 18.4609 37.8514 18.4751 37.7838 18.5018C36.1152 18.013 34.4145 17.7749 32.7352 17.7749V17.7749Z" stroke="black" stroke-width="0.5" stroke-miterlimit="10" stroke-linejoin="round"/>
<path fill-rule="evenodd" clip-rule="evenodd" d="M27.7061 50.2355C22.6272 50.2355 17.5483 50.5074 12.466 50.5074C11.4281 50.5074 10.3903 50.4967 9.35074 50.4701C9.34542 50.4683 9.33829 50.4683 9.3312 50.4683C8.4249 50.4683 8.43555 51.8812 9.35074 51.906C10.6214 51.938 11.892 51.9522 13.1626 51.9522C18.6519 51.9522 24.1395 51.7017 29.6306 51.7017C29.9985 51.7017 30.3646 51.7034 30.7306 51.7052C35.5891 51.739 40.4103 52.2153 45.2439 52.2153C47.2432 52.2153 49.2423 52.1353 51.2486 51.906C52.1248 51.8047 52.1638 50.4647 51.3393 50.4647C51.3109 50.4647 51.2806 50.4665 51.2486 50.4701C49.0878 50.7171 46.9233 50.806 44.7606 50.806C40.0869 50.806 35.4097 50.3919 30.7306 50.2728C29.723 50.2461 28.7154 50.2355 27.7061 50.2355Z" fill="black"/>
<path fill-rule="evenodd" clip-rule="evenodd" d="M27.7061 50.2355C22.6272 50.2355 17.5483 50.5074 12.466 50.5074C11.4281 50.5074 10.3903 50.4967 9.35074 50.4701C9.34542 50.4683 9.33829 50.4683 9.3312 50.4683C8.4249 50.4683 8.43555 51.8812 9.35074 51.906C10.6214 51.938 11.892 51.9522 13.1626 51.9522C18.6519 51.9522 24.1395 51.7017 29.6306 51.7017C29.9985 51.7017 30.3646 51.7034 30.7306 51.7052C35.5891 51.739 40.4103 52.2153 45.2439 52.2153C47.2432 52.2153 49.2423 52.1353 51.2486 51.906C52.1248 51.8047 52.1638 50.4647 51.3393 50.4647C51.3109 50.4647 51.2806 50.4665 51.2486 50.4701C49.0878 50.7171 46.9233 50.806 44.7606 50.806C40.0869 50.806 35.4097 50.3919 30.7306 50.2728C29.723 50.2461 28.7154 50.2355 27.7061 50.2355V50.2355Z" stroke="black" stroke-width="0.5" stroke-miterlimit="10" stroke-linejoin="round"/>
<path fill-rule="evenodd" clip-rule="evenodd" d="M9.26721 50.6388C8.90823 50.6388 8.52795 50.8698 8.49063 51.3266V51.3301C8.06237 56.4165 8.57949 61.2664 9.10907 66.319C9.38627 68.9706 9.9052 72.0878 11.8564 74.08C16.1569 78.4679 21.6907 79.6124 27.4217 79.6124C29.8066 79.6124 32.2252 79.4134 34.6047 79.1681C41.0092 78.5035 46.7634 79.4525 50.2375 73.0866C53.765 66.6193 52.1354 58.5438 51.8209 51.6163C51.7996 51.156 51.43 50.9249 51.0727 50.9249C50.7138 50.9249 50.3655 51.156 50.385 51.6163C50.6285 56.939 51.3482 61.9418 50.5379 67.2662C50.0829 70.2537 48.9811 73.0492 46.9428 75.3009C44.4816 78.0183 39.3068 77.4585 35.9783 77.6095C32.8702 77.7517 29.7977 78.0734 26.8033 78.0734C22.3144 78.0734 17.9998 77.3501 13.9996 74.2133C8.67544 70.0387 9.41295 57.4028 9.92294 51.3266C9.96207 50.8663 9.62443 50.6388 9.26721 50.6388Z" fill="black"/>
<path fill-rule="evenodd" clip-rule="evenodd" d="M9.26721 50.6388C8.90823 50.6388 8.52795 50.8698 8.49063 51.3266V51.3301C8.06237 56.4165 8.57949 61.2664 9.10907 66.319C9.38627 68.9706 9.9052 72.0878 11.8564 74.08C16.1569 78.4679 21.6907 79.6124 27.4217 79.6124C29.8066 79.6124 32.2252 79.4134 34.6047 79.1681C41.0092 78.5035 46.7634 79.4525 50.2375 73.0866C53.765 66.6193 52.1354 58.5438 51.8209 51.6163C51.7996 51.156 51.43 50.9249 51.0727 50.9249C50.7138 50.9249 50.3655 51.156 50.385 51.6163C50.6285 56.939 51.3482 61.9418 50.5379 67.2662C50.0829 70.2537 48.9811 73.0492 46.9428 75.3009C44.4816 78.0183 39.3068 77.4585 35.9783 77.6095C32.8702 77.7517 29.7977 78.0734 26.8033 78.0734C22.3144 78.0734 17.9998 77.3501 13.9996 74.2133C8.67544 70.0387 9.41295 57.4028 9.92294 51.3266C9.96207 50.8663 9.62443 50.6388 9.26721 50.6388V50.6388Z" stroke="black" stroke-width="0.5" stroke-miterlimit="10" stroke-linejoin="round"/>
<path fill-rule="evenodd" clip-rule="evenodd" d="M53.9249 45.8582C54.0404 45.8582 54.1594 45.8867 54.2821 45.9471C55.8601 46.7184 53.1803 49.2473 51.7355 50.4416C51.947 48.9541 52.7129 45.8582 53.9249 45.8582V45.8582ZM53.8947 44.4027C51.4814 44.4027 50.2854 49.1585 50.2428 51.0441C50.2339 51.4102 50.4525 51.6306 50.7226 51.707C50.7688 52.0571 51.0389 52.3717 51.3748 52.3717C51.4956 52.3717 51.6236 52.3308 51.7533 52.2384C53.3847 51.0565 58.4262 46.8766 55.1955 44.831C54.7281 44.5342 54.2945 44.4027 53.8947 44.4027Z" fill="black"/>
<path fill-rule="evenodd" clip-rule="evenodd" d="M53.9249 45.8582C54.0404 45.8582 54.1594 45.8867 54.2821 45.9471C55.8601 46.7184 53.1803 49.2473 51.7355 50.4416C51.947 48.9541 52.7129 45.8582 53.9249 45.8582V45.8582ZM53.8947 44.4027C51.4814 44.4027 50.2854 49.1585 50.2428 51.0441C50.2339 51.4102 50.4525 51.6306 50.7226 51.707C50.7688 52.0571 51.0389 52.3717 51.3748 52.3717C51.4956 52.3717 51.6236 52.3308 51.7533 52.2384C53.3847 51.0565 58.4262 46.8766 55.1955 44.831C54.7281 44.5342 54.2945 44.4027 53.8947 44.4027V44.4027Z" stroke="black" stroke-width="0.5" stroke-miterlimit="10" stroke-linejoin="round"/>
<path fill-rule="evenodd" clip-rule="evenodd" d="M9.35078 54.0564C8.42494 54.0564 8.42494 55.4924 9.35078 55.4924H49.9532C50.8773 55.4924 50.8773 54.0564 49.9532 54.0564H9.35078Z" fill="black"/>
<path fill-rule="evenodd" clip-rule="evenodd" d="M9.35078 54.0564C8.42494 54.0564 8.42494 55.4924 9.35078 55.4924H49.9532C50.8773 55.4924 50.8773 54.0564 49.9532 54.0564H9.35078Z" stroke="black" stroke-width="0.5" stroke-miterlimit="10" stroke-linejoin="round"/>
<path fill-rule="evenodd" clip-rule="evenodd" d="M13.2265 47.3368C12.8675 47.3368 12.5086 47.5678 12.5086 48.0299V50.6139C12.5086 51.076 12.8675 51.3088 13.2265 51.3088C13.5855 51.3088 13.9444 51.076 13.9444 50.6139V48.0299C13.9444 47.5678 13.5855 47.3368 13.2265 47.3368Z" fill="black"/>
<path fill-rule="evenodd" clip-rule="evenodd" d="M13.2265 47.3368C12.8675 47.3368 12.5086 47.5678 12.5086 48.0299V50.6139C12.5086 51.076 12.8675 51.3088 13.2265 51.3088C13.5855 51.3088 13.9444 51.076 13.9444 50.6139V48.0299C13.9444 47.5678 13.5855 47.3368 13.2265 47.3368Z" stroke="black" stroke-width="0.5" stroke-miterlimit="10" stroke-linejoin="round"/>
<path fill-rule="evenodd" clip-rule="evenodd" d="M20.8306 47.1964C20.4717 47.1964 20.1127 47.4274 20.1127 47.8877V50.1839C20.1127 50.6442 20.4717 50.8752 20.8306 50.8752C21.1896 50.8752 21.5486 50.6442 21.5486 50.1839V47.8877C21.5486 47.4274 21.1896 47.1964 20.8306 47.1964Z" fill="black"/>
<path fill-rule="evenodd" clip-rule="evenodd" d="M20.8306 47.1964C20.4717 47.1964 20.1127 47.4274 20.1127 47.8877V50.1839C20.1127 50.6442 20.4717 50.8752 20.8306 50.8752C21.1896 50.8752 21.5486 50.6442 21.5486 50.1839V47.8877C21.5486 47.4274 21.1896 47.1964 20.8306 47.1964Z" stroke="black" stroke-width="0.5" stroke-miterlimit="10" stroke-linejoin="round"/>
<path fill-rule="evenodd" clip-rule="evenodd" d="M29.8705 46.9103C29.5115 46.9103 29.1526 47.1413 29.1526 47.6016V50.1839C29.1526 50.6442 29.5115 50.8752 29.8705 50.8752C30.2277 50.8752 30.5867 50.6442 30.5867 50.1839V47.6016C30.5867 47.1413 30.2277 46.9103 29.8705 46.9103Z" fill="black"/>
<path fill-rule="evenodd" clip-rule="evenodd" d="M29.8705 46.9103C29.5115 46.9103 29.1526 47.1413 29.1526 47.6016V50.1839C29.1526 50.6442 29.5115 50.8752 29.8705 50.8752C30.2277 50.8752 30.5867 50.6442 30.5867 50.1839V47.6016C30.5867 47.1413 30.2277 46.9103 29.8705 46.9103Z" stroke="black" stroke-width="0.5" stroke-miterlimit="10" stroke-linejoin="round"/>
<path fill-rule="evenodd" clip-rule="evenodd" d="M39.1948 47.3368C38.8358 47.3368 38.4769 47.5678 38.4769 48.0299V50.7579C38.4769 51.22 38.8358 51.451 39.1948 51.451C39.5538 51.451 39.9127 51.22 39.9127 50.7579V48.0299C39.9127 47.5678 39.5538 47.3368 39.1948 47.3368Z" fill="black"/>
<path fill-rule="evenodd" clip-rule="evenodd" d="M39.1948 47.3368C38.8358 47.3368 38.4769 47.5678 38.4769 48.0299V50.7579C38.4769 51.22 38.8358 51.451 39.1948 51.451C39.5538 51.451 39.9127 51.22 39.9127 50.7579V48.0299C39.9127 47.5678 39.5538 47.3368 39.1948 47.3368Z" stroke="black" stroke-width="0.5" stroke-miterlimit="10" stroke-linejoin="round"/>
<path fill-rule="evenodd" clip-rule="evenodd" d="M46.7989 47.1964C46.4399 47.1964 46.0809 47.4274 46.0809 47.8877V50.614C46.0809 51.076 46.4399 51.3088 46.7989 51.3088C47.1578 51.3088 47.5186 51.076 47.5186 50.614V47.8877C47.5186 47.4274 47.1578 47.1964 46.7989 47.1964Z" fill="black"/>
<path fill-rule="evenodd" clip-rule="evenodd" d="M46.7989 47.1964C46.4399 47.1964 46.0809 47.4274 46.0809 47.8877V50.614C46.0809 51.076 46.4399 51.3088 46.7989 51.3088C47.1578 51.3088 47.5186 51.076 47.5186 50.614V47.8877C47.5186 47.4274 47.1578 47.1964 46.7989 47.1964Z" stroke="black" stroke-width="0.5" stroke-miterlimit="10" stroke-linejoin="round"/>
<path fill-rule="evenodd" clip-rule="evenodd" d="M17.1005 32.8225C16.1747 32.8225 16.1747 34.2567 17.1005 34.2567H46.7971C47.7229 34.2567 47.7229 32.8225 46.7971 32.8225H17.1005Z" fill="black"/>
<path fill-rule="evenodd" clip-rule="evenodd" d="M17.1005 32.8225C16.1747 32.8225 16.1747 34.2567 17.1005 34.2567H46.7971C47.7229 34.2567 47.7229 32.8225 46.7971 32.8225H17.1005Z" stroke="black" stroke-width="0.5" stroke-miterlimit="10" stroke-linejoin="round"/>
<path fill-rule="evenodd" clip-rule="evenodd" d="M53.0329 15.3153C50.9715 15.3153 48.8035 15.6316 46.5608 16.0137C45.6989 16.1595 46.001 17.4106 46.8042 17.4106C46.8487 17.4106 46.8949 17.4053 46.9428 17.3982C49.0611 17.0374 51.0621 16.7495 52.9387 16.7495C56.619 16.7495 59.8195 17.8567 62.4922 21.6954C67.0415 28.2338 65.9681 37.189 66.2862 44.7137C66.5617 51.2378 69.309 57.2749 69.5187 63.8079C69.7089 69.7615 63.5798 78.2014 56.9566 78.2014C55.9828 78.2014 54.9983 78.0184 54.0209 77.6185C53.925 77.5794 53.8361 77.5616 53.7544 77.5616C53.0951 77.5616 52.8872 78.6937 53.6388 79.0029C54.6731 79.4259 55.7091 79.6143 56.7345 79.6143C61.2678 79.6143 65.5736 75.9301 68.257 72.5019C74.132 65.0022 68.8968 54.8135 67.8785 46.7308C66.7554 37.8253 69.1615 27.0395 62.7303 19.545C59.9261 16.2803 56.6403 15.3153 53.0329 15.3153Z" fill="black"/>
<path fill-rule="evenodd" clip-rule="evenodd" d="M53.0329 15.3153C50.9715 15.3153 48.8035 15.6316 46.5608 16.0137C45.6989 16.1595 46.001 17.4106 46.8042 17.4106C46.8487 17.4106 46.8949 17.4053 46.9428 17.3982C49.0611 17.0374 51.0621 16.7495 52.9387 16.7495C56.619 16.7495 59.8195 17.8567 62.4922 21.6954C67.0415 28.2338 65.9681 37.189 66.2862 44.7137C66.5617 51.2378 69.309 57.2749 69.5187 63.8079C69.7089 69.7615 63.5798 78.2014 56.9566 78.2014C55.9828 78.2014 54.9983 78.0184 54.0209 77.6185C53.925 77.5794 53.8361 77.5616 53.7544 77.5616C53.0951 77.5616 52.8872 78.6937 53.6388 79.0029C54.6731 79.4259 55.7091 79.6143 56.7345 79.6143C61.2678 79.6143 65.5736 75.9301 68.257 72.5019C74.132 65.0022 68.8968 54.8135 67.8785 46.7308C66.7554 37.8253 69.1615 27.0395 62.7303 19.545C59.9261 16.2803 56.6403 15.3153 53.0329 15.3153V15.3153Z" stroke="black" stroke-width="0.5" stroke-miterlimit="10" stroke-linejoin="round"/>
<path fill-rule="evenodd" clip-rule="evenodd" d="M52.4978 18.8021C51.6093 18.8021 50.6515 18.891 49.619 19.0776C48.7589 19.2322 49.0575 20.4746 49.8554 20.4746C49.9016 20.4746 49.9496 20.471 49.9993 20.4621L50.0029 20.4568C50.8985 20.2951 51.7301 20.2169 52.5013 20.2169C62.3887 20.2169 62.3638 32.857 62.5379 40.9064C62.6144 44.5304 62.6037 48.1827 63.2896 51.7569C64.0093 55.4945 65.6477 58.827 66.0227 62.6784C66.5717 68.316 60.5086 73.8185 55.549 74.7552C54.6924 74.9133 54.9892 76.1521 55.7835 76.1521C55.8297 76.1521 55.8795 76.1486 55.931 76.1397C62.92 74.828 67.9667 67.9214 67.2879 60.9366C66.8934 56.8773 64.7983 53.1592 64.322 49.0891C63.9595 46.0197 64.0146 42.8846 63.9471 39.7956C63.7517 30.7776 62.8258 18.8021 52.4978 18.8021Z" fill="black"/>
<path fill-rule="evenodd" clip-rule="evenodd" d="M52.4978 18.8021C51.6093 18.8021 50.6515 18.891 49.619 19.0776C48.7589 19.2322 49.0575 20.4746 49.8554 20.4746C49.9016 20.4746 49.9496 20.471 49.9993 20.4621L50.0029 20.4568C50.8985 20.2951 51.7301 20.2169 52.5013 20.2169C62.3887 20.2169 62.3638 32.857 62.5379 40.9064C62.6144 44.5304 62.6037 48.1827 63.2896 51.7569C64.0093 55.4945 65.6477 58.827 66.0227 62.6784C66.5717 68.316 60.5086 73.8185 55.549 74.7552C54.6924 74.9133 54.9892 76.1521 55.7835 76.1521C55.8297 76.1521 55.8795 76.1486 55.931 76.1397C62.92 74.828 67.9667 67.9214 67.2879 60.9366C66.8934 56.8773 64.7983 53.1592 64.322 49.0891C63.9595 46.0197 64.0146 42.8846 63.9471 39.7956C63.7517 30.7776 62.8258 18.8021 52.4978 18.8021V18.8021Z" stroke="black" stroke-width="0.5" stroke-miterlimit="10" stroke-linejoin="round"/>
</svg>
