<svg width="64" height="202" viewBox="0 0 64 202" fill="none" xmlns="http://www.w3.org/2000/svg">
<path fill-rule="evenodd" clip-rule="evenodd" d="M44.4039 3.12848C44.0375 3.40555 42.4723 3.49747 40.563 3.49747C36.8325 3.49747 31.7879 3.14712 31.7879 3.14712C31.7879 3.14712 29.2376 6.83216 29.5519 11.7397C29.8376 16.1888 31.2215 24.9194 28.6575 24.9194C28.3929 24.9194 28.086 24.8262 27.732 24.6261C23.947 22.4855 27.6997 4.1771 27.6997 4.1771C27.6997 4.1771 23.3072 5.71768 20.0501 8.27832C16.7955 10.839 16.2626 11.5558 16.7409 17.384C17.2191 23.211 25.7954 28.7187 25.9034 31.99C25.9457 33.2809 24.9221 34.1108 23.5482 34.1108C21.4377 34.1108 18.5023 32.1527 17.3321 26.8911C15.3992 18.204 11.7645 12.8927 11.7645 12.8927C11.7645 12.8927 7.48504 20.874 5.54716 23.8422C3.60928 26.8103 6.37197 29.0554 10.244 31.6061C14.116 34.1568 18.1458 40.1825 13.3707 40.3714C13.3383 40.3726 13.3061 40.3739 13.2738 40.3739C8.53225 40.3739 3.9149 26.6066 3.9149 26.6053C3.9149 26.6066 -1.58317 40.2123 5.99062 46.5413C8.726 48.8248 11.6987 49.5554 14.3806 49.5554C19.1259 49.5554 22.9619 47.2693 22.9619 47.2693C22.9619 47.2693 23.8948 55.7141 34.7531 59.4811C36.4698 60.0762 38.0971 60.3272 39.6213 60.3272C47.7392 60.3272 52.9243 53.2168 52.9243 53.2168C52.1554 53.3038 51.3703 53.3448 50.579 53.3448C42.9679 53.3448 34.8164 49.5753 34.7344 47.724C34.6947 46.822 35.44 46.3375 36.7878 46.3375C38.5009 46.3375 41.1877 47.1215 44.4747 48.8323C48.1343 50.7382 50.7529 51.0972 52.2088 51.0972C53.0882 51.0972 53.5429 50.9655 53.5429 50.9655C56.8174 48.8136 58.6572 43.9036 58.6572 43.9036C56.6945 44.6031 54.2485 44.8814 51.7628 44.8814C45.866 44.8814 39.7443 43.3147 39.312 42.0921C38.963 41.1119 39.9195 40.5205 41.9319 40.5205C43.4847 40.5205 45.6673 40.8721 48.3654 41.6697C50.1516 42.1977 51.8783 42.3854 53.4324 42.3854C57.2634 42.3854 60.0361 41.2411 60.0361 41.2411C58.472 38.1785 61.1863 30.3003 61.1863 30.3003C58.4199 32.8497 52.8932 33.9978 48.7281 33.9978C45.6983 33.9978 43.3878 33.3902 43.3878 32.2695C43.3865 30.5215 45.1517 30.1413 48.3244 30.1413C49.9753 30.1413 52.0088 30.2444 54.3715 30.3115C54.5479 30.3164 54.7218 30.3189 54.892 30.3189C61.3689 30.3189 63.1714 26.8203 63.1714 26.8203C63.1714 26.8203 63.2074 25.0821 60.7466 20.997C58.287 16.9107 61.1491 6.06683 61.1491 6.06683C61.1491 6.06683 55.4075 5.56488 52.4174 4.34232C51.6361 4.02427 50.8548 3.85777 50.1181 3.85777C48.0324 3.85777 46.3182 5.18841 46.0635 8.13544C45.7729 11.4925 43.1157 15.2148 40.389 15.2148C39.8773 15.2148 39.3617 15.0831 38.8598 14.7924C35.6885 12.9573 44.4039 3.12848 44.4039 3.12848Z" fill="#A6DFDA"/>
<path fill-rule="evenodd" clip-rule="evenodd" d="M31.7867 3.14833C31.7867 3.14833 29.2365 6.83338 29.552 11.7397C29.8364 16.1888 31.2203 24.9193 28.6576 24.9193C28.393 24.9193 28.0862 24.8262 27.7321 24.6261C23.9458 22.4854 27.6999 4.17831 27.6999 4.17831C27.6999 4.17831 23.3061 5.71766 20.049 8.27954C16.7931 10.8414 16.2615 11.5571 16.7397 17.384C16.7521 17.5344 16.7732 17.6835 16.7968 17.8325C17.3322 18.9694 17.9136 20.1112 18.5521 21.248C22.2825 27.9061 26.9532 29.0616 29.7495 29.0616C31.2365 29.0616 32.1929 28.7348 32.1929 28.7348L41.6922 18.332C41.1991 17.3443 40.8624 16.2894 40.6898 15.2011C40.5891 15.211 40.4898 15.216 40.3904 15.216C39.8773 15.216 39.3618 15.0843 38.86 14.7936C36.4761 13.4145 40.7991 7.52914 43.0997 4.68273C43.3854 4.17457 43.6674 3.71117 43.9345 3.29866C43.2537 3.44528 42.0015 3.49745 40.5507 3.49745C36.8227 3.49745 31.7867 3.14833 31.7867 3.14833Z" fill="#A6DFDA"/>
<path fill-rule="evenodd" clip-rule="evenodd" d="M33.2006 27.9226C26.1473 34.0279 21.2778 48.0871 21.2778 48.0871C22.3325 47.6436 22.9623 47.2721 22.9623 47.2721C22.9623 47.2721 23.1685 49.1345 24.5113 51.5L29.7597 57.0388L29.7734 57.0487L39.6664 60.325C47.7582 60.2977 52.9247 53.2171 52.9247 53.2171C52.1557 53.304 51.3707 53.3451 50.5794 53.3451C42.9682 53.3451 34.8168 49.5755 34.7348 47.7243C34.6951 46.8223 35.4404 46.3378 36.7882 46.3378C38.5012 46.3378 41.1882 47.1217 44.4751 48.8326C48.1347 50.7385 50.7533 51.0975 52.2092 51.0975C53.0887 51.0975 53.5433 50.9658 53.5433 50.9658C56.8178 48.8139 58.6575 43.9039 58.6575 43.9039C56.6948 44.6034 54.2489 44.8817 51.7632 44.8817C45.8664 44.8817 39.7447 43.315 39.3124 42.0924C38.9633 41.1122 39.9198 40.5195 41.9335 40.5195C43.4862 40.5195 45.6676 40.8724 48.3657 41.67C50.152 42.198 51.8787 42.3856 53.4328 42.3856C57.2638 42.3856 60.0364 41.2413 60.0364 41.2413C58.4712 38.1763 61.1867 30.3006 61.1867 30.3006C60.4786 30.9528 59.5867 31.5107 58.5855 31.9853C53.7744 35.6977 48.1608 36.8481 43.4403 36.8481C38.9621 36.8481 35.2876 35.8119 33.8702 34.946C30.9137 33.1395 33.2006 27.9226 33.2006 27.9226Z" fill="#A6DFDA"/>
<path fill-rule="evenodd" clip-rule="evenodd" d="M58.646 28.0303C55.8224 30.0095 51.1467 30.8606 47.5976 30.8606C45.8672 30.8606 44.4051 30.6581 43.5567 30.2866C43.1803 30.1213 43.061 29.9784 43.0499 29.9536C43.0499 29.5722 43.1703 29.4057 43.2784 29.3026C43.8076 28.7907 45.2175 28.6515 47.1542 28.6515C48.2349 28.6515 49.4809 28.6938 50.8274 28.741C51.5703 28.7671 52.3578 28.7969 53.1851 28.8193C53.3752 28.8242 53.5628 28.8267 53.7467 28.8267C55.7826 28.8267 57.3851 28.4987 58.646 28.0303ZM4.59187 26.8674C5.7583 28.09 7.33473 29.1286 8.62659 29.9797C11.6415 31.9651 13.8763 35.3494 13.5222 36.6229C13.4191 36.9957 12.9657 37.1994 12.1769 37.2305C12.1583 37.2305 12.1384 37.2317 12.1197 37.2317C9.64775 37.2317 6.54839 31.6868 4.59187 26.8674ZM31.0661 1.68844C32.8761 1.80897 36.3033 2.00776 39.1344 2.00776C39.8735 2.00776 40.5729 1.9941 41.1915 1.96177C38.948 4.73239 35.8127 9.12683 36.2139 11.6067C36.3269 12.3025 36.6959 12.8504 37.2847 13.1908C37.9034 13.5486 38.5567 13.7275 39.2275 13.7275C39.8934 13.7275 40.5753 13.5511 41.2561 13.197C43.5455 12.0055 45.4647 8.86468 45.7231 5.89033C45.8511 4.41681 46.3927 3.34832 47.2908 2.80041C47.7616 2.51218 48.3318 2.36807 48.9591 2.36807C49.579 2.36807 50.2535 2.50844 50.9417 2.79049C53.2796 3.7459 57.0783 4.26525 58.9602 4.47522C58.2733 7.42844 56.6932 15.4769 58.877 19.1048C60.6733 22.0878 61.072 23.7266 61.1602 24.3006C60.6857 24.974 58.7739 27.1768 53.7541 27.1768C53.5839 27.1768 53.4087 27.1743 53.2311 27.1681C52.4088 27.1445 51.6262 27.1171 50.8809 27.091C49.5169 27.0426 48.2945 27.0004 47.2163 27.0004C44.7617 27.0004 43.0548 27.2227 42.1306 28.1148C41.6449 28.5844 41.3977 29.2044 41.399 29.9548C41.399 30.4965 41.6573 31.2569 42.8933 31.7998C43.9915 32.2807 45.6424 32.5167 47.5256 32.5167C51.1032 32.5167 55.5168 31.6644 58.5553 30.0108C57.9069 32.4372 57.1802 36.0576 57.8062 38.4182C56.7988 38.7263 54.7491 39.2345 52.2361 39.2345C50.7578 39.2345 49.1181 39.0581 47.4349 38.5611C44.7666 37.7722 42.5082 37.3746 40.8027 37.3746C39.3319 37.3746 38.2723 37.669 37.712 38.2604C37.2599 38.7363 37.1344 39.3898 37.3692 40.0508C37.5456 40.549 38.025 40.9702 38.881 41.3777C40.8996 42.3368 45.8598 43.3755 50.7057 43.3755C52.5466 43.3755 54.3703 43.2252 56.01 42.8636C55.2274 44.4092 53.8734 46.6195 52.0498 47.8768C51.8995 47.9041 51.5703 47.9489 51.0734 47.9489C49.7516 47.9489 47.2336 47.6283 43.6921 45.7846C40.4362 44.0886 37.6077 43.1966 35.6363 43.1966C34.8201 43.1966 34.1505 43.3494 33.6599 43.6625C33.0375 44.0588 32.7133 44.6912 32.7468 45.4441C32.7717 46.0281 33.1332 46.6095 33.8549 47.2245C36.2375 49.2596 43.148 51.8501 49.5107 51.8501C49.6175 51.8501 49.7256 51.8501 49.8324 51.8488C47.7802 53.946 43.753 57.1801 38.4387 57.1801C37.0015 57.1801 35.4711 56.944 33.8599 56.3849C24.7755 53.2341 22.9581 46.5685 22.6687 45.1385C27.9035 35.7321 36.5418 23.2346 49.9032 11.7931C50.2498 11.4949 50.2895 10.9731 49.9927 10.6277C49.8299 10.4364 49.5976 10.3382 49.3653 10.3382C49.1753 10.3382 48.9852 10.4041 48.8299 10.537C35.3295 22.099 26.573 34.7618 21.2501 44.3148C20.5694 44.685 17.2129 46.3884 13.2067 46.3884C10.6787 46.3884 7.89247 45.7113 5.35585 43.5917C3.52356 42.061 -0.299975 37.4069 2.79565 26.7854C3.33475 28.1533 4.07261 29.8927 4.95339 31.6197C7.41047 36.4378 9.80797 38.8841 12.1073 38.8841C12.152 38.8841 12.1967 38.8841 12.2402 38.8816C14.3235 38.7971 14.9346 37.7088 15.1135 37.0652C15.8389 34.4574 12.275 30.4034 9.53595 28.6006C4.8279 25.4995 3.78442 23.9514 5.07508 21.9772C6.54959 19.721 9.27254 14.7637 10.6465 12.2354C11.8005 14.2643 14.0141 18.6836 15.3632 24.754C16.5843 30.2456 19.7408 32.6198 22.3706 32.6198C22.5482 32.6198 22.7221 32.6099 22.8935 32.5875C24.542 32.3801 25.6178 31.196 25.5656 29.6455C25.5097 27.921 23.773 25.9803 21.7644 23.7328C19.3669 21.0504 16.6501 18.0114 16.4005 14.9985C15.9358 9.33433 16.4638 8.91812 19.3992 6.6097C21.3966 5.03926 23.8538 3.85648 25.4401 3.1831C24.368 8.95041 22.6066 21.0156 26.1631 23.0271C26.6823 23.3203 27.1271 23.4271 27.4997 23.4271C27.9133 23.4271 28.2376 23.2955 28.4736 23.1414C30.2252 22.0083 29.9954 18.0474 29.4463 12.1261C29.3531 11.1185 29.2649 10.1742 29.2127 9.37037C28.9792 5.71639 30.4537 2.74701 31.0661 1.68844ZM43.2262 0C43.0698 0 42.9107 0.0434851 42.7704 0.132927C42.5244 0.277042 41.3083 0.3578 39.4151 0.3578C37.2499 0.3578 34.199 0.250958 30.6997 0.00868366C30.6698 0.0049764 30.6388 0.00370725 30.609 0.00370725C30.3481 0.00370725 30.1009 0.135432 29.9457 0.361541C29.8351 0.521821 27.2363 4.34103 27.5643 9.47598C27.6165 10.2922 27.7059 11.2489 27.8028 12.2888C28.0674 15.1439 28.6177 21.0815 27.5755 21.7573C27.5568 21.7685 27.5283 21.7759 27.4898 21.7759C27.3891 21.7759 27.219 21.7288 26.9755 21.5908C24.9606 20.4503 25.5991 10.5482 27.3457 2.02516C27.455 1.49339 27.0376 1.03369 26.5395 1.03369C26.4501 1.03369 26.3569 1.04862 26.2649 1.08092C26.0799 1.14427 21.7196 2.68238 18.3768 5.3126C14.8452 8.08943 14.2552 9.07095 14.7545 15.1339C15.0476 18.6985 17.9619 21.9574 20.5333 24.8348C22.1781 26.6748 23.8786 28.5758 23.9146 29.7014C23.9482 30.7127 22.9818 30.9128 22.6848 30.95C22.588 30.9625 22.4873 30.9687 22.3842 30.9687C20.6886 30.9687 18.0625 29.2901 16.9744 24.395C15.0315 15.6595 11.4353 10.332 11.2838 10.1096C11.1185 9.86734 10.8601 9.74931 10.6042 9.74931C10.316 9.74931 10.0291 9.8984 9.87383 10.1866C9.83282 10.2637 5.5894 18.1667 3.69253 21.074C3.13973 21.9226 2.91239 22.7227 2.92608 23.4806C2.88134 23.4706 2.83786 23.4657 2.79311 23.4644C2.77448 23.4632 2.75585 23.4619 2.73721 23.4619C2.4155 23.4619 2.11489 23.662 1.98693 23.9788C1.92856 24.1229 0.563375 27.5321 0.128595 31.7998C-0.460263 37.5709 0.980725 42.0871 4.29748 44.8577C7.19188 47.2755 10.3433 48.047 13.1856 48.047C15.8725 48.047 18.2837 47.3587 19.9445 46.7176C15.9533 54.2852 14.3235 59.3891 14.2874 59.5046C14.1496 59.942 14.393 60.4079 14.8303 60.5433C14.911 60.5682 14.993 60.5806 15.0738 60.5806C15.4278 60.5806 15.7557 60.3507 15.8638 59.9942C15.8998 59.8811 17.5296 54.771 21.5383 47.2134C21.8986 48.2147 22.3618 49.1739 22.9209 50.0796C24.4414 52.5496 27.4798 55.919 33.3195 57.9454C35.0102 58.5318 36.7257 58.8275 38.4151 58.8275H38.4189C46.9119 58.8275 52.3752 51.46 52.4299 51.3867C52.6212 51.1208 52.6411 50.7667 52.4746 50.4847C52.3268 50.2287 52.0535 50.0734 51.7628 50.0734C51.7318 50.0734 51.7007 50.0759 51.6684 50.0796C50.9293 50.1641 50.1703 50.2039 49.4038 50.2039C43.5256 50.2039 37.1729 47.8843 34.9257 45.9672C34.4673 45.5758 34.4003 45.3683 34.3965 45.3683C34.3878 45.1882 34.4375 45.1248 34.5469 45.0553C34.7518 44.9248 35.1095 44.8441 35.6176 44.8441C36.9866 44.8441 39.4474 45.4342 42.9294 47.2481C46.7094 49.2161 49.4696 49.6025 51.0548 49.6025C52.0237 49.6025 52.5541 49.4572 52.6087 49.441C52.6883 49.4199 52.7628 49.3851 52.8324 49.3391C56.2932 47.0655 58.1888 42.0871 58.2671 41.8746C58.3789 41.574 58.3069 41.2348 58.082 41.0062C57.9242 40.8459 57.7106 40.759 57.4932 40.759C57.4 40.759 57.3069 40.7751 57.2162 40.8074C55.3168 41.4858 52.9703 41.7529 50.5927 41.7529C46.1206 41.7529 41.5343 40.8099 39.5915 39.8843C39.0871 39.6457 38.9344 39.4917 38.9232 39.4917C38.8996 39.4246 38.9033 39.3973 38.9096 39.396C39.1108 39.1836 39.7095 39.0196 40.7231 39.0196C42.0635 39.0196 44.1281 39.3053 46.9678 40.1452C48.8585 40.703 50.6734 40.9018 52.2995 40.9018C56.2037 40.9018 59.0223 39.7563 59.1864 39.688C59.6323 39.5041 59.8273 38.9786 59.6074 38.5499C58.4509 36.2837 60.0795 30.3487 60.8049 28.2515C60.9478 27.8365 60.7404 27.383 60.3329 27.2165C62.0558 26.1667 62.6944 24.974 62.7403 24.882C62.7974 24.7702 62.8298 24.646 62.8322 24.5192C62.8372 24.3167 62.795 22.4146 60.2907 18.2537C58.0609 14.5513 60.7565 4.06769 60.7838 3.96209C60.9155 3.46511 60.5677 2.97188 60.0571 2.9284C60.0012 2.92342 54.3988 2.42024 51.5653 1.2623C50.6771 0.899527 49.7914 0.718105 48.9566 0.718105C48.0262 0.718105 47.1604 0.943012 46.4287 1.39025C45.4771 1.97172 44.297 3.19799 44.0772 5.74745C43.8673 8.16645 42.2934 10.7954 40.4933 11.7335C40.0523 11.962 39.6337 12.0764 39.23 12.0764C38.8437 12.0764 38.4722 11.972 38.1095 11.762C37.9555 11.6713 37.8772 11.5508 37.8424 11.3446C37.5245 9.37284 41.3642 4.1733 43.8573 1.35919C44.1269 1.05607 44.1256 0.603815 43.8548 0.285759C43.6945 0.0981588 43.4623 0 43.2262 0Z" fill="black"/>
<path fill-rule="evenodd" clip-rule="evenodd" d="M28.6999 90.6226C28.0689 90.8055 27.4466 90.9942 26.8166 91.179C24.5762 96.6526 20.6995 102.95 15.5072 106.017C14.7642 106.456 14.0471 106.649 13.3616 106.649C9.47812 106.649 6.60964 100.417 5.87238 96.9629C5.1591 97.1506 4.4535 97.3411 3.73828 97.5174C3.77081 97.5279 3.79759 97.5499 3.81295 97.5796C6.49857 103.21 9.60936 108.943 15.0581 112.346C15.9917 112.926 16.9616 113.4 17.9592 113.791L19.1589 113.034C19.1369 113.04 19.1149 113.043 19.0919 113.043C19.0516 113.043 19.0105 113.033 18.9732 113.014C18.1986 112.667 17.5533 112.04 17.2698 111.231C17.2306 111.133 17.2996 111.056 17.3828 111.034L18.5596 110.546C18.303 110.122 18.1756 109.631 18.2407 109.138C18.2579 109.01 18.3604 108.943 18.4571 108.943C18.5509 108.943 18.6409 109.006 18.6448 109.137C18.6764 110.123 19.291 110.875 20.2312 111.146L21.8752 110.442C20.7119 109.282 20.2064 107.66 20.9263 105.725C21.8091 103.349 23.4741 101.189 24.6556 98.9547C26.1023 96.2246 27.3795 93.414 28.6999 90.6226Z" fill="white"/>
<path fill-rule="evenodd" clip-rule="evenodd" d="M53.6982 83.249C53.2759 83.3706 52.8604 83.4951 52.4382 83.6167C53.6752 86.206 55.8122 91.7802 51.9632 92.6804C51.6444 92.7532 51.3218 92.7867 50.9972 92.7867C49.3887 92.7867 47.7399 91.9813 46.3181 91.3895C43.5291 90.2165 40.8482 88.9946 37.8945 88.3022C37.7298 88.263 37.6877 88.0829 37.7356 87.9537L34.4927 88.9122C39.4685 90.5756 44.1686 92.9945 48.3968 96.1134C49.1608 96.6774 50.2983 97.297 50.9694 98.1167L52.1739 97.59C52.172 97.5833 52.1681 97.5718 52.1672 97.5661C52.1059 97.2673 52.0686 96.9896 51.8905 96.7358C51.6942 96.462 51.4156 96.2877 51.0996 96.1871C50.8861 96.123 50.9656 95.8453 51.1628 95.8453C51.1734 95.8453 51.1829 95.8462 51.1935 95.8472C51.7852 95.9238 52.4018 96.4237 52.5856 97.0279L53.4167 96.7311C53.1629 96.1776 52.9514 95.6777 52.4975 95.2161C52.3529 95.0667 52.4832 94.8695 52.6431 94.8695C52.6899 94.8695 52.7388 94.8867 52.7847 94.926C53.3085 95.3875 53.8695 96.0627 53.9988 96.7732C54.0237 96.8881 53.9605 96.9886 53.8753 97.0499L55.0893 97.3612C56.3589 92.6852 55.883 87.6291 53.6982 83.249Z" fill="white"/>
<path fill-rule="evenodd" clip-rule="evenodd" d="M32.2053 89.5922C31.5207 89.7904 30.839 89.9953 30.1554 90.1936C31.0985 93.6428 31.9525 97.118 32.7195 100.62C33.2575 103.072 34.169 105.79 34.1613 108.314C34.1518 111.482 30.7519 112.447 27.8163 112.447C26.9843 112.447 26.1897 112.37 25.5204 112.242C24.0948 111.975 22.7821 111.35 21.8744 110.442L20.2305 111.146C20.534 111.232 20.4277 111.64 20.1472 111.64C20.1319 111.64 20.1166 111.638 20.1003 111.636C19.4492 111.531 18.89 111.105 18.5588 110.546L17.3831 111.034C17.3984 111.029 17.4146 111.026 17.4299 111.026C17.4855 111.026 17.5391 111.055 17.5697 111.105C17.946 111.76 18.4458 112.279 19.16 112.566C19.4253 112.667 19.3563 112.982 19.1591 113.034L17.9594 113.791C20.4593 114.76 23.1402 115.16 25.8497 115.16C29.4143 115.16 33.0277 114.468 36.3405 113.473C43.1623 111.42 50.4514 107.569 53.7421 100.931C54.306 99.7878 54.757 98.5927 55.0892 97.3622L53.8752 97.05C53.8283 97.0845 53.7727 97.1036 53.7192 97.1036C53.6435 97.1036 53.5707 97.0653 53.5257 96.9724C53.4845 96.8939 53.4501 96.8125 53.4156 96.7321L52.5855 97.0289C52.6382 97.1802 52.6573 97.3411 52.643 97.501C52.6248 97.6466 52.4888 97.7404 52.3653 97.7404C52.2801 97.7404 52.2016 97.6954 52.1729 97.591L50.9684 98.1177C51.2652 98.4787 51.4691 98.8733 51.5084 99.3243C51.6444 100.815 50.2158 102.55 49.2795 103.614C47.7274 105.374 45.5952 106.812 43.4716 106.812C42.3131 106.812 41.1574 106.384 40.0985 105.347C38.1587 103.448 37.1773 100.404 36.0494 98.0009C34.7396 95.2124 33.4222 92.4191 32.2053 89.5922Z" fill="white"/>
<path fill-rule="evenodd" clip-rule="evenodd" d="M48.981 86.276C49.2424 86.276 49.5029 86.2779 49.7623 86.2836C50.1539 86.2855 50.1501 86.883 49.7584 86.8869C49.7403 86.8869 49.7221 86.8869 49.7039 86.8869C48.7273 86.8869 47.7373 86.8591 46.7626 86.7911C46.4744 86.7729 46.4687 86.3506 46.7665 86.3334C47.4999 86.2951 48.2429 86.276 48.981 86.276ZM43.5198 87.4452C43.5408 87.4452 43.5629 87.4481 43.5868 87.4548C44.6553 87.7478 45.7755 87.9767 46.8085 88.376C47.0939 88.4832 47.0211 88.8892 46.7358 88.8892C46.7148 88.8892 46.6927 88.8873 46.6698 88.8825C45.5916 88.6489 44.5212 88.2275 43.4738 87.8895C43.222 87.8053 43.2928 87.4452 43.5198 87.4452ZM49.7489 88.8059C49.7767 88.8059 49.8054 88.8117 49.8361 88.8241C50.6154 89.1181 51.3948 89.3623 52.2143 89.4983C52.6193 89.5644 52.4901 90.1629 52.1109 90.1629C52.088 90.1629 52.064 90.1609 52.0401 90.1562C51.2071 89.9972 50.3741 89.7176 49.6416 89.2876C49.4301 89.1622 49.5316 88.8059 49.7489 88.8059ZM51.5231 83.8858C47.0661 85.1938 42.6044 86.5096 38.1389 87.832C40.8647 88.1116 43.3598 89.1727 45.8808 90.2069C46.8871 90.6196 49.0404 91.7362 50.7667 91.7362C51.8648 91.7362 52.7888 91.2842 53.1344 89.91C53.548 88.2697 52.2507 85.4524 51.5231 83.8858Z" fill="#FED58A"/>
<path fill-rule="evenodd" clip-rule="evenodd" d="M39.6631 94.1733C39.688 94.1733 39.7148 94.1781 39.7426 94.1868C40.7498 94.4903 41.7963 94.7517 42.7662 95.1559C43.0419 95.2707 42.8725 95.6614 42.6216 95.6614C42.6015 95.6614 42.5814 95.6586 42.5613 95.6538C41.5646 95.4106 40.5861 94.9969 39.6162 94.6627C39.3462 94.5679 39.4171 94.1733 39.6631 94.1733ZM36.6634 92.9093C36.7448 92.9093 36.83 92.9428 36.8923 93.0223C37.5749 93.9033 38.2356 94.8264 38.8368 95.761C38.9795 95.9918 38.7851 96.191 38.5783 96.191C38.4893 96.191 38.3974 96.1537 38.3294 96.0665C37.6583 95.176 37.0224 94.2327 36.4317 93.2885C36.3044 93.0826 36.4767 92.9093 36.6634 92.9093ZM40.4903 97.1802C40.5191 97.1802 40.5497 97.186 40.5822 97.1994C41.3817 97.5211 42.2789 98.0852 42.6858 98.8733C42.8045 99.1002 42.6101 99.3578 42.4004 99.3578C42.3296 99.3578 42.2568 99.3281 42.1937 99.2582V99.2572C41.9275 98.9642 41.7111 98.6377 41.4076 98.3734C41.0955 98.0995 40.7451 97.8936 40.364 97.7203C40.1026 97.6025 40.2443 97.1802 40.4903 97.1802ZM44.5193 99.1098C44.5816 99.1098 44.6485 99.1356 44.7117 99.196C45.2096 99.6834 45.697 100.179 46.2331 100.617C46.777 101.059 47.3888 101.401 47.9153 101.848C48.1586 102.052 47.9268 102.343 47.6779 102.343C47.6368 102.343 47.5956 102.335 47.5554 102.318C46.3433 101.8 45.1253 100.624 44.3144 99.6049C44.144 99.3904 44.3106 99.1098 44.5193 99.1098ZM39.8901 99.9984C39.9791 99.9984 40.0691 100.042 40.1313 100.145C40.8858 101.41 41.7877 102.32 42.8265 103.334C43.0419 103.542 42.8466 103.891 42.6006 103.891C42.5498 103.891 42.4971 103.877 42.4455 103.842H42.4445C41.242 103.052 40.2405 101.733 39.6057 100.455C39.4869 100.217 39.688 99.9984 39.8901 99.9984ZM33.276 89.2771C33.1496 89.3106 33.0203 89.3528 32.8892 89.3892C34.7084 92.9179 36.3886 96.5233 38.0938 100.11C38.9402 101.882 39.8067 104.265 41.5857 105.334C42.208 105.708 42.8466 105.867 43.4814 105.867C45.4289 105.867 47.3352 104.364 48.5817 102.931C49.5296 101.838 50.7466 100.249 50.0572 98.654C49.7192 97.8591 48.1595 97.1534 47.5161 96.6947C46.2264 95.7697 44.8936 94.9107 43.5168 94.1169C40.3793 92.2993 37.0771 90.8945 33.6456 89.7406C33.4072 89.6649 33.2894 89.4725 33.276 89.2771Z" fill="#FED58A"/>
<path fill-rule="evenodd" clip-rule="evenodd" d="M28.8503 95.6193C28.9527 95.6193 29.0485 95.6777 29.0772 95.8147C29.3166 96.9753 29.4851 98.3734 29.0944 99.5129C29.0485 99.6422 28.9326 99.7054 28.8206 99.7054C28.6866 99.7054 28.5573 99.6154 28.5554 99.4411C28.5535 98.2547 28.7306 97.1534 28.5525 95.9574C28.5248 95.7553 28.6952 95.6193 28.8503 95.6193ZM27.0225 98.6166C27.1661 98.6166 27.3193 98.7459 27.2638 98.9135C26.7764 100.381 26.4078 101.951 25.8037 103.366C25.7568 103.477 25.6763 103.522 25.5921 103.522C25.4226 103.522 25.2369 103.342 25.2694 103.145C25.4983 101.652 26.1982 100.095 26.8358 98.7344C26.8751 98.6511 26.9469 98.6166 27.0225 98.6166ZM30.2482 100.925C30.3439 100.925 30.4387 100.978 30.4664 101.091C30.7537 102.265 30.8025 103.837 30.2606 104.941C30.2089 105.049 30.1055 105.097 29.9992 105.097C29.8288 105.097 29.6516 104.974 29.666 104.781C29.7263 104.174 29.9217 103.595 29.9791 102.982C30.0394 102.375 30.0212 101.764 30.0078 101.151C30.0078 101.006 30.1294 100.925 30.2482 100.925ZM28.2069 103.338C28.3141 103.338 28.4194 103.434 28.3936 103.567C28.2423 104.308 27.9235 105.024 27.6717 105.728C27.4342 106.389 27.2025 107.048 26.9287 107.695C26.8779 107.812 26.7774 107.861 26.6712 107.861C26.4643 107.861 26.2355 107.674 26.3207 107.442C26.5524 106.782 26.8415 106.145 27.1154 105.5C27.4094 104.81 27.6631 104.068 28.0546 103.429C28.092 103.364 28.1494 103.338 28.2069 103.338ZM24.6949 105.662C24.8941 105.662 25.0981 105.881 24.9879 106.123C24.5628 107.042 24.0487 107.931 23.5785 108.824C23.5297 108.914 23.456 108.95 23.3813 108.95C23.2195 108.95 23.0539 108.774 23.1468 108.581C23.5776 107.661 23.9788 106.711 24.4556 105.818C24.514 105.708 24.604 105.662 24.6949 105.662ZM29.8642 106.273C30.0538 106.273 30.2597 106.44 30.2233 106.689C30.1246 107.409 29.9705 108.119 29.8106 108.829C29.7799 108.969 29.6565 109.033 29.533 109.033C29.3778 109.033 29.2217 108.933 29.2438 108.752C29.3357 108.002 29.4324 107.251 29.5865 106.516C29.6211 106.345 29.7388 106.273 29.8642 106.273ZM29.329 90.862C28.1293 94.1418 26.6175 97.2923 24.9688 100.359C24.176 101.838 23.2397 103.255 22.4766 104.745C21.094 107.426 21.8801 110.228 24.9467 111.121C25.6936 111.34 26.6682 111.48 27.6822 111.48C30.3066 111.48 33.1971 110.547 33.109 107.651C33.0535 105.791 32.4091 103.797 32.0252 101.984C31.2238 98.2518 30.3247 94.5449 29.329 90.862Z" fill="#FED58A"/>
<path fill-rule="evenodd" clip-rule="evenodd" d="M20.8793 93.9177C21.1168 93.9177 21.2604 94.3036 21.0105 94.4137H21.0096C19.8406 94.905 18.6227 95.288 17.422 95.7103C17.3943 95.7199 17.3684 95.7237 17.3445 95.7237C17.1233 95.7237 17.062 95.3618 17.3014 95.2679C18.4618 94.8111 19.6213 94.3103 20.8076 93.9292C20.8325 93.9215 20.8564 93.9177 20.8793 93.9177ZM23.1514 94.5497C23.3707 94.5497 23.5612 94.8121 23.3601 95.0074H23.3582C22.575 95.7333 21.7487 96.4266 20.9177 97.096C20.8669 97.1381 20.8104 97.1563 20.7568 97.1563C20.5673 97.1563 20.4036 96.9322 20.5778 96.7656C21.3523 96.0292 22.1423 95.3005 22.9656 94.6206C23.0241 94.5708 23.0882 94.5497 23.1514 94.5497ZM13.0551 95.7544C13.3031 95.7544 13.4601 96.1173 13.2006 96.2801C12.0316 97.0337 10.8176 97.7366 9.61212 98.4232C9.56711 98.4481 9.52309 98.4596 9.48289 98.4596C9.25882 98.4596 9.12004 98.1302 9.35078 97.9808C10.515 97.2348 11.7023 96.4822 12.9144 95.7936C12.9632 95.7658 13.0111 95.7544 13.0551 95.7544ZM17.9496 96.2322C18.1765 96.2322 18.3134 96.5645 18.0789 96.7311H18.0779C16.8648 97.5815 15.4573 98.1886 14.0652 98.6827C14.0355 98.6923 14.0077 98.6971 13.981 98.6971C13.7416 98.6971 13.6755 98.3102 13.937 98.2097C15.2994 97.6724 16.5335 96.9724 17.8126 96.2705C17.8596 96.2437 17.9065 96.2322 17.9496 96.2322ZM17.964 98.518C18.2052 98.518 18.4178 98.8723 18.1966 99.0543C17.0802 99.9554 15.7638 100.588 14.3831 100.959C14.3582 100.966 14.3333 100.969 14.3113 100.969C14.0633 100.969 13.9934 100.587 14.2567 100.492C15.5665 100.027 16.6934 99.3799 17.8136 98.5688C17.8625 98.5333 17.9142 98.518 17.964 98.518ZM12.1254 100.062C12.3667 100.062 12.5132 100.437 12.269 100.622C11.5423 101.159 10.7687 101.639 10.02 102.144C9.97404 102.176 9.92902 102.189 9.88788 102.189C9.68966 102.189 9.56904 101.881 9.77301 101.731C10.4987 101.192 11.2159 100.619 11.9704 100.112C12.0239 100.077 12.0766 100.062 12.1254 100.062ZM16.8169 100.879C17.0572 100.879 17.2641 101.239 17.0525 101.432V101.433C16.0912 102.31 14.7862 102.966 13.508 103.218C13.4984 103.22 13.4888 103.221 13.4802 103.221C13.3347 103.221 13.2293 103.002 13.3912 102.929C14.5909 102.365 15.6029 101.743 16.6599 100.935C16.7116 100.897 16.7652 100.879 16.8169 100.879ZM25.7049 91.5007C19.2804 93.3623 12.8397 95.1654 6.37598 96.8326C7.35353 99.3454 8.43734 101.894 10.2708 103.918C11.2714 105.019 12.269 105.454 13.2428 105.454C15.0687 105.454 16.8112 103.929 18.3335 102.419C21.4941 99.2879 23.9489 95.5724 25.7049 91.5007Z" fill="#FED58A"/>
<path fill-rule="evenodd" clip-rule="evenodd" d="M3.59443 97.5566C2.80929 97.7568 2.02996 97.9617 1.24194 98.157C4.68205 105.077 7.6224 112.121 15.124 115.588C18.3247 117.074 21.8271 117.726 25.3792 117.813L25.4079 116.124C22.0147 116.032 18.6953 115.317 15.7185 113.693C9.70961 110.398 5.67203 104.045 3.54748 97.6907C3.52544 97.6323 3.55229 97.5873 3.59443 97.5566Z" fill="#FED58A"/>
<path fill-rule="evenodd" clip-rule="evenodd" d="M56.6183 82.3966C55.9797 82.5776 55.3401 82.7701 54.6967 82.9578C57.4044 88.5052 57.5835 95.0667 55.0108 100.734C51.9077 107.565 45.014 111.647 38.152 113.975C34.4161 115.244 30.2311 116.132 26.1236 116.132C25.8852 116.132 25.6468 116.129 25.4084 116.123L25.3796 117.813C25.6688 117.82 25.9589 117.824 26.2491 117.824C29.9726 117.824 33.7276 117.213 37.208 116.285C44.6809 114.292 52.0628 110.148 56.0985 103.32C59.8478 96.9733 60.3954 89.1238 56.6853 82.6676C56.6384 82.5862 56.6145 82.4924 56.6183 82.3966Z" fill="#FED58A"/>
<path fill-rule="evenodd" clip-rule="evenodd" d="M51.3759 84.2084C52.0489 85.664 53.2486 88.3577 52.8723 89.8439C52.6981 90.5401 52.3649 90.9998 51.8546 91.2478C51.5338 91.4038 51.1614 91.469 50.7602 91.469C49.4025 91.469 47.7184 90.722 46.6106 90.2298C46.3713 90.1245 46.1597 90.0307 45.9826 89.9579L45.6828 89.8343C43.6636 89.0051 41.5879 88.1509 39.3895 87.742C43.3879 86.5574 47.3833 85.3786 51.3759 84.2084ZM25.2251 91.92C23.4557 95.8577 21.0755 99.3232 18.1438 102.228C16.5937 103.766 14.9287 105.184 13.2426 105.184C13.2167 105.184 13.19 105.184 13.1651 105.183C12.2115 105.158 11.3316 104.685 10.4699 103.737C8.72922 101.816 7.66264 99.3778 6.73578 97.0173C12.2966 95.579 18.1945 93.953 25.2251 91.92ZM33.4879 89.9684C33.5108 89.978 33.5338 89.9876 33.5587 89.9952C37.2506 91.2363 40.4638 92.6593 43.3812 94.3494C44.7427 95.1327 46.0802 95.9956 47.3584 96.9139C47.5355 97.0393 47.7797 97.184 48.0477 97.3429C48.7017 97.7298 49.595 98.2584 49.8094 98.7611C50.405 100.14 49.4198 101.553 48.379 102.755C47.7059 103.528 45.6943 105.602 43.4922 105.602C42.9091 105.602 42.3127 105.457 41.7238 105.103C40.2771 104.234 39.447 102.414 38.7145 100.811C38.5853 100.53 38.4599 100.255 38.3354 99.9936L37.466 98.1617C36.1869 95.4641 34.8675 92.6813 33.4879 89.9684ZM29.2866 91.7419C30.2153 95.2362 31.0473 98.696 31.7606 102.038C31.8688 102.55 31.9981 103.076 32.1283 103.61C32.4586 104.956 32.7994 106.35 32.8387 107.659C32.8722 108.695 32.4931 109.527 31.7137 110.128C30.6854 110.923 29.1468 111.213 27.703 111.213C26.6938 111.213 25.7315 111.071 25.0211 110.861C23.7314 110.487 22.8171 109.746 22.3757 108.718C21.8941 107.593 22.0147 106.228 22.7156 104.868C23.1263 104.065 23.5984 103.267 24.0541 102.494C24.4419 101.842 24.8412 101.166 25.204 100.486C26.9073 97.3199 28.2468 94.45 29.2866 91.7419ZM53.5569 83.5697C55.6231 87.8358 56.076 92.6985 54.8284 97.2922C54.5019 98.5054 54.0557 99.6842 53.5014 100.811C50.0268 107.819 42.2102 111.424 36.2625 113.215C33.3548 114.089 29.6581 114.884 25.8407 114.884C23.2317 114.884 20.5661 114.512 18.0576 113.539C17.0437 113.143 16.0824 112.666 15.2006 112.118C9.81397 108.754 6.6726 102.93 4.16409 97.6886C4.58057 97.5833 4.99418 97.4732 5.40973 97.363L5.67113 97.2941C6.36912 100.262 8.53387 105.169 11.682 106.552C12.2392 106.797 12.8003 106.92 13.3623 106.92C14.1234 106.92 14.8856 106.696 15.6439 106.25C21.8712 102.569 25.6406 94.7325 27.0165 91.401L28.1998 91.0496C28.0179 91.4383 27.8351 91.8252 27.6531 92.213C26.6278 94.3983 25.5669 96.6601 24.4179 98.8281C23.991 99.6364 23.4854 100.455 22.999 101.245C22.1354 102.648 21.2421 104.097 20.6743 105.631C19.9763 107.509 20.3354 109.285 21.6835 110.632C22.6083 111.556 23.9536 112.222 25.4702 112.506C26.1835 112.641 26.9877 112.717 27.814 112.717C29.7423 112.717 31.7884 112.301 33.0695 111.243C33.9695 110.499 34.4281 109.514 34.431 108.315C34.4357 106.415 33.9369 104.433 33.4543 102.517C33.2868 101.853 33.1202 101.198 32.9823 100.561C32.2623 97.272 31.4226 93.8477 30.4843 90.3783L32.0526 89.9177C33.1939 92.5549 34.4367 95.1988 35.6392 97.7594L35.8068 98.1147C36.0596 98.6539 36.3047 99.2246 36.5546 99.8068C37.4479 101.883 38.3699 104.03 39.9104 105.537C40.9569 106.562 42.1556 107.081 43.4721 107.081C43.5334 107.081 43.5937 107.079 43.655 107.077C45.5775 107.007 47.7002 105.809 49.482 103.791C50.6223 102.496 51.914 100.815 51.777 99.2993C51.7349 98.8301 51.5396 98.3867 51.1767 97.9452C50.6644 97.3209 49.9081 96.8153 49.2408 96.369C48.9966 96.2053 48.762 96.0492 48.5562 95.8969C44.5559 92.9466 40.1249 90.6062 35.3759 88.9313L37.5024 88.3041C37.5044 88.3089 37.5072 88.3127 37.5101 88.3184C37.5761 88.443 37.6939 88.5339 37.8318 88.5646C40.3843 89.164 42.6947 90.1455 45.1419 91.1865L46.2133 91.6394C46.3971 91.7151 46.5839 91.7955 46.7734 91.8759C48.087 92.4362 49.5404 93.0567 50.991 93.0567C51.3366 93.0567 51.6803 93.0212 52.0231 92.9418C52.992 92.7148 53.6785 92.1948 54.0634 91.3933C55.0582 89.3258 53.7724 85.8536 52.8158 83.7871L53.5569 83.5697ZM56.4168 82.7328C56.4264 82.7567 56.4379 82.7787 56.4503 82.8007C59.9354 88.8643 59.7124 96.6735 55.8663 103.182C52.3161 109.19 45.6656 113.75 37.1376 116.025C33.3261 117.042 29.6696 117.555 26.2524 117.555C25.9623 117.555 25.6732 117.552 25.3859 117.544C21.5983 117.452 18.184 116.711 15.237 115.345C8.43336 112.2 5.46242 106.142 2.31624 99.7292C2.0893 99.2667 1.86143 98.8023 1.63168 98.3378C2.04429 98.2344 2.45502 98.1291 2.86583 98.0228L3.334 97.9021C4.7989 102.23 8.31274 109.941 15.5912 113.93C18.4033 115.466 21.7045 116.294 25.4012 116.394C25.6205 116.399 25.8417 116.402 26.0638 116.402C29.8314 116.402 34.0269 115.662 38.2377 114.231C44.1366 112.229 51.8756 108.283 55.2554 100.845C57.807 95.2257 57.7381 88.7867 55.0764 83.1263L55.4488 83.0162C55.7724 82.9204 56.0951 82.8257 56.4168 82.7328ZM57.3408 80.7649C57.2632 80.7649 57.1818 80.7764 57.0975 80.8013C51.1643 82.5087 45.0988 84.1874 39.2325 85.8095C26.4774 89.3383 13.2876 92.9877 0.54593 97.1954C0.228961 97.3046 0.0413579 97.5976 0.0815634 97.927C0.111217 98.1798 0.26536 98.3848 0.478877 98.4777C2.35838 105.464 7.3074 114.05 15.6267 117.375C18.7958 118.641 22.4226 119.274 26.3242 119.274C30.3053 119.274 34.5726 118.615 38.928 117.297C47.5891 114.676 54.2712 109.705 57.7429 103.296C61.1877 96.9455 61.5794 89.6601 58.7922 83.7976C58.6735 83.224 58.529 82.4742 58.4552 81.7024C58.4284 81.4122 58.2312 81.2293 58.01 81.1661C57.8788 80.9373 57.6404 80.7649 57.3408 80.7649Z" fill="black"/>
<path fill-rule="evenodd" clip-rule="evenodd" d="M49.7491 88.806C49.5327 88.806 49.4312 89.1622 49.6419 89.2877C50.3753 89.7167 51.2073 89.9973 52.0403 90.1562C52.0642 90.161 52.0881 90.1629 52.1111 90.1629C52.4903 90.1629 52.6195 89.5644 52.2145 89.4984C51.395 89.3624 50.6165 89.1182 49.8362 88.8242C49.8056 88.8118 49.7769 88.806 49.7491 88.806Z" fill="#1D1D1B"/>
<path fill-rule="evenodd" clip-rule="evenodd" d="M52.6434 94.8705C52.4835 94.8705 52.3533 95.0678 52.4978 95.2172C52.9507 95.6778 53.1633 96.1796 53.417 96.7321C53.4515 96.8126 53.4869 96.894 53.5271 96.9725C53.5712 97.0654 53.6439 97.1037 53.7196 97.1037C53.7732 97.1037 53.8287 97.0845 53.8756 97.0501C53.9609 96.9897 54.024 96.8882 53.9991 96.7733C53.8699 96.0637 53.3088 95.3896 52.7851 94.928C52.7391 94.8878 52.6903 94.8705 52.6434 94.8705Z" fill="#1D1D1B"/>
<path fill-rule="evenodd" clip-rule="evenodd" d="M48.9812 86.276C48.243 86.276 47.5 86.2952 46.7666 86.3335C46.4688 86.3507 46.4745 86.773 46.7628 86.7912C47.7375 86.8592 48.7284 86.887 49.7041 86.887C49.7222 86.887 49.7404 86.887 49.7586 86.887C50.1502 86.8831 50.154 86.2856 49.7624 86.2837C49.503 86.2779 49.2426 86.276 48.9812 86.276Z" fill="#1D1D1B"/>
<path fill-rule="evenodd" clip-rule="evenodd" d="M51.1633 95.8454C50.966 95.8454 50.8866 96.1241 51.1001 96.1873C51.4151 96.2878 51.6947 96.4631 51.891 96.7369C52.069 96.9907 52.1064 97.2684 52.1677 97.5662C52.1686 97.5729 52.1725 97.5844 52.1743 97.5911C52.2031 97.6955 52.2816 97.7405 52.3668 97.7405C52.4894 97.7405 52.6263 97.6467 52.6435 97.5011C52.6598 97.3412 52.6387 97.1803 52.5861 97.029C52.4022 96.4247 51.7856 95.9239 51.1939 95.8473C51.1834 95.8463 51.1738 95.8454 51.1633 95.8454Z" fill="#1D1D1B"/>
<path fill-rule="evenodd" clip-rule="evenodd" d="M43.5199 87.4452C43.2929 87.4452 43.2221 87.8062 43.4739 87.8895C44.5213 88.2275 45.5918 88.6489 46.6698 88.8826C46.6928 88.8873 46.7149 88.8892 46.7359 88.8892C47.0212 88.8892 47.094 88.4832 46.8087 88.376C45.7756 87.9767 44.6554 87.7478 43.5868 87.4548C43.5629 87.4481 43.5409 87.4452 43.5199 87.4452Z" fill="#1D1D1B"/>
<path fill-rule="evenodd" clip-rule="evenodd" d="M44.5192 99.1098C44.3105 99.1098 44.1439 99.3904 44.3143 99.6049C45.1253 100.624 46.3422 101.801 47.5553 102.318C47.5946 102.335 47.6357 102.343 47.6769 102.343C47.9267 102.343 48.1585 102.053 47.9143 101.848C47.3887 101.4 46.7769 101.06 46.233 100.617C45.6969 100.18 45.2095 99.6825 44.7116 99.1951C44.6485 99.1348 44.5824 99.1098 44.5192 99.1098Z" fill="#1D1D1B"/>
<path fill-rule="evenodd" clip-rule="evenodd" d="M39.6633 94.1724C39.4172 94.1724 39.3464 94.5669 39.6164 94.6627C40.5863 94.9969 41.5648 95.4106 42.5615 95.6538C42.5816 95.6586 42.6017 95.6615 42.6218 95.6615C42.8727 95.6615 43.0412 95.2698 42.7664 95.1549C41.7965 94.7508 40.75 94.4894 39.7428 94.1858C39.715 94.1762 39.6882 94.1724 39.6633 94.1724Z" fill="#1D1D1B"/>
<path fill-rule="evenodd" clip-rule="evenodd" d="M40.4893 97.1804C40.2442 97.1804 40.1015 97.6026 40.3629 97.7204C40.7439 97.8928 41.0944 98.0997 41.4065 98.3735C41.7109 98.6378 41.9273 98.9643 42.1935 99.2574C42.2567 99.3283 42.3295 99.3579 42.4003 99.3579C42.61 99.3579 42.8044 99.0994 42.6847 98.8734C42.2788 98.0862 41.3816 97.5203 40.5803 97.1995C40.5487 97.1861 40.518 97.1804 40.4893 97.1804Z" fill="#1D1D1B"/>
<path fill-rule="evenodd" clip-rule="evenodd" d="M39.8892 99.9986C39.6881 99.9986 39.487 100.217 39.6058 100.455C40.2405 101.733 41.2421 103.052 42.4446 103.842C42.4963 103.877 42.5489 103.891 42.6006 103.891C42.8467 103.891 43.042 103.542 42.8256 103.334C41.7878 102.32 40.8849 101.41 40.1314 100.145C40.0691 100.042 39.9792 99.9986 39.8892 99.9986Z" fill="#1D1D1B"/>
<path fill-rule="evenodd" clip-rule="evenodd" d="M36.6632 92.9103C36.4766 92.9103 36.3042 93.0827 36.4315 93.2886C37.0223 94.2328 37.6571 95.176 38.3283 96.0666C38.3962 96.1537 38.4882 96.1911 38.5781 96.1911C38.785 96.1911 38.9793 95.9919 38.8367 95.7611C38.2354 94.8265 37.5747 93.9034 36.8921 93.0224C36.8299 92.9438 36.7446 92.9103 36.6632 92.9103Z" fill="#1D1D1B"/>
<path fill-rule="evenodd" clip-rule="evenodd" d="M28.8505 95.6194C28.6955 95.6194 28.525 95.7554 28.5528 95.9575C28.7309 97.1535 28.5537 98.2548 28.5557 99.4413C28.5575 99.6155 28.6868 99.7055 28.8209 99.7055C28.9329 99.7055 29.0488 99.6423 29.0947 99.5131C29.4853 98.3735 29.3168 96.9754 29.0775 95.8148C29.0488 95.6779 28.953 95.6194 28.8505 95.6194Z" fill="#1D1D1B"/>
<path fill-rule="evenodd" clip-rule="evenodd" d="M30.2485 100.926C30.1297 100.926 30.0082 101.006 30.0082 101.152C30.0215 101.764 30.0397 102.375 29.9794 102.982C29.9219 103.594 29.7257 104.174 29.6663 104.781C29.652 104.974 29.8291 105.096 29.9995 105.096C30.1058 105.096 30.2101 105.048 30.2619 104.94C30.8028 103.837 30.754 102.265 30.4667 101.091C30.439 100.978 30.3442 100.926 30.2485 100.926Z" fill="#1D1D1B"/>
<path fill-rule="evenodd" clip-rule="evenodd" d="M29.8645 106.273C29.739 106.273 29.6213 106.346 29.5868 106.516C29.4327 107.251 29.336 108.002 29.244 108.752C29.222 108.933 29.3781 109.034 29.5332 109.034C29.6567 109.034 29.7802 108.969 29.8108 108.83C29.9707 108.119 30.1249 107.409 30.2235 106.689C30.2599 106.44 30.0541 106.273 29.8645 106.273Z" fill="#1D1D1B"/>
<path fill-rule="evenodd" clip-rule="evenodd" d="M27.0227 98.6167C26.947 98.6167 26.8752 98.6512 26.836 98.7345C26.1984 100.095 25.4994 101.652 25.2696 103.145C25.237 103.342 25.4228 103.523 25.5923 103.523C25.6766 103.523 25.757 103.477 25.8038 103.366C26.408 101.95 26.7767 100.381 27.264 98.9136C27.3195 98.746 27.1663 98.6167 27.0227 98.6167Z" fill="#1D1D1B"/>
<path fill-rule="evenodd" clip-rule="evenodd" d="M28.206 103.337C28.1495 103.337 28.092 103.365 28.0547 103.428C27.6631 104.067 27.4094 104.811 27.1155 105.5C26.8417 106.145 26.5525 106.782 26.3208 107.442C26.2356 107.674 26.4644 107.861 26.6712 107.861C26.7775 107.861 26.878 107.813 26.9287 107.695C27.2026 107.048 27.4343 106.389 27.6717 105.728C27.9235 105.024 28.2424 104.308 28.3936 103.568C28.4195 103.434 28.3132 103.337 28.206 103.337Z" fill="#1D1D1B"/>
<path fill-rule="evenodd" clip-rule="evenodd" d="M32.0034 138.838C25.9749 138.838 16.0347 149.909 16.0347 162.722C16.0347 175.423 17.8918 185.236 31.6444 185.236C31.7636 185.236 31.8829 185.235 32.0034 185.234C54.7808 184.956 46.5573 174.93 46.5573 162.117C46.5573 149.306 38.0344 138.838 32.0034 138.838Z" fill="#FEB8B3"/>
<path fill-rule="evenodd" clip-rule="evenodd" d="M33.1331 150.781C32.8139 151.638 32.4847 152.465 32.2052 153.106C31.7194 152.292 31.2797 151.553 30.9282 150.961C31.2784 150.933 31.6462 150.902 32.0089 150.873C32.3865 150.842 32.7679 150.812 33.1331 150.781ZM34.6834 148.529C34.6374 148.529 34.5915 148.532 34.5455 148.539C33.9157 148.618 32.8623 148.703 31.8412 148.785C30.7555 148.872 29.7307 148.954 29.0549 149.039C28.3058 149.134 27.9009 149.964 28.2859 150.614C28.2859 150.614 29.6561 152.928 31.23 155.557C31.4449 155.915 31.8139 156.125 32.2139 156.125C32.2536 156.124 32.2933 156.122 32.3331 156.119C32.948 156.053 33.5828 155.988 35.6697 149.918C35.7865 149.574 35.7194 149.197 35.4908 148.916C35.2921 148.67 34.9939 148.529 34.6834 148.529Z" fill="black"/>
<path fill-rule="evenodd" clip-rule="evenodd" d="M27.5342 143.238C26.3826 143.238 25.4485 144.389 25.4485 145.807C25.4485 147.225 26.3826 148.375 27.5342 148.375C28.6845 148.375 29.6199 147.225 29.6199 145.807C29.6199 144.389 28.6845 143.238 27.5342 143.238Z" fill="black"/>
<path fill-rule="evenodd" clip-rule="evenodd" d="M35.0896 142.854C33.9194 142.854 33.0039 143.981 33.0039 145.421C33.0039 146.861 33.9194 147.991 35.0896 147.991C36.2598 147.991 37.1753 146.863 37.1753 145.421C37.1753 143.981 36.2598 142.854 35.0896 142.854Z" fill="black"/>
<path fill-rule="evenodd" clip-rule="evenodd" d="M34.5882 164.125C35.7659 164.125 36.8056 164.424 37.551 164.996C37.7373 165.142 37.9099 165.308 38.0665 165.486L29.8976 165.638C31.1374 164.814 32.5585 164.248 34.1348 164.14C34.2876 164.13 34.4392 164.125 34.5882 164.125ZM39.2143 167.561C39.3074 167.821 39.3957 168.087 39.4764 168.363C37.0777 168.457 34.6665 168.504 32.2566 168.504C30.4877 168.504 28.72 168.478 26.9573 168.427C27.1274 168.206 27.3088 167.987 27.4952 167.774V167.772C27.5089 167.772 27.52 167.776 27.5324 167.776H27.5535L39.2143 167.561ZM45.2056 153.091C48.1422 154.128 50.8838 155.525 53.239 156.804C55.562 158.065 57.9259 159.483 59.0538 161.724C59.316 162.245 59.4079 162.669 59.3184 162.952C59.1967 163.337 58.6489 163.566 58.1458 163.566C58.0588 163.566 57.9731 163.558 57.8923 163.545C57.5358 163.485 57.3284 163.444 57.1371 163.367C57.0849 163.33 57.0365 163.291 56.9806 163.254L56.9768 163.253C56.711 163.074 56.4415 162.9 56.1756 162.734C56.0029 162.625 55.8091 162.573 55.6179 162.573C55.2837 162.573 54.957 162.732 54.7545 163.028C54.4365 163.491 54.5396 164.124 54.9905 164.459C55.4191 164.778 55.7284 164.999 56.0514 165.168C57.0924 165.934 57.4451 166.644 57.4091 167.071C57.3905 167.305 57.2439 167.487 56.9768 167.609C56.7967 167.689 56.5595 167.739 56.2762 167.739C55.6315 167.739 54.747 167.481 53.747 166.739C53.5607 166.6 53.3421 166.533 53.1247 166.533C52.8241 166.533 52.5272 166.663 52.3197 166.91C51.9645 167.335 52.0018 167.964 52.4067 168.344C53.4514 169.324 54.234 170.846 53.6278 171.741C53.3396 172.168 52.7806 172.355 52.2067 172.355C51.8614 172.355 51.5111 172.287 51.2092 172.163C50.2254 171.761 49.3906 170.876 48.6515 170.047C48.6515 164.26 47.4515 158.449 45.2056 153.091ZM40.0006 170.439C40.1621 171.126 40.3261 171.84 40.4789 172.573C40.1248 172.574 39.7708 172.574 39.4168 172.574C34.5746 172.574 29.6889 172.469 24.848 172.256C25.0542 171.727 25.2778 171.203 25.5337 170.692C25.5685 170.624 25.607 170.557 25.6418 170.488C27.8281 170.565 30.0231 170.606 32.2255 170.608C34.8243 170.608 37.4193 170.547 40.0006 170.439ZM16.1698 155.535C14.3325 160.042 13.2109 164.566 13.155 167.818C13.1177 169.964 13.2965 171.783 13.7027 173.406C13.6618 173.462 13.622 173.514 13.5823 173.57C12.5599 174.96 11.8071 175.898 10.8817 175.898C10.8295 175.898 10.7774 175.894 10.7251 175.889C10.1587 175.831 9.79225 175.581 9.57239 175.109C9.16492 174.234 9.36241 172.896 9.81462 172.014C9.89657 171.887 9.97358 171.757 10.0469 171.623C10.3165 171.132 10.1537 170.516 9.67671 170.224C9.50654 170.121 9.31773 170.07 9.13013 170.07C8.79473 170.07 8.46433 170.233 8.26304 170.531C8.17735 170.656 8.09534 170.79 8.01833 170.934C7.18483 172.2 5.89786 172.84 4.95503 172.84C4.89786 172.84 4.84076 172.838 4.78606 172.833C4.63699 172.82 4.28176 172.767 4.20969 172.551C4.07799 172.162 4.42214 170.89 6.65562 168.842C6.67552 168.825 6.69663 168.806 6.71399 168.788C7.1115 168.392 7.12646 167.755 6.75005 167.341C6.54382 167.115 6.26058 166.998 5.97486 166.998C5.74011 166.998 5.50408 167.078 5.30907 167.238C5.11652 167.324 4.76002 167.371 4.3637 167.371C3.62211 167.371 2.73765 167.207 2.5041 166.831C2.49421 166.816 1.66192 165.296 8.27052 160.379C10.6867 158.58 13.2046 157.182 15.8704 155.702C15.9711 155.646 16.0705 155.589 16.1698 155.535ZM24.1635 174.326C29.202 174.556 34.2976 174.674 39.3422 174.674C39.8478 174.674 40.3547 174.673 40.8602 174.67C40.9782 175.435 41.0677 176.211 41.1162 176.988L23.6032 176.657C23.7598 175.869 23.9461 175.093 24.1635 174.326ZM31.6156 140.936C34.2305 140.936 36.7945 142.856 39.4565 146.805C44.0552 153.629 46.577 161.917 46.5571 170.146C46.5521 172.848 46.2502 174.921 45.6068 176.671C45.0565 178.167 44.1819 179.538 43.0739 180.724C43.6528 176.789 42.6987 172.737 41.9 169.372C41.341 167.006 40.6851 164.763 38.8255 163.337C37.7211 162.487 36.2454 162.03 34.6131 162.03C34.4081 162.03 34.2019 162.037 33.992 162.052C29.0604 162.388 25.4219 166.251 23.6629 169.754C21.9461 173.172 21.3201 177.038 20.8704 180.604C20.1573 179.986 19.4878 179.32 18.8667 178.608C17.689 177.258 16.8505 175.956 16.2978 174.632C15.535 172.796 15.2021 170.644 15.2506 167.856C15.4145 158.498 24.1411 140.936 31.6156 140.936ZM23.2418 178.746L41.131 179.082C41.0863 179.963 40.9683 180.837 40.7522 181.686C39.9646 181.701 39.177 181.709 38.3895 181.709C33.2342 181.709 28.0828 181.38 22.9672 180.719C23.0517 180.063 23.1424 179.404 23.2418 178.746ZM24.2393 182.975C28.9275 183.519 33.6628 183.81 38.3845 183.81C38.5348 183.81 38.6827 183.804 38.8317 183.804C37.0889 184.636 35.1609 185.144 33.1734 185.222C32.9733 185.231 32.7734 185.235 32.5733 185.235C29.7312 185.235 26.8592 184.433 24.2393 182.975ZM31.6156 138.838C26.2268 138.838 21.0418 145.227 17.5462 152.446C17.4145 152.463 17.289 152.506 17.1723 152.57C16.3959 153.013 15.6233 153.441 14.8555 153.867C12.1276 155.382 9.54875 156.814 7.02087 158.695C2.1538 162.318 0.0470201 164.971 0.391104 167.042C0.560074 168.055 1.30287 168.82 2.48179 169.2C2.75254 169.283 3.02957 169.348 3.31035 169.389C2.00226 171.153 1.95384 172.408 2.22713 173.219C2.55132 174.18 3.43951 174.815 4.60227 174.918C4.71527 174.929 4.83208 174.934 4.95129 174.934C5.6631 174.934 6.47549 174.743 7.27299 174.341C7.31026 174.915 7.43575 175.479 7.67552 175.991C8.20594 177.132 9.21334 177.836 10.5103 177.97C10.6382 177.984 10.7649 177.991 10.8916 177.991C12.4791 177.991 13.6121 176.928 14.5326 175.782C15.1674 177.196 16.0642 178.575 17.2903 179.982C19.2853 182.274 21.6841 184.093 24.274 185.349C24.2256 186.877 24.1784 189.794 24.1312 192.626C24.1126 193.801 24.0927 194.993 24.0741 196.091C22.735 196.851 21.1959 198.494 20.2555 199.584C19.8729 200.021 19.9201 200.686 20.3598 201.065C20.5586 201.236 20.8021 201.32 21.0443 201.32C21.3399 201.32 21.6344 201.195 21.8418 200.951C22.5623 200.117 23.3573 199.315 24.0219 198.721C24.007 199.334 23.9933 199.852 23.9797 200.228C23.9573 200.806 24.4095 201.292 24.9871 201.314H25.0269C25.5896 201.314 26.0517 200.868 26.0728 200.305C26.084 199.994 26.0952 199.586 26.1076 199.111C26.4679 199.818 26.7784 200.549 27.0418 201.297C27.1871 201.718 27.5834 202 28.0305 202C28.1461 202 28.2629 201.98 28.3734 201.942C28.92 201.753 29.2082 201.155 29.0194 200.61C28.3759 198.761 27.4007 196.624 26.1709 195.917C26.1896 194.875 26.207 193.76 26.2256 192.658C26.2641 190.274 26.3039 187.83 26.3448 186.219C28.3747 186.941 30.4864 187.326 32.5846 187.326C32.8094 187.326 33.0342 187.32 33.259 187.312C34.5733 187.26 35.8653 187.038 37.1087 186.68C37.0665 188.183 37.0255 190.39 36.9857 192.549C36.9671 193.527 36.9485 194.514 36.9298 195.444C35.5622 196.169 33.9547 197.876 32.9846 199.002C32.5982 199.439 32.6441 200.108 33.0851 200.488C33.2827 200.659 33.5261 200.743 33.7684 200.743C34.0665 200.743 34.3634 200.616 34.5709 200.371C35.3348 199.484 36.1845 198.634 36.8715 198.034C36.8578 198.539 36.8454 198.981 36.8317 199.33C36.8106 199.909 37.2615 200.394 37.8404 200.416H37.8801C38.4429 200.415 38.905 199.97 38.9261 199.408C38.9323 199.217 38.9398 198.995 38.946 198.755C39.2603 199.392 39.5361 200.047 39.7708 200.718C39.9174 201.138 40.3136 201.421 40.7596 201.421C40.8777 201.421 40.9931 201.401 41.1037 201.363C41.6503 201.171 41.9397 200.575 41.7497 200.03C41.1286 198.243 40.1969 196.189 39.0243 195.416C39.0429 194.506 39.0615 193.542 39.0789 192.587C39.1273 189.988 39.1783 187.31 39.228 185.914C43.0652 184.228 46.1894 181.155 47.5745 177.39C48.131 175.877 48.3993 174.31 48.5309 172.894C49.0837 173.372 49.7048 173.806 50.4179 174.098C50.9533 174.318 51.5732 174.439 52.198 174.439C53.4029 174.439 54.6352 173.986 55.3657 172.911C56.0166 171.948 56.08 170.857 55.7731 169.805C55.9446 169.825 56.1135 169.834 56.28 169.834C56.8364 169.834 57.3632 169.727 57.8414 169.511C58.7954 169.08 59.4153 168.231 59.4998 167.24C59.5334 166.831 59.4899 166.224 59.1396 165.52C60.1159 165.255 60.993 164.604 61.3184 163.578C61.5768 162.759 61.4439 161.816 60.9221 160.78C59.5234 158 56.7371 156.319 54.2365 154.962C51.3173 153.377 47.8229 151.607 44.0279 150.503C44.0254 150.503 44.0204 150.503 44.0167 150.5C43.1795 148.817 42.2404 147.187 41.1919 145.631C38.1124 141.06 34.9795 138.838 31.6156 138.838Z" fill="black"/>
</svg>
