<svg width="72" height="90" viewBox="0 0 72 90" fill="none" xmlns="http://www.w3.org/2000/svg">
<path fill-rule="evenodd" clip-rule="evenodd" d="M38.9276 85.8196C39.1576 86.4758 38.8779 87.1502 38.0886 87.8455C37.2691 88.2623 36.1116 87.6185 35.4027 87.2606C34.3002 86.706 33.3222 85.8589 32.3862 85.0663C30.4016 83.3893 28.4783 81.6452 26.4715 79.9905C23.7158 77.7157 20.9059 75.5074 18.0637 73.3422C16.6536 72.269 15.2276 71.2205 13.7946 70.1808C13.2911 69.8157 13.0189 69.4971 12.9128 69.1942C12.6779 68.5242 13.2591 67.932 13.9461 67.0801C18.6414 70.6173 23.5133 73.912 28.3415 77.264C31.67 79.5733 36.0694 81.9175 38.5609 85.2077C38.7338 85.4098 38.8557 85.6142 38.9276 85.8196ZM39.7235 85.5826C38.8759 83.1641 34.4203 80.7138 33.0075 79.698C26.7409 75.1971 20.2654 70.99 14.1096 66.3343C14.0733 66.3061 14.0357 66.2873 13.9988 66.2756C13.8763 66.2201 13.729 66.2343 13.6204 66.3745C12.9389 67.2527 12.3458 68.1774 11.5948 68.9979C11.514 69.0873 11.4918 69.2319 11.5328 69.3488C11.5521 69.404 11.5858 69.4533 11.6342 69.4874C18.3354 74.2528 25.0146 79.2675 31.0739 84.8315C32.7306 86.3508 38.007 91.0804 39.7066 87.116C39.9206 86.616 39.9048 86.0999 39.7235 85.5826Z" fill="black"/>
<path fill-rule="evenodd" clip-rule="evenodd" d="M38.9276 85.8196C39.1576 86.4758 38.8779 87.1502 38.0886 87.8455C37.2691 88.2623 36.1116 87.6185 35.4027 87.2606C34.3002 86.706 33.3222 85.8589 32.3862 85.0663C30.4016 83.3893 28.4783 81.6452 26.4715 79.9905C23.7158 77.7157 20.9059 75.5074 18.0637 73.3422C16.6536 72.269 15.2276 71.2205 13.7946 70.1808C13.2911 69.8157 13.0189 69.4971 12.9128 69.1942C12.6779 68.5242 13.2591 67.932 13.9461 67.0801C18.6414 70.6173 23.5133 73.912 28.3415 77.264C31.67 79.5733 36.0694 81.9175 38.5609 85.2077C38.7338 85.4098 38.8557 85.6142 38.9276 85.8196V85.8196ZM39.7235 85.5826C38.8759 83.1641 34.4203 80.7138 33.0075 79.698C26.7409 75.1971 20.2654 70.99 14.1096 66.3343C14.0733 66.3061 14.0357 66.2873 13.9988 66.2756C13.8763 66.2201 13.729 66.2343 13.6204 66.3745C12.9389 67.2527 12.3458 68.1774 11.5948 68.9979C11.514 69.0873 11.4918 69.2319 11.5328 69.3488C11.5521 69.404 11.5858 69.4533 11.6342 69.4874C18.3354 74.2528 25.0146 79.2675 31.0739 84.8315C32.7306 86.3508 38.007 91.0804 39.7066 87.116C39.9206 86.616 39.9048 86.0999 39.7235 85.5826V85.5826Z" stroke="black" stroke-miterlimit="10" stroke-linejoin="round"/>
<path fill-rule="evenodd" clip-rule="evenodd" d="M14.1191 66.5099C14.1015 66.4595 14.0697 66.4105 14.0214 66.3663C12.9982 65.4265 11.9898 64.4769 10.8317 63.7038C10.6835 63.6062 10.4643 63.5791 10.3428 63.7448C9.73693 64.5709 9.08178 65.3578 8.50569 66.2036C8.42931 66.316 8.40714 66.4323 8.44531 66.5412C8.46406 66.5948 8.49671 66.6462 8.54451 66.6942C9.6251 67.7717 10.7984 68.9863 12.2213 69.6018C12.5369 69.7374 12.7886 69.402 12.7029 69.1575C12.6768 69.0828 12.6191 69.0173 12.5233 68.9752C11.2584 68.4283 10.1947 67.365 9.21846 66.3877C9.68938 65.7256 10.2003 65.0942 10.6863 64.4442C11.7194 65.1754 12.6394 66.0392 13.5713 66.8952C13.8534 67.1538 14.2227 66.8055 14.1191 66.5099Z" fill="black"/>
<path fill-rule="evenodd" clip-rule="evenodd" d="M14.1191 66.5099C14.1015 66.4595 14.0697 66.4105 14.0214 66.3663C12.9982 65.4265 11.9898 64.4769 10.8317 63.7038C10.6835 63.6062 10.4643 63.5791 10.3428 63.7448C9.73693 64.5709 9.08178 65.3578 8.50569 66.2036C8.42931 66.316 8.40714 66.4323 8.44531 66.5412C8.46406 66.5948 8.49671 66.6462 8.54451 66.6942C9.6251 67.7717 10.7984 68.9863 12.2213 69.6018C12.5369 69.7374 12.7886 69.402 12.7029 69.1575C12.6768 69.0828 12.6191 69.0173 12.5233 68.9752C11.2584 68.4283 10.1947 67.365 9.21846 66.3877C9.68938 65.7256 10.2003 65.0942 10.6863 64.4442C11.7194 65.1754 12.6394 66.0392 13.5713 66.8952C13.8534 67.1538 14.2227 66.8055 14.1191 66.5099V66.5099Z" stroke="black" stroke-miterlimit="10" stroke-linejoin="round"/>
<path fill-rule="evenodd" clip-rule="evenodd" d="M11.7808 65.0071C11.7034 64.7862 11.3869 64.6427 11.1803 64.8729C10.6252 65.4924 9.98617 66.0338 9.52397 66.7312C9.45162 66.8395 9.44689 66.9561 9.4819 67.056C9.56586 67.2955 9.87864 67.4439 10.0533 67.1802C10.517 66.4843 11.156 65.9429 11.7087 65.3242C11.8018 65.2204 11.8155 65.1061 11.7808 65.0071Z" fill="black"/>
<path fill-rule="evenodd" clip-rule="evenodd" d="M11.7808 65.0071C11.7034 64.7862 11.3869 64.6427 11.1803 64.8729C10.6252 65.4924 9.98617 66.0338 9.52397 66.7312C9.45162 66.8395 9.44689 66.9561 9.4819 67.056C9.56586 67.2955 9.87864 67.4439 10.0533 67.1802C10.517 66.4843 11.156 65.9429 11.7087 65.3242C11.8018 65.2204 11.8155 65.1061 11.7808 65.0071V65.0071Z" stroke="black" stroke-miterlimit="10" stroke-linejoin="round"/>
<path fill-rule="evenodd" clip-rule="evenodd" d="M13.1834 65.7911C13.1054 65.5686 12.7892 65.4259 12.5835 65.6585C11.9406 66.3891 11.3435 67.1647 10.6551 67.8566C10.5564 67.955 10.5402 68.0674 10.5744 68.1648C10.6495 68.3792 10.9682 68.5237 11.1839 68.3068C11.8727 67.6157 12.4686 66.8396 13.114 66.1081C13.2052 66.0041 13.2181 65.8902 13.1834 65.7911Z" fill="black"/>
<path fill-rule="evenodd" clip-rule="evenodd" d="M13.1834 65.7911C13.1054 65.5686 12.7892 65.4259 12.5835 65.6585C11.9406 66.3891 11.3435 67.1647 10.6551 67.8566C10.5564 67.955 10.5402 68.0674 10.5744 68.1648C10.6495 68.3792 10.9682 68.5237 11.1839 68.3068C11.8727 67.6157 12.4686 66.8396 13.114 66.1081C13.2052 66.0041 13.2181 65.8902 13.1834 65.7911V65.7911Z" stroke="black" stroke-miterlimit="10" stroke-linejoin="round"/>
<path fill-rule="evenodd" clip-rule="evenodd" d="M10.7396 61.8539C10.4936 61.1522 10.0915 60.499 9.58286 59.8803C7.89919 57.826 4.43973 58.944 3.47772 56.199C3.41624 56.0236 3.36594 55.8333 3.32571 55.6249C3.32185 55.6035 3.31528 55.5821 3.30814 55.5618C3.2205 55.3116 2.92104 55.1987 2.71553 55.4239C1.04184 57.2536 0.581652 59.8352 1.38403 62.1245C1.5292 62.5387 1.71583 62.9438 1.94444 63.3333C3.21266 65.4977 5.97648 67.6292 8.66418 66.6869C8.87447 66.6132 8.92254 66.4121 8.86505 66.2481C8.80787 66.0849 8.64482 65.9578 8.43448 66.0315C5.90676 66.9177 3.38119 64.6543 2.34459 62.5994C2.22194 62.356 2.1166 62.1075 2.02866 61.8566C1.38171 60.0106 1.66447 57.9974 2.8008 56.419C2.83629 56.5516 2.87586 56.6827 2.92056 56.8102C3.16191 57.4989 3.55305 58.105 4.28838 58.4445C5.21884 58.8751 6.14733 59.0685 7.15106 59.271C8.54508 59.552 9.61336 60.6593 10.0733 61.9717C10.2842 62.5735 10.3676 63.2172 10.2956 63.8443C10.2887 63.9051 10.2952 63.9603 10.3123 64.009C10.4191 64.3135 10.9327 64.3614 10.9774 63.9764C11.0643 63.2174 10.971 62.5142 10.7396 61.8539Z" fill="black"/>
<path fill-rule="evenodd" clip-rule="evenodd" d="M10.7396 61.8539C10.4936 61.1522 10.0915 60.499 9.58286 59.8803C7.89919 57.826 4.43973 58.944 3.47772 56.199C3.41624 56.0236 3.36594 55.8333 3.32571 55.6249C3.32185 55.6035 3.31528 55.5821 3.30814 55.5618C3.2205 55.3116 2.92104 55.1987 2.71553 55.4239C1.04184 57.2536 0.581652 59.8352 1.38403 62.1245C1.5292 62.5387 1.71583 62.9438 1.94444 63.3333C3.21266 65.4977 5.97648 67.6292 8.66418 66.6869C8.87447 66.6132 8.92254 66.4121 8.86505 66.2481C8.80787 66.0849 8.64482 65.9578 8.43448 66.0315C5.90676 66.9177 3.38119 64.6543 2.34459 62.5994C2.22194 62.356 2.1166 62.1075 2.02866 61.8566C1.38171 60.0106 1.66447 57.9974 2.8008 56.419C2.83629 56.5516 2.87586 56.6827 2.92056 56.8102C3.16191 57.4989 3.55305 58.105 4.28838 58.4445C5.21884 58.8751 6.14733 59.0685 7.15106 59.271C8.54508 59.552 9.61336 60.6593 10.0733 61.9717C10.2842 62.5735 10.3676 63.2172 10.2956 63.8443C10.2887 63.9051 10.2952 63.9603 10.3123 64.009C10.4191 64.3135 10.9327 64.3614 10.9774 63.9764C11.0643 63.2174 10.971 62.5142 10.7396 61.8539V61.8539Z" stroke="black" stroke-miterlimit="10" stroke-linejoin="round"/>
<path fill-rule="evenodd" clip-rule="evenodd" d="M10.4797 63.9065C10.4664 63.8683 10.444 63.8306 10.41 63.7933C9.39836 62.6706 8.35274 61.7788 6.96388 61.1641C5.41719 60.4789 3.55561 59.8266 3.02364 58.3088C2.84631 57.8028 2.81717 57.1993 2.99718 56.4669C3.01488 56.395 3.01089 56.3317 2.99183 56.2772C2.89565 56.0028 2.40452 55.9725 2.3146 56.335L2.31377 56.3353C2.12373 57.1069 2.17109 57.8143 2.39821 58.4624C2.66235 59.216 3.17044 59.8905 3.83391 60.4932C4.34392 60.9573 5.01366 61.2578 5.66381 61.4557C7.38162 61.9788 8.64287 62.8616 9.83861 64.1896C10.1003 64.4809 10.5842 64.2045 10.4797 63.9065Z" fill="black"/>
<path fill-rule="evenodd" clip-rule="evenodd" d="M10.4797 63.9065C10.4664 63.8683 10.444 63.8306 10.41 63.7933C9.39836 62.6706 8.35274 61.7788 6.96389 61.1641C5.41719 60.4789 3.55561 59.8266 3.02364 58.3088C2.84631 57.8028 2.81717 57.1993 2.99718 56.4669C3.01488 56.395 3.01089 56.3317 2.99183 56.2772C2.89565 56.0028 2.40452 55.9725 2.3146 56.335L2.31377 56.3353C2.12373 57.1069 2.17109 57.8143 2.39821 58.4624C2.66235 59.216 3.17044 59.8905 3.83391 60.4932C4.34392 60.9573 5.01366 61.2578 5.66381 61.4557C7.38162 61.9788 8.64287 62.8616 9.83861 64.1896C10.1003 64.4809 10.5842 64.2045 10.4797 63.9065V63.9065Z" stroke="black" stroke-miterlimit="10" stroke-linejoin="round"/>
<path fill-rule="evenodd" clip-rule="evenodd" d="M9.50972 65.3426C9.49062 65.2882 9.45227 65.236 9.39009 65.1912C8.29606 64.4084 6.90255 64.5349 5.65063 64.0638C4.26401 63.5413 3.44332 62.5186 3.01753 61.3037C2.54502 59.9556 2.55926 58.3703 2.82722 56.9677C2.84006 56.9003 2.83454 56.8402 2.816 56.7875C2.71526 56.5 2.21616 56.4625 2.14434 56.8351C1.83672 58.4549 1.84067 59.949 2.33762 61.367C2.5608 62.0037 2.88326 62.6247 3.32076 63.2355C3.80934 63.9168 4.61939 64.3368 5.3503 64.6898C6.48228 65.2349 7.92381 64.9931 8.93972 65.7221C9.23993 65.936 9.60336 65.6098 9.50972 65.3426Z" fill="black"/>
<path fill-rule="evenodd" clip-rule="evenodd" d="M9.50972 65.3426C9.49062 65.2882 9.45227 65.236 9.39009 65.1912C8.29606 64.4084 6.90255 64.5349 5.65063 64.0638C4.26401 63.5413 3.44332 62.5186 3.01753 61.3037C2.54502 59.9556 2.55926 58.3703 2.82722 56.9677C2.84006 56.9003 2.83454 56.8402 2.816 56.7875C2.71526 56.5 2.21616 56.4625 2.14434 56.8351C1.83672 58.4549 1.84067 59.949 2.33762 61.367C2.5608 62.0037 2.88326 62.6247 3.32076 63.2355C3.80934 63.9168 4.61939 64.3368 5.3503 64.6898C6.48228 65.2349 7.92381 64.9931 8.93972 65.7221C9.23993 65.936 9.60336 65.6098 9.50972 65.3426V65.3426Z" stroke="black" stroke-miterlimit="10" stroke-linejoin="round"/>
<path fill-rule="evenodd" clip-rule="evenodd" d="M69.9139 40.1682C70.0274 40.4923 69.7158 40.7009 68.9674 41.37C68.5854 41.7109 67.2685 43.3672 66.9231 43.0761C61.2107 38.255 55.8771 32.9299 50.5056 27.7367C47.3488 24.6842 44.2206 21.5989 41.1216 18.4851C39.9057 17.2581 38.7029 16.0192 37.5127 14.7668C37.1932 14.4301 36.5991 14.0019 36.4286 13.5155C36.3437 13.2734 36.3635 13.0176 36.573 12.7517C37.46 11.6273 38.5549 10.6699 39.5553 9.64525C45.3553 14.9819 50.9146 20.5917 56.4756 26.1726C59.5856 29.2916 62.6712 32.4375 65.7302 35.6063C66.8881 36.8108 68.0345 38.0239 69.1709 39.2478C69.5916 39.704 69.8407 39.9595 69.9139 40.1682ZM70.9852 40.2568C70.9744 40.2259 70.9568 40.1965 70.9327 40.1694C61.2051 29.2245 50.5501 18.7944 39.7658 8.89573C39.6391 8.77874 39.4955 8.78531 39.3839 8.85452C39.3464 8.87225 39.3092 8.89895 39.276 8.93429C37.9723 10.3133 36.6073 11.5879 35.4294 13.0815C35.3598 13.1688 35.3205 13.3093 35.3604 13.423C35.3707 13.4523 35.3866 13.4795 35.409 13.5045C40.3504 18.998 45.7485 24.1063 51.0616 29.237C56.2234 34.2201 61.3503 39.3478 66.8711 43.9397C67.0243 44.0674 67.2266 44.0357 67.3605 43.9003C68.4784 42.7661 69.6291 41.6815 70.8468 40.6527C70.9537 40.5624 71.0344 40.3973 70.9852 40.2568Z" fill="black"/>
<path fill-rule="evenodd" clip-rule="evenodd" d="M69.9139 40.1682C70.0274 40.4923 69.7158 40.7009 68.9674 41.37C68.5854 41.7109 67.2685 43.3672 66.9231 43.0761C61.2107 38.255 55.8771 32.9299 50.5056 27.7367C47.3488 24.6842 44.2206 21.5989 41.1216 18.4851C39.9057 17.2581 38.7029 16.0192 37.5127 14.7668C37.1932 14.4301 36.5991 14.0019 36.4286 13.5155C36.3437 13.2734 36.3635 13.0176 36.573 12.7517C37.46 11.6273 38.5549 10.6699 39.5553 9.64525C45.3553 14.9819 50.9146 20.5917 56.4756 26.1726C59.5856 29.2916 62.6712 32.4375 65.7302 35.6063C66.8881 36.8108 68.0345 38.0239 69.1709 39.2478C69.5916 39.704 69.8407 39.9595 69.9139 40.1682V40.1682ZM70.9852 40.2568C70.9744 40.2259 70.9568 40.1965 70.9327 40.1694C61.2051 29.2245 50.5501 18.7944 39.7658 8.89573C39.6391 8.77874 39.4955 8.78531 39.3839 8.85452C39.3464 8.87225 39.3092 8.89895 39.276 8.93429C37.9723 10.3133 36.6073 11.5879 35.4294 13.0815C35.3598 13.1688 35.3205 13.3093 35.3604 13.423C35.3707 13.4523 35.3866 13.4795 35.409 13.5045C40.3504 18.998 45.7485 24.1063 51.0616 29.237C56.2234 34.2201 61.3503 39.3478 66.8711 43.9397C67.0243 44.0674 67.2266 44.0357 67.3605 43.9003C68.4784 42.7661 69.6291 41.6815 70.8468 40.6527C70.9537 40.5624 71.0344 40.3973 70.9852 40.2568V40.2568Z" stroke="black" stroke-miterlimit="10" stroke-linejoin="round"/>
<path fill-rule="evenodd" clip-rule="evenodd" d="M39.9151 9.15253C39.9032 9.11842 39.8847 9.08386 39.8572 9.04972C39.124 8.12312 38.2626 7.30436 37.2994 6.61891C37.1323 6.49873 36.9563 6.51668 36.8096 6.65748C35.8812 7.55196 34.9762 8.47385 34.0396 9.3603C33.6681 9.71303 32.8415 10.4214 32.9252 11.0377C32.9416 11.1624 32.9715 11.2841 33.0133 11.4035C33.4018 12.512 34.7966 13.3726 35.6664 13.9915C35.9665 14.2054 36.3303 13.88 36.2369 13.6137C36.2178 13.5592 36.1795 13.507 36.1165 13.4626C35.5629 13.0694 34.1009 12.1913 33.7938 11.315C33.6998 11.047 33.7137 10.7795 33.8945 10.5255C34.7331 9.35153 36.0298 8.32971 37.1011 7.33314C37.9196 7.94625 38.6456 8.63645 39.2856 9.44527C39.5367 9.76121 40.027 9.47169 39.9151 9.15253Z" fill="black"/>
<path fill-rule="evenodd" clip-rule="evenodd" d="M39.9151 9.15253C39.9032 9.11842 39.8847 9.08386 39.8572 9.04972C39.124 8.12312 38.2626 7.30436 37.2994 6.61891C37.1323 6.49873 36.9563 6.51668 36.8096 6.65748C35.8812 7.55196 34.9762 8.47385 34.0396 9.3603C33.6681 9.71303 32.8415 10.4214 32.9252 11.0377C32.9416 11.1624 32.9715 11.2841 33.0133 11.4035C33.4018 12.512 34.7966 13.3726 35.6664 13.9915C35.9665 14.2054 36.3303 13.88 36.2369 13.6137C36.2178 13.5592 36.1795 13.507 36.1165 13.4626C35.5629 13.0694 34.1009 12.1913 33.7938 11.315C33.6998 11.047 33.7137 10.7795 33.8945 10.5255C34.7331 9.35153 36.0298 8.32971 37.1011 7.33314C37.9196 7.94625 38.6456 8.63645 39.2856 9.44527C39.5367 9.76121 40.027 9.47169 39.9151 9.15253V9.15253Z" stroke="black" stroke-miterlimit="10" stroke-linejoin="round"/>
<path fill-rule="evenodd" clip-rule="evenodd" d="M37.3811 6.68042C37.3623 6.62682 37.3259 6.57485 37.2683 6.53028C36.5568 5.97268 36.0294 5.24567 35.2631 4.75287C35.1362 4.67154 34.9382 4.73093 34.8493 4.84144C33.653 6.30589 32.1578 7.48481 30.987 8.94397C30.9139 9.03436 30.8795 9.17315 30.9191 9.28604C30.9293 9.31528 30.9442 9.34199 30.9647 9.36672C31.5548 10.0645 32.2462 10.6455 32.8982 11.2805C33.1755 11.5489 33.5461 11.1938 33.4403 10.8917C33.4232 10.8429 33.3936 10.7949 33.3486 10.7524C32.7997 10.2189 32.2155 9.73067 31.7037 9.16509C32.7758 7.89008 34.0858 6.80981 35.1774 5.53069C35.7749 5.98145 36.2273 6.59612 36.8182 7.05923C37.1124 7.28986 37.4782 6.95735 37.3811 6.68042Z" fill="black"/>
<path fill-rule="evenodd" clip-rule="evenodd" d="M37.3811 6.68042C37.3623 6.62682 37.3259 6.57485 37.2683 6.53028C36.5568 5.97268 36.0294 5.24567 35.2631 4.75287C35.1362 4.67154 34.9382 4.73093 34.8493 4.84144C33.653 6.30589 32.1578 7.48481 30.987 8.94397C30.9139 9.03436 30.8795 9.17315 30.9191 9.28604C30.9293 9.31528 30.9442 9.34199 30.9647 9.36672C31.5548 10.0645 32.2462 10.6455 32.8982 11.2805C33.1755 11.5489 33.5461 11.1938 33.4403 10.8917C33.4232 10.8429 33.3936 10.7949 33.3486 10.7524C32.7997 10.2189 32.2155 9.73067 31.7037 9.16509C32.7758 7.89008 34.0858 6.80981 35.1774 5.53069C35.7749 5.98145 36.2273 6.59612 36.8182 7.05923C37.1124 7.28986 37.4782 6.95735 37.3811 6.68042V6.68042Z" stroke="black" stroke-miterlimit="10" stroke-linejoin="round"/>
<path fill-rule="evenodd" clip-rule="evenodd" d="M35.0505 4.92413C35.0243 4.84941 34.9659 4.78418 34.8673 4.74487C33.1369 4.05571 31.2977 2.72074 29.7949 1.6171C28.8556 0.926926 28.2848 0.708454 27.3855 1.52438C26.728 2.12239 26.6473 2.64401 26.8357 3.18164C26.9763 3.58283 27.267 3.99341 27.5797 4.45101C28.5758 5.91191 29.6763 7.76666 31.0034 8.95193C31.2884 9.20583 31.657 8.86049 31.5545 8.56813C31.5366 8.51696 31.5037 8.46739 31.4544 8.4227C30.6757 7.72814 30.1227 6.69915 29.4856 5.87749C29.0166 5.27043 28.039 4.29179 27.712 3.35866C27.5384 2.86327 27.5481 2.38111 27.9146 1.97538C28.5897 1.22714 31.182 3.35041 31.7133 3.69578C32.6342 4.2967 33.5408 4.9637 34.5657 5.37223C34.8824 5.49827 35.1344 5.1637 35.0505 4.92413Z" fill="black"/>
<path fill-rule="evenodd" clip-rule="evenodd" d="M35.0505 4.92413C35.0243 4.84941 34.9659 4.78418 34.8673 4.74487C33.1369 4.05571 31.2977 2.72074 29.7949 1.6171C28.8556 0.926926 28.2848 0.708454 27.3855 1.52438C26.728 2.12239 26.6473 2.64401 26.8357 3.18164C26.9763 3.58283 27.267 3.99341 27.5797 4.45101C28.5758 5.91191 29.6763 7.76666 31.0034 8.95193C31.2884 9.20583 31.657 8.86049 31.5545 8.56813C31.5366 8.51696 31.5037 8.46739 31.4544 8.4227C30.6757 7.72814 30.1227 6.69915 29.4856 5.87749C29.0166 5.27043 28.039 4.29179 27.712 3.35866C27.5384 2.86327 27.5481 2.38111 27.9146 1.97538C28.5897 1.22714 31.182 3.35041 31.7133 3.69578C32.6342 4.2967 33.5408 4.9637 34.5657 5.37223C34.8824 5.49827 35.1344 5.1637 35.0505 4.92413V4.92413Z" stroke="black" stroke-miterlimit="10" stroke-linejoin="round"/>
<path fill-rule="evenodd" clip-rule="evenodd" d="M43.2227 12.4685C43.1549 12.2752 42.9196 12.1242 42.6908 12.2646L42.6913 12.2663C41.0414 13.2688 40.0152 14.917 38.7156 16.2973C38.62 16.3992 38.606 16.5127 38.6404 16.6109C38.7167 16.8286 39.034 16.9718 39.2456 16.748C40.5016 15.4122 41.4919 13.8075 43.0862 12.8364C43.2386 12.7428 43.2676 12.5968 43.2227 12.4685Z" fill="black"/>
<path fill-rule="evenodd" clip-rule="evenodd" d="M43.2227 12.4685C43.1549 12.2752 42.9196 12.1242 42.6908 12.2646L42.6913 12.2663C41.0414 13.2688 40.0152 14.917 38.7156 16.2973C38.62 16.3992 38.606 16.5127 38.6404 16.6109C38.7167 16.8286 39.034 16.9718 39.2456 16.748C40.5016 15.4122 41.4919 13.8075 43.0862 12.8364C43.2386 12.7428 43.2676 12.5968 43.2227 12.4685V12.4685Z" stroke="black" stroke-miterlimit="10" stroke-linejoin="round"/>
<path fill-rule="evenodd" clip-rule="evenodd" d="M68.192 37.4797C68.1155 37.2613 67.7981 37.1181 67.5877 37.3423L67.5867 37.3445C67.0614 37.9035 66.5203 38.4488 65.9741 38.9896C65.4157 39.5401 64.8832 40.2812 64.1559 40.6073C63.9524 40.6978 63.9074 40.9078 63.9649 41.0719C64.0224 41.2359 64.1813 41.3535 64.3853 41.2619C65.011 40.9842 65.4541 40.5133 65.917 40.0209C66.6314 39.2625 67.4031 38.5561 68.1158 37.7928C68.2116 37.6917 68.2265 37.578 68.192 37.4797Z" fill="black"/>
<path fill-rule="evenodd" clip-rule="evenodd" d="M68.192 37.4797C68.1155 37.2613 67.7981 37.1181 67.5877 37.3423L67.5867 37.3445C67.0614 37.9035 66.5203 38.4488 65.9741 38.9896C65.4157 39.5401 64.8832 40.2812 64.1559 40.6073C63.9524 40.6978 63.9074 40.9078 63.9649 41.0719C64.0224 41.2359 64.1813 41.3535 64.3853 41.2619C65.011 40.9842 65.4541 40.5133 65.917 40.0209C66.6314 39.2625 67.4031 38.5561 68.1158 37.7928C68.2116 37.6917 68.2265 37.578 68.192 37.4797V37.4797Z" stroke="black" stroke-miterlimit="10" stroke-linejoin="round"/>
<path fill-rule="evenodd" clip-rule="evenodd" d="M33.8832 37.3486C33.7465 36.9588 33.5488 36.574 33.3444 36.2015C33.3264 36.1449 33.3084 36.0883 33.2887 36.0323C33.1177 35.5442 32.8709 35.0872 32.5574 34.6764C32.3962 34.4639 32.1592 34.3911 31.9339 34.4117C31.5613 33.9678 31.1005 33.5558 30.7212 33.1836C30.7169 33.1687 30.7126 33.1537 30.7074 33.1391C30.6699 33.0319 30.6058 32.9349 30.5211 32.8598C28.7703 31.233 24.9902 32.581 24.3183 34.769C24.176 35.2292 24.19 35.6648 24.3171 36.0507C24.2456 36.1614 24.1936 36.2836 24.1648 36.4123C24.1343 36.5515 24.1433 36.6761 24.1806 36.7824C24.2876 37.0878 24.6296 37.2469 24.9458 37.2099C25.418 37.9381 26.3645 38.0138 27.2313 37.6954C27.5877 37.7318 27.9429 37.7852 28.2977 37.9416C28.3594 37.9693 28.4163 38.0095 28.475 38.0391C29.0753 39.2603 30.3936 41.9369 32.143 41.2206C32.2995 41.1547 32.4482 41.0743 32.5901 40.9799C33.1845 40.7715 33.6362 40.325 33.8812 39.7521C33.89 39.7354 33.9012 39.7232 33.9094 39.7049C33.9072 39.7038 33.9042 39.703 33.9006 39.7034C33.9224 39.6483 33.9463 39.5943 33.9653 39.5366C34.0102 39.3996 34.0056 39.2745 33.968 39.1673C33.9566 39.1348 33.9423 39.1042 33.9258 39.0754C33.9507 38.9955 33.978 38.9148 33.9991 38.8317C34.13 38.339 34.0554 37.8399 33.8832 37.3486Z" fill="#FED58A"/>
<path fill-rule="evenodd" clip-rule="evenodd" d="M33.8832 37.3486C33.7465 36.9588 33.5488 36.574 33.3444 36.2015C33.3264 36.1449 33.3084 36.0883 33.2887 36.0323C33.1177 35.5442 32.8709 35.0872 32.5574 34.6764C32.3962 34.4639 32.1592 34.3911 31.9339 34.4117C31.5613 33.9678 31.1005 33.5558 30.7212 33.1836C30.7169 33.1687 30.7126 33.1537 30.7074 33.1391C30.6699 33.0319 30.6058 32.9349 30.5211 32.8598C28.7703 31.233 24.9902 32.581 24.3183 34.769C24.176 35.2292 24.19 35.6648 24.3171 36.0507C24.2456 36.1614 24.1936 36.2836 24.1648 36.4123C24.1343 36.5515 24.1433 36.6761 24.1806 36.7824C24.2876 37.0878 24.6296 37.2469 24.9458 37.2099C25.418 37.9381 26.3645 38.0138 27.2313 37.6954C27.5877 37.7318 27.9429 37.7852 28.2977 37.9416C28.3594 37.9693 28.4163 38.0095 28.475 38.0391C29.0753 39.2603 30.3936 41.9369 32.143 41.2206C32.2995 41.1547 32.4482 41.0743 32.5901 40.9799C33.1845 40.7715 33.6362 40.325 33.8812 39.7521C33.89 39.7354 33.9012 39.7232 33.9094 39.7049C33.9072 39.7038 33.9042 39.703 33.9006 39.7034C33.9224 39.6483 33.9463 39.5943 33.9653 39.5366C34.0102 39.3996 34.0056 39.2745 33.968 39.1673C33.9566 39.1348 33.9423 39.1042 33.9258 39.0754C33.9507 38.9955 33.978 38.9148 33.9991 38.8317C34.13 38.339 34.0554 37.8399 33.8832 37.3486V37.3486Z" stroke="black" stroke-miterlimit="10" stroke-linejoin="round"/>
<path fill-rule="evenodd" clip-rule="evenodd" d="M49.7015 43.9678C49.4789 43.3327 49.0764 42.7252 48.5654 42.183C48.2856 41.6136 47.854 41.1339 47.3203 40.7921C47.2119 40.6495 47.1015 40.5086 46.9918 40.3674C46.7636 40.0726 46.3203 39.9681 46.0184 40.1889C45.7517 40.0835 45.473 40.0089 45.1894 39.9697C45.0409 39.9443 44.8876 39.9698 44.7545 40.0401C44.5564 40.0056 44.3553 39.9858 44.153 39.9811C43.1912 39.958 42.138 40.34 41.9687 41.129C41.7457 41.3175 41.6351 41.6079 41.733 41.8873C41.7529 41.9442 41.7818 42.0006 41.8194 42.0558C42.0384 42.3739 42.3172 42.6464 42.6405 42.8586C43.0524 43.42 43.5441 43.9644 44.0368 44.4856C44.1484 44.8587 44.2299 45.2395 44.3507 45.6075C43.8942 46.2226 43.6559 46.9682 43.9016 47.6691C43.9494 47.8055 44.0151 47.9411 44.1023 48.0729C44.7845 49.1113 46.2358 48.8323 47.4311 48.2418C47.838 48.1411 48.242 47.8891 48.5145 47.5711C48.7189 47.4155 48.8961 47.2604 49.027 47.1187C49.946 46.1144 50.0652 45.0057 49.7015 43.9678Z" fill="#A6DFDA"/>
<path fill-rule="evenodd" clip-rule="evenodd" d="M49.7015 43.9678C49.4789 43.3327 49.0764 42.7252 48.5654 42.183C48.2856 41.6136 47.854 41.1339 47.3203 40.7921C47.2119 40.6495 47.1015 40.5086 46.9918 40.3674C46.7636 40.0726 46.3203 39.9681 46.0184 40.1889C45.7517 40.0835 45.473 40.0089 45.1894 39.9697C45.0409 39.9443 44.8876 39.9698 44.7545 40.0401C44.5564 40.0056 44.3553 39.9858 44.153 39.9811C43.1912 39.958 42.138 40.34 41.9687 41.129C41.7457 41.3175 41.6351 41.6079 41.733 41.8873C41.7529 41.9442 41.7818 42.0006 41.8194 42.0558C42.0384 42.3739 42.3172 42.6464 42.6405 42.8586C43.0524 43.42 43.5441 43.9644 44.0368 44.4856C44.1484 44.8587 44.2299 45.2395 44.3507 45.6075C43.8942 46.2226 43.6559 46.9682 43.9016 47.6691C43.9494 47.8055 44.0151 47.9411 44.1023 48.0729C44.7845 49.1113 46.2358 48.8323 47.4311 48.2418C47.838 48.1411 48.242 47.8891 48.5145 47.5711C48.7189 47.4155 48.8961 47.2604 49.027 47.1187C49.946 46.1144 50.0652 45.0057 49.7015 43.9678V43.9678Z" stroke="black" stroke-miterlimit="10" stroke-linejoin="round"/>
<path fill-rule="evenodd" clip-rule="evenodd" d="M57.9517 68.9104C57.9124 68.7983 57.8626 68.6899 57.8036 68.5866C57.5017 68.0687 56.826 67.535 56.1872 67.6532C55.5243 67.7753 55.2242 68.2926 55.1626 68.8869C55.0773 68.9506 55.007 69.0336 54.9579 69.1274C54.6426 69.7212 54.5556 70.4667 54.7773 71.0993C54.7975 71.157 54.8202 71.2138 54.8453 71.2697C54.8508 71.2961 54.8577 71.321 54.8666 71.3462C54.9036 71.4517 54.9693 71.5454 55.0556 71.6173C55.1203 71.7059 55.1926 71.7872 55.271 71.8628C55.902 72.4431 56.61 72.1712 57.1448 71.6654C57.723 71.4628 58.1785 71.0532 58.2493 70.3371C58.2731 70.0954 58.2432 69.8514 58.1635 69.624C58.1339 69.5396 58.097 69.4577 58.0544 69.3778C58.0383 69.2174 58.0044 69.0606 57.9517 68.9104Z" fill="#A6DFDA"/>
<path fill-rule="evenodd" clip-rule="evenodd" d="M57.9517 68.9104C57.9124 68.7983 57.8626 68.6899 57.8036 68.5866C57.5017 68.0687 56.826 67.535 56.1872 67.6532C55.5243 67.7753 55.2242 68.2926 55.1626 68.8869C55.0773 68.9506 55.007 69.0336 54.9579 69.1274C54.6426 69.7212 54.5556 70.4667 54.7773 71.0993C54.7975 71.157 54.8202 71.2138 54.8453 71.2697C54.8508 71.2961 54.8577 71.321 54.8666 71.3462C54.9036 71.4517 54.9693 71.5454 55.0556 71.6173C55.1203 71.7059 55.1926 71.7872 55.271 71.8628C55.902 72.4431 56.61 72.1712 57.1448 71.6654C57.723 71.4628 58.1785 71.0532 58.2493 70.3371C58.2731 70.0954 58.2432 69.8514 58.1635 69.624C58.1339 69.5396 58.097 69.4577 58.0544 69.3778C58.0383 69.2174 58.0044 69.0606 57.9517 68.9104V68.9104Z" stroke="black" stroke-miterlimit="10" stroke-linejoin="round"/>
<path fill-rule="evenodd" clip-rule="evenodd" d="M58.1903 55.9926C58.0659 55.6377 57.8407 55.3126 57.5532 55.0386C57.4549 54.9454 57.3406 54.8715 57.2168 54.8201C56.942 54.486 56.6198 54.2068 56.1725 54.0828C55.6147 53.93 55.2329 54.5472 55.398 55.0182C55.4153 55.0677 55.4387 55.1161 55.4693 55.1619C55.4933 55.1991 55.5097 55.2408 55.532 55.2785C55.438 55.4109 55.369 55.56 55.3309 55.7165C54.8863 55.7228 54.4405 55.7515 53.9993 55.7101C53.7635 55.6487 53.5201 55.6255 53.2776 55.6412C52.369 55.7099 51.9397 56.4987 52.0297 57.2186C51.8385 57.5236 51.7549 57.8885 51.8829 58.254C51.8938 58.2848 51.9062 58.3151 51.9197 58.3459C52.6688 60.0047 55.4008 61.0723 57.1285 60.5724C59.0652 60.011 58.9432 58.2345 58.4041 56.6964C58.3654 56.5859 58.3243 56.4763 58.2818 56.3681C58.2643 56.2402 58.2329 56.1144 58.1903 55.9926Z" fill="#FEB8B3"/>
<path fill-rule="evenodd" clip-rule="evenodd" d="M58.1903 55.9926C58.0659 55.6377 57.8407 55.3126 57.5532 55.0386C57.4549 54.9454 57.3406 54.8715 57.2168 54.8201C56.942 54.486 56.6198 54.2068 56.1725 54.0828C55.6147 53.93 55.2329 54.5472 55.398 55.0182C55.4153 55.0677 55.4387 55.1161 55.4693 55.1619C55.4933 55.1991 55.5097 55.2408 55.532 55.2785C55.438 55.4109 55.369 55.56 55.3309 55.7165C54.8863 55.7228 54.4405 55.7515 53.9993 55.7101C53.7635 55.6487 53.5201 55.6255 53.2776 55.6412C52.369 55.7099 51.9397 56.4987 52.0297 57.2186C51.8385 57.5236 51.7549 57.8885 51.8829 58.254C51.8938 58.2848 51.9062 58.3151 51.9197 58.3459C52.6688 60.0047 55.4008 61.0723 57.1285 60.5724C59.0652 60.011 58.9432 58.2345 58.4041 56.6964C58.3654 56.5859 58.3243 56.4763 58.2818 56.3681C58.2643 56.2402 58.2329 56.1144 58.1903 55.9926V55.9926Z" stroke="black" stroke-miterlimit="10" stroke-linejoin="round"/>
<path fill-rule="evenodd" clip-rule="evenodd" d="M40.7533 55.0157C40.3249 53.7935 39.2857 52.8446 37.9672 52.6439C37.2957 52.1197 36.4777 51.7344 35.6539 52.2713C34.7397 52.8681 34.3618 53.949 34.2412 54.9916C34.1659 55.6481 34.2428 56.2759 34.442 56.8444C35.0033 58.4459 36.5352 59.5831 38.3599 59.61C40.1419 59.6373 40.9656 57.7755 40.9654 56.2636C40.9658 55.8303 40.891 55.4088 40.7533 55.0157Z" fill="#FED58A"/>
<path fill-rule="evenodd" clip-rule="evenodd" d="M40.7533 55.0157C40.3249 53.7935 39.2857 52.8446 37.9672 52.6439C37.2957 52.1197 36.4777 51.7344 35.6539 52.2713C34.7397 52.8681 34.3618 53.949 34.2412 54.9916C34.1659 55.6481 34.2428 56.2759 34.442 56.8444C35.0033 58.4459 36.5352 59.5831 38.3599 59.61C40.1419 59.6373 40.9656 57.7755 40.9654 56.2636C40.9658 55.8303 40.891 55.4088 40.7533 55.0157V55.0157Z" stroke="black" stroke-miterlimit="10" stroke-linejoin="round"/>
<path fill-rule="evenodd" clip-rule="evenodd" d="M50.1469 65.0235C49.3619 62.7836 47.2755 60.7849 45.0462 61.4169C44.8658 61.4692 44.7022 61.6423 44.6259 61.8359C44.2688 61.8472 43.9332 62.0916 43.996 62.5465C44.2292 64.2083 43.6148 65.9776 44.1246 67.4321C44.3315 68.0225 44.7235 68.5608 45.4332 69.0196C47.0637 70.0739 49.5458 70.2205 50.2866 68.0522C50.5954 67.1487 50.5104 66.0606 50.1469 65.0235Z" fill="#FEB8B3"/>
<path fill-rule="evenodd" clip-rule="evenodd" d="M50.1469 65.0235C49.3619 62.7836 47.2755 60.7849 45.0462 61.4169C44.8658 61.4692 44.7022 61.6423 44.6259 61.8359C44.2688 61.8472 43.9332 62.0916 43.996 62.5465C44.2292 64.2083 43.6148 65.9776 44.1246 67.4321C44.3315 68.0225 44.7235 68.5608 45.4332 69.0196C47.0637 70.0739 49.5458 70.2205 50.2866 68.0522C50.5954 67.1487 50.5104 66.0606 50.1469 65.0235V65.0235Z" stroke="black" stroke-miterlimit="10" stroke-linejoin="round"/>
<path fill-rule="evenodd" clip-rule="evenodd" d="M62.4598 53.0914C62.9892 54.6019 63.4303 56.1416 63.7897 57.6871C65.3825 64.537 64.2548 70.7002 59.2419 75.8563C52.7743 82.5073 43.9178 80.8119 37.7307 74.8441C35.9661 73.1419 34.862 71.2611 34.1408 69.2032C33.5118 67.4084 33.1737 65.4788 32.9423 63.416C32.7731 61.9214 32.5195 60.42 32.0282 59.0183C31.547 57.645 30.838 56.3688 29.7579 55.2902C27.6515 53.1872 25.1671 51.8323 22.2557 51.2206C19.0708 50.5517 16.6081 51.7926 13.7968 53.0974C9.88107 54.9115 6.48476 53.6419 4.87978 49.6295C4.83084 49.5081 4.78513 49.3855 4.74215 49.2629C3.27122 45.0658 5.20427 40.5344 7.5685 37.0692C12.8089 29.3858 22.0916 27.2321 30.8691 27.8563C38.6628 28.4104 45.0744 32.3599 51.0296 37.1169C52.0909 37.965 53.1105 38.8659 54.0683 39.8296C54.0799 39.8447 54.0937 39.8581 54.1086 39.872C58.0109 43.4437 60.7148 48.1122 62.4598 53.0914ZM63.1117 52.7506C61.3454 47.7106 58.4832 42.9389 54.5728 39.3545C54.5684 39.3497 54.5642 39.3457 54.5598 39.3409L54.5593 39.342C54.5593 39.342 54.5593 39.342 54.5582 39.3414C54.5557 39.3396 54.553 39.3369 54.5505 39.335C45.1131 29.814 32.0859 24.5252 18.7873 28.2437C12.316 30.0528 7.15252 34.9353 4.58738 41.0817C3.54596 43.5761 3.187 47.1982 4.19971 50.0877C4.77094 51.7176 5.77834 53.1144 7.3466 53.9443C9.27395 54.9639 11.1731 54.8388 13.1867 54.1064C14.6685 53.566 16.0336 52.7418 17.4999 52.1621C19.9858 51.1802 22.8815 51.8849 25.2304 52.8897C28.4603 54.2697 30.348 56.6746 31.3797 59.6186C31.8013 60.8213 32.0791 62.1137 32.2485 63.4632C32.5219 65.6507 32.7918 67.6617 33.4669 69.5881C33.8489 70.6779 34.3608 71.7405 35.0761 72.7928C38.3317 77.5789 44.0588 81.1701 49.9207 81.0118C55.6335 80.8574 60.4226 76.5093 63.1604 71.8389C66.0204 66.9606 65.4254 61.2592 64.0902 55.9951C63.8138 54.9074 63.4878 53.8234 63.1117 52.7506Z" fill="black"/>
<path fill-rule="evenodd" clip-rule="evenodd" d="M62.4598 53.0914C62.9892 54.6019 63.4303 56.1416 63.7897 57.6871C65.3825 64.537 64.2548 70.7002 59.2419 75.8563C52.7743 82.5073 43.9178 80.8119 37.7307 74.8441C35.9661 73.1419 34.862 71.2611 34.1408 69.2032C33.5118 67.4084 33.1737 65.4788 32.9423 63.416C32.7731 61.9214 32.5195 60.42 32.0282 59.0183C31.547 57.645 30.838 56.3688 29.7579 55.2902C27.6515 53.1872 25.1671 51.8323 22.2557 51.2206C19.0708 50.5517 16.6081 51.7926 13.7968 53.0974C9.88107 54.9115 6.48476 53.6419 4.87978 49.6295C4.83084 49.5081 4.78513 49.3855 4.74215 49.2629C3.27122 45.0658 5.20427 40.5344 7.5685 37.0692C12.8089 29.3858 22.0916 27.2321 30.8691 27.8563C38.6628 28.4104 45.0744 32.3599 51.0296 37.1169C52.0909 37.965 53.1105 38.8659 54.0683 39.8296C54.0799 39.8447 54.0937 39.8581 54.1086 39.872C58.0109 43.4437 60.7148 48.1122 62.4598 53.0914V53.0914ZM63.1117 52.7506C61.3454 47.7106 58.4832 42.9389 54.5728 39.3545C54.5684 39.3497 54.5642 39.3457 54.5598 39.3409L54.5593 39.342C54.5593 39.342 54.5593 39.342 54.5582 39.3414C54.5557 39.3396 54.553 39.3369 54.5505 39.335C45.1131 29.814 32.0859 24.5252 18.7873 28.2437C12.316 30.0528 7.15252 34.9353 4.58738 41.0817C3.54596 43.5761 3.187 47.1982 4.19971 50.0877C4.77094 51.7176 5.77834 53.1144 7.3466 53.9443C9.27395 54.9639 11.1731 54.8388 13.1867 54.1064C14.6685 53.566 16.0336 52.7418 17.4999 52.1621C19.9858 51.1802 22.8815 51.8849 25.2304 52.8897C28.4603 54.2697 30.348 56.6746 31.3797 59.6186C31.8013 60.8213 32.0791 62.1137 32.2485 63.4632C32.5219 65.6507 32.7918 67.6617 33.4669 69.5881C33.8489 70.6779 34.3608 71.7405 35.0761 72.7928C38.3317 77.5789 44.0588 81.1701 49.9207 81.0118C55.6335 80.8574 60.4226 76.5093 63.1604 71.8389C66.0204 66.9606 65.4254 61.2592 64.0902 55.9951C63.8138 54.9074 63.4878 53.8234 63.1117 52.7506V52.7506Z" stroke="black" stroke-miterlimit="10" stroke-linejoin="round"/>
<path fill-rule="evenodd" clip-rule="evenodd" d="M21.6585 44.3345C22.4595 46.6199 18.6914 47.3463 17.0051 47.4752C15.901 47.5586 12.9741 47.1731 12.5082 45.8436C12.3784 45.4733 12.4396 45.0287 12.7839 44.5022C14.1007 42.4867 19.2397 42.4669 21.1654 43.4478C21.1671 43.4499 21.1687 43.4521 21.1704 43.4543C21.4044 43.7707 21.5635 44.0633 21.6585 44.3345ZM22.2673 44.019C22.1591 43.7104 21.9866 43.3897 21.7418 43.0579C21.7095 43.0154 21.6734 42.9825 21.6344 42.9597C21.6037 42.9111 21.5584 42.8677 21.4958 42.835C19.186 41.6294 10.6257 41.8565 12.0091 46.1262C12.0151 46.146 12.022 46.1655 12.0288 46.185C13.4354 50.1985 23.7306 48.1941 22.2673 44.019Z" fill="black"/>
<path fill-rule="evenodd" clip-rule="evenodd" d="M21.6585 44.3345C22.4595 46.6199 18.6914 47.3463 17.0051 47.4752C15.901 47.5586 12.9741 47.1731 12.5082 45.8436C12.3784 45.4733 12.4396 45.0287 12.7839 44.5022C14.1007 42.4867 19.2397 42.4669 21.1654 43.4478C21.1671 43.4499 21.1687 43.4521 21.1704 43.4543C21.4044 43.7707 21.5635 44.0633 21.6585 44.3345V44.3345ZM22.2673 44.019C22.1591 43.7104 21.9866 43.3897 21.7418 43.0579C21.7095 43.0154 21.6734 42.9825 21.6344 42.9597C21.6037 42.9111 21.5584 42.8677 21.4958 42.835C19.186 41.6294 10.6257 41.8565 12.0091 46.1262C12.0151 46.146 12.022 46.1655 12.0288 46.185C13.4354 50.1985 23.7306 48.1941 22.2673 44.019V44.019Z" stroke="black" stroke-miterlimit="10" stroke-linejoin="round"/>
<path fill-rule="evenodd" clip-rule="evenodd" d="M22.1468 44.6193C22.1212 44.5462 22.0684 44.479 21.982 44.4327L21.9814 44.431C19.1366 42.8933 14.8725 42.9848 12.2149 44.8895C12.0698 44.9933 12.0452 45.1469 12.0907 45.2768C12.1599 45.4742 12.3902 45.6187 12.6103 45.4612C15.0723 43.698 19.0537 43.6373 21.6803 45.0573C21.9884 45.2237 22.2379 44.8792 22.1468 44.6193Z" fill="black"/>
<path fill-rule="evenodd" clip-rule="evenodd" d="M22.1468 44.6193C22.1212 44.5462 22.0684 44.479 21.982 44.4327L21.9814 44.431C19.1366 42.8933 14.8725 42.9848 12.2149 44.8895C12.0698 44.9933 12.0452 45.1469 12.0907 45.2768C12.1599 45.4742 12.3902 45.6187 12.6103 45.4612C15.0723 43.698 19.0537 43.6373 21.6803 45.0573C21.9884 45.2237 22.2379 44.8792 22.1468 44.6193V44.6193Z" stroke="black" stroke-miterlimit="10" stroke-linejoin="round"/>
<path fill-rule="evenodd" clip-rule="evenodd" d="M33.6642 37.1664C33.8968 37.8299 33.9799 38.5458 33.8344 39.3299C33.3878 41.7471 30.169 41.4393 29.3931 39.4726C29.1881 38.9527 28.9766 38.2946 28.4776 37.9789C28.0074 37.6805 27.6336 37.4933 27.0538 37.4987C26.4144 37.5085 25.7581 37.6182 25.1644 37.23C24.8564 37.0279 24.664 36.7598 24.5584 36.4585C24.257 35.5985 24.6696 34.4708 25.14 33.8591C26.2269 32.4466 29.0875 31.6207 30.4286 33.0071C30.4731 33.0535 30.5204 33.0816 30.5682 33.0959C30.585 33.1411 30.612 33.1845 30.6516 33.2244C31.8059 34.3927 33.1297 35.6412 33.6642 37.1664ZM34.5173 37.3552C33.8763 35.5263 32.1234 33.7298 31.1025 32.6952C31.0575 32.6499 31.0099 32.6209 30.9624 32.6075C30.9456 32.5623 30.9186 32.5189 30.8796 32.4779C29.1507 30.6929 26.0919 31.8693 24.6108 33.4081C23.7561 34.2968 23.665 35.6939 24.014 36.8017C24.0215 36.8255 24.0286 36.8485 24.0369 36.8721C24.4487 38.0472 25.6525 38.2508 26.7233 38.1973C28.7811 38.0959 28.7361 40.9486 30.5181 41.6653C31.7125 42.1466 33.0637 41.5717 33.8993 40.717C34.8822 39.7104 34.9277 38.5263 34.5173 37.3552Z" fill="black"/>
<path fill-rule="evenodd" clip-rule="evenodd" d="M33.6642 37.1664C33.8968 37.8299 33.9799 38.5458 33.8344 39.3299C33.3878 41.7471 30.169 41.4393 29.3931 39.4726C29.1881 38.9527 28.9766 38.2946 28.4776 37.9789C28.0074 37.6805 27.6336 37.4933 27.0538 37.4987C26.4144 37.5085 25.7581 37.6182 25.1644 37.23C24.8564 37.0279 24.664 36.7598 24.5584 36.4585C24.257 35.5985 24.6696 34.4708 25.14 33.8591C26.2269 32.4466 29.0875 31.6207 30.4286 33.0071C30.4731 33.0535 30.5204 33.0816 30.5682 33.0959C30.585 33.1411 30.612 33.1845 30.6516 33.2244C31.8059 34.3927 33.1297 35.6412 33.6642 37.1664V37.1664ZM34.5173 37.3552C33.8763 35.5263 32.1234 33.7298 31.1025 32.6952C31.0575 32.6499 31.0099 32.6209 30.9624 32.6075C30.9456 32.5623 30.9186 32.5189 30.8796 32.4779C29.1507 30.6929 26.0919 31.8693 24.6108 33.4081C23.7561 34.2968 23.665 35.6939 24.014 36.8017C24.0215 36.8255 24.0286 36.8485 24.0369 36.8721C24.4487 38.0472 25.6525 38.2508 26.7233 38.1973C28.7811 38.0959 28.7361 40.9486 30.5181 41.6653C31.7125 42.1466 33.0637 41.5717 33.8993 40.717C34.8822 39.7104 34.9277 38.5263 34.5173 37.3552V37.3552Z" stroke="black" stroke-miterlimit="10" stroke-linejoin="round"/>
<path fill-rule="evenodd" clip-rule="evenodd" d="M49.2884 43.7023C49.7877 45.1268 49.6789 46.6532 48.4203 47.6771C47.535 48.3978 46.2748 48.5588 45.2275 48.1536C44.7709 47.9772 44.319 47.6012 44.1585 47.1431C44.0797 46.9182 44.0713 46.6731 44.1662 46.4237C44.2967 46.0807 44.4194 45.7933 44.4586 45.4239C44.4831 45.1946 44.454 44.9841 44.3857 44.7892C44.0049 43.7026 42.4012 43.0812 42.04 42.0506C41.9375 41.7582 41.935 41.4335 42.0895 41.0548C42.6608 39.6516 45.676 39.9898 46.7216 40.4758C46.7425 40.4859 46.7632 40.4932 46.7832 40.498C46.792 40.505 46.8014 40.5108 46.811 40.5175C47.8684 41.1854 48.8325 42.4013 49.2884 43.7023ZM50.0304 43.6784C49.4797 42.1069 48.2797 40.629 47.1124 39.892C47.0854 39.875 47.0583 39.8626 47.0323 39.8535C47.0291 39.8519 47.026 39.8512 47.0236 39.8493C45.5909 39.1852 42.5339 38.9903 41.5695 40.5805C41.2489 41.1096 41.2335 41.7397 41.4322 42.3065C41.5489 42.6395 41.7401 42.9509 41.9865 43.2065C42.5172 43.7554 43.4038 44.2744 43.6586 45.0013C43.7534 45.2717 43.7604 45.5702 43.6299 45.9105C43.4797 46.3014 43.244 46.7762 43.3948 47.2066C43.4025 47.2285 43.411 47.2502 43.4206 47.2724C44.5191 49.7278 47.6978 49.3749 49.3543 47.7692C50.4941 46.6665 50.5399 45.1321 50.0304 43.6784Z" fill="black"/>
<path fill-rule="evenodd" clip-rule="evenodd" d="M49.2884 43.7023C49.7877 45.1268 49.6789 46.6532 48.4203 47.6771C47.535 48.3978 46.2748 48.5588 45.2275 48.1536C44.7709 47.9772 44.319 47.6012 44.1585 47.1431C44.0797 46.9182 44.0713 46.6731 44.1662 46.4237C44.2967 46.0807 44.4194 45.7933 44.4586 45.4239C44.4831 45.1946 44.454 44.9841 44.3857 44.7892C44.0049 43.7026 42.4012 43.0812 42.04 42.0506C41.9375 41.7582 41.935 41.4335 42.0895 41.0548C42.6608 39.6516 45.676 39.9898 46.7216 40.4758C46.7425 40.4859 46.7632 40.4932 46.7832 40.498C46.792 40.505 46.8014 40.5108 46.811 40.5175C47.8684 41.1854 48.8325 42.4013 49.2884 43.7023V43.7023ZM50.0304 43.6784C49.4797 42.1069 48.2797 40.629 47.1124 39.892C47.0854 39.875 47.0583 39.8626 47.0323 39.8535C47.0291 39.8519 47.026 39.8512 47.0236 39.8493C45.5909 39.1852 42.5339 38.9903 41.5695 40.5805C41.2489 41.1096 41.2335 41.7397 41.4322 42.3065C41.5489 42.6395 41.7401 42.9509 41.9865 43.2065C42.5172 43.7554 43.4038 44.2744 43.6586 45.0013C43.7534 45.2717 43.7604 45.5702 43.6299 45.9105C43.4797 46.3014 43.244 46.7762 43.3948 47.2066C43.4025 47.2285 43.411 47.2502 43.4206 47.2724C44.5191 49.7278 47.6978 49.3749 49.3543 47.7692C50.4941 46.6665 50.5399 45.1321 50.0304 43.6784V43.6784Z" stroke="black" stroke-miterlimit="10" stroke-linejoin="round"/>
<path fill-rule="evenodd" clip-rule="evenodd" d="M40.6641 55.1646C41.0683 56.3178 40.869 57.5859 40.0574 58.6027C38.8109 60.1632 36.6215 59.499 35.5113 58.1602C35.1802 57.7619 34.9174 57.2851 34.7378 56.7726C34.283 55.4748 34.361 53.9492 35.2159 52.8999C36.5486 51.2627 39.1769 53.1089 40.1225 54.2592C40.1683 54.3143 40.2214 54.3513 40.2775 54.3709C40.4398 54.6259 40.5685 54.8917 40.6641 55.1646ZM41.2971 54.8998C41.1653 54.5238 40.9848 54.1648 40.7589 53.8401C40.7021 53.7588 40.6301 53.7147 40.554 53.7004C39.2626 52.2217 37.0789 50.9729 35.1818 52.0273C33.4727 52.9757 33.5482 55.2828 34.1619 57.0338C34.329 57.5105 34.5362 57.9458 34.7575 58.3013C35.8965 60.1335 38.4286 60.8361 40.1646 59.4679C41.5493 58.3769 41.8504 56.4786 41.2971 54.8998Z" fill="black"/>
<path fill-rule="evenodd" clip-rule="evenodd" d="M40.6641 55.1646C41.0683 56.3178 40.869 57.5859 40.0574 58.6027C38.8109 60.1632 36.6215 59.499 35.5113 58.1602C35.1802 57.7619 34.9174 57.2851 34.7378 56.7726C34.283 55.4748 34.361 53.9492 35.2159 52.8999C36.5486 51.2627 39.1769 53.1089 40.1225 54.2592C40.1683 54.3143 40.2214 54.3513 40.2775 54.3709C40.4398 54.6259 40.5685 54.8917 40.6641 55.1646V55.1646ZM41.2971 54.8998C41.1653 54.5238 40.9848 54.1648 40.7589 53.8401C40.7021 53.7588 40.6301 53.7147 40.554 53.7004C39.2626 52.2217 37.0789 50.9729 35.1818 52.0273C33.4727 52.9757 33.5482 55.2828 34.1619 57.0338C34.329 57.5105 34.5362 57.9458 34.7575 58.3013C35.8965 60.1335 38.4286 60.8361 40.1646 59.4679C41.5493 58.3769 41.8504 56.4786 41.2971 54.8998V54.8998Z" stroke="black" stroke-miterlimit="10" stroke-linejoin="round"/>
<path fill-rule="evenodd" clip-rule="evenodd" d="M58.3854 56.4221C58.9386 58.1304 58.8286 60.1633 56.7077 60.5193C55.1009 60.789 53.4502 59.8174 52.563 58.5372C52.4667 58.3977 52.3878 58.2429 52.3303 58.0789C52.159 57.59 52.1758 57.0242 52.4697 56.5828C52.924 55.9019 53.6885 56.0799 54.3175 56.1576C54.7479 56.21 55.0859 56.118 55.4097 55.8375C55.7228 55.5654 55.8929 55.0699 55.8811 54.6619C55.8368 53.1253 58.1604 56.0505 58.2601 56.2699C58.2902 56.3378 58.334 56.3872 58.3854 56.4221ZM59.0033 56.0805C58.9706 55.9871 58.9125 55.9254 58.8442 55.8919C58.3454 54.8822 57.5763 54.1551 56.629 53.5489C56.0288 53.1657 55.221 53.2829 55.1905 54.1271C55.1348 55.6229 54.5369 55.3529 53.5909 55.3827C53.0806 55.3993 52.562 55.5273 52.1822 55.8976C51.5154 56.5472 51.3762 57.4094 51.6691 58.245C51.7147 58.375 51.7714 58.5056 51.8373 58.6338C52.7558 60.4065 55.0969 61.6412 57.0875 61.153C59.521 60.557 59.7033 58.1194 59.0042 56.0829C59.0039 56.0821 59.0036 56.0813 59.0033 56.0805Z" fill="black"/>
<path fill-rule="evenodd" clip-rule="evenodd" d="M58.3854 56.4221C58.9386 58.1304 58.8286 60.1633 56.7077 60.5193C55.1009 60.789 53.4502 59.8174 52.563 58.5372C52.4667 58.3977 52.3878 58.2429 52.3303 58.0789C52.159 57.59 52.1758 57.0242 52.4697 56.5828C52.924 55.9019 53.6885 56.0799 54.3175 56.1576C54.7479 56.21 55.0859 56.118 55.4097 55.8375C55.7228 55.5654 55.8929 55.0699 55.8811 54.6619C55.8368 53.1253 58.1604 56.0505 58.2601 56.2699C58.2902 56.3378 58.334 56.3872 58.3854 56.4221V56.4221ZM59.0033 56.0805C58.9706 55.9871 58.9125 55.9254 58.8442 55.8919C58.3454 54.8822 57.5763 54.1551 56.629 53.5489C56.0288 53.1657 55.221 53.2829 55.1905 54.1271C55.1348 55.6229 54.5369 55.3529 53.5909 55.3827C53.0806 55.3993 52.562 55.5273 52.1822 55.8976C51.5154 56.5472 51.3762 57.4094 51.6691 58.245C51.7147 58.375 51.7714 58.5056 51.8373 58.6338C52.7558 60.4065 55.0969 61.6412 57.0875 61.153C59.521 60.557 59.7033 58.1194 59.0042 56.0829C59.0039 56.0821 59.0036 56.0813 59.0033 56.0805V56.0805Z" stroke="black" stroke-miterlimit="10" stroke-linejoin="round"/>
<path fill-rule="evenodd" clip-rule="evenodd" d="M49.3937 64.154C49.9843 65.8392 50.6789 68.0943 49.1501 69.4035C48.2278 70.1929 46.6486 69.2483 45.8577 68.7139C45.1359 68.2256 44.4227 67.6166 44.1495 66.837C44.0129 66.4471 43.9864 66.0151 44.1232 65.534C44.3009 64.9145 44.4301 64.2737 44.4528 63.6283C44.4904 62.6376 44.3468 61.2681 45.741 61.4322C47.0092 61.5831 48.3718 62.6429 49.1429 63.6127C49.1696 63.6472 49.1999 63.6739 49.2318 63.6946C49.2833 63.8416 49.3382 63.9957 49.3937 64.154ZM49.8663 63.4084C49.8356 63.3206 49.7835 63.2605 49.7209 63.225C49.7181 63.2223 49.7165 63.2201 49.7145 63.2172L49.7129 63.2177C48.7922 62.0578 46.6075 60.2521 44.9718 60.7645C44.208 61.0021 43.9156 61.5779 43.7967 62.3337C43.676 63.1055 43.7649 63.895 43.6204 64.6716C43.4868 65.3987 43.2234 66.0154 43.3024 66.7637C43.3167 66.8955 43.3484 67.0303 43.3956 67.1651C44.0073 68.9104 47.2228 70.8297 48.8678 70.2813C51.7541 69.3177 50.5819 65.45 49.8663 63.4084Z" fill="black"/>
<path fill-rule="evenodd" clip-rule="evenodd" d="M49.3937 64.154C49.9843 65.8392 50.6789 68.0943 49.1501 69.4035C48.2278 70.1929 46.6486 69.2483 45.8577 68.7139C45.1359 68.2256 44.4227 67.6166 44.1495 66.837C44.0129 66.4471 43.9864 66.0151 44.1232 65.534C44.3009 64.9145 44.4301 64.2737 44.4528 63.6283C44.4904 62.6376 44.3468 61.2681 45.741 61.4322C47.0092 61.5831 48.3718 62.6429 49.1429 63.6127C49.1696 63.6472 49.1999 63.6739 49.2318 63.6946C49.2833 63.8416 49.3382 63.9957 49.3937 64.154V64.154ZM49.8663 63.4084C49.8356 63.3206 49.7835 63.2605 49.7209 63.225C49.7181 63.2223 49.7165 63.2201 49.7145 63.2172L49.7129 63.2177C48.7922 62.0578 46.6075 60.2521 44.9718 60.7645C44.208 61.0021 43.9156 61.5779 43.7967 62.3337C43.676 63.1055 43.7649 63.895 43.6204 64.6716C43.4868 65.3987 43.2234 66.0154 43.3024 66.7637C43.3167 66.8955 43.3484 67.0303 43.3956 67.1651C44.0073 68.9104 47.2228 70.8297 48.8678 70.2813C51.7541 69.3177 50.5819 65.45 49.8663 63.4084V63.4084Z" stroke="black" stroke-miterlimit="10" stroke-linejoin="round"/>
<path fill-rule="evenodd" clip-rule="evenodd" d="M57.7318 68.7484C57.7281 68.7926 57.7337 68.8399 57.7505 68.8905C57.9305 69.4274 58.0692 69.9533 57.9462 70.5153C57.8028 71.1702 57.0667 71.6325 56.4894 71.8349C56.1687 71.9474 55.8954 71.9091 55.5702 71.8553C55.3609 71.8202 55.0078 71.7333 55.0012 71.7484C55.109 71.4681 55.1882 71.2205 55.1772 70.9134C55.1581 70.4322 54.9322 69.9907 54.9341 69.4913C54.9373 69.0087 55.1263 68.5257 55.4223 68.1501C56.1809 67.1902 57.1877 67.9324 57.7029 68.7102C57.7121 68.7234 57.7221 68.7363 57.7318 68.7484ZM58.3166 68.3984C58.3069 68.3708 58.2934 68.3427 58.2748 68.3155L58.2724 68.3164C57.5563 67.2333 56.2756 66.4822 55.1341 67.4578C54.6736 67.8481 54.4219 68.4124 54.2961 68.99C54.2216 69.3261 54.2287 69.6848 54.2623 70.025C54.3014 70.4152 54.5372 70.8095 54.4648 71.2014C54.4181 71.4531 54.2246 71.7489 54.3116 71.9974C54.3375 72.0714 54.3882 72.1403 54.4732 72.2034C54.998 72.5876 55.9124 72.7093 56.5318 72.5413C57.3616 72.3152 58.068 71.7994 58.4843 71.0389C58.8851 70.3093 58.6523 69.3951 58.4074 68.6602C58.4069 68.6586 58.4063 68.657 58.4055 68.6545C58.3881 68.605 58.3633 68.5654 58.3337 68.5329C58.3376 68.4895 58.3328 68.4447 58.3166 68.3984Z" fill="black"/>
<path fill-rule="evenodd" clip-rule="evenodd" d="M57.7318 68.7484C57.7281 68.7926 57.7337 68.8399 57.7505 68.8905C57.9305 69.4274 58.0692 69.9533 57.9462 70.5153C57.8028 71.1702 57.0667 71.6325 56.4894 71.8349C56.1687 71.9474 55.8954 71.9091 55.5702 71.8553C55.3609 71.8202 55.0078 71.7333 55.0012 71.7484C55.109 71.4681 55.1882 71.2205 55.1772 70.9134C55.1581 70.4322 54.9322 69.9907 54.9341 69.4913C54.9373 69.0087 55.1263 68.5257 55.4223 68.1501C56.1809 67.1902 57.1877 67.9324 57.7029 68.7102C57.7121 68.7234 57.7221 68.7363 57.7318 68.7484V68.7484ZM58.3166 68.3984C58.3069 68.3708 58.2934 68.3427 58.2748 68.3155L58.2724 68.3164C57.5563 67.2333 56.2756 66.4822 55.1341 67.4578C54.6736 67.8481 54.4219 68.4124 54.2961 68.99C54.2216 69.3261 54.2287 69.6848 54.2623 70.025C54.3014 70.4152 54.5372 70.8095 54.4648 71.2014C54.4181 71.4531 54.2246 71.7489 54.3116 71.9974C54.3375 72.0714 54.3882 72.1403 54.4732 72.2034C54.998 72.5876 55.9124 72.7093 56.5318 72.5413C57.3616 72.3152 58.068 71.7994 58.4843 71.0389C58.8851 70.3093 58.6523 69.3951 58.4074 68.6602C58.4069 68.6586 58.4063 68.657 58.4055 68.6545C58.3881 68.605 58.3633 68.5654 58.3337 68.5329C58.3376 68.4895 58.3328 68.4447 58.3166 68.3984V68.3984Z" stroke="black" stroke-miterlimit="10" stroke-linejoin="round"/>
</svg>
