<svg width="241" height="323" viewBox="0 0 241 323" fill="none" xmlns="http://www.w3.org/2000/svg">
<path fill-rule="evenodd" clip-rule="evenodd" d="M213.587 35.2168C221.981 35.2168 233.414 37.6563 238.907 49.642C238.907 49.642 237.513 49.7808 235.245 49.7808C227.948 49.7808 211.599 48.3602 203.504 36.3672C203.504 36.3672 207.829 35.2168 213.587 35.2168Z" fill="#FEB8B3"/>
<path fill-rule="evenodd" clip-rule="evenodd" d="M187.157 86.4773C190.305 87.6094 193.068 88.6247 195.548 89.5084C194.455 93.2736 193.411 96.7101 192.479 100.179C191.629 103.295 191.028 106.483 190.096 109.59C188.086 116.332 185.576 122.942 183.947 129.771C181.769 138.89 180.266 148.173 178.446 157.387C178.129 159.063 177.768 160.747 177.343 162.781L169.929 160.137C168.949 159.797 168.807 159.206 169.075 158.256C171.857 148.111 174.352 137.889 177.454 127.843C180.221 118.848 182.891 109.857 184.473 100.57C185.278 95.9322 186.24 91.3161 187.157 86.4773Z" fill="#A6DFDA"/>
<path fill-rule="evenodd" clip-rule="evenodd" d="M162.325 179.368C164.666 179.788 166.766 180.102 168.854 180.566C170.465 180.928 171.084 182.14 170.685 183.787C169.82 187.286 168.932 190.788 168.082 194.286C167.81 195.345 167.579 196.404 167.322 197.478C166.177 197.113 165.14 196.945 164.193 196.945C160.341 196.945 157.958 199.688 155.676 202.861C157.887 195.064 160.083 187.271 162.325 179.368Z" fill="#A6DFDA"/>
<path fill-rule="evenodd" clip-rule="evenodd" d="M173.975 182.571C179.013 183.539 183.82 184.437 188.731 185.376C186.363 191.734 183.976 198.129 181.575 204.571C180.464 202.237 178.812 200.868 176.679 200.868C174.803 200.868 172.554 201.927 169.974 204.322C169.519 196.478 172.297 189.682 173.975 182.571Z" fill="#A6DFDA"/>
<path fill-rule="evenodd" clip-rule="evenodd" d="M203.633 180.829L204.106 181.11C201.802 190.912 199.479 200.725 197.088 210.87C196.73 210.213 196.551 209.891 196.38 209.577C194.989 206.857 193.493 205.542 191.539 205.542C190.346 205.542 188.985 206.031 187.37 206.995C186.52 207.51 185.748 208.164 185.002 208.847C184.499 209.296 184.13 209.906 183.723 210.45C183.362 209.953 183.347 209.829 183.377 209.716C186.129 201.802 188.843 193.867 191.67 185.964C191.845 185.482 192.744 185.058 193.378 184.952C197.088 184.331 200.963 184.127 203.633 180.829Z" fill="#A6DFDA"/>
<path fill-rule="evenodd" clip-rule="evenodd" d="M214.161 97.6055C217.252 98.051 220.183 98.4892 223.136 98.9092C223.136 98.9713 223.185 99.1758 223.136 99.3474C220.194 111.552 217.274 123.768 214.366 135.998C214.205 136.692 214.332 137.47 214.176 138.171C213.926 139.325 213.732 140.538 213.131 141.502C212.833 141.984 211.711 142.017 210.95 142.159C206.46 143.01 204.137 146.684 205.483 151.103C205.83 152.235 205.64 153.027 205.084 154.01C203.79 156.281 202.515 158.586 201.482 160.996C200.251 163.936 201.232 167.215 203.727 169.224C204.439 169.783 205.308 170.173 206.147 170.67C205.767 172.474 205.39 174.234 204.931 176.396C202.623 171.963 198.596 171.262 195.165 170.378C195.892 168.537 196.664 166.89 197.156 165.177C197.518 163.95 197.346 162.581 197.678 161.336C199.606 154.192 201.803 147.1 203.522 139.913C205.517 131.561 207.143 123.133 208.899 114.729C210.129 108.835 211.681 103.047 214.161 97.6055Z" fill="#A6DFDA"/>
<path fill-rule="evenodd" clip-rule="evenodd" d="M197.536 90.3528C202.69 92.6426 207.601 94.8374 212.467 96.9957C211.789 98.1022 210.935 99.081 210.558 100.198C209.197 104.139 207.713 108.057 206.78 112.1C205.166 119.01 204.204 126.054 202.514 132.927C200.284 141.937 197.57 150.818 195.228 159.784C194.769 161.562 194.188 162.545 192.517 162.545C192.286 162.545 192.04 162.526 191.767 162.49C191.503 162.453 191.234 162.439 190.962 162.439C189.925 162.439 188.855 162.647 187.8 162.672C186.99 162.683 186.178 162.687 185.357 162.687C183.72 162.687 182.064 162.672 180.356 162.672C180.64 161.179 180.931 159.659 181.21 158.133C182.982 148.923 184.264 139.574 186.647 130.521C189.776 118.604 193.871 106.955 196.227 94.8374C196.492 93.3876 197.044 92.0035 197.536 90.3528Z" fill="#A6DFDA"/>
<path fill-rule="evenodd" clip-rule="evenodd" d="M213.46 36.2055C210.697 36.2055 208.023 36.6401 205.611 37.5384C214.758 45.3463 225.665 48.4395 237.718 49.1918C232.769 40.9457 222.615 36.2055 213.46 36.2055ZM150.149 4.71109C145.491 4.71109 140.852 5.49992 136.254 6.28143C125.052 8.21331 111.717 17.3943 109.204 31.8159C107.925 39.1088 108.447 46.0475 110.595 52.9679C111.762 56.7331 114.465 59.5962 117.411 62.547C116.539 59.7971 115.673 57.416 115.073 54.9582C114.775 53.7275 114.775 52.3471 114.98 51.0835C115.409 48.4066 116.968 46.9057 119.093 46.9057C119.917 46.9057 120.827 47.1321 121.789 47.5996C123.445 48.4103 124.851 49.714 126.767 51.0835C127.808 48.9544 129.184 46.7925 129.896 44.4443C130.828 41.4241 131.287 38.2688 131.839 35.1391C132.212 33.0465 132.749 32.0605 133.871 32.0605C134.509 32.0605 135.329 32.3782 136.418 32.9918C140.259 35.172 144.286 36.1251 148.441 36.1251C150.216 36.1251 152.017 35.9498 153.833 35.6248C158.602 34.7812 160.672 32.4622 161.399 27.7951C161.731 25.6988 162.298 24.7055 163.435 24.7055C164.076 24.7055 164.901 25.0232 165.963 25.6331C169.946 27.9338 174.123 28.9564 178.444 28.9564C180.235 28.9564 182.05 28.7811 183.889 28.4488C190.016 27.3312 193.998 22.0286 193.193 16.3316C192.719 12.9608 190.9 10.6564 187.614 9.44402C182.972 7.72391 178.176 7.57054 173.34 7.57054C172.609 7.57054 171.878 7.5742 171.147 7.57786C170.289 7.57786 169.409 7.59244 168.529 7.59244C166.068 7.59244 163.581 7.48292 161.429 6.66121C157.666 5.22234 153.9 4.71109 150.149 4.71109ZM99.0047 2.44323C97.5205 2.44323 95.9804 2.59295 94.3955 2.89604C90.9536 3.54613 87.6199 4.65264 84.9163 6.90957C79.9045 11.0764 74.0126 12.738 67.6434 13.253C66.1443 13.3625 64.6415 13.673 63.1574 13.9067C58.3357 14.6991 53.488 19.8192 55.524 26.0713C56.9635 30.5377 59.1263 34.5512 61.7515 38.3784C65.0517 43.2172 66.8715 48.4468 66.6515 54.3264C66.5807 56.1159 66.7708 57.9346 67.043 59.7094C68.0014 66.1332 72.9162 70.2891 78.6814 70.2891C80.5048 70.2891 82.4179 69.8728 84.316 68.9781C91.5503 65.5744 97.748 60.9219 100.75 53.0482C102.014 49.7506 103.987 46.734 105.456 43.513C105.918 42.5014 105.777 41.2415 105.918 40.0912C106.455 32.0167 107.574 24.0993 112.981 17.5039C113.376 17.0181 113.787 16.5543 114.212 16.1015C116.475 13.7533 116.569 12.183 114.309 9.63023C110.065 4.82792 104.93 2.44323 99.0047 2.44323ZM198.645 36.9979C196.199 45.098 195.852 53.1103 193.622 60.5749C200.211 63.6097 206.416 66.6591 212.793 69.3688C218.416 71.7499 224.327 73.3056 230.457 73.773C232.669 66.3851 234.865 59.0886 237.047 51.792C233.869 51.372 230.741 51.0433 227.66 50.5321C219.807 49.221 212.647 46.3615 206.263 41.5702C204.052 39.9195 201.509 38.6924 198.645 36.9979ZM193.066 63.4417C192.324 66.5203 191.63 69.398 190.918 72.3378H190.914C193.998 73.5466 196.918 74.686 199.831 75.84C205.626 78.1262 211.365 80.5839 217.242 82.6509C220.516 83.8195 224.025 84.3454 227.638 85.2183C228.526 81.9388 229.283 79.0757 230.107 76.0117C228.951 75.8985 227.97 75.7889 226.993 75.6977C218.871 74.9052 211.525 71.8558 204.317 68.2659C200.729 66.4728 196.941 65.0924 193.066 63.4417ZM190.225 75.0622C189.374 78.2796 188.565 81.2961 187.76 84.298C195.326 86.0253 202.072 89.4034 208.87 92.6062C213.658 94.8667 218.636 96.1558 224.04 96.5284C225.035 93.4315 225.997 90.4296 227.041 87.1794C225.49 87.0369 224.084 87.1027 222.809 86.7411C218.886 85.6236 214.967 84.455 211.133 83.1038C207.684 81.8767 204.399 80.3064 200.983 78.999C197.541 77.6624 194.032 76.4463 190.225 75.0622ZM164.498 28.6094C164.386 28.9052 164.244 29.1864 164.192 29.4822C163.278 34.8178 159.661 37.5384 154.635 38.55C152.565 38.9664 150.514 39.1818 148.478 39.1818C143.869 39.1818 139.353 38.0716 134.912 35.6541C133.461 42.5635 132.827 49.7177 126.398 54.6222C125.735 54.027 124.881 53.2345 123.982 52.5187C122.871 51.613 121.815 50.5869 120.547 49.966C120.051 49.7177 119.6 49.5971 119.216 49.5971C118.295 49.5971 117.732 50.2837 117.672 51.5692C117.594 53.2783 117.691 55.097 118.213 56.7002H118.209C119.41 60.3083 121.073 63.6864 123.874 66.5057C125.802 68.4704 127.394 70.7675 128.964 73.039C129.404 73.6781 129.404 74.8138 129.21 75.621C128.404 79.0136 127.413 82.3588 126.607 85.7478C126.462 86.3248 126.607 87.3401 127.014 87.6468C132.436 91.8794 137.082 97.12 143.526 100.031C144.137 100.304 144.663 100.447 145.148 100.447C145.879 100.447 146.513 100.122 147.206 99.4389C150.115 96.5648 151.663 92.9823 151.965 89.1076C152.252 85.609 151.681 82.0739 151.554 78.5461C151.442 75.0622 152.453 73.3385 155.004 73.3385C155.701 73.3385 156.514 73.4663 157.45 73.7256C158.874 74.12 160.228 74.3026 161.522 74.3026C165.788 74.3026 169.398 72.3123 172.631 69.3542C176.725 65.6036 178.814 60.6553 179.634 55.1956C180.693 48.0086 180.753 40.8398 179.619 33.6491C179.474 32.6886 179.347 31.94 177.99 31.8633C175.666 31.7392 173.313 31.5675 171.054 31.0197C168.872 30.4938 166.821 29.4822 164.498 28.6094ZM164.103 91.317C166.769 106.235 169.413 121.022 172.034 135.674C175.338 124.027 180.186 112.513 181.581 100.199C175.968 96.8716 171.184 92.1241 164.103 91.317ZM197.541 90.3565C197.049 91.9999 196.497 93.3877 196.228 94.8339C193.875 106.955 189.781 118.601 186.652 130.517C184.269 139.574 182.986 148.923 181.215 158.133C180.932 159.656 180.648 161.179 180.361 162.676C182.069 162.676 183.729 162.687 185.362 162.687C186.182 162.687 186.995 162.683 187.804 162.676L187.801 162.669C188.852 162.643 189.926 162.435 190.963 162.435C191.235 162.435 191.507 162.45 191.772 162.486C192.044 162.523 192.294 162.541 192.525 162.541C194.192 162.541 194.774 161.555 195.233 159.78C197.575 150.818 200.289 141.937 202.519 132.931C204.209 126.054 205.171 119.01 206.785 112.1C207.718 108.054 209.202 104.139 210.559 100.199C210.939 99.0774 211.793 98.1023 212.472 96.9958C207.606 94.8339 202.691 92.6426 197.541 90.3565ZM187.156 86.4818C186.238 91.317 185.272 95.9367 184.467 100.571C182.89 109.862 180.22 118.853 177.453 127.844C174.354 137.894 171.859 148.116 169.077 158.257C168.809 159.207 168.95 159.795 169.931 160.138L177.341 162.786C177.766 160.748 178.128 159.068 178.444 157.388C180.264 148.178 181.763 138.891 183.945 129.776C185.575 122.943 188.084 116.333 190.094 109.599C191.026 106.484 191.627 103.295 192.477 100.184C193.413 96.7146 194.457 93.2781 195.546 89.5129C193.066 88.6292 190.299 87.6139 187.156 86.4818ZM213.02 144.785C212.673 144.785 212.327 144.811 211.995 144.84C209.832 145.03 208.266 146.089 208.094 147.736C207.982 148.857 208.109 150.117 208.534 151.158C209.008 152.356 208.851 153.214 208.221 154.269C206.752 156.789 205.264 159.327 204.048 161.968C202.989 164.319 203.955 166.419 206.509 167.836C206.733 167.259 206.908 166.806 207.065 166.372C207.188 166.35 207.311 166.295 207.389 166.295C207.412 166.295 207.43 166.302 207.442 166.31C207.99 166.73 208.493 166.909 208.971 166.909C209.72 166.909 210.406 166.463 211.096 165.798C213.513 163.465 215.977 160.879 216.309 157.582C216.675 153.911 216.123 150.102 215.582 146.418C215.396 145.081 214.228 144.785 213.02 144.785ZM214.161 97.6056C211.685 103.047 210.134 108.835 208.903 114.733C207.147 123.133 205.521 131.565 203.53 139.913C201.807 147.1 199.611 154.196 197.683 161.336C197.351 162.581 197.522 163.947 197.161 165.178C196.668 166.887 195.896 168.537 195.169 170.374C198.596 171.258 202.624 171.959 204.936 176.396C205.394 174.234 205.771 172.471 206.151 170.67C205.312 170.173 204.443 169.783 203.731 169.224C201.233 167.215 200.256 163.936 201.486 160.996C202.515 158.586 203.795 156.282 205.092 154.01C205.644 153.028 205.834 152.235 205.488 151.103C204.145 146.684 206.468 143.01 210.954 142.159C211.715 142.017 212.838 141.984 213.136 141.506C213.736 140.542 213.926 139.326 214.18 138.171C214.337 137.474 214.21 136.7 214.37 135.999C217.29 123.772 220.217 111.556 223.141 99.3477C223.186 99.176 223.141 98.9715 223.141 98.9094C220.184 98.4894 217.264 98.0548 214.161 97.6056ZM107.891 148.601C106.56 152.443 105.314 156.084 104.031 159.806L104.039 159.809C111.187 168.333 135.255 177.938 150.786 177.938C152.144 177.938 153.438 177.865 154.649 177.711C135.687 173.278 119.552 164.407 107.891 148.601ZM154.459 88.8044C154.127 90.4223 153.859 91.8831 153.527 93.3292C152.707 96.7693 150.794 99.585 148.25 102.01C147.288 102.912 146.226 103.398 145.122 103.398C144.38 103.398 143.619 103.175 142.862 102.711C139.543 100.706 136.254 98.6392 133.111 96.3786C130.452 94.4833 128.054 92.2629 125.492 90.2214C125.145 89.9439 124.53 89.911 124.027 89.8928C123.676 89.8928 123.314 90.1301 122.934 90.1922C111.206 92.2446 105.378 100.147 102.249 110.588C99.3851 120.135 100.668 129.378 104.822 138.369L104.826 138.372C108.618 146.586 114.383 153.214 121.245 159.068C131.656 167.971 144.074 172.573 157.256 175.593C160.989 176.444 164.696 177.302 168.555 178.175C169.092 173.179 169.581 168.516 170.073 163.94C167.779 162.665 165.247 161.606 163.118 160.017C152.341 152.056 143.254 142.488 136.459 130.992C132.54 124.349 130.944 117.008 131.295 109.321C131.321 108.412 132.227 106.739 132.641 106.739C132.644 106.739 132.648 106.739 132.652 106.743C134.248 106.849 133.823 108.342 133.804 109.383C133.633 119.638 137.093 128.567 143.369 136.671C147.397 141.882 151.823 146.721 156.417 151.417C156.894 151.899 157.402 152.41 157.968 152.772C160.62 154.419 163.305 156.022 166.295 157.845C167.399 153.302 168.917 149.007 169.375 144.606C169.756 140.965 169.062 137.167 168.492 133.497C166.799 122.563 164.923 111.655 163.185 100.721C162.659 97.423 162.328 94.0925 161.888 90.5939C159.531 90.0169 157.036 89.4253 154.459 88.8044ZM192.958 164.929C192.947 164.929 192.936 164.929 192.928 164.929C191.157 165.163 189.4 165.583 187.629 165.766C186.126 165.912 184.616 166.01 183.102 166.01C182.673 166.01 182.244 166.003 181.819 165.988C178.706 165.846 175.592 165.503 172.303 165.236C172.005 169.812 171.721 174.074 171.434 178.383C171.542 178.449 171.687 178.588 171.863 178.635L171.859 178.631C176.032 180.096 180.484 180.717 184.627 181.991C186.078 182.433 187.465 182.594 188.811 182.594C191.563 182.594 194.166 181.929 196.862 181.637C198.361 181.48 199.898 180.483 201.162 179.537C202.847 178.244 202.818 176.411 200.856 175.476C198.171 174.198 195.199 173.544 192.358 172.595C191.25 172.24 189.468 172.007 189.229 171.306C188.677 169.629 190.698 169.549 191.679 168.819C192.783 168.008 194.774 167.73 193.793 165.616C193.655 165.313 193.226 164.929 192.958 164.929ZM162.328 179.365C160.086 187.268 157.89 195.061 155.679 202.855C157.961 199.681 160.344 196.942 164.192 196.942C165.139 196.942 166.176 197.107 167.325 197.475C167.578 196.402 167.813 195.343 168.078 194.287C168.936 190.785 169.819 187.283 170.688 183.784C171.087 182.134 170.468 180.921 168.857 180.563C166.769 180.099 164.669 179.785 162.328 179.365ZM102.629 162.311C100.97 166.291 99.4373 169.932 97.7294 174.026C102.156 175.703 106.261 177.634 110.576 178.832C122.129 182.006 133.647 185.271 144.868 189.47C147.441 190.438 150.238 190.811 152.878 191.651C153.605 191.866 154.112 192.757 154.713 193.327C154.023 193.725 153.255 194.55 152.625 194.55C152.587 194.55 152.55 194.547 152.513 194.543C149.351 193.98 146.129 193.469 143.142 192.381C132.432 188.462 121.476 185.333 110.494 182.254C105.743 180.932 101.175 178.894 96.1817 177.057C94.8058 178.942 93.1016 181.272 91.3117 183.729H91.3154C96.4502 187.484 101.589 190.61 107.447 192.333C112.582 193.831 117.829 195.01 122.967 196.504C128.352 198.074 133.633 199.97 139.051 201.452C142.243 202.303 145.592 202.617 148.866 203.205C149.925 203.395 150.965 203.644 152.341 203.939C153.322 200.503 154.318 197.001 155.31 193.502C156.592 188.992 157.871 184.464 159.136 180.015C156.909 180.114 154.676 180.421 152.472 180.421C151.92 180.421 151.372 180.403 150.824 180.355C144.741 179.826 138.656 179.124 132.633 178.131C130.075 177.711 127.629 176.48 125.209 175.454C121.606 173.913 118.131 172.16 114.529 170.634C110.069 168.767 105.881 166.573 102.629 162.311V162.311ZM173.977 182.568C172.306 189.678 169.525 196.475 169.98 204.312C172.56 201.92 174.805 200.861 176.681 200.861C178.817 200.861 180.469 202.23 181.581 204.568C183.982 198.133 186.365 191.735 188.737 185.369C183.822 184.438 179.019 183.536 173.977 182.568ZM203.638 180.826C200.968 184.124 197.097 184.328 193.383 184.949C192.749 185.062 191.85 185.479 191.679 185.961C188.849 193.864 186.13 201.796 183.382 209.717C183.352 209.823 183.363 209.947 183.725 210.444C184.139 209.899 184.501 209.293 185.008 208.848C185.753 208.161 186.525 207.507 187.379 206.992C188.994 206.028 190.355 205.539 191.548 205.539C193.499 205.539 194.994 206.854 196.389 209.574C196.56 209.888 196.736 210.213 197.097 210.867C199.484 200.722 201.807 190.909 204.112 181.107L203.638 180.826ZM89.8387 186.783C88.2016 189.211 86.572 191.64 85.0879 193.845C104.826 206.894 127.137 211.755 150.809 213.927C150.178 211.955 149.373 210.644 149.447 209.388C149.526 208.234 150.555 207.146 151.249 205.838C149.955 206.068 148.69 206.171 147.445 206.171C142.802 206.171 138.458 204.765 134.069 203.428C126.961 201.284 119.787 199.338 112.616 197.377C102.107 194.499 98.7064 192.962 89.8387 186.783V186.783ZM164.595 199.502C164.159 199.502 163.666 199.605 163.118 199.82C161.903 200.302 160.638 201.208 159.911 202.249C157.733 205.356 155.806 208.643 153.796 211.879C153.639 212.142 153.609 212.605 153.702 212.905C154.855 216.309 156.055 219.701 157.29 223.266C158.796 222.886 160.232 222.71 161.604 222.71C167.567 222.71 172.355 226.015 176.837 230.204C180.88 227.637 184.832 225.07 188.83 222.583C190.583 221.491 192.466 220.574 194.237 219.515C194.722 219.219 195.419 218.737 195.449 218.303C195.639 215.173 195.401 212.105 193.57 209.337C192.977 208.442 192.253 207.927 191.451 207.927C191.06 207.927 190.646 208.051 190.221 208.314C188.576 209.293 186.962 210.444 185.653 211.813C184.374 213.153 183.568 214.91 182.416 216.385C181.924 217.024 181.07 217.397 180.391 217.893C180.074 217.043 179.541 216.217 179.474 215.344C179.287 212.452 179.601 209.479 179.082 206.664C178.691 204.516 177.725 203.428 176.446 203.428C175.543 203.428 174.481 203.972 173.358 205.075C172.128 206.291 171.337 207.909 170.248 209.264C169.819 209.79 169.17 210.338 168.54 210.429C168.533 210.429 168.522 210.433 168.514 210.433C168.197 210.433 167.798 209.468 167.339 209.089C165.065 207.193 166.374 204.922 166.642 202.774C166.903 200.744 166.109 199.502 164.595 199.502ZM169.525 227.728V235.967C171.449 234.4 173.015 233.122 174.909 231.552C173.03 230.23 171.389 229.065 169.525 227.728ZM159.833 225.595C159.326 225.694 158.699 225.818 157.938 225.972C158.725 229.426 159.486 232.702 160.258 235.974C160.37 235.96 160.482 235.927 160.608 235.894C160.355 232.534 160.101 229.163 159.833 225.595ZM162.41 225.274C162.835 230.434 163.23 235.196 163.625 239.864V239.86C165.729 238.929 167.545 237.76 166.993 234.528C166.568 232.103 167.086 229.518 167.198 226.472C166.027 226.191 164.431 225.785 162.41 225.274ZM78.2973 207.705C75.9927 209.231 73.4309 210.476 71.4396 212.31C65.3873 217.861 58.1678 221.534 50.9596 225.285C47.3238 227.184 43.8334 229.299 40.1976 231.198C33.2616 234.806 25.632 236.376 18.1105 238.242C16.2124 238.71 14.318 239.159 11.8942 239.736C12.5915 244.436 13.3186 249.256 14.0421 254.124C19.1509 254.303 24.1441 254.855 29.0366 254.855C30.6102 254.855 32.1728 254.796 33.724 254.654C45.7762 253.566 57.7577 251.67 69.7503 250.02C76.9698 249.023 84.0661 247.434 90.5621 244.063C93.2135 242.676 95.6336 240.842 98.0985 239.126C99.2359 238.352 100.183 237.307 101.305 236.515C105.478 233.593 109.002 230.106 111.575 225.72C112.209 224.664 113.186 223.824 113.854 223.061C105.508 220.118 97.0059 217.317 88.6789 214.095C85.5652 212.883 82.8468 210.703 79.953 208.95C79.4197 208.621 78.961 208.201 78.2973 207.705V207.705ZM9.11609 239.52C8.87738 239.579 8.5791 239.674 8.27702 239.754C3.07869 241.215 3.06006 241.215 3.72755 246.441C3.87669 247.606 4.09677 248.767 4.39137 249.91C6.09181 256.655 7.80341 263.397 9.52246 270.135C9.60455 270.427 9.74623 270.69 9.96631 271.267C12.0508 260.38 10.1751 250.001 9.11609 239.52ZM83.0182 197.019C81.8026 199.353 80.5236 201.682 79.4197 204.078C79.2444 204.454 79.6994 205.342 80.1282 205.681C83.8909 208.654 87.7915 211.345 92.4863 212.773C100.179 215.14 107.719 218.233 115.554 219.979C126.271 222.378 137.235 223.477 148.25 223.726C149.007 223.758 149.768 223.802 150.525 223.835C151.584 223.897 152.009 224.427 152.106 225.143C152.129 225.296 152.132 225.453 152.125 225.61C149.541 226.026 146.979 226.194 144.432 226.194C136.295 226.194 128.304 224.489 120.156 223.835C120.361 226.837 120.756 229.795 120.771 232.746C120.801 245.053 120.629 257.371 120.726 269.678C120.82 282.668 121.122 295.658 121.327 308.663C121.342 310.153 121.371 311.665 121.245 313.158H120.801C120.219 313.158 119.634 313.659 119.048 313.936C119.238 314.214 119.429 314.528 119.6 314.834C119.481 314.809 119.369 314.794 119.268 314.794C118.411 314.794 117.986 315.685 117.419 316.255C116.807 316.843 116.266 317.511 115.543 318.322C120.876 319.87 126.197 320.25 131.503 320.25C136.526 320.25 141.534 319.911 146.52 319.911C148.098 319.911 149.679 319.947 151.252 320.035C151.319 319.721 151.379 319.425 151.428 319.114C148.362 318.198 145.308 317.248 142.213 316.379C141.605 316.211 140.975 316.036 140.36 316.036C139.715 316.036 139.088 316.226 138.518 316.814C138.372 316.971 138.04 317.029 137.805 317.029C133.461 316.956 125.999 316.237 121.659 316.113C121.181 316.098 120.581 315.974 120.249 315.66C119.995 315.43 119.79 315.134 119.6 314.838C119.787 314.886 119.969 314.948 120.141 315.039C120.141 315.043 120.145 315.043 120.148 315.043C120.298 315.043 121.166 314.17 121.211 313.688C121.226 313.512 121.245 313.33 121.245 313.158C125.037 313.173 131.503 313.794 135.072 313.903C135.109 313.903 135.147 313.903 135.18 313.903C136.377 313.903 136.769 313.374 137 312.242C139.051 302.316 141.046 292.393 143.272 282.5C144.708 276.073 146.718 269.773 148.109 263.335C149.515 256.768 150.447 250.122 151.599 243.512C152.565 238.071 153.561 232.644 154.508 227.21C154.571 226.855 154.426 226.465 154.318 226.107C154.239 225.796 153.893 225.457 153.893 225.205C153.893 225.175 153.907 225.161 153.907 225.128C154.825 221.75 152.296 219.172 152.024 216.027C150.1 216.487 148.217 216.666 146.367 216.666C143.194 216.666 140.103 216.137 137 215.578C126.823 213.708 116.535 212.153 106.851 208.439C101.526 206.397 96.4988 203.614 91.334 201.138C88.6118 199.835 85.9269 198.451 83.0182 197.019V197.019ZM97.7368 0C99.6908 0 101.675 0.255676 103.659 0.763269C110.106 2.42855 115.588 5.47791 118.198 12.1683C118.798 11.7301 119.272 11.3576 119.775 11.0143C120.346 10.609 120.928 10.2511 121.498 9.84937C129.762 4.07563 139.26 2.64773 149.041 2.50528C150.111 2.49436 151.181 2.47606 152.248 2.47606C155.705 2.47606 159.143 2.67325 162.581 3.96601C163.953 4.48097 165.482 4.5942 167.056 4.5942C168.283 4.5942 169.54 4.52483 170.766 4.52483C171.106 4.52483 171.445 4.53215 171.781 4.54307C175.555 4.68552 179.366 4.56137 183.095 5.03974C186.969 5.53641 190.885 6.4713 193.573 9.67409C198.943 16.0248 196.542 26.1188 188.688 29.9168C186.57 30.9467 184.202 31.4433 181.864 32.2175C181.89 32.4403 181.924 32.8128 182.002 33.1707C184.087 41.8039 184.06 50.5321 181.845 59.0411C179.366 68.5288 173.69 75.4164 163.2 77.1182C160.31 77.5966 157.353 77.7536 154.321 78.0823C154.321 80.5035 154.254 82.9796 154.366 85.4519C154.381 85.9048 155.06 86.5731 155.537 86.6972C157.495 87.1793 159.486 87.5226 161.477 87.8622C168.115 89.0454 174.276 91.2403 179.492 95.6263C180.268 96.2946 181.197 96.7913 182.069 97.3829C183.393 91.6602 184.661 86.1531 185.936 80.646C188.595 69.2409 192.593 58.15 193.685 46.3907C193.92 43.838 195.072 41.3657 195.956 38.9079C196.228 38.1301 196.814 37.1805 197.507 36.8993C199.577 36.0594 201.773 35.4715 203.936 34.8469C207.057 33.9449 210.13 33.5104 213.151 33.5104C218.625 33.5104 223.939 34.9346 229.078 37.6005C230.946 38.5683 232.635 39.9487 234.201 41.3511C235.827 42.8118 236.931 45.0067 238.766 46.0183C240.567 47.0262 240.358 48.4285 240.69 49.7834C240.802 50.2034 240.47 50.7804 240.231 51.2296C239.903 51.8322 239.318 52.3507 239.142 52.9862C236.297 63.1934 233.881 73.5065 230.64 83.5676C224.446 102.861 219.785 122.523 215.769 142.232C216.559 143.259 217.887 144.27 218.189 145.516C218.916 148.444 219.703 151.538 219.468 154.477C218.916 160.963 215.612 166.069 209.985 169.659C209.381 170.031 208.814 170.794 208.657 171.463C206.793 179.848 205.055 188.251 203.157 196.632C201.419 204.33 199.551 212.003 197.705 219.672C197.563 220.26 197.135 220.979 196.616 221.261C188.588 225.614 181.018 230.639 173.798 236.19C170.323 238.867 166.668 241.354 163.021 243.797C162.48 244.169 161.694 244.246 160.952 244.246C160.758 244.246 160.564 244.242 160.381 244.235C160.221 244.235 160.113 243.004 159.986 242.336C159.937 242.157 159.878 241.978 159.814 241.806C158.584 238.494 157.346 235.167 156.134 231.866C156.022 232.395 155.846 233.053 155.753 233.703C154.538 242.508 153.762 251.389 152.006 260.084C148.959 275.269 145.304 290.326 141.911 305.416C141.326 307.998 140.74 310.584 140.14 313.242C140.93 313.414 141.464 313.567 142.023 313.648C147.314 314.33 152.054 316.587 156.812 318.735C157.398 318.998 157.98 319.933 157.98 320.568C157.98 321.021 157.114 321.642 156.495 321.923C155.835 322.215 155.011 322.277 154.269 322.31C148.407 322.478 142.511 322.449 136.668 322.84C134.818 322.964 132.973 323.029 131.138 323.029C125.716 323.029 120.357 322.463 115.032 321.222C112.489 320.626 111.572 318.994 113.123 316.894C114.2 315.448 115.521 314.188 117.023 313.162C118.243 312.336 118.59 311.529 118.478 310.131C118.116 304.854 117.769 299.58 117.642 294.307C117.437 286.032 117.359 277.756 117.359 269.477C117.359 260.534 117.564 251.572 117.545 242.628C117.531 236.486 117.281 230.354 117.139 224.226C116.96 224.146 116.774 224.073 116.598 223.996C115.681 225.051 114.611 226.001 113.913 227.184C111.355 231.552 108.148 235.335 103.912 238.227C103.077 238.79 102.297 239.433 101.589 240.141C95.6933 245.897 88.4104 249.132 80.5236 250.998C67.3152 254.139 53.8646 255.991 40.3692 257.451C37.0764 257.809 33.8023 257.985 30.5357 257.985C24.9235 257.985 19.3411 257.459 13.7289 256.396C13.7289 256.896 13.7624 257.378 13.7289 257.857C13.3485 263.63 13.0166 269.386 12.5132 275.127C12.4349 275.919 11.4989 277.197 10.9023 277.227C10.8799 277.23 10.8538 277.23 10.8314 277.23C10.0036 277.23 8.97063 276.507 8.37029 275.81C7.74004 275.094 7.43797 274.057 7.18811 273.104C6.27074 269.747 5.38326 266.369 4.57777 262.977C3.12721 256.94 1.59454 250.903 0.375214 244.823C-0.601837 239.907 -0.0201111 238.432 6.39388 237.234C6.681 237.183 6.9756 237.165 7.27388 237.165C7.79971 237.165 8.3367 237.216 8.86623 237.216C9.0862 237.216 9.32112 237.234 9.55235 237.234C9.74623 237.234 9.9402 237.223 10.1304 237.172C12.86 236.456 15.5822 235.616 18.3305 234.963C26.8924 232.972 35.2977 230.683 42.9646 226.158C49.729 222.177 56.8366 218.737 63.5526 214.676C67.9343 212.036 71.8796 208.702 76.1643 205.579C76.3843 204.907 76.526 203.786 77.0667 202.869C80.6056 196.924 84.2862 191.063 87.8101 185.106C88.8542 183.313 89.3912 181.242 90.4354 179.442C92.188 176.345 94.2725 173.438 95.9953 170.341C97.8449 166.996 99.8363 163.684 100.12 159.733C100.135 159.481 100.467 159.25 100.66 159.017C101.134 158.396 101.779 157.852 102.048 157.151C103.248 154.145 104.307 151.085 105.493 148.083C106.012 146.761 105.889 145.687 105.113 144.456C104.087 142.824 103.263 141.064 102.458 139.307C96.454 126.069 96.4055 112.969 104.054 100.341C108.208 93.4789 114.118 88.7058 122.699 88.1909C123.948 88.1105 124.064 87.3509 124.217 86.4599C124.724 83.6004 125.198 80.7373 125.802 77.907C126.115 76.3988 126.667 74.938 127.032 73.7255C124.616 70.5191 121.181 68.8064 118.213 66.5202C112.429 62.0722 108.022 56.4993 106.977 48.9726C106.817 47.8369 106.537 46.7194 106.299 45.6128C106.112 45.6274 106.012 45.6128 106 45.6457C105.366 47.4644 104.639 49.2502 104.151 51.1054C101.492 60.9839 94.6044 67.1411 85.6621 71.3444C83.5329 72.3378 81.1389 72.8637 78.7374 72.8637C72.1257 72.8637 65.4768 68.8977 64.3283 59.8919C64.1083 58.1025 63.8696 56.2838 63.9665 54.4944C64.2798 49.0165 62.3855 44.3091 59.4917 39.7661C57.2953 36.2967 55.3189 32.6557 53.693 28.8906C51.4034 23.588 51.8285 18.5592 56.5048 14.4398C58.5743 12.6212 60.9945 11.5585 63.6794 11.343C71.7528 10.7039 79.0729 8.50904 85.8486 3.70307C89.3539 1.22705 93.4633 0 97.7368 0Z" fill="black"/>
<path fill-rule="evenodd" clip-rule="evenodd" d="M9.10643 239.529C10.1655 250.01 12.0449 260.389 9.96033 271.275C9.74036 270.698 9.5949 270.435 9.51659 270.143C7.78259 263.409 6.07468 256.668 4.38172 249.919C4.09091 248.776 3.86715 247.614 3.718 246.449C3.0505 241.224 3.06913 241.224 8.26737 239.763C8.56944 239.682 8.86772 239.587 9.10643 239.529Z" fill="#A6DFDA"/>
<path fill-rule="evenodd" clip-rule="evenodd" d="M98.9997 2.44336C104.925 2.44336 110.06 4.82805 114.304 9.6267C116.56 12.1794 116.467 13.7534 114.207 16.1016C113.782 16.5545 113.372 17.0219 112.973 17.504C107.569 24.0994 106.45 32.0168 105.91 40.0912C105.768 41.2416 105.91 42.5015 105.451 43.5131C103.982 46.7341 102.009 49.7506 100.745 53.0484C97.743 60.9183 91.5454 65.5745 84.311 68.9782C82.4129 69.8728 80.5 70.2892 78.6764 70.2892C72.9114 70.2892 67.9965 66.1333 67.0381 59.7095C66.7659 57.9347 66.5794 56.1124 66.6391 54.3265C66.8628 48.4396 65.0468 43.2173 61.7466 38.3785C59.1176 34.5549 56.9547 30.5414 55.5153 26.0751C53.4793 19.8193 58.3308 14.6993 63.1487 13.9068C64.6366 13.6731 66.1394 13.3663 67.6384 13.2531C74.0077 12.7382 79.8995 11.0765 84.9114 6.90964C87.6149 4.65277 90.9488 3.54621 94.3907 2.89617C95.9754 2.59308 97.5156 2.44336 98.9997 2.44336Z" fill="#FED58A"/>
<path fill-rule="evenodd" clip-rule="evenodd" d="M89.8426 186.789C98.7065 192.968 102.107 194.506 112.616 197.383C119.787 199.344 126.962 201.287 134.073 203.435C138.462 204.771 142.806 206.177 147.445 206.177C148.691 206.177 149.955 206.075 151.249 205.845C150.555 207.152 149.526 208.241 149.451 209.395C149.373 210.651 150.178 211.962 150.809 213.934C127.137 211.757 104.822 206.9 85.0881 193.852C86.5684 191.646 88.2018 189.218 89.8426 186.789Z" fill="#FEB8B3"/>
<path fill-rule="evenodd" clip-rule="evenodd" d="M154.456 88.8149C157.033 89.4358 159.532 90.0311 161.885 90.608C162.325 94.103 162.657 97.4372 163.182 100.731C164.92 111.669 166.799 122.574 168.489 133.511C169.059 137.178 169.753 140.976 169.373 144.617C168.914 149.017 167.4 153.312 166.292 157.855C163.309 156.033 160.621 154.43 157.965 152.782C157.399 152.428 156.891 151.913 156.414 151.431C151.82 146.731 147.394 141.892 143.366 136.681C137.09 128.574 133.63 119.645 133.805 109.397C133.824 108.353 134.249 106.859 132.653 106.753C132.649 106.753 132.645 106.753 132.641 106.753C132.224 106.753 131.321 108.422 131.292 109.332C130.941 117.019 132.541 124.359 136.46 131.002C143.254 142.499 152.338 152.067 163.115 160.032C165.252 161.617 167.777 162.679 170.07 163.95C169.581 168.526 169.089 173.193 168.556 178.185C164.696 177.313 160.986 176.462 157.253 175.603C144.075 172.583 131.653 167.978 121.242 159.082C114.388 153.217 108.615 146.589 104.823 138.376C100.669 129.384 99.3895 120.141 102.246 110.595C105.375 100.151 111.207 92.2514 122.931 90.2027C123.311 90.1406 123.673 89.9069 124.024 89.9069C124.531 89.9215 125.142 89.9543 125.489 90.2356C128.051 92.2697 130.456 94.4974 133.111 96.3891C136.255 98.6496 139.54 100.717 142.863 102.722C143.62 103.189 144.377 103.408 145.123 103.408C146.223 103.408 147.285 102.922 148.248 102.02C150.791 99.5955 152.704 96.7798 153.524 93.3434C153.86 91.8972 154.125 90.4328 154.456 88.8149Z" fill="#FED58A"/>
<path fill-rule="evenodd" clip-rule="evenodd" d="M102.626 162.321C105.881 166.582 110.069 168.777 114.525 170.643C118.128 172.166 121.603 173.923 125.209 175.468C127.625 176.49 130.075 177.721 132.637 178.141C138.656 179.134 144.738 179.835 150.824 180.365C151.368 180.412 151.913 180.431 152.461 180.431C154.668 180.431 156.906 180.12 159.136 180.022C157.872 184.47 156.589 188.998 155.31 193.512L154.71 193.34C154.109 192.763 153.606 191.876 152.879 191.657C150.238 190.82 147.442 190.444 144.865 189.48C133.644 185.28 122.129 182.016 110.573 178.838C106.262 177.64 102.152 175.716 97.7259 174.032C99.4376 169.942 100.967 166.301 102.626 162.321Z" fill="#FEB8B3"/>
<path fill-rule="evenodd" clip-rule="evenodd" d="M150.146 4.71118C153.898 4.71118 157.661 5.22248 161.423 6.66136C163.571 7.48302 166.058 7.59259 168.519 7.59259C169.403 7.59259 170.283 7.57795 171.141 7.57795C171.861 7.57434 172.58 7.57068 173.296 7.57068C178.144 7.57068 182.955 7.72406 187.609 9.44412C190.894 10.6566 192.706 12.9609 193.183 16.3353C193.993 22.0287 190.01 27.3314 183.876 28.4525C182.045 28.7848 180.232 28.9601 178.446 28.9601C174.121 28.9601 169.94 27.9376 165.958 25.6369C164.895 25.027 164.071 24.7092 163.429 24.7092C162.292 24.7092 161.725 25.7026 161.393 27.8025C160.666 32.466 158.597 34.7813 153.827 35.6249C152.011 35.95 150.21 36.1253 148.435 36.1253C144.281 36.1253 140.253 35.1721 136.412 32.9955C135.324 32.382 134.499 32.0607 133.862 32.0607C132.743 32.0607 132.202 33.0503 131.829 35.1429C131.278 38.269 130.815 41.4279 129.887 44.4444C129.178 46.7962 127.802 48.9545 126.758 51.0836C124.849 49.7178 123.439 48.4104 121.783 47.5997C120.818 47.1322 119.911 46.9058 119.087 46.9058C116.958 46.9058 115.403 48.4067 114.967 51.0836C114.762 52.3472 114.762 53.7313 115.067 54.9583C115.664 57.4161 116.533 59.7972 117.402 62.5544C114.463 59.5963 111.76 56.7332 110.593 52.968C108.445 46.0476 107.926 39.1089 109.202 31.816C111.715 17.3908 125.05 8.21341 136.248 6.28884C140.846 5.50001 145.489 4.71118 150.146 4.71118Z" fill="#FED58A"/>
<path fill-rule="evenodd" clip-rule="evenodd" d="M138.025 52.5608C140.926 52.5608 143.112 55.2267 143.141 58.8385C143.175 62.6037 140.837 65.0578 137.182 65.1235C137.153 65.1235 137.123 65.1235 137.093 65.1235C133.565 65.1235 130.735 62.3224 130.675 58.7728C130.627 55.0551 133.375 52.6886 137.88 52.5644C137.928 52.5644 137.977 52.5608 138.025 52.5608Z" fill="#FEB8B3"/>
<path fill-rule="evenodd" clip-rule="evenodd" d="M149.731 41.7102C151.991 41.7102 153.337 43.4631 153.385 46.4504C153.43 49.2186 151.894 51.1651 149.671 51.198C149.664 51.198 149.656 51.198 149.653 51.198C147.508 51.198 146.002 49.1675 145.957 46.2021C145.924 43.6348 147.553 41.7102 149.731 41.7102Z" fill="black"/>
<path fill-rule="evenodd" clip-rule="evenodd" d="M165.979 65.0585C164.334 65.1497 162.738 65.2739 161.157 65.3214C160.613 65.3323 160.068 65.336 159.516 65.336C158.416 65.336 157.283 65.3214 156.067 65.3214C156.653 68.1516 157.663 68.9551 160.538 68.9551C160.702 68.9551 160.87 68.9514 161.045 68.9478C163.876 68.8565 165.535 67.6404 165.979 65.0585ZM164.554 62.0273C165.867 62.5386 167.81 62.692 168.347 63.6415C169.372 65.4163 168.709 67.487 167.351 69.1486C167.165 69.4006 166.922 69.6015 166.702 69.8169C165.095 71.2229 162.623 71.9716 160.225 71.9716C158.64 71.9716 157.089 71.6429 155.847 70.9564C154.091 70.0068 152.401 67.1291 153.24 65.6501C153.949 64.4376 155.5 63.1777 156.858 62.944C157.857 62.765 158.883 62.7102 159.919 62.7102C161.4 62.7102 162.902 62.8198 164.379 62.8198C164.443 62.5568 164.506 62.2903 164.554 62.0273Z" fill="black"/>
<path fill-rule="evenodd" clip-rule="evenodd" d="M159.83 225.604C160.098 229.164 160.352 232.542 160.605 235.902C160.479 235.931 160.367 235.964 160.255 235.979C159.483 232.71 158.722 229.431 157.932 225.976C158.692 225.823 159.322 225.699 159.83 225.604Z" fill="#FEB8B3"/>
<path fill-rule="evenodd" clip-rule="evenodd" d="M162.407 225.282C164.428 225.79 166.024 226.195 167.195 226.48C167.083 229.526 166.564 232.111 166.99 234.533C167.542 237.768 165.726 238.937 163.622 239.868C163.227 235.201 162.832 230.442 162.407 225.282Z" fill="#FEB8B3"/>
<path fill-rule="evenodd" clip-rule="evenodd" d="M164.461 50.9834C165.028 51.0893 165.759 51.0272 166.132 51.3559C167.165 52.2652 168.112 53.2513 168.981 54.3066C169.913 55.4278 170.167 56.8411 168.947 57.7906C167.762 58.7109 166.259 59.3025 164.823 59.7845C164.778 59.7992 164.734 59.8065 164.681 59.8065C164.223 59.8065 163.563 59.2076 163.003 58.93C163.417 58.3676 163.701 57.6665 164.241 57.294C164.92 56.8155 165.785 56.5928 166.717 56.2093C165.74 54.8983 164.853 53.905 164.241 52.7838C163.999 52.3492 164.368 51.586 164.461 50.9834Z" fill="black"/>
<path fill-rule="evenodd" clip-rule="evenodd" d="M173.199 40.7021C173.37 40.7021 173.534 40.7204 173.687 40.7569C174.526 40.9614 175.283 42.3126 175.679 43.306C176.01 44.1788 175.902 45.2707 175.79 46.2458C175.63 47.7723 175.205 49.2988 173.355 49.591C173.15 49.6238 172.953 49.6421 172.759 49.6421C171.275 49.6421 170.283 48.6634 169.593 47.3523C169.216 46.5927 169.059 45.7236 168.679 44.5696C169.168 43.7004 169.518 42.4368 170.353 41.7795C171.103 41.2025 172.259 40.7021 173.199 40.7021Z" fill="black"/>
<path fill-rule="evenodd" clip-rule="evenodd" d="M169.518 227.737C171.383 229.073 173.027 230.238 174.907 231.56C173.009 233.13 171.442 234.409 169.518 235.979V227.737Z" fill="#FEB8B3"/>
<path fill-rule="evenodd" clip-rule="evenodd" d="M164.096 91.3201C171.178 92.1271 175.962 96.871 181.574 100.198C180.183 112.52 175.332 124.031 172.028 135.684C169.41 121.007 166.766 106.22 164.096 91.3201Z" fill="#FED58A"/>
</svg>
