<svg width="109" height="144" viewBox="0 0 109 144" fill="none" xmlns="http://www.w3.org/2000/svg">
<g filter="url(#filter0_di_407_407)">
<path fill-rule="evenodd" clip-rule="evenodd" d="M20.5189 37.6262C19.9983 37.6262 19.533 38.1579 19.773 38.7672C21.0617 42.0166 23.5688 45.0075 25.7251 47.751C28.8009 51.6724 31.5775 55.8412 34.4649 59.9067C39.4423 66.9039 44.4454 73.879 49.5889 80.7544C59.6653 94.2283 69.4612 108.393 80.5974 120.984C80.6712 121.069 80.7561 121.102 80.8411 121.102C81.0811 121.102 81.3026 120.814 81.1771 120.548C77.5844 113.152 71.1634 106.521 66.2045 99.9849C60.7546 92.803 55.2419 85.6691 49.9138 78.3949C44.8922 71.5417 40.1106 64.526 35.292 57.5361C30.839 51.0742 26.5374 43.5527 21.106 37.8921C20.9287 37.7038 20.7183 37.6262 20.5189 37.6262V37.6262Z" fill="#7D99DA"/>
<path fill-rule="evenodd" clip-rule="evenodd" d="M20.5189 37.6262C19.9983 37.6262 19.533 38.1579 19.773 38.7672C21.0617 42.0166 23.5688 45.0075 25.7251 47.751C28.8009 51.6724 31.5775 55.8412 34.4649 59.9067C39.4423 66.9039 44.4454 73.879 49.5889 80.7544C59.6653 94.2283 69.4612 108.393 80.5974 120.984C80.6712 121.069 80.7561 121.102 80.8411 121.102C81.0811 121.102 81.3026 120.814 81.1771 120.548C77.5844 113.152 71.1634 106.521 66.2045 99.9849C60.7546 92.803 55.2419 85.6691 49.9138 78.3949C44.8922 71.5417 40.1106 64.526 35.292 57.5361C30.839 51.0742 26.5374 43.5527 21.106 37.8921C20.9287 37.7038 20.7183 37.6262 20.5189 37.6262V37.6262Z" fill="#7D99DA"/>
<path fill-rule="evenodd" clip-rule="evenodd" d="M41.9863 27.0549C41.222 27.0549 40.5167 27.8156 40.9894 28.6612C44.9328 35.7027 50.3938 41.8359 54.7877 48.5895C59.1373 55.2655 63.6789 61.8197 68.4716 68.1818C73.3345 74.6363 77.7321 81.3824 82.3992 87.9772C84.6848 91.2082 87.1365 94.2544 89.6732 97.2934C91.5858 99.5901 94.8684 102.714 95.6733 105.768C95.7582 106.089 96.013 106.225 96.2788 106.225C96.6517 106.225 97.0468 105.949 97.021 105.502C96.9028 103.464 95.5662 101.477 94.4179 99.867C91.9514 96.3739 88.9015 93.2944 86.4018 89.8198C81.3395 82.793 76.9308 75.3268 71.7874 68.3517C66.8544 61.6683 62.058 54.9184 57.5422 47.9433C55.072 44.1142 52.2991 40.5325 49.6923 36.7957C47.4731 33.6091 45.6454 29.9942 42.7506 27.354C42.5217 27.1435 42.2485 27.0549 41.9863 27.0549V27.0549Z" fill="#7D99DA"/>
<path fill-rule="evenodd" clip-rule="evenodd" d="M41.9863 27.0549C41.222 27.0549 40.5167 27.8156 40.9894 28.6612C44.9328 35.7027 50.3938 41.8359 54.7877 48.5895C59.1373 55.2655 63.6789 61.8197 68.4716 68.1818C73.3345 74.6363 77.7321 81.3824 82.3992 87.9772C84.6848 91.2082 87.1365 94.2544 89.6732 97.2934C91.5858 99.5901 94.8684 102.714 95.6733 105.768C95.7582 106.089 96.013 106.225 96.2788 106.225C96.6517 106.225 97.0468 105.949 97.021 105.502C96.9028 103.464 95.5662 101.477 94.4179 99.867C91.9514 96.3739 88.9015 93.2944 86.4018 89.8198C81.3395 82.793 76.9308 75.3268 71.7874 68.3517C66.8544 61.6683 62.058 54.9184 57.5422 47.9433C55.072 44.1142 52.2991 40.5325 49.6923 36.7957C47.4731 33.6091 45.6454 29.9942 42.7506 27.354C42.5217 27.1435 42.2485 27.0549 41.9863 27.0549V27.0549Z" fill="#7D99DA"/>
<path fill-rule="evenodd" clip-rule="evenodd" d="M42.71 24.6289C42.3038 24.6289 41.8866 24.784 41.5543 25.1237C38.3456 28.4026 33.6674 31.4489 29.4877 33.3432C25.3263 35.2263 21.0801 36.3378 18.0376 39.949C17.5908 40.4807 18.1558 41.1897 18.7355 41.1897C18.8979 41.1897 19.0604 41.1343 19.2044 41.0014V41.0051C23.2143 37.2314 29.1516 36.8141 33.7671 34.0263C36.9684 32.0988 40.2509 30.223 43.0349 27.7195C43.5629 27.6383 44.0208 27.2653 44.1094 26.5416L44.1426 26.2647C44.2682 25.2492 43.5186 24.6289 42.71 24.6289V24.6289Z" fill="#7D99DA"/>
<path fill-rule="evenodd" clip-rule="evenodd" d="M42.71 24.6289C42.3038 24.6289 41.8866 24.784 41.5543 25.1237C38.3456 28.4026 33.6674 31.4489 29.4877 33.3432C25.3263 35.2263 21.0801 36.3378 18.0376 39.949C17.5908 40.4807 18.1558 41.1897 18.7355 41.1897C18.8979 41.1897 19.0604 41.1343 19.2044 41.0014V41.0051C23.2143 37.2314 29.1516 36.8141 33.7671 34.0263C36.9684 32.0988 40.2509 30.223 43.0349 27.7195C43.5629 27.6383 44.0208 27.2653 44.1094 26.5416L44.1426 26.2647C44.2682 25.2492 43.5186 24.6289 42.71 24.6289V24.6289Z" fill="#7D99DA"/>
<path fill-rule="evenodd" clip-rule="evenodd" d="M20.4413 32.7378C20.1423 32.7378 19.8432 32.8596 19.6659 33.1403C18.6616 34.717 16.701 35.5367 15.9847 37.3349C15.7188 38.0107 15.6043 38.967 16.0659 39.6021C16.6493 40.3997 17.8235 40.4846 18.7835 40.4846C18.9422 40.4846 19.0973 40.4809 19.2413 40.4809C19.8284 40.4699 20.1275 39.5246 19.4555 39.3806C18.7392 39.2255 17.0887 39.2033 17.3915 38.1842C17.5798 37.5602 18.2222 37.0211 18.6875 36.6001C19.6364 35.7361 20.7995 35.0197 21.2869 33.7828C21.5343 33.155 20.9915 32.7378 20.4413 32.7378V32.7378Z" fill="#7D99DA"/>
<path fill-rule="evenodd" clip-rule="evenodd" d="M20.4413 32.7378C20.1423 32.7378 19.8432 32.8596 19.6659 33.1403C18.6616 34.717 16.701 35.5367 15.9847 37.3349C15.7188 38.0107 15.6043 38.967 16.0659 39.6021C16.6493 40.3997 17.8235 40.4846 18.7835 40.4846C18.9422 40.4846 19.0973 40.4809 19.2413 40.4809C19.8284 40.4699 20.1275 39.5246 19.4555 39.3806C18.7392 39.2255 17.0887 39.2033 17.3915 38.1842C17.5798 37.5602 18.2222 37.0211 18.6875 36.6001C19.6364 35.7361 20.7995 35.0197 21.2869 33.7828C21.5343 33.155 20.9915 32.7378 20.4413 32.7378V32.7378Z" fill="#7D99DA"/>
<path fill-rule="evenodd" clip-rule="evenodd" d="M17.6352 27.7305C17.5576 27.7305 17.4838 27.7415 17.4099 27.7637C16.2616 28.1219 15.4197 29.1927 14.744 30.1454C14.1495 30.9725 13.2154 31.8217 13.0455 32.8704C12.6578 35.2225 16.3022 36.4337 18.0672 36.4669C18.0708 36.4669 18.0745 36.4669 18.0782 36.4669C18.6099 36.4669 18.5545 35.7395 18.1299 35.5955H18.1262C17.2954 35.3148 16.5385 34.7979 15.8296 34.292C15.3163 33.9301 14.6037 33.6495 14.84 32.8889C14.936 32.5824 15.3237 32.2611 15.5231 32.0285C15.981 31.5005 16.3724 30.9171 16.8597 30.426C17.4801 29.7983 17.9785 29.5139 18.4032 28.7385C18.6949 28.192 18.1447 27.7305 17.6352 27.7305V27.7305Z" fill="#7D99DA"/>
<path fill-rule="evenodd" clip-rule="evenodd" d="M17.6352 27.7305C17.5576 27.7305 17.4838 27.7415 17.4099 27.7637C16.2616 28.1219 15.4197 29.1927 14.744 30.1454C14.1495 30.9725 13.2154 31.8217 13.0455 32.8704C12.6578 35.2225 16.3022 36.4337 18.0672 36.4669C18.0708 36.4669 18.0745 36.4669 18.0782 36.4669C18.6099 36.4669 18.5545 35.7395 18.1299 35.5955H18.1262C17.2954 35.3148 16.5385 34.7979 15.8296 34.292C15.3163 33.9301 14.6037 33.6495 14.84 32.8889C14.936 32.5824 15.3237 32.2611 15.5231 32.0285C15.981 31.5005 16.3724 30.9171 16.8597 30.426C17.4801 29.7983 17.9785 29.5139 18.4032 28.7385C18.6949 28.192 18.1447 27.7305 17.6352 27.7305V27.7305Z" fill="#7D99DA"/>
<path fill-rule="evenodd" clip-rule="evenodd" d="M39.9444 20.3789C38.8367 20.3789 37.7327 20.7371 36.7136 21.1285C35.6207 21.5383 33.5419 22.1476 32.748 23.0744C32.3012 23.5988 32.2717 24.3446 32.8588 24.7619C33.0582 24.9059 33.2723 24.9613 33.4976 24.9613C34.2619 24.9613 35.1074 24.2708 35.7204 23.9569C36.7431 23.4326 38.4859 22.4208 39.8669 22.4208C40.1401 22.4208 40.3986 22.4615 40.6349 22.5538C41.8165 23.0006 42.662 24.9797 43.238 26.0136C43.3636 26.2426 43.5519 26.3386 43.7402 26.3386C44.1648 26.3386 44.6116 25.8733 44.4786 25.3822L44.475 25.3785C43.9063 23.2775 42.9131 20.6706 40.4577 20.4047C40.2878 20.3863 40.1143 20.3789 39.9444 20.3789V20.3789Z" fill="#7D99DA"/>
<path fill-rule="evenodd" clip-rule="evenodd" d="M39.9444 20.3789C38.8367 20.3789 37.7327 20.7371 36.7136 21.1285C35.6207 21.5383 33.5419 22.1476 32.748 23.0744C32.3012 23.5988 32.2717 24.3446 32.8588 24.7619C33.0582 24.9059 33.2723 24.9613 33.4976 24.9613C34.2619 24.9613 35.1074 24.2708 35.7204 23.9569C36.7431 23.4326 38.4859 22.4208 39.8669 22.4208C40.1401 22.4208 40.3986 22.4615 40.6349 22.5538C41.8165 23.0006 42.662 24.9797 43.238 26.0136C43.3636 26.2426 43.5519 26.3386 43.7402 26.3386C44.1648 26.3386 44.6116 25.8733 44.4786 25.3822L44.475 25.3785C43.9063 23.2775 42.9131 20.6706 40.4577 20.4047C40.2878 20.3863 40.1143 20.3789 39.9444 20.3789V20.3789Z" fill="#7D99DA"/>
<path fill-rule="evenodd" clip-rule="evenodd" d="M34.7493 16.749C34.0773 16.749 33.4754 16.8118 33.0212 16.93C29.7867 17.7829 26.5005 19.9689 23.6722 21.7043C21.3091 23.1555 18.3847 25.0017 17.6462 27.8265C17.5281 28.2843 17.9047 28.6093 18.2961 28.6093C18.4623 28.6093 18.6284 28.5502 18.7613 28.4173C21.442 25.755 23.7719 23.6281 27.1061 21.7745C28.3541 21.0803 29.6058 20.2975 30.8981 19.6882C32.316 19.0199 34.0551 18.2297 35.7167 18.2297C36.4441 18.2297 37.1567 18.3811 37.825 18.7614C38.6189 19.2156 40.3432 19.8876 39.8521 21.2169C39.6564 21.7376 40.0774 22.1881 40.4983 22.1881C40.7014 22.1881 40.9044 22.081 41.0374 21.8225C42.8798 18.2039 37.9875 16.749 34.7493 16.749V16.749Z" fill="#7D99DA"/>
<path fill-rule="evenodd" clip-rule="evenodd" d="M34.7493 16.749C34.0773 16.749 33.4754 16.8118 33.0212 16.93C29.7867 17.7829 26.5005 19.9689 23.6722 21.7043C21.3091 23.1555 18.3847 25.0017 17.6462 27.8265C17.5281 28.2843 17.9047 28.6093 18.2961 28.6093C18.4623 28.6093 18.6284 28.5502 18.7613 28.4173C21.442 25.755 23.7719 23.6281 27.1061 21.7745C28.3541 21.0803 29.6058 20.2975 30.8981 19.6882C32.316 19.0199 34.0551 18.2297 35.7167 18.2297C36.4441 18.2297 37.1567 18.3811 37.825 18.7614C38.6189 19.2156 40.3432 19.8876 39.8521 21.2169C39.6564 21.7376 40.0774 22.1881 40.4983 22.1881C40.7014 22.1881 40.9044 22.081 41.0374 21.8225C42.8798 18.2039 37.9875 16.749 34.7493 16.749V16.749Z" fill="#7D99DA"/>
<path fill-rule="evenodd" clip-rule="evenodd" d="M25.2082 28.1294C24.994 28.1294 24.7873 28.2365 24.7245 28.4617C24.6137 28.8642 24.5805 29.2814 24.5251 29.695C24.4734 30.079 24.7799 30.2858 25.0974 30.2858C25.3854 30.2858 25.6808 30.1123 25.703 29.743C25.7251 29.3479 25.7584 28.9602 25.7399 28.5688C25.7214 28.2845 25.463 28.1294 25.2082 28.1294V28.1294Z" fill="#7D99DA"/>
<path fill-rule="evenodd" clip-rule="evenodd" d="M25.2082 28.1294C24.994 28.1294 24.7873 28.2365 24.7245 28.4617C24.6137 28.8642 24.5805 29.2814 24.5251 29.695C24.4734 30.079 24.7799 30.2858 25.0974 30.2858C25.3854 30.2858 25.6808 30.1123 25.703 29.743C25.7251 29.3479 25.7584 28.9602 25.7399 28.5688C25.7214 28.2845 25.463 28.1294 25.2082 28.1294V28.1294Z" fill="#7D99DA"/>
<path fill-rule="evenodd" clip-rule="evenodd" d="M28.0107 26.6265C27.7116 26.6265 27.4162 26.8 27.3461 27.1877C27.3424 27.1914 27.3461 27.1951 27.3461 27.1951C27.3424 27.1988 27.3387 27.2062 27.3313 27.2099C27.2648 27.2911 27.1651 27.3502 27.0876 27.4277C26.8698 27.6419 26.7258 27.9188 26.6814 28.2142C26.5854 28.7312 27.0064 29.0266 27.4162 29.0266C27.7412 29.0266 28.0624 28.842 28.1215 28.4358C28.1215 28.4469 28.1215 28.4505 28.1252 28.4505C28.1289 28.4505 28.1473 28.3989 28.1362 28.3989C28.1325 28.3989 28.1252 28.4062 28.1104 28.421C28.1879 28.325 28.3024 28.2585 28.3873 28.1662C28.5719 27.9595 28.6938 27.7047 28.727 27.4314C28.8009 26.9256 28.4021 26.6265 28.0107 26.6265V26.6265Z" fill="#7D99DA"/>
<path fill-rule="evenodd" clip-rule="evenodd" d="M28.0107 26.6265C27.7116 26.6265 27.4162 26.8 27.3461 27.1877C27.3424 27.1914 27.3461 27.1951 27.3461 27.1951C27.3424 27.1988 27.3387 27.2062 27.3313 27.2099C27.2648 27.2911 27.1651 27.3502 27.0876 27.4277C26.8698 27.6419 26.7258 27.9188 26.6814 28.2142C26.5854 28.7312 27.0064 29.0266 27.4162 29.0266C27.7412 29.0266 28.0624 28.842 28.1215 28.4358C28.1215 28.4469 28.1215 28.4505 28.1252 28.4505C28.1289 28.4505 28.1473 28.3989 28.1362 28.3989C28.1325 28.3989 28.1252 28.4062 28.1104 28.421C28.1879 28.325 28.3024 28.2585 28.3873 28.1662C28.5719 27.9595 28.6938 27.7047 28.727 27.4314C28.8009 26.9256 28.4021 26.6265 28.0107 26.6265V26.6265Z" fill="#7D99DA"/>
<path fill-rule="evenodd" clip-rule="evenodd" d="M23.6094 0.250977C23.4322 0.250977 23.2402 0.302671 23.0445 0.42083C16.5754 4.24994 7.49592 7.22977 4.48665 15.0098C3.30509 18.0672 4.40173 20.6003 6.41406 22.9856C9.07995 26.1538 11.8972 29.8684 15.4788 32.0506C15.5748 32.106 15.6708 32.1319 15.7668 32.1319C16.2099 32.1319 16.6161 31.6112 16.3318 31.1829C14.5483 28.5133 11.7901 26.3088 9.72981 23.8238C6.69099 20.1498 4.64911 18.1078 8.17163 13.6104C10.3427 10.8299 13.6068 8.28582 16.6899 6.56882C19.2266 5.1509 22.0881 4.50472 24.322 2.55508C25.1787 1.8129 24.5916 0.250977 23.6094 0.250977V0.250977Z" fill="#7D99DA"/>
<path fill-rule="evenodd" clip-rule="evenodd" d="M23.6094 0.250977C23.4322 0.250977 23.2402 0.302671 23.0445 0.42083C16.5754 4.24994 7.49592 7.22977 4.48665 15.0098C3.30509 18.0672 4.40173 20.6003 6.41406 22.9856C9.07995 26.1538 11.8972 29.8684 15.4788 32.0506C15.5748 32.106 15.6708 32.1319 15.7668 32.1319C16.2099 32.1319 16.6161 31.6112 16.3318 31.1829C14.5483 28.5133 11.7901 26.3088 9.72981 23.8238C6.69099 20.1498 4.64911 18.1078 8.17163 13.6104C10.3427 10.8299 13.6068 8.28582 16.6899 6.56882C19.2266 5.1509 22.0881 4.50472 24.322 2.55508C25.1787 1.8129 24.5916 0.250977 23.6094 0.250977V0.250977Z" fill="#7D99DA"/>
<path fill-rule="evenodd" clip-rule="evenodd" d="M23.6611 0C22.4537 0 22.1915 1.525 23.2549 2.02348C26.5965 3.5854 28.3762 6.45077 30.6249 9.25706C32.9252 12.1261 35.9345 14.1865 36.4921 18.0415C36.5327 18.3221 36.8096 18.4883 37.0681 18.4883C37.2785 18.4883 37.4742 18.3812 37.5296 18.1375C38.5967 13.4702 34.8231 10.9002 32.2274 7.54375C30.1633 4.88147 27.5602 0.0110763 23.6685 0C23.6648 0 23.6648 0 23.6611 0V0Z" fill="#7D99DA"/>
<path fill-rule="evenodd" clip-rule="evenodd" d="M23.6611 0C22.4537 0 22.1915 1.525 23.2549 2.02348C26.5965 3.5854 28.3762 6.45077 30.6249 9.25706C32.9252 12.1261 35.9345 14.1865 36.4921 18.0415C36.5327 18.3221 36.8096 18.4883 37.0681 18.4883C37.2785 18.4883 37.4742 18.3812 37.5296 18.1375C38.5967 13.4702 34.8231 10.9002 32.2274 7.54375C30.1633 4.88147 27.5602 0.0110763 23.6685 0C23.6648 0 23.6648 0 23.6611 0V0Z" fill="#7D99DA"/>
<path fill-rule="evenodd" clip-rule="evenodd" d="M16.4019 13.2229C16.3207 13.2229 16.2394 13.2377 16.1582 13.2746C13.3742 14.5522 11.1477 16.7751 8.30825 17.9899C7.82085 18.1967 8.00547 18.8355 8.46702 18.8355C8.50394 18.8355 8.54455 18.8318 8.58886 18.8207C11.624 18.1376 14.456 16.1695 16.8413 14.2273C17.3028 13.8506 16.8893 13.2229 16.4019 13.2229V13.2229Z" fill="#7D99DA"/>
<path fill-rule="evenodd" clip-rule="evenodd" d="M16.4019 13.2229C16.3207 13.2229 16.2394 13.2377 16.1582 13.2746C13.3742 14.5522 11.1477 16.7751 8.30825 17.9899C7.82085 18.1967 8.00547 18.8355 8.46702 18.8355C8.50394 18.8355 8.54455 18.8318 8.58886 18.8207C11.624 18.1376 14.456 16.1695 16.8413 14.2273C17.3028 13.8506 16.8893 13.2229 16.4019 13.2229V13.2229Z" fill="#7D99DA"/>
<path fill-rule="evenodd" clip-rule="evenodd" d="M22.3503 7.97583C22.2949 7.97583 22.2358 7.9906 22.1768 8.01645C21.298 8.40785 20.4155 8.79556 19.6696 9.42328C19.2192 9.80361 19.6069 10.387 20.0721 10.387C20.1903 10.387 20.3084 10.3501 20.4229 10.2689C21.1872 9.70761 22.0881 9.5119 22.6937 8.74756C22.93 8.45216 22.6974 7.97583 22.3503 7.97583V7.97583Z" fill="#7D99DA"/>
<path fill-rule="evenodd" clip-rule="evenodd" d="M22.3503 7.97583C22.2949 7.97583 22.2358 7.9906 22.1768 8.01645C21.298 8.40785 20.4155 8.79556 19.6696 9.42328C19.2192 9.80361 19.6069 10.387 20.0721 10.387C20.1903 10.387 20.3084 10.3501 20.4229 10.2689C21.1872 9.70761 22.0881 9.5119 22.6937 8.74756C22.93 8.45216 22.6974 7.97583 22.3503 7.97583V7.97583Z" fill="#7D99DA"/>
<path fill-rule="evenodd" clip-rule="evenodd" d="M85.3384 110.073C83.5033 110.073 82.1297 111.162 81.1438 112.643C79.7407 114.744 77.8428 119.382 81.1401 120.826C81.2435 120.87 81.3469 120.892 81.4392 120.892C81.9746 120.892 82.3032 120.238 81.886 119.769C80.4755 118.178 81.2731 115.867 82.3069 114.305C83.134 113.06 83.9242 111.986 85.5414 111.986C85.5636 111.986 85.5894 111.986 85.6116 111.986C86.9039 112.015 87.875 112.887 89.0935 113.108C89.1341 113.116 89.1747 113.119 89.2154 113.119C89.7655 113.119 90.1606 112.414 89.7951 111.96C88.8387 110.771 86.9002 110.091 85.4011 110.073C85.379 110.073 85.3605 110.073 85.3384 110.073V110.073Z" fill="#7D99DA"/>
<path fill-rule="evenodd" clip-rule="evenodd" d="M85.3384 110.073C83.5033 110.073 82.1297 111.162 81.1438 112.643C79.7407 114.744 77.8428 119.382 81.1401 120.826C81.2435 120.87 81.3469 120.892 81.4392 120.892C81.9746 120.892 82.3032 120.238 81.886 119.769C80.4755 118.178 81.2731 115.867 82.3069 114.305C83.134 113.06 83.9242 111.986 85.5414 111.986C85.5636 111.986 85.5894 111.986 85.6116 111.986C86.9039 112.015 87.875 112.887 89.0935 113.108C89.1341 113.116 89.1747 113.119 89.2154 113.119C89.7655 113.119 90.1606 112.414 89.7951 111.96C88.8387 110.771 86.9002 110.091 85.4011 110.073C85.379 110.073 85.3605 110.073 85.3384 110.073V110.073Z" fill="#7D99DA"/>
<path fill-rule="evenodd" clip-rule="evenodd" d="M93.7939 103.168C92.6234 103.168 91.4714 103.748 90.5261 104.416C89.9243 104.841 89.3446 105.343 88.872 105.911C88.0818 106.864 88.1667 107.976 88.1076 109.161C88.0375 110.645 88.4621 111.591 88.6467 112.997C88.6799 113.285 88.9052 113.426 89.1341 113.426C89.3741 113.426 89.6178 113.274 89.6658 112.986C89.9907 110.952 89.0935 108.079 90.8289 106.547C91.4825 105.967 92.6825 105.099 93.7237 105.099C94.0302 105.099 94.3256 105.173 94.5877 105.354C95.2487 105.815 95.5588 106.757 96.1422 107.311C96.3232 107.484 96.5299 107.558 96.7293 107.558C97.3386 107.558 97.8813 106.868 97.5195 106.207C96.9361 105.129 96.1681 103.836 94.9607 103.378C94.573 103.231 94.1816 103.168 93.7939 103.168V103.168Z" fill="#7D99DA"/>
<path fill-rule="evenodd" clip-rule="evenodd" d="M93.7939 103.168C92.6234 103.168 91.4714 103.748 90.5261 104.416C89.9243 104.841 89.3446 105.343 88.872 105.911C88.0818 106.864 88.1667 107.976 88.1076 109.161C88.0375 110.645 88.4621 111.591 88.6467 112.997C88.6799 113.285 88.9052 113.426 89.1341 113.426C89.3741 113.426 89.6178 113.274 89.6658 112.986C89.9907 110.952 89.0935 108.079 90.8289 106.547C91.4825 105.967 92.6825 105.099 93.7237 105.099C94.0302 105.099 94.3256 105.173 94.5877 105.354C95.2487 105.815 95.5588 106.757 96.1422 107.311C96.3232 107.484 96.5299 107.558 96.7293 107.558C97.3386 107.558 97.8813 106.868 97.5195 106.207C96.9361 105.129 96.1681 103.836 94.9607 103.378C94.573 103.231 94.1816 103.168 93.7939 103.168V103.168Z" fill="#7D99DA"/>
<path fill-rule="evenodd" clip-rule="evenodd" d="M80.889 119.858C80.5383 119.858 80.4423 120.419 80.8078 120.519C85.3716 121.763 90.0498 125.954 93.6683 128.875C96.3527 131.039 99.2142 134.133 102.497 135.329C102.56 135.352 102.619 135.363 102.678 135.363C103.195 135.363 103.538 134.565 103.091 134.214C99.2142 131.186 95.3188 128.055 91.2646 125.275C87.9119 122.974 85.1463 120.227 80.9223 119.858C80.9112 119.858 80.9001 119.858 80.889 119.858V119.858Z" fill="#7D99DA"/>
<path fill-rule="evenodd" clip-rule="evenodd" d="M80.889 119.858C80.5383 119.858 80.4423 120.419 80.8078 120.519C85.3716 121.763 90.0498 125.954 93.6683 128.875C96.3527 131.039 99.2142 134.133 102.497 135.329C102.56 135.352 102.619 135.363 102.678 135.363C103.195 135.363 103.538 134.565 103.091 134.214C99.2142 131.186 95.3188 128.055 91.2646 125.275C87.9119 122.974 85.1463 120.227 80.9223 119.858C80.9112 119.858 80.9001 119.858 80.889 119.858V119.858Z" fill="#7D99DA"/>
<path fill-rule="evenodd" clip-rule="evenodd" d="M96.7957 105.93C96.3564 105.93 95.9502 106.399 96.0795 106.927C97.1207 111.199 99.037 115.287 100.163 119.581C100.732 121.723 101.275 123.883 101.721 126.05C102.187 128.317 103.682 132.401 103.043 134.506C102.892 135.016 103.339 135.558 103.785 135.558C103.966 135.558 104.147 135.47 104.284 135.245C105.24 133.723 105.056 132.844 104.771 131.142C104.258 128.048 103.619 124.943 102.896 121.885C101.696 116.801 100.555 110.479 97.3459 106.233C97.1835 106.019 96.9878 105.93 96.7957 105.93V105.93Z" fill="#7D99DA"/>
<path fill-rule="evenodd" clip-rule="evenodd" d="M96.7957 105.93C96.3564 105.93 95.9502 106.399 96.0795 106.927C97.1207 111.199 99.037 115.287 100.163 119.581C100.732 121.723 101.275 123.883 101.721 126.05C102.187 128.317 103.682 132.401 103.043 134.506C102.892 135.016 103.339 135.558 103.785 135.558C103.966 135.558 104.147 135.47 104.284 135.245C105.24 133.723 105.056 132.844 104.771 131.142C104.258 128.048 103.619 124.943 102.896 121.885C101.696 116.801 100.555 110.479 97.3459 106.233C97.1835 106.019 96.9878 105.93 96.7957 105.93V105.93Z" fill="#7D99DA"/>
<path fill-rule="evenodd" clip-rule="evenodd" d="M101.84 125.279C101.828 125.279 101.814 125.279 101.803 125.279C99.1847 125.419 96.9065 127.989 95.6696 130.094C95.485 130.411 95.8062 130.74 96.1127 130.74C96.2271 130.74 96.3416 130.692 96.4265 130.581C97.9182 128.535 99.7755 127.439 102.142 126.682C102.947 126.431 102.604 125.279 101.84 125.279V125.279Z" fill="#7D99DA"/>
<path fill-rule="evenodd" clip-rule="evenodd" d="M101.84 125.279C101.828 125.279 101.814 125.279 101.803 125.279C99.1847 125.419 96.9065 127.989 95.6696 130.094C95.485 130.411 95.8062 130.74 96.1127 130.74C96.2271 130.74 96.3416 130.692 96.4265 130.581C97.9182 128.535 99.7755 127.439 102.142 126.682C102.947 126.431 102.604 125.279 101.84 125.279V125.279Z" fill="#7D99DA"/>
<path fill-rule="evenodd" clip-rule="evenodd" d="M30.7947 31.8293C30.0267 31.8293 29.244 32.6528 29.7461 33.5279C33.7154 40.4328 37.681 47.1716 41.9678 53.903C46.2768 60.664 50.9144 67.3252 55.4893 73.9089C60.2672 80.7917 65.1891 87.56 69.8895 94.5019C72.2379 97.9691 74.7745 101.315 76.9973 104.859C78.8361 107.795 80.4017 110.368 83.0122 112.643C83.0897 112.713 83.182 112.743 83.2706 112.743C83.5623 112.743 83.8392 112.436 83.6251 112.137V112.145C74.9776 99.8708 66.8064 87.2203 58.2623 74.8579C48.7544 61.1071 39.9666 46.8725 31.692 32.3795C31.4704 31.9918 31.1344 31.8293 30.7947 31.8293V31.8293Z" fill="#7D99DA"/>
<path fill-rule="evenodd" clip-rule="evenodd" d="M30.7947 31.8293C30.0267 31.8293 29.244 32.6528 29.7461 33.5279C33.7154 40.4328 37.681 47.1716 41.9678 53.903C46.2768 60.664 50.9144 67.3252 55.4893 73.9089C60.2672 80.7917 65.1891 87.56 69.8895 94.5019C72.2379 97.9691 74.7745 101.315 76.9973 104.859C78.8361 107.795 80.4017 110.368 83.0122 112.643C83.0897 112.713 83.182 112.743 83.2706 112.743C83.5623 112.743 83.8392 112.436 83.6251 112.137V112.145C74.9776 99.8708 66.8064 87.2203 58.2623 74.8579C48.7544 61.1071 39.9666 46.8725 31.692 32.3795C31.4704 31.9918 31.1344 31.8293 30.7947 31.8293V31.8293Z" fill="#7D99DA"/>
<path fill-rule="evenodd" clip-rule="evenodd" d="M36.769 30.271C35.9751 30.271 35.2071 30.9283 35.665 31.8145C38.8183 37.9292 42.8725 42.9214 47.1556 48.2202C51.9705 54.1688 55.7367 60.9777 60.0604 67.2808C64.8531 74.2706 69.9301 81.0131 74.5936 88.1101C76.6392 91.2154 78.8324 94.2063 80.9777 97.2416C82.2478 99.0324 88.8276 105.834 88.1335 107.824C88.0153 108.168 88.2812 108.489 88.5729 108.489C88.6873 108.489 88.8129 108.437 88.9162 108.315C90.3969 106.554 88.8904 104.804 87.7199 103.186C85.1537 99.6491 82.6392 96.0821 80.1026 92.5226C75.6238 86.2343 71.8464 79.4586 67.1941 73.2958C61.8623 66.2321 57.3096 58.7068 52.3249 51.4068C47.5802 44.4538 41.8201 38.5237 37.921 30.9652C37.6699 30.4778 37.2158 30.271 36.769 30.271V30.271Z" fill="#7D99DA"/>
<path fill-rule="evenodd" clip-rule="evenodd" d="M36.769 30.271C35.9751 30.271 35.2071 30.9283 35.665 31.8145C38.8183 37.9292 42.8725 42.9214 47.1556 48.2202C51.9705 54.1688 55.7367 60.9777 60.0604 67.2808C64.8531 74.2706 69.9301 81.0131 74.5936 88.1101C76.6392 91.2154 78.8324 94.2063 80.9777 97.2416C82.2478 99.0324 88.8276 105.834 88.1335 107.824C88.0153 108.168 88.2812 108.489 88.5729 108.489C88.6873 108.489 88.8129 108.437 88.9162 108.315C90.3969 106.554 88.8904 104.804 87.7199 103.186C85.1537 99.6491 82.6392 96.0821 80.1026 92.5226C75.6238 86.2343 71.8464 79.4586 67.1941 73.2958C61.8623 66.2321 57.3096 58.7068 52.3249 51.4068C47.5802 44.4538 41.8201 38.5237 37.921 30.9652C37.6699 30.4778 37.2158 30.271 36.769 30.271V30.271Z" fill="#7D99DA"/>
</g>
<defs>
<filter id="filter0_di_407_407" x="0" y="0" width="109" height="143.558" filterUnits="userSpaceOnUse" color-interpolation-filters="sRGB">
<feFlood flood-opacity="0" result="BackgroundImageFix"/>
<feColorMatrix in="SourceAlpha" type="matrix" values="0 0 0 0 0 0 0 0 0 0 0 0 0 0 0 0 0 0 127 0" result="hardAlpha"/>
<feOffset dy="4"/>
<feGaussianBlur stdDeviation="2"/>
<feComposite in2="hardAlpha" operator="out"/>
<feColorMatrix type="matrix" values="0 0 0 0 0 0 0 0 0 0 0 0 0 0 0 0 0 0 0.25 0"/>
<feBlend mode="normal" in2="BackgroundImageFix" result="effect1_dropShadow_407_407"/>
<feBlend mode="normal" in="SourceGraphic" in2="effect1_dropShadow_407_407" result="shape"/>
<feColorMatrix in="SourceAlpha" type="matrix" values="0 0 0 0 0 0 0 0 0 0 0 0 0 0 0 0 0 0 127 0" result="hardAlpha"/>
<feOffset dy="4"/>
<feGaussianBlur stdDeviation="2"/>
<feComposite in2="hardAlpha" operator="arithmetic" k2="-1" k3="1"/>
<feColorMatrix type="matrix" values="0 0 0 0 0 0 0 0 0 0 0 0 0 0 0 0 0 0 0.25 0"/>
<feBlend mode="normal" in2="shape" result="effect2_innerShadow_407_407"/>
</filter>
</defs>
</svg>
