<svg width="70" height="65" viewBox="0 0 70 65" fill="none" xmlns="http://www.w3.org/2000/svg">
<path fill-rule="evenodd" clip-rule="evenodd" d="M27.4286 55.7299C28.4582 55.7299 29.3148 56.5868 29.3148 57.53C29.3148 58.4732 28.4582 59.3301 27.4286 59.3301C26.4856 59.3301 25.6289 58.4732 25.6289 57.53C25.6289 56.5868 26.3992 55.7299 27.4286 55.7299ZM27.4286 53.7571C25.2834 53.7571 23.57 55.4707 23.57 57.6092C23.57 59.7549 25.2834 61.4685 27.4286 61.4685C29.5669 61.4685 31.2874 59.7549 31.2874 57.6092C31.2874 55.4707 29.5669 53.7571 27.4286 53.7571Z" fill="black"/>
<path fill-rule="evenodd" clip-rule="evenodd" d="M52.3735 55.7299C53.3958 55.7299 54.2524 56.5868 54.2524 57.53C54.2524 58.4732 53.3958 59.3301 52.3735 59.3301C51.4304 59.3301 50.5738 58.4732 50.5738 57.53C50.5738 56.5868 51.4304 55.7299 52.3735 55.7299ZM52.3735 53.7571C50.2283 53.7571 48.5148 55.4707 48.5148 57.6092C48.5148 59.7549 50.2283 61.4685 52.3735 61.4685C54.5117 61.4685 56.3114 59.7549 56.3114 57.6092C56.3114 55.4707 54.5117 53.7571 52.3735 53.7571Z" fill="black"/>
<path fill-rule="evenodd" clip-rule="evenodd" d="M24.2537 12.0892V18.0942H20.1432L17.9978 12.0892H24.2537ZM32.4824 12.0892V18.0942H26.3127V12.0892H32.4824ZM40.7109 12.0892V18.0942H34.5412V12.0892H40.7109ZM49.0258 12.0892V18.0942H42.7699V12.0892H49.0258ZM57.2544 12.0892V18.0942H50.9984V12.0892H57.2544ZM62.1426 12.0892L60.7675 18.0942H59.3133V12.0892H62.1426ZM60.3428 20.2327L59.3997 24.5241V20.2327H60.3428ZM24.2537 20.2327V26.4969H23.0588L20.827 20.2327H24.2537ZM32.4824 20.2327V26.4969H26.3127V20.2327H32.4824ZM40.7109 20.2327V26.4969H34.5412V20.2327H40.7109ZM49.0258 20.2327V26.4969H42.7699V20.2327H49.0258ZM57.2544 20.2327V26.4969H50.9984V20.2327H57.2544ZM24.2537 28.4626V29.7514L23.829 28.4626H24.2537ZM32.4824 28.3762V33.1788C30.9849 33.1788 29.8906 33.33 28.9476 33.33C28.0046 33.33 27.2126 33.1788 26.3127 32.5811V28.3762H32.4824ZM40.7109 28.4626V33.3516H34.5412V28.4626H40.7109ZM48.9394 28.4626V33.3516H42.7699V28.4626H48.9394ZM57.2544 28.4626V33.3516H50.9984V28.4626H57.2544ZM27.4285 52.2954C30.3443 52.2954 32.7415 54.6139 32.7415 57.53C32.7415 60.4389 30.3443 62.7574 27.4285 62.7574C24.5993 62.7574 22.202 60.4389 22.202 57.53C22.202 54.6139 24.5993 52.2954 27.4285 52.2954ZM52.4526 52.2954C55.2819 52.2954 57.6864 54.6139 57.6864 57.53C57.6864 60.4389 55.2819 62.7574 52.4526 62.7574C49.5441 62.7574 47.1397 60.4389 47.1397 57.53C47.1397 54.6139 49.5441 52.2954 52.4526 52.2954ZM3.77239 0C1.71342 0 0 1.72086 0 3.68653C0 5.7458 1.71342 7.45946 3.77239 7.45946H8.40142L14.139 23.7536C14.3551 24.1713 14.7366 24.4809 15.1541 24.4809C15.2477 24.4809 15.3341 24.4665 15.4277 24.4377C16.0252 24.1785 16.2844 23.6672 16.1116 23.1488C10.4532 7.20746 10.2011 6.51623 10.2011 6.42983C10.0283 5.7458 9.34445 5.4866 8.73974 5.4866H3.77239C2.82936 5.4866 2.05897 4.71617 2.05897 3.68653C2.05897 2.7433 2.82936 1.97287 3.77239 1.97287H8.73974C10.7123 1.97287 12.5985 3.17532 13.2824 4.97539C14.4846 8.4027 21.5973 28.2106 22.5405 31.1195C23.3107 33.2652 25.7152 35.3244 28.71 35.3244H66.1668C67.11 35.3244 67.8875 36.0949 67.8875 37.0381C67.8875 37.9813 67.11 38.7518 66.1668 38.7518H28.71C24.6857 38.7518 20.9998 36.4405 19.4592 32.6675L17.4002 26.7489C17.1986 26.3529 16.8531 26.0649 16.4716 26.0649C16.3564 26.0649 16.234 26.0937 16.1116 26.1513C15.6005 26.3241 15.255 26.8353 15.4277 27.433C17.0546 31.7243 17.141 33.5244 19.2 36.0949L16.8819 39.4358C13.4552 44.4112 16.4572 51.3522 22.4541 52.1226C17.573 56.6732 20.7406 64.8167 27.4285 64.8167C34.1165 64.8167 37.1978 56.7524 32.4824 52.2954H47.3989C42.6835 56.7524 45.8583 64.8167 52.4526 64.8167C59.0541 64.8167 62.1426 56.7524 57.4272 52.2954H58.8813C60.8539 52.2954 62.5673 50.5818 62.5673 48.5225C62.5673 46.4704 60.8539 44.7568 58.8813 44.7568H49.5441C49.0258 44.7568 48.4283 45.1816 48.4283 45.8656C48.4283 46.384 48.853 46.8952 49.5441 46.8952H58.8813C59.8245 46.8952 60.602 47.6657 60.602 48.6089C60.602 49.6385 59.8245 50.3226 58.8813 50.3226H23.5699C18.6817 50.3226 15.7733 44.7568 18.5953 40.7246L20.5679 37.7221C21.4245 38.4926 22.4541 39.0974 23.3971 39.6086L21.3381 42.6111C20.0568 44.4976 21.3381 46.8952 23.5699 46.8952H45.6855C46.1966 46.8952 46.7149 46.4704 46.7149 45.8656C46.7149 45.3544 46.283 44.7568 45.6855 44.7568H23.5699C23.0588 44.7568 22.7132 44.1519 23.0588 43.7271L25.4561 40.2926C26.795 40.703 27.1766 40.7966 31.3881 40.7966C35.3332 40.7966 42.633 40.7174 57.2257 40.7174C59.9468 40.7174 62.9201 40.7174 66.1668 40.7246C68.1394 40.7246 69.8528 39.011 69.8528 36.9517C69.8528 35.0652 68.1394 33.3516 66.1668 33.3516H65.0583L69.8528 12.262C70.7095 8.3163 67.7147 4.62976 63.7695 4.62976H43.7993C43.281 4.62976 42.7699 4.97539 42.7699 5.6594C42.7699 6.17783 43.2018 6.77544 43.7993 6.77544H63.7695C66.5988 6.77544 68.5714 9.25953 67.9666 12.0028L62.9993 33.438H59.4861C59.9973 31.1195 63.8559 14.4077 64.5399 11.4052C64.6263 10.8076 64.2015 10.1164 63.5968 10.1164H17.3138L16.1116 6.77544H39.8543C40.459 6.77544 40.9701 6.35063 40.9701 5.6594C40.9701 5.14819 40.5381 4.62976 39.8543 4.62976H15.3414C14.3982 2.05927 11.8281 0 8.73974 0H3.77239Z" fill="black"/>
</svg>
