<svg version="1.1" viewBox="0.0 0.0 960.0 540.0" fill="none" stroke="none" stroke-linecap="square" stroke-miterlimit="10" xmlns:xlink="http://www.w3.org/1999/xlink" xmlns="http://www.w3.org/2000/svg"><clipPath id="g6039a3cf85_1_15095.0"><path d="m0 0l960.0 0l0 540.0l-960.0 0l0 -540.0z" clip-rule="nonzero"/></clipPath><g clip-path="url(#g6039a3cf85_1_15095.0)"><path fill="#ffffff" d="m0 0l960.0 0l0 540.0l-960.0 0z" fill-rule="evenodd"/><path fill="#000000" fill-opacity="0.0" d="m-0.057963256 422.4073l962.6142 0" fill-rule="evenodd"/><path stroke="#eeeeee" stroke-width="1.0" stroke-linejoin="round" stroke-linecap="butt" d="m-0.057963256 422.4073l962.6142 0" fill-rule="evenodd"/><path fill="#000000" fill-opacity="0.0" d="m-1.3073071 32.574802l962.6142 0" fill-rule="evenodd"/><path stroke="#eeeeee" stroke-width="1.0" stroke-linejoin="round" stroke-linecap="butt" d="m-1.3073071 32.574802l962.6142 0" fill-rule="evenodd"/><path fill="#000000" fill-opacity="0.0" d="m-0.057963256 75.88953l962.6142 0" fill-rule="evenodd"/><path stroke="#eeeeee" stroke-width="1.0" stroke-linejoin="round" stroke-linecap="butt" d="m-0.057963256 75.88953l962.6142 0" fill-rule="evenodd"/><path fill="#000000" fill-opacity="0.0" d="m-0.057963256 119.20425l962.6142 0" fill-rule="evenodd"/><path stroke="#eeeeee" stroke-width="1.0" stroke-linejoin="round" stroke-linecap="butt" d="m-0.057963256 119.20425l962.6142 0" fill-rule="evenodd"/><path fill="#000000" fill-opacity="0.0" d="m-0.057963256 162.51897l962.6142 0" fill-rule="evenodd"/><path stroke="#eeeeee" stroke-width="1.0" stroke-linejoin="round" stroke-linecap="butt" d="m-0.057963256 162.51897l962.6142 0" fill-rule="evenodd"/><path fill="#000000" fill-opacity="0.0" d="m-0.057963256 205.8337l962.6142 0" fill-rule="evenodd"/><path stroke="#eeeeee" stroke-width="1.0" stroke-linejoin="round" stroke-linecap="butt" d="m-0.057963256 205.8337l962.6142 0" fill-rule="evenodd"/><path fill="#000000" fill-opacity="0.0" d="m-0.057963256 249.1484l962.6142 0" fill-rule="evenodd"/><path stroke="#eeeeee" stroke-width="1.0" stroke-linejoin="round" stroke-linecap="butt" d="m-0.057963256 249.1484l962.6142 0" fill-rule="evenodd"/><path fill="#000000" fill-opacity="0.0" d="m-0.057963256 292.46313l962.6142 0" fill-rule="evenodd"/><path stroke="#eeeeee" stroke-width="1.0" stroke-linejoin="round" stroke-linecap="butt" d="m-0.057963256 292.46313l962.6142 0" fill-rule="evenodd"/><path fill="#000000" fill-opacity="0.0" d="m-0.057963256 335.77786l962.6142 0" fill-rule="evenodd"/><path stroke="#eeeeee" stroke-width="1.0" stroke-linejoin="round" stroke-linecap="butt" d="m-0.057963256 335.77786l962.6142 0" fill-rule="evenodd"/><path fill="#000000" fill-opacity="0.0" d="m-0.057963256 379.0926l962.6142 0" fill-rule="evenodd"/><path stroke="#eeeeee" stroke-width="1.0" stroke-linejoin="round" stroke-linecap="butt" d="m-0.057963256 379.0926l962.6142 0" fill-rule="evenodd"/><path fill="#000000" fill-opacity="0.0" d="m-0.057963256 465.72202l962.6142 0" fill-rule="evenodd"/><path stroke="#eeeeee" stroke-width="1.0" stroke-linejoin="round" stroke-linecap="butt" d="m-0.057963256 465.72202l962.6142 0" fill-rule="evenodd"/><path fill="#000000" fill-opacity="0.0" d="m-0.057963256 509.03674l962.6142 0" fill-rule="evenodd"/><path stroke="#eeeeee" stroke-width="1.0" stroke-linejoin="round" stroke-linecap="butt" d="m-0.057963256 509.03674l962.6142 0" fill-rule="evenodd"/></g></svg>