<svg width="148" height="268" viewBox="0 0 148 268" fill="none" xmlns="http://www.w3.org/2000/svg">
<path fill-rule="evenodd" clip-rule="evenodd" d="M0.871409 0C0.584773 0 0.298096 0.149093 0 0.470203C0.298096 0.77981 0.596234 0.940365 0.89433 0.940365C1.18101 0.940365 1.46764 0.791272 1.76574 0.481665C1.46764 0.160555 1.16955 0 0.871409 0Z" fill="#B8E5E0"/>
<path fill-rule="evenodd" clip-rule="evenodd" d="M88.9289 241.095L88.8094 241.126C88.811 241.358 88.8156 241.589 88.8249 241.817C88.8575 241.575 88.8947 241.335 88.9289 241.095ZM101.169 62.9518C104.434 62.9518 108.057 65.9537 107.707 69.4908C103.325 113.75 104.783 158.506 105.178 202.951C106.871 206.474 107.113 210.472 106.27 214.264C106.537 217.062 106.68 219.872 106.68 222.681C107.454 223.229 107.913 224.166 107.539 225.359L105.251 232.699C105.262 232.855 105.274 233.012 105.278 233.178C105.512 242.359 104.541 251.737 104.178 260.915C104.111 262.603 102.867 263.44 101.608 263.44C100.342 263.44 99.0607 262.593 98.9475 260.915C98.4589 253.662 96.9481 246.597 94.3996 239.821C92.7043 246.028 92.2188 259.525 91.9753 261.808C91.8046 263.403 90.4722 264.373 89.1848 264.373C88.1952 264.373 87.2304 263.8 86.838 262.502C84.8649 255.992 83.7109 249.166 83.6985 242.345C76.4859 243.896 69.0421 244.791 61.8046 244.791C59.7571 244.791 57.7252 244.718 55.7196 244.571C54.5579 244.484 53.348 244.407 52.1164 244.312C52.2575 250.266 51.2896 256.608 50.7793 262.314C50.6397 263.867 49.1336 264.899 47.7795 264.899C46.7806 264.899 45.8654 264.337 45.642 263.009C44.5392 256.441 43.956 249.796 43.9017 243.138C43.1835 242.958 42.4762 242.751 41.786 242.516C40.5777 249.034 39.3678 255.552 38.1595 262.07C37.916 263.38 36.9481 263.952 35.9166 263.952C34.5656 263.952 33.1045 262.969 33.0222 261.374C32.6236 253.704 31.8651 245.505 32.6701 237.843C32.7477 237.114 32.8888 236.495 33.0858 235.966C30.3993 232.266 28.6838 227.641 27.8074 223.386C26.5789 217.438 26.1027 210.271 29.2887 204.836C32.5104 199.338 38.5783 197.582 44.5346 196.961C59.0018 195.455 73.7544 195.267 88.2883 195.08C88.5861 195.077 88.8854 195.073 89.1817 195.073C90.1403 195.073 91.0896 195.095 92.0233 195.151C91.5564 153.275 90.5032 111.163 94.6308 69.4908C94.9782 65.9754 97.3871 62.9518 101.169 62.9518Z" fill="#FED58A"/>
<path fill-rule="evenodd" clip-rule="evenodd" d="M96.3586 57.2583C96.4439 57.2583 96.5292 57.263 96.6146 57.2738C97.6709 57.415 98.4139 58.3815 98.2758 59.438C93.4084 96.2176 92.5243 135.284 95.5009 182.385C95.7056 185.598 96.1259 192.279 91.6185 195.63C88.9211 197.635 85.459 197.66 82.9307 197.68L58.161 197.866C50.089 197.928 41.7441 197.992 34.7455 202.405C32.2746 203.963 30.3139 206.006 29.0777 208.317C25.6963 214.625 28.1936 220.541 30.8335 226.803C31.9302 229.399 33.0625 232.083 33.7977 234.853C35.3535 240.714 35.0557 246.766 34.7687 252.618C34.6927 254.163 34.6198 255.705 34.578 257.243C34.5299 259.05 34.5438 260.933 35.2713 262.375C35.5815 262.981 36.0593 263.485 36.6471 263.831C36.7014 263.82 36.8457 263.755 36.8612 263.592C37.4041 258.023 38.1501 252.412 39.0777 246.912C39.27 245.775 39.6268 243.657 41.378 242.467C42.2776 241.858 43.2688 241.679 44.1793 241.679C44.9704 241.679 45.7025 241.814 46.2578 241.915C52.7244 243.105 58.645 243.701 64.0862 243.701C70.1992 243.701 75.7071 242.948 80.7048 241.442C81.1097 241.321 81.5254 241.261 81.9395 241.261C82.7756 241.261 83.6023 241.506 84.3112 241.982C85.3706 242.694 86.0546 243.842 86.1756 245.113L87.8074 262.336C87.8849 263.17 88.4898 263.856 89.2142 263.934C89.267 263.938 89.315 263.941 89.3585 263.941C89.6268 263.941 89.7494 263.858 89.844 263.774C90.3294 263.341 90.8274 261.994 90.8491 259.958L90.9592 249.464C90.967 248.935 90.9251 248.302 90.8848 247.629C90.7281 245.019 90.5652 242.322 92.031 240.764C92.6499 240.108 93.5232 239.759 94.4089 239.759C95.2574 239.759 96.1167 240.078 96.7759 240.753C98.7846 242.813 99.0638 247.942 98.8652 255.549L98.8621 255.744C98.7939 258.302 98.7303 260.718 100.069 262.48C100.533 263.093 101.316 263.626 102.127 263.626C102.352 263.626 102.577 263.586 102.799 263.496C104.626 262.755 104.271 259.081 104.034 257.537L103.9 256.679C103.197 252.148 102.468 247.461 103.16 242.741C103.503 240.4 104.181 238.164 104.837 236.001C105.385 234.199 105.901 232.495 106.231 230.75C107.173 225.798 106.57 220.511 105.985 215.398L105.792 213.688C104.105 198.429 103.919 182.886 103.737 167.855L103.067 112.135C102.924 100.409 102.78 88.284 103.708 76.3447C103.787 75.3286 104.648 74.5622 105.636 74.5622C105.684 74.5622 105.734 74.5637 105.783 74.5668C106.847 74.6506 107.643 75.5799 107.561 76.6426C106.644 88.4127 106.79 100.45 106.929 112.088L107.6 167.808C107.779 182.746 107.966 198.192 109.633 213.262L109.824 214.96C110.441 220.359 111.077 225.942 110.029 231.471C109.658 233.42 109.087 235.303 108.533 237.125C107.891 239.244 107.283 241.247 106.984 243.299C106.377 247.444 107.06 251.839 107.719 256.087L107.852 256.949C108.944 264.047 106.067 266.341 104.254 267.078C103.576 267.353 102.864 267.485 102.149 267.485C100.226 267.485 98.2867 266.526 96.9899 264.818C94.8323 261.976 94.9208 258.613 94.9983 255.648L95.0045 255.452C95.1441 250.044 94.9549 246.985 94.657 245.288C94.6617 246.053 94.7098 246.864 94.7424 247.401C94.7874 248.173 94.8308 248.903 94.8246 249.509L94.7129 260.003C94.6958 261.74 94.3717 264.92 92.4111 266.662C91.5642 267.42 90.5202 267.81 89.3678 267.81C89.1785 267.809 88.9908 267.797 88.8032 267.775C86.2485 267.505 84.2119 265.367 83.9606 262.699L82.3304 245.479C82.3211 245.362 82.259 245.257 82.1613 245.192C82.0946 245.148 82.0155 245.125 81.938 245.125C81.8976 245.125 81.8588 245.131 81.8201 245.142C76.4579 246.757 70.5792 247.564 64.0816 247.564C58.403 247.564 52.2513 246.948 45.5598 245.718C45.1875 245.649 44.6105 245.544 44.1498 245.544C43.897 245.544 43.6783 245.576 43.5496 245.663C43.1618 245.927 42.971 247.066 42.8888 247.553C41.9752 252.967 41.2415 258.49 40.7048 263.969C40.5699 265.372 39.7292 266.608 38.4743 267.249C37.8942 267.545 37.2691 267.694 36.6471 267.694C35.9724 267.694 35.3023 267.519 34.7005 267.171C33.4875 266.47 32.4669 265.389 31.8247 264.121C30.6893 261.873 30.6521 259.442 30.7141 257.139C30.7576 255.575 30.8335 254.003 30.9096 252.429C31.195 246.616 31.4648 241.126 30.0627 235.843C29.3972 233.335 28.3176 230.78 27.2753 228.305C24.3965 221.482 21.4199 214.427 25.6699 206.491C27.2226 203.594 29.6485 201.049 32.6856 199.135C40.6148 194.135 49.9215 194.065 58.1315 194.001L82.9012 193.814C85.4884 193.795 87.7577 193.685 89.3135 192.529C91.7968 190.685 91.9023 186.681 91.6448 182.628C88.6527 135.273 89.5431 95.9648 94.4461 58.9307C94.578 57.9611 95.4063 57.2583 96.3586 57.2583Z" fill="black"/>
<path fill-rule="evenodd" clip-rule="evenodd" d="M44.8307 242.405C45.7427 242.407 46.481 243.145 46.481 244.059L46.4733 262.233C46.4733 262.623 46.4702 263.028 46.5322 263.333C46.6579 263.946 47.0953 264.317 47.4505 264.401C47.5653 264.428 47.6894 264.439 47.8197 264.439C48.316 264.439 48.9117 264.267 49.4933 264.1L49.5972 264.069C49.6019 263.94 49.5972 263.777 49.5941 263.684L49.0373 245.278C49.0094 244.366 49.726 243.605 50.638 243.578C51.5454 243.584 52.3117 244.267 52.3396 245.181L52.8965 263.585C52.9104 264.061 52.9306 264.778 52.6421 265.474C52.0976 266.788 50.8692 267.142 50.4069 267.277C49.6577 267.491 48.7751 267.744 47.8181 267.744C47.8103 267.744 47.8026 267.744 47.7964 267.744C47.4257 267.744 47.0565 267.702 46.6936 267.617C44.9966 267.218 43.6627 265.794 43.2951 263.989C43.1679 263.355 43.1694 262.73 43.1694 262.229L43.1772 244.058C43.1787 243.144 43.9186 242.405 44.8307 242.405Z" fill="black"/>
<path fill-rule="evenodd" clip-rule="evenodd" d="M80.0874 195.094C80.9917 195.094 81.7285 195.824 81.7378 196.73C81.7735 200.5 79.9773 204.34 76.8115 207.267C72.1721 211.55 66.6254 213.868 61.3221 213.868C61.3159 213.868 61.3082 213.868 61.302 213.868C59.8408 213.868 58.3874 213.685 56.9728 213.32C52.5258 212.165 46.5199 208.642 43.1571 198.406C42.85 197.531 43.3199 196.574 44.1994 196.285C44.3716 196.229 44.5453 196.203 44.7175 196.203C45.4232 196.203 46.0793 196.66 46.2965 197.376C48.5875 204.355 52.5645 208.763 57.8011 210.122C58.9458 210.419 60.1278 210.565 61.3314 210.565C65.8048 210.565 70.5512 208.55 74.5686 204.839C77.0519 202.545 78.4619 199.602 78.434 196.763C78.4262 195.851 79.1583 195.103 80.0688 195.094H80.0874Z" fill="black"/>
<path fill-rule="evenodd" clip-rule="evenodd" d="M54.5764 227.346C64.1762 227.346 73.3526 233.671 76.6766 242.719C77.0722 243.797 76.2733 244.94 75.1255 244.94C74.4322 244.94 73.8148 244.509 73.5744 243.858C70.753 236.183 62.6468 230.655 54.4818 230.655C54.201 230.655 53.9203 230.662 53.6396 230.676C51.3439 230.79 49.6315 231.354 48.5457 232.35C47.0086 233.757 46.5711 236.065 46.1089 238.505C45.7661 240.313 45.4125 242.182 44.5935 243.916C44.3127 244.514 43.7186 244.863 43.0998 244.863C42.864 244.863 42.6236 244.812 42.3955 244.703C41.5704 244.315 41.2167 243.33 41.606 242.505C42.2451 241.152 42.546 239.568 42.8624 237.889C43.4053 235.026 43.9668 232.064 46.3137 229.912C47.9796 228.384 50.39 227.531 53.4736 227.374C53.8412 227.356 54.2088 227.346 54.5764 227.346Z" fill="black"/>
<path fill-rule="evenodd" clip-rule="evenodd" d="M32.9214 202.591C33.1448 202.591 33.3697 202.636 33.5868 202.731C38.8095 204.979 42.2048 210.925 41.4867 216.564C40.77 222.205 35.9942 227.111 30.3761 227.981C30.2923 227.993 30.207 228 30.1217 228H30.1201C29.2592 227.998 28.5427 227.334 28.476 226.471C28.4108 225.612 29.0189 224.846 29.872 224.714C34.0863 224.062 37.6725 220.379 38.2092 216.149C38.7458 211.917 36.1989 207.453 32.2808 205.767C31.4355 205.412 31.0415 204.434 31.4044 203.592C31.6728 202.965 32.2824 202.591 32.9214 202.591Z" fill="black"/>
<path fill-rule="evenodd" clip-rule="evenodd" d="M86.3136 215.412C85.5426 215.412 84.7857 215.548 84.0877 215.834C81.6881 216.865 80.0424 218.516 79.1955 220.742C78.2524 223.224 78.6511 225.466 78.9039 226.003C79.3491 226.948 80.4845 227.702 81.8696 227.97C82.4016 228.074 82.9554 228.114 83.52 228.114C84.522 228.114 85.5582 227.989 86.5726 227.863C89.1939 227.546 91.8634 227.089 93.185 225.376C94.6694 223.454 93.9435 220.435 92.5087 218.572C90.9715 216.575 88.5704 215.412 86.3136 215.412ZM86.3275 212.104C89.5879 212.104 92.9399 213.718 95.127 216.554C97.3699 219.467 98.3222 224.127 95.8001 227.396C93.5231 230.345 89.422 230.846 86.9712 231.146C85.8932 231.276 84.7237 231.419 83.52 231.419C82.7693 231.419 82.003 231.363 81.2399 231.214C78.8031 230.742 76.8146 229.32 75.9149 227.412C75.1502 225.783 74.9687 222.567 76.1072 219.568C77.269 216.51 79.5848 214.169 82.8003 212.792L82.822 212.782C83.9357 212.325 85.1254 212.104 86.3275 212.104Z" fill="black"/>
<path fill-rule="evenodd" clip-rule="evenodd" d="M104.803 190.775C105.248 190.775 105.692 190.953 106.018 191.307C106.636 191.978 106.593 193.023 105.921 193.642C102.766 196.544 98.3845 202.475 98.9972 205.979C99.6269 209.591 102.937 212.498 106.314 212.498C106.394 212.498 106.475 212.497 106.556 212.494C106.591 212.491 106.627 212.491 106.661 212.491C107.524 212.491 108.242 213.189 108.284 214.064C108.329 214.976 107.626 215.748 106.714 215.793C106.567 215.801 106.424 215.804 106.277 215.804C101.319 215.804 96.6473 211.743 95.7414 206.549C94.7533 200.877 101.138 193.553 103.683 191.211C104.001 190.919 104.403 190.775 104.803 190.775Z" fill="black"/>
<path fill-rule="evenodd" clip-rule="evenodd" d="M92.4528 148.171C92.6033 148.171 92.7568 148.191 92.9088 148.235C97.2798 149.49 100.619 153.526 101.032 158.058C101.445 162.586 98.8899 167.161 94.8151 169.184C94.5871 169.298 94.3374 169.357 94.0815 169.357V169.355C94.0799 169.355 94.0784 169.355 94.0784 169.355C93.3121 169.355 92.6482 168.827 92.4714 168.083C92.2977 167.335 92.6591 166.566 93.3462 166.224C96.1801 164.817 98.029 161.508 97.7421 158.356C97.4536 155.205 95.0385 152.285 91.9967 151.413C91.1204 151.161 90.6116 150.245 90.8644 149.369C91.0723 148.643 91.7346 148.171 92.4528 148.171Z" fill="black"/>
<path fill-rule="evenodd" clip-rule="evenodd" d="M97.4552 118.728V118.729C96.6316 120.389 95.8374 122.096 95.7148 123.832C95.614 125.259 96.1259 127.105 97.4909 127.791C97.7483 127.918 98.0089 127.949 98.1408 127.949C98.1795 127.949 98.2059 127.946 98.2199 127.943C98.2447 127.909 98.3005 127.806 98.3967 127.464C99.2002 124.594 98.8465 121.37 97.4552 118.728ZM97.328 115.065C97.9826 115.065 98.8496 115.306 99.7663 116.222L100.021 116.545C102.121 120.085 102.689 124.392 101.578 128.356C101.415 128.928 101.182 129.592 100.671 130.158C99.9649 130.936 99.0311 131.249 98.0989 131.249C97.3636 131.249 96.63 131.057 96.0111 130.743C93.2765 129.369 92.2372 126.164 92.4187 123.596C92.5987 121.061 93.7185 118.816 94.7066 116.835C95.1828 115.881 95.9847 115.25 96.9061 115.099C97.0348 115.079 97.1744 115.065 97.328 115.065Z" fill="black"/>
<path fill-rule="evenodd" clip-rule="evenodd" d="M94.6291 72.3438C94.8122 72.3438 94.9967 72.3748 95.1782 72.4399C99.0761 73.8082 102.824 80.5318 102.67 84.3621C102.524 87.9784 99.8176 92.0802 95.6978 92.4028C95.6544 92.4044 95.6125 92.406 95.5691 92.406C94.6819 92.4044 93.9559 91.7047 93.9202 90.8158C93.8861 89.93 94.5593 89.176 95.4434 89.1062C97.6817 88.9324 99.2793 86.4456 99.3693 84.2303C99.4701 81.7372 96.4827 76.399 94.0831 75.5566C93.2238 75.2541 92.7709 74.3109 93.0733 73.4514C93.3107 72.7719 93.9497 72.3438 94.6291 72.3438ZM95.5691 92.406H95.5706H95.5691Z" fill="black"/>
<path fill-rule="evenodd" clip-rule="evenodd" d="M12.228 156.542C11.7891 156.542 11.2772 156.642 10.8382 156.988C10.2643 157.439 9.87503 158.207 9.65785 159.313C9.72768 159.142 9.81451 158.978 9.91378 158.823C10.4195 158.052 11.0383 157.552 11.7519 157.335C12.0295 157.251 12.3056 157.209 12.5786 157.209C13.8924 157.209 15.1317 158.162 16.0034 159.893C16.0158 159.918 16.0267 159.94 16.0391 159.965C15.8685 159.271 15.5847 158.596 15.1395 158.002C14.5671 157.243 13.607 156.693 12.636 156.569C12.501 156.552 12.3661 156.542 12.2296 156.542H12.228ZM12.6391 160.722C12.0884 162.121 13.3697 167.585 14.5873 169.659C14.7579 169.02 14.9425 168.392 15.1224 167.777C15.1813 167.577 15.2403 167.382 15.2946 167.186C14.9223 165.236 14.0025 163.271 13.0517 161.381C12.8981 161.078 12.7554 160.864 12.6391 160.722ZM10.0875 167.146C10.1635 167.437 10.2442 167.729 10.3341 168.022C10.5761 168.815 10.8398 169.474 11.1407 170.013C10.7421 169.142 10.3822 168.162 10.0875 167.146ZM12.2342 153.239C12.5041 153.239 12.7787 153.256 13.0548 153.292C14.9053 153.531 16.6704 154.547 17.7764 156.016C19.813 158.719 19.754 162.132 19.3445 164.518C19.177 165.498 18.9366 166.449 18.676 167.379C18.8094 168.412 18.8187 169.467 18.6527 170.545C18.4372 171.964 17.9237 173.089 17.128 173.896C16.7868 176.94 17.0427 180.356 17.9113 184.661C18.6977 188.553 19.6485 191.588 20.9096 194.212C22.6934 197.917 25.2822 201.176 28.4852 203.752C29.0328 204.191 29.2437 204.926 29.0126 205.59C28.7784 206.251 28.1533 206.693 27.4522 206.693C27.0784 206.693 26.7139 206.566 26.4223 206.33C22.8485 203.468 19.9122 199.771 17.9315 195.644C16.551 192.765 15.5148 189.482 14.6741 185.314C14.1421 182.673 13.548 179.056 13.7202 175.238C12.5274 175.23 11.2927 174.822 10.2566 174.02C8.43867 172.613 7.62591 170.472 7.173 168.984C6.33071 166.231 5.99725 163.345 6.18959 160.472C6.37724 157.617 7.22883 155.629 8.78922 154.397C9.74783 153.637 10.9499 153.239 12.2342 153.239Z" fill="black"/>
<path fill-rule="evenodd" clip-rule="evenodd" d="M98.1302 20.5888C98.1364 20.5888 98.1426 20.5888 98.1488 20.5888C99.0624 20.6012 99.793 21.3505 99.7806 22.2627C99.7185 27.3527 101.636 32.4412 105.039 36.2219C105.476 36.7074 105.586 37.404 105.321 37.9997C105.056 38.5954 104.465 38.9802 103.813 38.9802C103.345 38.9802 102.898 38.7816 102.585 38.4341C98.6312 34.0422 96.4022 28.1315 96.4751 22.2208C96.4876 21.3164 97.2259 20.5888 98.1302 20.5888Z" fill="black"/>
<path fill-rule="evenodd" clip-rule="evenodd" d="M84.6183 29.2221C84.9161 29.2221 85.2186 29.3028 85.49 29.4719C90.0224 32.2022 94.2693 35.3826 98.1688 38.96C98.6698 39.4207 98.8373 40.1406 98.5907 40.7766C98.3441 41.4096 97.7329 41.8285 97.0504 41.8285C96.6379 41.8285 96.2392 41.6733 95.9352 41.3925C92.197 37.964 88.1285 34.9202 83.7854 32.3031C82.9896 31.8377 82.726 30.8122 83.2022 30.021C83.5124 29.506 84.0584 29.2221 84.6183 29.2221Z" fill="black"/>
<path fill-rule="evenodd" clip-rule="evenodd" d="M81.6867 24.7589C81.6913 24.7589 81.696 24.7589 81.6991 24.7589C82.7151 24.7589 83.4953 25.2801 83.9947 25.6711C84.7439 26.2574 85.4869 27.224 85.8281 28.3177C86.3695 28.9584 86.7262 29.7279 86.8116 30.4865C86.917 31.4204 86.6115 32.2814 85.9491 32.9113C85.3985 33.4356 84.7098 33.7087 83.9405 33.7087C83.9094 33.7087 83.8784 33.7087 83.8474 33.7071C83.7373 33.704 83.6302 33.6947 83.5216 33.6792C83.1432 33.7986 82.7492 33.8591 82.3521 33.8591C82.1877 33.8591 82.0233 33.8483 81.8604 33.8281C80.6118 33.6761 79.5477 32.9625 79.0141 31.9199C78.6108 31.1303 78.5395 30.2119 78.7923 29.3354C78.7179 29.1026 78.662 28.8622 78.6295 28.6186C78.5193 27.7793 78.7225 26.9059 79.1816 26.1954C79.1971 26.1675 79.2127 26.1427 79.2282 26.1148C79.5756 25.5454 80.0797 25.142 80.6784 24.9466C80.9995 24.824 81.3423 24.7589 81.6867 24.7589Z" fill="black"/>
<path fill-rule="evenodd" clip-rule="evenodd" d="M98.4417 14.4904C98.6418 14.4904 98.8404 14.5137 99.0358 14.5602C99.3817 14.6223 99.709 14.7479 100.008 14.931C100.872 15.4569 101.269 16.3086 101.491 16.9074C101.826 17.7979 101.957 19.0064 101.679 20.1203C101.805 20.9487 101.713 21.7896 101.389 22.4846C100.99 23.3347 100.28 23.9103 99.388 24.1042C99.1847 24.1492 98.9738 24.1709 98.7628 24.1724C98.2091 24.1724 97.6709 24.0096 97.1792 23.6853C97.0877 23.6279 97.0008 23.5628 96.917 23.496C96.3695 23.3595 95.8607 23.1066 95.4202 22.756C94.4352 21.9757 93.8986 20.8122 93.987 19.644C94.0537 18.7613 94.4725 17.9391 95.1425 17.3232C95.1999 17.0843 95.279 16.8516 95.3768 16.6251C95.7211 15.8509 96.3493 15.2118 97.1109 14.8457C97.1388 14.8301 97.1652 14.8162 97.1916 14.8038C97.5949 14.5943 98.0183 14.4904 98.4417 14.4904Z" fill="black"/>
<path fill-rule="evenodd" clip-rule="evenodd" d="M115.485 24.7728C115.599 24.7728 115.713 24.779 115.83 24.7914C119.782 25.2274 120.641 33.1129 120.177 39.7326C120.117 40.5982 119.397 41.2684 118.529 41.27C118.491 41.27 118.453 41.2684 118.412 41.2669C117.502 41.2033 116.816 40.4121 116.88 39.5014C117.362 32.6367 116.197 29.1569 115.518 28.2417C115.099 28.7458 114.12 30.3841 113.407 35.139C113.255 36.1489 113.05 37.5343 111.867 38.448C111.173 38.9864 110.371 39.1446 109.846 39.2501L105.783 40.0537C105.678 40.0754 105.572 40.0847 105.468 40.0847C104.696 40.0847 104.006 39.5402 103.85 38.7537C103.672 37.8632 104.249 36.996 105.139 36.8145L109.202 36.0078C109.38 35.9736 109.751 35.8992 109.842 35.8371C109.98 35.7021 110.087 34.9916 110.153 34.5557C111.13 28.0601 112.912 24.7728 115.485 24.7728Z" fill="black"/>
<path fill-rule="evenodd" clip-rule="evenodd" d="M105.49 36.7788C106.346 36.7788 107.069 37.48 107.111 38.3534C107.156 39.2656 106.453 40.0382 105.541 40.0832C99.2934 40.3873 98.0866 43.5412 97.5081 45.0568C97.2909 45.6231 97.1032 46.1118 96.6302 46.4779C95.9958 46.9712 95.3055 47.1403 94.6292 47.1403C93.6846 47.1403 92.7694 46.8083 92.0823 46.5601C90.9345 46.1459 89.7634 45.9814 88.628 45.9814C86.8876 45.9814 85.2279 46.3693 83.8614 46.8316C85.4451 48.9166 93.0641 53.8794 95.7631 54.0889C96.6457 54.1602 97.3173 54.9158 97.2832 55.8016C97.249 56.6859 96.5216 57.3871 95.6359 57.3902C95.5924 57.3902 95.549 57.3886 95.5056 57.384C92.6221 57.159 80.8911 50.8838 80.3233 46.8285C80.1822 45.8093 80.6025 44.5077 82.2173 43.9057C83.9203 43.2728 86.1571 42.6833 88.6031 42.6833C90.1077 42.6833 91.693 42.9067 93.2797 43.4791C93.5977 43.5955 94.1313 43.7909 94.4307 43.8514C95.138 42.0022 97.0179 37.1884 105.383 36.7834C105.419 36.7803 105.454 36.7788 105.49 36.7788Z" fill="black"/>
<path fill-rule="evenodd" clip-rule="evenodd" d="M118.53 37.964C118.771 37.964 119.016 38.0183 119.245 38.13C124.893 40.8573 131.076 45.5595 137.618 52.1031C143.391 57.8773 147.019 64.8863 147.834 71.8411C148.214 75.0881 148.127 79.8151 145.557 83.8921C142.399 88.9014 136.734 91.0423 131.209 91.0423C128.955 91.0423 126.725 90.687 124.696 90.023C117.246 87.5874 111.508 81.6364 107.342 76.7248C103.111 71.7325 95.7537 62.4274 94.0397 56.1739C93.8102 55.299 94.3283 54.4007 95.1999 54.1602C95.3458 54.1199 95.4931 54.1013 95.6374 54.1013C96.3571 54.1013 97.0194 54.5745 97.2257 55.3005C98.3549 59.4178 102.962 66.4501 109.863 74.5854C113.987 79.4521 119.099 84.7158 125.724 86.8831C127.389 87.4276 129.251 87.7208 131.138 87.7208C135.642 87.7208 140.292 86.05 142.762 82.1297C144.818 78.8703 144.87 74.9438 144.55 72.2258C143.823 66.0049 140.531 59.6893 135.282 54.4395C129.002 48.158 123.123 43.6715 117.809 41.104C116.987 40.7084 116.644 39.7217 117.041 38.8995C117.325 38.3084 117.918 37.964 118.53 37.964Z" fill="black"/>
<path fill-rule="evenodd" clip-rule="evenodd" d="M136.154 56.3989C137.462 56.3989 138.769 56.5214 140.057 56.7759C140.952 56.9527 141.535 57.8215 141.36 58.7166C141.203 59.5047 140.513 60.0508 139.739 60.0508C139.633 60.0508 139.526 60.0399 139.418 60.0197C138.333 59.8056 137.232 59.7017 136.129 59.7017C131.155 59.7017 126.177 61.8162 122.824 65.5146C118.727 70.0338 117.213 76.7263 118.966 82.5672C119.286 83.6283 118.49 84.6957 117.382 84.6957C116.653 84.6941 116.011 84.2163 115.8 83.5197C113.722 76.5914 115.518 68.6546 120.378 63.2962C124.355 58.909 130.252 56.3989 136.154 56.3989Z" fill="black"/>
<path fill-rule="evenodd" clip-rule="evenodd" d="M104.356 50.2694C105.507 50.2694 106.847 51.0699 107.764 52.4274C109.023 54.289 109.011 56.495 107.738 57.3545C107.393 57.5872 106.993 57.6973 106.566 57.6973C105.416 57.6973 104.077 56.8968 103.16 55.5394C101.902 53.6762 101.913 51.4702 103.185 50.6107C103.529 50.3796 103.93 50.2694 104.356 50.2694Z" fill="black"/>
<path fill-rule="evenodd" clip-rule="evenodd" d="M114.567 43.3721C115.718 43.3721 117.058 44.1726 117.975 45.53C119.233 47.3917 119.22 49.5993 117.949 50.4571C117.606 50.6899 117.206 50.8 116.779 50.8C115.627 50.8 114.286 49.9995 113.37 48.6405C112.112 46.7788 112.124 44.5728 113.396 43.7149C113.739 43.4822 114.141 43.3721 114.567 43.3721Z" fill="black"/>
<path fill-rule="evenodd" clip-rule="evenodd" d="M132.154 66.6332C132.576 66.6332 132.999 66.7945 133.32 67.1156L136.726 70.5224C137.198 70.9956 137.339 71.7046 137.083 72.3235C136.827 72.9394 136.225 73.3428 135.557 73.3428C135.119 73.3428 134.699 73.1706 134.389 72.8588L130.986 69.4535C130.34 68.8082 130.34 67.7626 130.986 67.1156C131.308 66.7945 131.73 66.6332 132.154 66.6332Z" fill="black"/>
<path fill-rule="evenodd" clip-rule="evenodd" d="M126.466 71.3136C126.889 71.3136 127.311 71.4749 127.634 71.7992L131.037 75.2044C131.51 75.676 131.653 76.3881 131.397 77.004C131.141 77.623 130.539 78.0248 129.87 78.0248C129.431 78.0248 129.011 77.851 128.702 77.5407L125.298 74.1355C124.652 73.4886 124.652 72.4445 125.298 71.7992C125.62 71.4749 126.044 71.3136 126.466 71.3136Z" fill="black"/>
</svg>
