<svg width="433" height="289" viewBox="0 0 433 289" fill="none" xmlns="http://www.w3.org/2000/svg">
<path fill-rule="evenodd" clip-rule="evenodd" d="M315.223 71.896C313.784 73.1009 312.638 74.3525 311.179 75.1879C309.041 76.4228 306.683 77.3515 304.42 78.4033C301.093 79.961 300.316 81.3024 300.838 84.5244C301.45 88.2757 300.677 91.6941 297.421 94.5C297.025 94.8362 296.687 95.2356 296.307 95.5984C296.397 95.6949 296.476 95.7981 296.538 95.908C297.044 95.7049 297.586 95.5718 298.017 95.3255C300.83 93.7112 303.823 92.9522 307.158 92.9522C307.577 92.9522 307.997 92.9655 308.429 92.9889C308.499 92.9922 308.57 92.9955 308.645 92.9955C310.033 92.9955 311.481 92.3132 312.885 91.8938C314.737 91.3279 315.188 90.2162 314.521 88.6884C313.713 86.861 312.885 85.027 312.242 83.1697C311.159 80.194 311.755 79.4118 315.263 78.5764C315.981 78.4066 316.914 78.1636 317.259 77.6877C318.495 75.9368 316.969 72.5184 315.223 71.896V71.896Z" fill="#FED58A"/>
<path fill-rule="evenodd" clip-rule="evenodd" d="M309.774 65.3221C308.554 68.1747 306.824 70.295 303.984 71.4233C301.591 72.3553 299.1 73.0843 296.538 73.6069C294.114 74.0928 292.564 74.8251 291.721 77.1018C290.838 79.4617 289.041 81.6186 287.406 83.7056C286.778 84.5311 286.542 85.1269 286.601 86.132C286.707 87.9628 286.668 89.9166 286.04 91.6541C285.052 94.4767 285.503 95.7415 288.936 97.0097C289.473 96.6103 289.869 96.1243 290.407 95.9112C296.397 93.5447 298.88 89.6237 297.892 84.085C297.24 80.4403 298.916 77.8307 302.76 76.1365C305.298 75.0081 307.817 73.8332 310.261 72.5684C311.952 71.693 312.548 69.7591 311.72 68.2346C311.234 67.3326 310.567 66.4905 309.774 65.3221V65.3221Z" fill="#FED58A"/>
<path fill-rule="evenodd" clip-rule="evenodd" d="M306.506 57.813C305.424 59.1377 304.561 60.2994 303.588 61.3679C300.461 64.7496 296.181 66.4904 291.364 67.4058C287.817 68.0815 284.73 69.4828 282.353 71.7861C281.611 72.4918 281.042 73.8764 281.344 74.6853C282.298 77.2182 283.682 79.6114 284.997 82.2377C287.405 80.5002 288.614 78.4698 289.151 76.1664C289.814 73.3439 291.901 71.8626 295.138 71.4067C295.985 71.2868 296.844 71.1936 297.676 71.0272C301.681 70.2017 304.816 68.4942 307.044 65.3787C309.001 62.6327 307.275 60.376 306.506 57.813V57.813Z" fill="#FED58A"/>
<path fill-rule="evenodd" clip-rule="evenodd" d="M376.304 10.0721C377.187 12.7316 383.013 17.5214 385.315 18.0672C385.441 17.9474 385.586 17.8276 385.727 17.7044C382.581 15.1548 379.431 12.6251 376.304 10.0721V10.0721Z" fill="#FED58A"/>
<path fill-rule="evenodd" clip-rule="evenodd" d="M363.464 5.08594C365.806 14.0896 380.639 27.4836 391.804 30.7621C390.549 27.8197 389.466 25.2102 388.301 22.6306C388.191 22.371 387.669 22.2178 387.312 22.0647C380.851 19.3087 375.728 15.4476 372.946 9.63603C372.762 9.24992 372.617 8.70404 372.26 8.56425C369.529 7.42256 366.74 6.36742 363.464 5.08594V5.08594Z" fill="#FED58A"/>
<path fill-rule="evenodd" clip-rule="evenodd" d="M333.96 5.81824C324.054 7.09972 308.445 17.6744 307.099 23.8855C317.185 19.109 326.608 13.9065 333.96 5.81824Z" fill="#FED58A"/>
<path fill-rule="evenodd" clip-rule="evenodd" d="M349.279 3.91101C346.258 4.14068 343.363 4.41362 340.448 4.56672C338.565 4.65993 337.377 5.34559 336.518 6.82679C335.76 8.10827 334.556 9.22332 333.422 10.3018C328.389 15.0782 322.093 18.5265 315.82 21.9316C312.78 23.5926 309.327 24.7043 306.059 26.0623C305.82 26.1722 305.483 26.2787 305.389 26.4451C304.22 28.7684 303.105 31.0983 301.917 33.5249C302.164 33.5481 302.419 33.5582 302.686 33.5582C314.258 33.5582 346.345 13.2775 349.279 3.91101V3.91101Z" fill="#FED58A"/>
<path fill-rule="evenodd" clip-rule="evenodd" d="M353.363 4.0542C351.652 6.29097 350.342 8.21485 348.792 9.98563C347.608 11.3437 346.042 12.472 344.787 13.7968C340.719 18.1006 336.137 21.975 330.637 24.9074C324.556 28.1394 318.354 31.2516 311.987 34.0308C309.343 35.1725 306.126 35.5686 303.121 35.8449C301.144 36.0113 300.877 36.6071 301.073 37.9519C301.705 37.8986 302.286 37.8686 302.815 37.8686C305.808 37.8686 307.26 38.7507 308.174 40.9708C308.825 40.2685 309.343 39.3831 310.186 38.9238C311.038 38.4345 312.203 38.3313 313.246 38.1183C324.199 35.795 333.599 30.8521 342.52 25.2868C346.603 22.7372 349.946 19.3987 353.704 16.4696C354.077 16.1733 354.979 15.9237 355.477 15.9237C355.626 15.9237 355.736 15.947 355.787 15.9936C357.623 17.7045 359.62 19.412 360.93 21.4124C363.951 25.9592 368.105 29.4508 373.358 32.0604C377.544 34.1507 381.753 36.1944 385.563 38.0551C387.618 37.3993 389.431 36.8202 391.427 36.1811V33.9976C384.703 30.3961 377.854 27.0277 372.26 22.208C366.846 17.538 362.35 12.3788 360.789 5.76174C360.683 5.3024 359.997 4.67664 359.475 4.61674C357.227 4.3105 354.948 4.17404 353.363 4.0542V4.0542Z" fill="#FED58A"/>
<path fill-rule="evenodd" clip-rule="evenodd" d="M376.304 10.0754C379.439 12.6251 382.581 15.1581 385.727 17.7077C385.586 17.8276 385.441 17.9474 385.315 18.0705C383.013 17.5213 377.187 12.7316 376.304 10.0754V10.0754ZM333.96 5.81826C326.608 13.9066 317.185 19.109 307.099 23.8855C308.444 17.6745 324.054 7.09974 333.96 5.81826ZM363.464 5.08598C366.74 6.36746 369.525 7.4226 372.26 8.56429C372.617 8.70408 372.762 9.24996 372.938 9.63607C375.728 15.4477 380.851 19.3054 387.308 22.0648C387.669 22.2212 388.191 22.371 388.297 22.6306C389.466 25.2102 390.549 27.8198 391.804 30.7622C380.639 27.4836 365.806 14.0896 363.464 5.08598V5.08598ZM349.279 3.91102C346.344 13.2775 314.258 33.5582 302.686 33.5582C302.419 33.5582 302.164 33.5482 301.917 33.5249C303.105 31.1017 304.219 28.7651 305.385 26.4451C305.475 26.2787 305.82 26.1722 306.051 26.0623C309.323 24.7043 312.779 23.5926 315.816 21.9316C322.093 18.5265 328.385 15.0782 333.418 10.3018C334.552 9.22333 335.756 8.10828 336.513 6.8268C337.376 5.3456 338.561 4.65994 340.448 4.56673C343.363 4.41363 346.258 4.14069 349.279 3.91102V3.91102ZM395.825 54.0219C396.484 54.0219 397.218 54.1351 398.03 54.3647C398.748 54.5611 399.575 54.5312 400.348 54.5911C402.506 54.7309 404.663 54.7142 406.786 54.9872C411.442 55.6129 413.957 57.6433 414.412 61.5643C414.859 65.4986 416.872 68.0816 421.238 69.6193C424.835 70.8875 426.797 73.5403 427.048 76.7757C425.036 72.2156 419.025 72.0026 415.648 68.9769C414.086 67.5923 412.254 66.2609 411.301 64.5966C409.516 61.521 407.147 59.4274 403.118 58.7118C401.231 58.3756 399.45 57.6267 397.559 57.2772C395.688 56.941 393.765 56.8811 391.914 56.698C392.722 54.9139 393.989 54.0219 395.825 54.0219V54.0219ZM386.645 65.7283C389.862 71.237 395.829 71.5133 401.674 71.7696C408.975 72.1057 413.722 75.7538 414.314 82.1313C413.541 81.2925 412.662 80.4803 411.995 79.5849C410.022 76.972 407.127 75.8936 403.62 75.847C403.385 75.8404 403.149 75.8404 402.918 75.8404C401.298 75.8404 399.662 75.9235 398.045 76.0434C397.571 76.0767 397.116 76.0967 396.68 76.0967C392.985 76.0967 390.56 74.8052 388.697 71.8028C387.759 70.3083 386.877 68.7672 386.108 67.2128C385.927 66.8267 386.3 66.2475 386.645 65.7283V65.7283ZM306.507 57.8131C307.279 60.376 309.005 62.6328 307.044 65.3788C304.816 68.4943 301.685 70.2051 297.68 71.0273C296.848 71.1937 295.989 71.2869 295.142 71.4101C291.905 71.8661 289.818 73.344 289.155 76.1665C288.614 78.4732 287.409 80.5003 285.001 82.2411C283.686 79.6182 282.306 77.2217 281.352 74.6887C281.046 73.8798 281.623 72.4918 282.357 71.7895C284.734 69.4829 287.821 68.0816 291.368 67.4092C296.185 66.4905 300.465 64.7531 303.592 61.3679C304.565 60.2995 305.428 59.1378 306.507 57.8131V57.8131ZM393.044 58.5187C393.836 58.5187 394.672 58.7051 395.429 58.8815C398.54 59.5805 401.725 60.2662 404.62 61.4112C406.15 62.0236 407.625 63.4117 408.288 64.7531C410.575 69.2998 414.871 71.906 419.798 73.8931C422.568 75.0049 424.102 76.8489 425.177 79.0956C425.357 79.4584 425.322 80.194 425.016 80.4204V80.4237C423.243 81.8151 421.419 83.2164 418.5 83.2164C418.406 83.2164 418.312 83.2164 418.213 83.213C417.943 82.1479 417.711 81.1959 417.46 80.2506C415.664 73.5237 409.889 69.5295 401.674 69.2232C399.462 69.1467 397.194 68.9936 395.091 68.4743C393.44 68.0616 391.78 67.2394 390.525 66.2475C388.348 64.5234 388.403 62.8025 390.576 59.6737C391.196 58.7883 392.086 58.5187 393.044 58.5187V58.5187ZM315.223 71.896C316.969 72.5185 318.495 75.9369 317.259 77.691C316.914 78.1636 315.981 78.4066 315.263 78.5797C311.755 79.4185 311.159 80.1974 312.242 83.1731C312.885 85.0304 313.717 86.8644 314.521 88.6918C315.188 90.2195 314.737 91.3313 312.885 91.8971C311.481 92.3165 310.033 93.0022 308.641 93.0022C308.57 93.0022 308.499 92.9989 308.429 92.9955C307.993 92.9722 307.566 92.9589 307.146 92.9589C303.815 92.9589 300.826 93.7178 298.017 95.3288C297.586 95.5751 297.044 95.7116 296.538 95.9113C296.475 95.8015 296.397 95.6983 296.307 95.6018C296.687 95.2356 297.025 94.8395 297.421 94.5034C300.677 91.7008 301.45 88.279 300.838 84.5278C300.316 81.3091 301.093 79.9677 304.419 78.4133C306.683 77.3582 309.041 76.4262 311.179 75.1913C312.638 74.3525 313.784 73.101 315.223 71.896V71.896ZM309.778 65.3155C310.571 66.4905 311.238 67.3326 311.72 68.2313C312.548 69.7591 311.952 71.693 310.265 72.5684H310.261C307.817 73.8299 305.298 75.0049 302.764 76.1332C298.919 77.8241 297.248 80.4337 297.896 84.0817C298.884 89.6204 296.401 93.5414 290.41 95.9013C289.873 96.1177 289.477 96.607 288.939 97.0031C285.507 95.7382 285.056 94.4701 286.044 91.6508C286.672 89.9067 286.711 87.9595 286.605 86.1255C286.55 85.1169 286.782 84.5245 287.409 83.7023C289.045 81.612 290.842 79.4584 291.725 77.0952C292.568 74.8218 294.118 74.0895 296.542 73.6003C299.104 73.081 301.595 72.3487 303.988 71.4201C306.828 70.2917 308.558 68.1681 309.778 65.3155V65.3155ZM353.363 4.05081C354.947 4.17064 357.227 4.3071 359.475 4.61667C359.996 4.67325 360.683 5.30233 360.789 5.75835C362.35 12.3788 366.846 17.5346 372.26 22.2046C377.85 27.0276 384.703 30.396 391.427 33.9975V36.181C389.431 36.8201 387.618 37.3993 385.562 38.055C381.753 36.1943 377.544 34.1506 373.358 32.0603C368.109 29.4507 363.951 25.9591 360.93 21.4124C359.62 19.4119 357.623 17.7044 355.787 15.9935C355.736 15.9469 355.626 15.9236 355.477 15.9236C354.979 15.9236 354.077 16.1733 353.704 16.4695C349.946 19.402 346.603 22.7371 342.519 25.2868C333.599 30.8521 324.199 35.7949 313.246 38.1182C312.203 38.3346 311.038 38.4344 310.186 38.9237C309.343 39.3831 308.821 40.2685 308.174 40.9707C308.24 40.9674 308.307 40.9674 308.374 40.9674C309.253 40.9674 310.143 41.014 311.03 41.014C311.763 41.014 312.497 40.9841 313.207 40.8642C320.206 39.7026 326.392 36.8967 332.575 33.9975C341.37 29.8934 349.385 25.1037 355.697 17.994C357.929 23.8688 361.813 28.5987 367.497 32.0004C372.927 35.2624 378.517 38.4211 385.547 39.8124C385.731 40.4781 385.888 40.811 386.249 40.811C386.555 40.811 387.014 40.5714 387.775 40.0854C388.807 39.433 389.803 39.1168 390.686 39.1168C392.22 39.1168 393.412 40.0754 393.856 41.9161C394.789 45.6673 394.754 49.3154 391.216 52.321C390.093 53.273 389.109 54.3281 388.265 55.4631C387.724 56.1788 387.402 57.0642 387.202 57.903C386.378 61.2748 384.217 63.9009 381.161 66.0978C375.806 69.9855 369.6 72.1557 362.586 72.6549C362.515 72.6549 362.464 72.7015 362.389 72.7182C359.353 73.0677 359.404 73.0677 359.961 75.8903C360.663 79.4451 361.275 83 361.919 86.5515C362.193 88.0493 362.535 89.4706 364.998 89.5139C361.742 92.3831 358.686 95.1424 355.505 97.8152C354.822 98.3911 353.739 98.9103 352.806 98.9569C350.648 99.0801 348.51 99.2665 346.388 99.4762C337.737 100.421 329.287 102.146 320.872 104.056C314.36 105.534 314.56 106.536 313.807 111.193C312.003 111.359 310.155 111.575 308.319 111.715C308.28 111.718 308.237 111.718 308.189 111.718C307.77 111.718 307.248 111.595 306.985 111.379C305.228 109.805 303.517 108.174 301.595 106.386C303.733 105.517 306.232 104.392 308.841 103.46C317.13 100.528 325.455 97.6754 333.728 94.7497C334.187 94.5899 334.579 94.5067 334.944 94.5067C335.552 94.5067 336.086 94.7364 336.729 95.219C338.389 96.4805 340.225 97.5589 342.198 98.441C342.955 98.7772 343.873 98.867 344.83 98.867C345.309 98.867 345.795 98.8437 346.274 98.8205C344.406 95.8015 340.507 95.0859 338.4 93.2984C338.871 87.1373 339.299 81.2791 339.75 75.2079C337.592 74.8984 335.686 74.7785 333.869 74.3525C329.268 73.2375 324.395 72.5052 320.221 70.6578C314.019 67.9418 311.52 62.7726 310.351 57.0941C310.226 56.4717 309.221 55.786 308.429 55.4631C301.108 52.5008 299.327 48.3368 301.128 42.4054C301.34 41.6564 302.313 40.6479 303.09 40.558C303.125 40.5514 303.16 40.5514 303.196 40.5514C303.929 40.5514 304.8 41.4035 305.624 41.8395C306.287 42.189 306.954 42.5252 307.621 42.8614C307.801 42.2356 307.978 41.5932 308.174 40.9707C307.26 38.754 305.812 37.8686 302.823 37.8686C302.289 37.8686 301.709 37.8952 301.073 37.9518C300.877 36.6071 301.144 36.0113 303.121 35.8448C306.126 35.5686 309.343 35.1725 311.987 34.0308C318.354 31.2515 324.556 28.1393 330.637 24.9073C336.137 21.9749 340.719 18.1005 344.787 13.7967C346.042 12.472 347.608 11.3436 348.792 9.98558C350.342 8.2148 351.652 6.29093 353.363 4.05083V4.05081ZM365.873 90.7222C374.433 92.4763 383.138 93.7877 391.443 96.1077C396.912 97.6322 401.855 100.548 404.338 105.474C404.734 106.253 405.311 106.952 405.848 107.794C404.926 108.037 404.193 108.233 402.827 108.616C404.479 109.748 405.668 110.693 406.998 111.409C411.148 113.669 413.686 117.051 416.075 120.546C416.491 121.125 416.581 121.89 416.888 122.806C415.899 122.546 415.252 122.393 414.494 122.197C414.247 122.896 414.012 123.521 413.745 124.24C414.71 124.71 415.613 125.156 416.742 125.688C416.17 126.284 415.809 127 415.181 127.246C412.337 128.371 409.43 129.293 406.409 129.293C404.938 129.293 403.44 129.077 401.91 128.554C397.218 126.97 395.417 124.374 395.723 119.754C395.943 116.062 398.151 113.073 400.65 110.204C401.007 109.791 401.082 109.209 401.294 108.723C401.152 108.693 401.007 108.663 400.846 108.616C400.399 108.49 399.921 108.33 399.536 108.33C399.411 108.33 399.293 108.347 399.191 108.39C398.257 108.753 397.398 109.412 396.786 110.111C395.688 111.379 394.789 112.784 393.746 114.215C392.02 113.802 390.184 113.606 388.638 112.933C387.865 112.597 387.183 111.439 387.147 110.63C387.041 108.024 387.289 105.398 387.289 102.775C387.289 99.8589 386.21 98.5941 382.848 98.441C380.918 98.3478 378.98 98.3212 377.042 98.3212C374.17 98.3212 371.295 98.3811 368.427 98.3811H359.867C362.044 95.9379 365.732 94.3203 365.873 90.7222V90.7222ZM297.284 109.319C302.125 109.319 304.529 112.238 304.906 116.595C304.961 117.144 304.922 117.693 304.922 118.242C304.847 124.117 302.583 127 296.577 128.847C295.546 129.167 294.632 129.326 293.823 129.326C291.658 129.326 290.25 128.175 289.371 125.811C287.484 120.669 288.363 115.789 291.454 111.226C292.046 110.357 293.686 109.715 294.961 109.515C295.789 109.382 296.566 109.319 297.284 109.319V109.319ZM113.049 160.488C113.1 160.594 113.17 160.714 113.229 160.837H113.225C113.025 160.961 112.848 161.114 112.617 161.204C110.655 161.949 110.189 163.048 110.514 164.958C110.942 167.578 110.62 170.28 110.62 173.316C109.279 173.316 107.658 173.572 106.152 173.572C105.195 173.572 104.285 173.469 103.516 173.136C101.554 172.281 98.6237 173.103 97.435 170.523C96.521 168.543 94.6144 166.909 92.9785 164.915C96.7014 164.256 100.099 163.75 103.41 163.018C106.662 162.289 109.847 161.343 113.049 160.488V160.488ZM111.515 176.159C112.04 178.615 112.617 181.268 113.205 184.09H106.803C105.473 181.464 104.163 178.888 102.778 176.159H111.515ZM86.435 177.547C91.7585 178.442 96.9329 179.284 102.076 180.229C102.578 180.319 103.08 180.928 103.32 181.404C103.716 182.23 103.928 183.112 104.434 184.623C99.0356 183.798 94.0574 183.308 89.2557 182.21C85.7485 181.404 85.8231 180.978 86.435 177.547V177.547ZM214.909 175.06C215.788 177.866 218.126 179.084 221.648 179.254C222.892 179.314 224.183 180.386 225.23 181.191C226.419 182.11 227.368 183.252 228.663 184.533C227.188 187.173 224.453 189.216 221.111 190.714C219.781 191.31 218.381 191.769 216.976 192.225C216.788 192.282 216.556 192.312 216.325 192.312C216.066 192.312 215.807 192.275 215.607 192.195C214.603 191.749 213.504 191.34 212.696 190.684C210.013 188.547 206.961 187.233 203.293 187.113C202.139 187.07 201.763 186.61 201.892 185.711C202.249 183.009 203.073 180.799 206.58 179.577C209.495 178.552 211.994 176.675 214.909 175.06V175.06ZM201.7 189.772C201.743 189.772 201.79 189.776 201.833 189.779C203.917 189.962 206.153 190.222 207.985 191.017C211.111 192.388 213.991 194.189 217.333 196.003C215.858 196.842 214.352 197.697 212.661 198.673C211.833 195.927 209.601 194.832 207.028 194.006C204.368 193.181 201.763 192.299 199.119 191.443C199.08 191.214 199.048 191.001 199.013 190.787C199.899 190.438 200.837 189.772 201.7 189.772V189.772ZM381.663 101.097C383.978 101.097 384.103 101.48 384.182 103.95C384.256 106.33 384.201 108.693 384.201 111.163C382.848 111.302 381.863 111.332 380.929 111.512C373.633 112.977 370 117.527 367.984 123.109C364.425 132.981 362.825 143.156 363.292 153.438C363.849 165.551 365.108 177.636 366.061 189.732C366.308 192.768 366.614 195.807 366.869 198.856C366.92 199.315 366.779 199.788 366.744 200.247C366.524 200.337 366.328 200.427 366.112 200.52C362.068 196.732 357.894 193.058 354.03 189.137C350.738 185.781 347.914 182.09 344.661 178.688C343.893 177.876 343.21 177.483 342.574 177.483C341.806 177.483 341.103 178.053 340.397 179.158C339.448 180.655 338.671 182.243 337.792 183.771C334.697 189.107 331.59 194.449 327.977 199.804C326.753 196.266 325.509 192.725 324.321 189.17C317.456 168.653 316.29 147.64 316.879 126.48C317.02 121.175 317.31 115.866 317.365 110.57C317.381 108.646 318.264 107.591 320.37 107.135C331.5 104.649 342.625 102.226 354.186 101.843C363.017 101.57 371.848 101.31 380.694 101.114C381.055 101.104 381.377 101.097 381.663 101.097V101.097ZM65.4902 172.477C65.9413 172.477 66.4003 172.534 66.8711 172.647C70.3939 173.469 73.8658 174.401 77.318 175.423C79.6012 176.109 81.7941 177.007 84.7442 178.079C81.7391 186.454 78.7538 194.878 75.6429 203.556C71.1511 201.968 66.6553 200.856 62.752 198.902C55.9691 195.517 54.0861 193.197 55.1257 186.377C55.8632 181.587 57.9345 177.21 62.1399 173.729C63.1521 172.883 64.2819 172.477 65.4902 172.477V172.477ZM189.48 160.305C191.532 163.174 188.723 165.434 190.127 167.601C193.94 166.04 197.463 164.439 201.135 163.127C202.85 162.518 204.576 162.166 206.286 162.166C208.299 162.166 210.291 162.655 212.225 163.787C214.403 165.035 215.823 167.185 214.85 169.262H214.854C213.975 171.123 212.712 173.06 211.021 174.421C206.384 178.142 200.539 179.517 194.262 179.833C190.83 180.003 187.413 180.279 183.98 180.569C183.442 180.596 182.827 180.779 182.411 181.072C176.212 185.372 168.982 188.181 161.737 190.771C152.82 193.976 143.718 196.905 134.441 199.195C125.288 201.455 115.9 203.239 106.481 204.335C103.68 204.667 100.844 204.771 97.9882 204.771C93.8024 204.771 89.5812 204.551 85.3876 204.534C83.0691 204.521 80.727 204.305 78.4086 204.185C81.0722 197.045 83.6262 190.162 86.2153 183.222C91.3231 186.121 97.4704 186.074 103.547 186.457C106.638 186.647 109.71 186.74 112.762 186.74C131.479 186.74 149.517 183.265 167.095 177.547C170.708 176.388 174.251 174.89 177.432 173.076C179.555 171.858 181.081 169.858 182.756 168.12C184.447 166.376 185.992 164.549 187.577 162.735C188.26 161.956 188.852 161.117 189.48 160.305V160.305ZM57.5697 200.154C61.6535 201.545 65.6825 203.04 69.8172 204.305C72.3868 205.117 75.4781 204.428 77.7652 206.398C78.3419 206.897 79.6522 206.927 80.6446 206.944C88.8045 207.081 96.9839 207.17 105.152 207.28H107.364V212.436C106.544 212.656 104.897 212.756 102.672 212.756C90.7071 212.756 62.0419 209.897 55.4316 207.706C56.2045 205.024 56.942 202.427 57.5697 200.154V200.154ZM54.5372 209.627C59.1035 212.057 64.1564 212.083 69.1032 212.589C78.0751 213.521 87.0117 214.633 95.9992 215.425C97.4272 215.552 98.8669 215.592 100.322 215.592C102.696 215.592 105.108 215.488 107.584 215.488C107.831 217.925 108.066 220.202 108.337 222.868C105.913 222.898 103.496 222.914 101.083 222.914C84.1126 222.914 67.3536 222.096 50.5044 218.877C51.8186 215.851 53.1524 212.799 54.5372 209.627V209.627ZM49.5786 221.127C66.8279 225.191 84.3519 225.807 102.068 225.807C104.312 225.807 106.556 225.797 108.804 225.784C109.004 227.175 109.2 228.666 109.4 230.164C109.577 231.598 109.722 233.046 109.879 234.498H109.883C104.457 235.18 99.0631 235.45 93.6886 235.45C77.8319 235.45 62.1125 233.096 46.0126 232.021C47.3307 228.04 48.4056 224.712 49.5786 221.127V221.127ZM199.484 194.898C199.64 194.898 199.786 194.915 199.907 194.951C202.375 195.624 204.799 196.373 207.177 197.225C209.24 197.987 209.676 199.069 208.652 200.763C207.843 202.121 206.82 203.373 205.937 204.701C201.371 211.674 197.106 218.814 191.383 225.158C186.51 230.573 181.422 235.852 176.189 241.012C174.251 242.915 171.717 244.427 169.249 245.891C168.578 246.297 167.582 246.507 166.652 246.507C166.291 246.507 165.938 246.474 165.62 246.41C165.024 246.304 164.757 244.959 164.502 244.46C165.314 239.181 166.84 234.451 169.645 230.177C174.588 222.625 179.574 215.046 185.235 207.889C188.852 203.326 193.709 199.468 198.056 195.351C198.346 195.078 198.974 194.898 199.484 194.898V194.898ZM45.0985 234.681C61.3946 236.425 77.5298 238.642 93.8298 238.642C99.2004 238.642 104.591 238.402 110.008 237.823V248.011H110.004C105.995 248.228 102.221 248.607 98.4276 248.607C91.6095 248.607 84.7795 248.531 77.981 248.228C68.6286 247.815 59.3704 246.793 50.3631 244.55C48.1153 243.984 45.9576 243.102 43.8707 242.186C43.3489 241.957 42.9212 240.948 43.0625 240.416C43.6548 238.355 44.4865 236.342 45.0985 234.681V234.681ZM55.5807 293.336C56.4712 293.336 57.3618 293.532 58.1659 293.935C59.1702 294.438 59.5665 295.02 58.9937 296.042C56.279 300.679 53.6545 305.332 50.9202 310.122C47.57 309.662 46.8403 309.023 46.8168 306.231C46.7658 302.067 48.3114 298.329 51.4067 295.077C52.4973 293.928 54.039 293.336 55.5807 293.336V293.336ZM105.818 299.257C104.791 305.805 103.818 312.182 102.794 318.772C98.7335 317.308 96.3405 314.169 96.521 311.007C96.8976 305.042 100.079 300.818 105.818 299.257V299.257ZM352.872 339.343C363.319 339.343 374.747 340.564 383.879 343.017H327.706C332.9 340.571 342.39 339.343 352.872 339.343V339.343ZM196.62 339.356C207.122 339.356 216.576 340.591 221.723 343.044H165.369C174.671 340.581 186.165 339.356 196.62 339.356V339.356ZM44.8788 245.954C59.5821 250.135 74.8269 251.639 90.358 251.639C96.7446 251.639 103.182 251.387 109.647 250.957C109.647 252.954 109.683 254.985 109.592 257.015C109.577 257.351 108.965 257.841 108.529 257.93C106.124 258.413 103.779 258.982 101.311 258.982C100.111 258.982 98.8747 258.846 97.5959 258.496C96.8466 258.293 96.0385 258.22 95.2068 258.22C93.4885 258.22 91.6486 258.53 89.9186 258.633C87.1333 258.782 84.3088 258.862 81.5784 259.318C80.3544 259.531 78.946 260.4 78.3027 261.315C76.8315 263.389 75.7841 265.679 74.5444 267.876C72.6575 271.218 70.7509 274.56 68.8796 277.915C66.5415 282.095 64.2387 286.289 61.9203 290.487C61.6142 291.036 61.3475 291.588 61.0964 292.044C59.5665 291.585 58.2013 291.006 56.7616 290.793C56.2045 290.713 55.6671 290.673 55.1452 290.673C52.3914 290.673 50.12 291.768 48.2957 293.782C45.0593 297.337 43.4195 301.364 43.2038 305.805C43.0076 310.062 44.5846 311.846 49.6414 313.157C43.3685 324.175 37.1113 335.142 30.709 346.373C21.7215 343.487 12.2985 342.864 4.79774 338.224C18.2654 307.209 31.627 276.45 44.8788 245.954V245.954ZM391.855 345.081C398.81 345.081 404.169 348.043 409.767 351.099H303.411C309.751 347.464 316.628 345.314 324.438 345.314C324.65 345.314 324.862 345.317 325.074 345.321C337.883 345.517 350.664 345.53 363.464 345.53C367.556 345.53 371.663 345.594 375.767 345.594C380.518 345.594 385.26 345.51 389.972 345.151C390.611 345.104 391.239 345.081 391.855 345.081V345.081ZM157.276 345.101C157.794 345.101 158.32 345.118 158.857 345.151C163.957 345.474 169.084 345.534 174.212 345.534C177.429 345.534 180.645 345.51 183.858 345.51C184.721 345.51 185.581 345.514 186.444 345.517C201.473 345.607 216.49 345.624 231.503 345.713C232.617 345.73 233.786 346.036 234.81 346.416C238.643 347.85 242.436 349.375 246.23 350.859C246.144 350.936 246.069 351.016 245.994 351.099L139.603 351.102C145.107 348.107 150.376 345.101 157.276 345.101V345.101ZM109.541 260.966C108.427 272.712 107.305 284.552 106.191 296.315C97.7802 298.102 93.4454 302.786 92.9628 310.381C92.6176 315.737 95.8737 319.871 101.825 321.748C99.7614 332.503 97.69 343.257 95.5363 354.394C89.8833 354.654 83.8458 354.93 77.7848 355.22C77.722 355.223 77.6593 355.226 77.5965 355.226C76.349 355.226 75.9841 354.65 75.9527 353.542C75.482 334.699 75.7174 315.843 77.0826 297.017C77.7456 287.711 78.232 278.391 78.8441 269.068C78.9186 267.986 79.0598 266.854 79.4913 265.846C80.4486 263.592 81.5195 261.515 84.6422 261.515C85.0894 261.515 85.5837 261.558 86.1251 261.652C86.4664 261.712 86.8195 261.738 87.1725 261.738C88.6986 261.738 90.3226 261.282 91.8997 261.259C92.0566 261.252 92.2136 261.252 92.3705 261.252C94.1162 261.252 95.8816 261.459 97.643 261.459C97.7881 261.459 97.9371 261.459 98.0823 261.455C101.79 261.362 105.493 261.149 109.541 260.966V260.966ZM412.431 351.741C414.157 352.687 416.35 353.912 418.547 355.116C418.472 355.313 418.417 355.496 418.347 355.696C375.355 357.693 332.288 358.149 289.277 359.474C289.167 359.277 289.077 359.064 288.971 358.864C292.619 356.867 296.271 354.884 299.312 353.219C301.269 353.585 302.58 354.041 303.898 354.041C315.981 353.908 328.044 353.632 340.111 353.542C358.36 353.402 376.61 353.436 394.864 353.312C399.666 353.282 404.483 352.98 409.281 352.72C410.164 352.673 411.027 352.184 412.431 351.741V351.741ZM136.633 351.894C138.87 352.321 140.447 352.886 142.032 352.903C157.767 353.133 173.498 353.253 189.233 353.422C207.769 353.619 226.305 353.848 244.845 354.015C244.873 354.015 244.9 354.018 244.924 354.018C246.426 354.018 247.929 353.615 249.427 353.402C249.451 353.236 249.451 353.066 249.466 352.883C253.115 354.884 256.747 356.867 260.4 358.864C260.329 359.081 260.255 359.311 260.184 359.52C217.153 358.335 174.125 357.157 131.098 355.979C131.008 355.696 130.937 355.403 130.847 355.116C132.985 353.938 135.107 352.75 136.633 351.894V351.894ZM116.014 205.966C116.391 211.611 116.983 217.056 117.109 222.518C117.454 238.126 117.776 253.733 117.791 269.357C117.827 298.452 117.611 327.53 117.505 356.624C117.505 357.952 117.215 359.444 119.412 360.039C112.692 359.031 105.983 358.026 98.6983 356.927C100.369 348.063 102.06 339.429 103.606 330.778C105.622 319.521 107.87 308.291 109.341 296.971C110.926 284.931 111.734 272.806 112.813 260.72C113.08 257.807 113.154 254.895 113.209 251.996C113.3 246.883 113.606 241.757 113.3 236.678C112.974 231.382 112.001 226.136 111.358 220.857C110.801 216.281 110.279 211.674 109.722 206.927C111.809 206.605 113.676 206.318 116.014 205.966V205.966ZM200.335 113.053C211.986 113.053 223.637 113.453 235.265 114.291C245.292 115.02 254.915 117.191 264.374 119.997C266.798 120.732 269.246 121.448 271.137 122.014C270.717 134.752 270.074 147.171 269.984 159.586C269.897 171.306 270.486 183.022 270.596 194.722C270.756 211.015 270.576 227.311 270.882 243.604C271.188 260.067 272.086 276.514 272.408 292.976C272.679 307.192 272.482 321.412 272.573 335.631C272.624 344.482 272.788 353.312 272.914 362.16V364.067C264.158 356.791 254.303 351.652 244.319 346.675C241.93 345.484 239.537 344.189 236.968 343.334C234.053 342.375 230.887 341.929 227.906 341.107C218.161 338.391 208.251 336.48 197.965 336.087C196.887 336.047 195.812 336.027 194.741 336.027C185.71 336.027 176.891 337.412 168.115 339.183C162.164 340.375 156.103 341.243 150.333 342.888C141.773 345.331 134.04 349.208 126.991 354.028C125.269 355.203 123.452 356.288 121.095 357.779V355.569C121.024 339.889 120.934 324.205 120.934 308.521C120.934 307.785 121.71 307.086 122.013 306.324C122.158 306.001 121.997 305.588 121.585 305.252V298.359C121.495 276.77 121.475 255.168 121.259 233.566C121.204 226.805 120.738 220.032 120.165 213.288C119.949 210.712 118.957 208.179 118.258 205.386C122.609 204.471 127.105 203.692 131.49 202.577C134.386 201.832 137.281 201.099 140.176 200.337C144.421 199.209 148.626 198.017 152.761 196.676C159.324 194.539 165.703 191.992 172.015 189.353C176.366 187.552 180.83 185.738 183.941 182.336C184.117 182.133 184.529 181.984 184.835 181.984C187.444 181.967 190.053 181.964 192.654 181.964C194.96 181.964 197.263 181.967 199.546 181.967C199.331 183.525 199.115 185.292 198.809 187.063C198.754 187.366 198.377 187.659 198.071 187.885C195.502 189.746 195.157 190.861 196.31 193.484C193.454 195.957 190.535 198.32 187.86 200.853C180.681 207.593 175.31 215.379 170.022 223.221C166.209 228.862 162.827 234.631 161.462 241.081C161.14 242.623 161.101 244.24 161.231 245.815C161.415 248.204 163.031 249.702 165.687 249.702C165.895 249.702 166.111 249.692 166.334 249.672C168.237 249.519 170.399 249.063 171.893 248.105C178.511 243.861 184.247 238.841 188.954 233.01C193.219 227.737 197.781 222.625 201.79 217.223C205.462 212.28 208.554 207.031 211.861 201.908C212.292 201.219 212.473 200.424 212.779 199.681C213.202 199.778 213.63 199.824 214.057 199.824C217.361 199.824 220.515 197.052 219.86 194.688C222.935 192.874 226.262 191.486 228.671 189.353C235.018 183.764 236.87 177.024 234.912 169.395C234.284 167.002 234.39 164.436 234.481 161.966C234.571 159.569 234.014 158.581 231.876 158.581C231.495 158.581 231.064 158.611 230.577 158.671C227.898 158.99 225.183 159.373 222.598 160.042C219.86 160.758 218.494 162.971 218.942 165.564C221.911 161.779 226.517 161.766 230.703 161.277C231.154 166.389 231.676 171.409 231.982 176.428C232.072 177.723 231.64 179.098 231.189 180.349C230.915 181.098 230.487 181.468 229.977 181.468C229.541 181.468 229.051 181.201 228.545 180.685C228.317 180.446 228.121 180.193 227.953 179.923C226.572 177.603 224.198 176.701 221.284 176.518C218.369 176.335 218.337 175.42 217.345 173.223C216.376 171.043 217.902 169.472 217.726 167.564C217.647 166.739 217.396 165.933 216.972 165.184C215.203 161.996 210.684 159.962 206.47 159.962C205.584 159.962 204.709 160.052 203.877 160.242C200.304 161.05 196.871 162.269 193.164 163.37C193.164 162.592 193.234 161.66 193.148 160.731C192.975 159.193 191.928 158.268 190.512 158.268C190.002 158.268 189.449 158.388 188.868 158.641C187.628 159.19 186.42 159.999 185.557 160.927C182.627 164.073 179.857 167.338 177.001 170.557C176.675 170.923 176.244 171.292 175.761 171.489C165.42 175.822 154.687 179.224 143.067 181.175C143.267 171.366 141.431 161.616 143.479 151.428C160.332 150.845 177.181 149.96 194.007 149.777C196.255 149.757 198.507 149.747 200.755 149.747C215.301 149.747 229.875 150.156 244.61 150.343C244.406 153.029 244.123 155.742 244.033 158.458C243.707 167.554 243.456 176.628 243.166 185.722C242.935 193.657 242.358 201.589 242.487 209.507C242.719 222.309 243.456 235.107 243.853 247.905C243.958 251.57 243.653 255.214 243.547 258.876C243.531 259.362 243.331 259.914 243.531 260.327C243.868 261.013 244.445 261.625 244.916 262.264C245.418 261.685 246.297 261.119 246.336 260.51C246.658 255.291 247.25 250.028 246.963 244.826C245.994 227.145 245.563 209.46 246.481 191.766C247.003 181.711 246.877 171.642 247.109 161.573C247.16 159.206 247.556 156.827 247.591 154.46C247.611 152.416 247.375 150.373 247.089 148.362C247.034 148.039 246.045 147.583 245.469 147.563C233.049 147.23 220.621 146.725 208.2 146.695C208.028 146.695 207.859 146.695 207.69 146.695C196.298 146.695 184.89 147.174 173.494 147.46C166.88 147.613 160.262 147.673 153.659 148.039C149.76 148.252 145.896 148.938 142.008 149.457C141.722 149.487 141.31 149.763 141.216 149.993C140.498 152.037 139.258 154.11 139.278 156.171C139.317 164.149 139.78 172.128 140.07 180.123C140.086 180.655 140.07 181.191 140.07 182.197C132.408 182.959 124.821 183.721 116.622 184.533C116.226 180.898 115.916 177.636 115.489 174.371C115.379 173.639 114.716 172.967 114.571 172.238C114.214 170.374 113.998 168.5 113.766 166.622C113.653 165.601 113.802 164.515 113.527 163.527C113.26 162.472 113.421 161.799 114.61 161.3C115.508 160.901 116.622 160.428 115.343 159.513C118.564 158.045 121.73 156.857 124.57 155.256C130.184 152.05 134.189 147.55 137.179 142.517C138.234 140.73 138.254 138.35 138.183 136.263C138.038 132.815 137.481 129.366 137.014 125.918C136.888 124.989 137.265 124.59 138.203 124.087C153.518 115.849 170.654 113.606 188.295 113.193C192.308 113.1 196.322 113.053 200.335 113.053V113.053ZM313.909 114.321C313.909 115.896 313.929 117.45 313.909 119.018C313.803 128.098 313.356 137.192 313.642 146.269C314.239 165.081 317.707 183.511 325.152 201.316C325.439 202.015 325.623 202.78 326.106 203.359C326.714 204.088 327.581 204.671 328.314 205.313C329.071 204.654 330.095 204.088 330.527 203.313C334.505 196.339 338.365 189.336 342.268 182.35C342.445 182.027 342.716 181.754 343.132 181.191C344.246 182.44 345.375 183.461 346.191 184.64C350.793 191.38 357.356 196.709 363.645 202.228C364.076 202.627 364.618 202.947 365.139 203.283C366.12 203.905 367.026 204.215 367.78 204.215C369.102 204.215 369.969 203.273 370.016 201.422C370.122 197.484 369.796 193.517 369.455 189.583C368.717 180.885 367.623 172.204 367.117 163.507C366.74 156.75 366.846 149.976 367.117 143.216C367.383 136.11 369.223 129.15 371.938 122.47C372.997 119.877 375.692 117.667 378.015 115.573C378.784 114.881 379.796 114.415 380.973 114.415C381.667 114.415 382.42 114.574 383.213 114.95C384.845 115.713 386.951 115.726 388.838 116.122C390.007 116.365 391.157 116.701 392.506 117.037C391.392 124.024 393.295 129.639 402.141 131.883C403.396 132.199 404.769 132.345 406.186 132.345C411.411 132.345 417.26 130.328 420.018 127.246C421.328 127.932 422.607 128.724 423.992 129.29C425.412 129.856 426.938 130.205 428.794 130.754V132.811C428.794 157.04 428.935 181.268 428.754 205.496C428.613 226.409 428.021 247.326 427.762 268.245C427.621 279.702 427.801 291.176 427.837 302.646C427.837 303.501 427.997 304.34 428.084 305.222H427.079C427.044 305.405 426.919 305.665 427.009 305.741C429.002 307.329 428.429 309.389 428.413 311.343C428.362 325.746 428.323 340.148 428.284 354.551V357.536C426.754 356.714 425.408 356.162 424.31 355.37C412.839 347.038 399.603 342.095 384.75 339.792C375.563 338.377 366.536 336.3 357.133 336.074C356.34 336.054 355.556 336.044 354.767 336.044C344.481 336.044 334.501 337.702 324.674 340.238C320.488 341.32 316.098 341.976 312.124 343.453C307.581 345.164 303.356 347.514 299.057 349.711C291.144 353.782 283.486 358.192 276.472 364.067V361.72C276.562 341.779 276.743 321.825 276.688 301.867C276.672 293.399 276.205 284.931 275.884 276.447C275.519 266.638 274.821 256.849 274.785 247.033C274.766 237.883 275.503 228.743 275.774 219.586C276.096 207.886 276.311 196.17 276.492 184.453C276.664 174.518 276.782 164.575 276.833 154.626C276.888 144.864 276.833 135.115 276.817 125.349C276.817 122.892 277.284 122.27 279.96 121.458C281.509 120.988 283.071 120.589 284.581 120.163C285.177 122.683 285.499 125.043 286.331 127.303C287.535 130.658 290.155 132.375 293.725 132.375C294.683 132.375 295.71 132.249 296.793 132.002C304.219 130.292 308.248 125.871 308.339 119.341V119.158C308.39 114.777 308.39 114.777 313.909 114.321V114.321ZM5.97069 342.511C10.4978 343.886 15.3349 345.334 20.1366 346.829C20.5681 346.952 21.0702 347.255 21.235 347.591C22.9611 351.146 26.3192 353.589 29.3791 356.212C32.9922 359.324 36.6758 362.376 40.3478 365.458C40.2222 365.655 40.0967 365.838 39.9672 366.034C36.6406 364.999 33.2982 363.994 30.0108 362.909C25.9269 361.567 21.7921 360.312 17.8377 358.728C13.3263 356.914 8.99139 354.794 4.57018 352.793C3.25601 352.214 3.11085 351.392 3.52275 350.2C4.47998 347.547 5.23314 344.845 5.97069 342.511V342.511ZM420.701 357.5C420.803 357.5 420.905 357.5 421.007 357.506C422.121 357.57 423.2 357.996 423.003 359.32V359.324C422.929 359.753 423.168 360.209 423.274 360.742C375.386 363.211 327.13 363.088 278.995 366.49C281.097 364.769 282.372 362.522 286.005 362.449C303.607 362.113 321.21 361.501 338.816 361.045C354.206 360.632 369.58 360.449 384.954 359.87C395.723 359.474 406.46 358.572 417.193 357.873C418.37 357.799 419.539 357.5 420.701 357.5V357.5ZM128.25 357.543C128.348 357.543 128.446 357.546 128.544 357.553C136.206 358.089 143.828 358.911 151.49 359.217C165.424 359.766 179.378 360.009 193.313 360.396C215.301 360.991 237.293 361.597 259.286 362.21C261.208 362.253 263.15 362.313 265.072 362.526C265.774 362.602 266.441 363.092 267.033 363.504C268.242 364.343 269.372 365.242 270.541 366.131C270.45 366.357 270.38 366.57 270.29 366.796C222.245 363.092 174 363.211 126.12 360.745C126.226 360.226 126.442 359.766 126.387 359.34C126.269 358.069 127.077 357.543 128.25 357.543V357.543ZM90.6169 357.27C92.1429 357.27 93.4689 357.613 95.0812 358.289C98.659 359.78 102.833 360.332 106.827 361.031C111.946 361.93 117.124 362.572 122.291 363.351C122.97 363.461 123.637 363.671 124.304 363.827C124.304 364.007 124.28 364.177 124.28 364.36C119.106 364.786 113.923 365.275 108.725 365.608C101.068 366.097 93.41 366.493 85.7445 366.923C85.4267 366.939 85.1051 366.949 84.7834 366.949C84.3127 366.949 83.8419 366.929 83.3751 366.893C78.6596 366.57 78.0359 366.004 77.8555 362.083C77.7809 360.802 77.6005 359.537 77.4945 358.345C81.4528 358.029 85.3562 357.813 89.2164 357.357C89.7107 357.297 90.1697 357.27 90.6169 357.27V357.27ZM350.271 0.971924C345.113 0.971924 339.954 1.54112 334.827 2.48973C326.737 4.00088 319.492 7.27948 313.36 11.8262C304.941 18.0506 300.536 26.4285 298.433 35.6085C297.68 38.8438 297.444 42.2023 297.319 45.5308C297.178 49.1722 298.233 52.5174 301.85 54.9872C303.988 56.4517 303.862 57.0475 302.03 58.7717C298.9 61.7141 295.157 63.6979 290.56 64.52C286.746 65.2057 283.439 66.7468 280.576 69.0235C277.504 71.48 276.911 73.537 278.544 76.9088C279.477 78.8327 280.564 80.69 281.474 82.6139C282.918 85.5763 284.138 88.3822 282.357 91.8139C280.485 95.412 283.796 99.3197 288.578 100.022C289.371 100.135 290.144 100.188 290.901 100.188C294.467 100.188 297.692 99.0102 300.893 97.5489C302.658 96.7435 304.78 96.1277 306.718 96.1277C309.021 96.1277 311.143 95.8215 313.176 95.1391C313.858 94.9228 314.509 94.6498 315.172 94.3469C317.887 93.0654 318.911 91.2348 318.138 88.6884C317.797 87.57 317.15 86.5216 316.683 85.4365C316.141 84.155 315.639 82.8569 315.278 81.9748C317.201 80.9529 319.217 80.4004 320.115 79.2454C321.014 78.0671 320.798 76.283 321.037 74.9583C325.961 75.9768 331.088 77.032 336.553 78.1603C336.082 82.5373 335.58 87.1773 335.093 91.724C333.728 92.0436 332.559 92.1967 331.515 92.5628C325.917 94.4934 320.335 96.4372 314.757 98.3877C310.508 99.8723 306.271 101.363 302.046 102.875C300.752 103.331 299.351 104.036 298.559 104.965C297.46 106.263 296.075 106.433 294.49 106.583C291.74 106.839 289.622 107.881 288.449 110.151C287.319 112.364 286.633 115.067 284.695 116.558C282.714 118.069 279.406 118.269 276.747 119.198C276.056 119.441 275.421 119.544 274.785 119.544C274.095 119.544 273.404 119.421 272.647 119.218C264.228 116.941 255.904 114.241 247.277 112.764C238.953 111.326 230.338 110.886 221.798 110.534C213.791 110.207 205.78 109.911 197.773 109.911C187.903 109.911 178.041 110.36 168.213 111.738C161.399 112.7 154.707 114.075 148.45 116.621C144.515 118.222 140.651 119.947 137.053 121.488C134.496 116.578 132.126 111.619 129.372 106.812C128.297 104.905 126.497 103.274 124.857 101.626C124.484 101.257 123.562 101.274 122.868 101.137C123.189 101.809 123.405 102.525 123.892 103.104C124.841 104.233 126.316 105.151 126.928 106.383C129.176 110.933 131.691 115.45 133.075 120.206C135.433 128.248 137.104 136.316 131.318 144.205C129.247 147.027 127.52 149.927 124.229 151.787C116.485 156.211 108.231 159.722 98.8983 161.094C96.0777 161.506 93.2728 162.039 90.4678 162.572C89.4753 162.755 88.2553 163.018 89.0085 164.223C90.7542 166.982 96.6897 175.3 96.1679 175.466C96.3837 175.939 96.5406 176.275 96.5995 176.395C92.7078 176.059 88.8594 175.743 85.0305 175.39C84.395 175.323 83.7752 175.153 83.2143 174.887C80.8408 173.852 78.538 172.69 76.1489 171.685C73.2381 170.477 70.0173 170.77 66.9417 170.387C66.8318 170.37 66.7142 170.36 66.6044 170.357C66.2159 170.317 65.8432 170.3 65.4823 170.3C63.1364 170.3 61.3122 171.093 59.7861 172.401C55.9024 175.756 53.223 179.787 52.1638 184.467C51.1007 189.073 50.9752 193.56 54.9492 197.438C55.2552 197.741 55.2355 198.476 55.0747 198.932C54.2116 201.632 53.584 204.441 52.2893 206.987C47.2719 216.89 44.1021 227.278 40.3478 237.517C39.5907 239.59 39.826 241.438 41.4462 242.949C42.5015 243.954 42.2348 244.673 41.7836 245.678C37.127 255.917 32.4351 266.139 27.9041 276.42C22.6904 288.286 17.6533 300.233 12.4947 312.135C9.56415 318.939 6.48849 325.716 3.59331 332.536C2.27915 335.615 0.898267 338.833 4.58192 341.197C4.04449 341.899 3.48348 342.375 3.25206 342.941C2.31842 345.041 1.45534 347.178 0.627579 349.332C-0.576755 352.427 -0.16485 353.219 2.89118 355.203C8.12831 358.575 14.0795 360.669 20.1876 362.496C26.9468 364.526 33.6395 366.71 40.4145 368.72C41.2893 368.98 42.3132 369.353 43.2469 369.353C43.9726 369.353 44.6434 369.126 45.1456 368.447C46.4559 366.693 44.6788 365.288 43.4038 364.147C39.5907 360.755 35.597 357.506 31.7172 354.151C29.6302 352.367 27.6491 350.49 25.3149 348.383C27.5628 348.629 29.183 348.949 30.7992 348.949C32.8313 348.935 33.2982 348.14 32.6901 346.735C33.8356 345.577 35.0989 344.615 35.8913 343.44C38.1901 340.055 40.4537 336.653 42.4152 333.125C47.2366 324.478 51.8735 315.767 56.5693 307.069C60.308 300.146 63.9563 293.186 67.8047 286.306C70.0134 282.385 72.5163 278.574 74.8896 274.709C75.0544 274.773 75.2349 274.819 75.3918 274.863C75.0505 279.639 74.6032 284.429 74.3522 289.205C73.6108 302.433 72.7673 315.647 72.3162 328.874C72.0101 337.645 72.3005 346.432 72.2651 355.22C72.2651 357.54 72.5555 357.952 74.8896 358.212C74.8896 360.376 74.8544 362.496 74.9053 364.619C74.9446 366.663 76.0587 368.218 78.4321 368.72C80.6839 369.206 83.0495 369.702 85.3444 369.702C85.5053 369.702 85.6661 369.702 85.8231 369.695C92.3509 369.546 98.8787 369.15 105.407 368.674C111.989 368.204 118.549 367.562 125.112 366.936C127.481 366.706 129.627 366.097 129.933 363.794C138.364 364.13 146.617 364.493 154.871 364.799C178.068 365.641 201.265 366.404 224.453 367.319C234.869 367.715 245.241 368.584 255.649 368.937C263.33 369.19 271.027 369.456 278.716 369.456C281.725 369.456 284.73 369.416 287.731 369.316C305.385 368.72 323.01 367.425 340.664 366.663C358.827 365.884 377.006 365.395 395.17 364.753C403.279 364.48 429.818 362.939 432.207 362.526V359.597C432.175 359.603 432.148 359.607 432.124 359.607C431.485 359.607 431.885 358.219 431.885 356.974C431.881 349.891 431.865 342.814 431.85 335.751C431.775 314.638 431.669 293.522 431.65 272.406C431.634 259.471 431.775 246.547 431.865 233.609C431.885 232.284 432.081 230.943 432.207 229.615V205.812C432.046 205.14 431.775 204.471 431.775 203.799C431.736 179.817 431.74 155.831 431.799 131.849C431.814 129.985 431.293 129.103 429.025 128.494C424.659 127.319 419.998 126.098 420.108 120.955C420.093 120.582 419.951 120.22 419.692 119.917C417.233 116.941 414.95 113.845 412.18 111.086C410.509 109.408 407.719 108.476 408.025 105.717C408.041 105.564 407.845 105.394 407.774 105.228C405.06 98.8637 398.999 95.2356 392.079 93.3118C383.589 90.9785 374.653 89.7868 365.971 88.1226C365.057 83.8887 364.096 79.4751 363.092 74.8817C363.343 74.8884 363.594 74.8917 363.841 74.8917C371.349 74.8917 377.669 72.2489 383.483 68.2779C384.307 70.0021 384.907 71.4367 385.661 72.8081C387.869 76.8489 391.443 78.9592 396.319 78.9592C396.912 78.9592 397.524 78.9259 398.155 78.866C399.356 78.7428 400.517 78.6629 401.635 78.6629C405.476 78.6629 408.771 79.6215 411.085 83.2263C412.368 85.2334 414.899 86.3119 417.747 86.3119C417.845 86.3119 417.943 86.3119 418.041 86.3085C423.149 86.1687 426.872 83.8987 429.602 80.4503C431.261 78.3467 431.383 75.9935 430.108 73.6302C428.507 70.6711 426.369 68.0749 422.627 66.8866C419.461 65.8781 418.241 64.0208 417.845 61.2414C417.072 55.7327 413.188 52.574 406.66 52.0714C405.303 51.9649 403.938 51.9316 402.565 51.9316C400.407 51.9316 398.238 52.0115 396.072 52.0115C396.072 51.9349 396.033 51.8118 396.088 51.7053C398.497 46.9321 398.461 42.2789 395.025 37.8087C394.793 37.5025 394.778 37.0165 394.844 36.6337C396.229 27.8298 392.169 20.3406 386.021 13.81C380.121 7.53911 371.797 3.98757 362.625 2.15356C358.514 1.33474 354.394 0.971924 350.271 0.971924V0.971924Z" fill="black"/>
<path fill-rule="evenodd" clip-rule="evenodd" d="M395.825 54.0219C393.985 54.0219 392.718 54.9139 391.914 56.698C393.765 56.8844 395.688 56.941 397.559 57.2771C399.45 57.6266 401.231 58.3755 403.114 58.7118C407.143 59.4274 409.516 61.5177 411.301 64.5999C412.251 66.2642 414.087 67.5922 415.648 68.9802C419.029 72.0025 425.039 72.2122 427.052 76.7756C426.797 73.5403 424.839 70.8875 421.242 69.6193C416.872 68.0815 414.859 65.5019 414.404 61.5643C413.957 57.6433 411.442 55.6129 406.786 54.9871C404.66 54.7142 402.506 54.7308 400.344 54.591C399.575 54.5311 398.748 54.5611 398.026 54.3647C397.214 54.135 396.484 54.0219 395.825 54.0219V54.0219Z" fill="#FED58A"/>
<path fill-rule="evenodd" clip-rule="evenodd" d="M393.047 58.522C392.094 58.522 391.204 58.7882 390.584 59.6736C388.407 62.8024 388.356 64.5233 390.529 66.2508C391.792 67.2394 393.444 68.0648 395.099 68.4775C397.202 68.9968 399.466 69.1499 401.678 69.2232C409.897 69.5294 415.671 73.5269 417.464 80.2539C417.715 81.2025 417.951 82.1478 418.217 83.2163C418.311 83.2196 418.402 83.2196 418.492 83.2196C421.407 83.2196 423.239 81.815 425.016 80.4236C425.322 80.194 425.357 79.4583 425.181 79.0955C424.102 76.8521 422.572 75.0048 419.806 73.8931C414.879 71.9093 410.579 69.2997 408.296 64.753C407.629 63.4116 406.158 62.0235 404.628 61.4145C401.733 60.2661 398.551 59.5804 395.441 58.8814C394.679 58.7084 393.84 58.522 393.047 58.522V58.522Z" fill="#FED58A"/>
<path fill-rule="evenodd" clip-rule="evenodd" d="M417.57 158.568C417.268 159.053 416.672 159.543 416.707 160.019C416.962 165.418 417.233 170.816 417.715 176.215C417.806 177.181 418.924 178.063 419.571 178.981C420.179 178.049 420.775 177.104 421.383 176.172C421.223 176.109 421.062 176.032 420.917 175.976C420.552 172.211 420.199 168.453 419.853 164.702C419.689 163.068 419.657 161.403 419.292 159.802C419.187 159.316 418.178 158.977 417.57 158.568V158.568Z" fill="black"/>
<path fill-rule="evenodd" clip-rule="evenodd" d="M419.48 183.005C419.025 183.495 418.272 183.951 418.182 184.47C417.931 186.088 417.95 187.735 417.86 189.37H418.076C418.076 190.891 417.931 192.418 418.146 193.916C418.252 194.602 419.084 195.198 419.602 195.837C420.049 195.211 420.881 194.572 420.881 193.943C420.932 190.787 420.806 187.642 420.61 184.487C420.575 183.981 419.873 183.495 419.48 183.005V183.005Z" fill="black"/>
<path fill-rule="evenodd" clip-rule="evenodd" d="M411.188 175.789C412.663 179.697 411.442 183.874 413.851 187.902C417.194 184.167 415.467 176.585 411.188 175.789Z" fill="black"/>
<path fill-rule="evenodd" clip-rule="evenodd" d="M386.645 65.7283C386.304 66.2509 385.927 66.8267 386.108 67.2128C386.877 68.7672 387.759 70.3083 388.693 71.8028C390.557 74.8051 392.985 76.0966 396.676 76.0966C397.112 76.0966 397.567 76.0767 398.042 76.0433C399.662 75.9235 401.298 75.8403 402.918 75.8403C403.149 75.8403 403.385 75.8403 403.62 75.847C407.127 75.8936 410.022 76.972 411.996 79.5849C412.662 80.487 413.545 81.2924 414.314 82.1312C413.726 75.7538 408.975 72.1057 401.674 71.7695C395.829 71.5132 389.862 71.237 386.645 65.7283V65.7283Z" fill="#FED58A"/>
<path fill-rule="evenodd" clip-rule="evenodd" d="M395.228 217.432C399.238 217.432 403.243 217.446 407.249 217.469V247.129C404.428 247.009 401.929 246.946 399.446 246.78C393.196 246.364 386.959 246.187 380.721 246.187C369.941 246.187 359.176 246.713 348.4 247.449C341.099 247.935 333.763 247.998 326.427 248.271C317.451 248.617 308.48 248.96 299.508 249.293C299.202 249.306 298.896 249.309 298.586 249.309C297.962 249.309 297.315 249.293 296.597 249.293C295.483 239.194 294.365 229.202 293.27 219.15C327.357 218.304 361.33 217.432 395.228 217.432V217.432ZM407.025 214.943C406.715 214.943 406.401 214.949 406.103 214.949C375.692 215.309 345.285 215.698 314.882 216.127C308.554 216.221 302.242 216.54 295.93 216.813C295.012 216.853 294 217.279 293.149 217.279C292.964 217.279 292.788 217.259 292.619 217.209C292.172 217.079 291.827 217.02 291.56 217.02C290.614 217.02 290.646 217.762 290.587 218.69C290.03 229.155 292.423 239.47 292.909 249.875C292.941 250.484 293.772 251.443 294.42 251.57C295.8 251.836 297.264 251.942 298.703 251.942C298.966 251.942 299.225 251.939 299.488 251.932C306.738 251.733 313.999 251.443 321.245 251.213C328.204 251.004 335.183 250.877 342.158 250.604C353.916 250.135 365.677 249.28 377.453 249.11C378.469 249.096 379.486 249.09 380.502 249.09C389.615 249.09 398.736 249.602 407.845 249.799C407.868 249.799 407.896 249.799 407.919 249.799C409.135 249.799 410.352 249.459 411.568 249.293C411.458 249.083 411.352 248.883 411.242 248.684C410.901 247.968 410.254 247.236 410.254 246.517C410.218 241.208 410.395 235.899 410.328 230.59C410.254 225.757 409.999 220.921 409.716 216.084C409.693 215.715 408.959 215.209 408.437 215.076C407.998 214.962 407.515 214.943 407.025 214.943V214.943Z" fill="black"/>
<path fill-rule="evenodd" clip-rule="evenodd" d="M395.229 217.432C361.33 217.432 327.357 218.304 293.271 219.15C294.365 229.202 295.483 239.194 296.597 249.293C297.315 249.293 297.962 249.31 298.586 249.31C298.896 249.31 299.202 249.306 299.508 249.293C308.48 248.947 317.456 248.607 326.428 248.274C333.764 247.998 341.1 247.938 348.4 247.449C359.177 246.713 369.941 246.187 380.722 246.187C386.959 246.187 393.197 246.364 399.446 246.78C401.929 246.946 404.428 247.01 407.249 247.129V217.469C403.244 217.446 399.238 217.432 395.229 217.432V217.432Z" fill="#A6DFDA"/>
<path fill-rule="evenodd" clip-rule="evenodd" d="M365.873 90.7222C365.732 94.3203 362.044 95.9379 359.871 98.3811H368.431C371.299 98.3811 374.174 98.3212 377.046 98.3212C378.984 98.3212 380.918 98.3478 382.848 98.441C386.214 98.5941 387.293 99.859 387.293 102.775C387.293 105.398 387.042 108.024 387.148 110.63C387.183 111.439 387.865 112.597 388.642 112.933C390.184 113.606 392.02 113.805 393.75 114.215C394.79 112.78 395.688 111.379 396.786 110.111C397.398 109.412 398.261 108.753 399.195 108.39C399.297 108.347 399.415 108.33 399.544 108.33C399.929 108.33 400.403 108.49 400.847 108.616H402.828C404.197 108.234 404.93 108.037 405.848 107.794C405.311 106.952 404.734 106.25 404.338 105.474C401.855 100.548 396.912 97.6322 391.447 96.1077C383.138 93.7877 374.437 92.4763 365.873 90.7222V90.7222Z" fill="#FED58A"/>
<path fill-rule="evenodd" clip-rule="evenodd" d="M396.947 270.386C396.3 270.386 395.578 270.559 394.958 270.682C393.785 270.915 392.655 271.354 391.541 271.767C389.685 272.423 387.853 273.122 385.998 273.811C385.001 274.19 383.989 274.383 383.008 274.383C381.659 274.383 380.364 274.017 379.238 273.275C377.053 271.814 374.864 271.088 372.581 271.088C370.918 271.088 369.203 271.474 367.407 272.24C365.5 273.049 363.605 273.421 361.683 273.421C359.69 273.421 357.67 273.022 355.575 272.3C354.1 271.784 352.374 271.577 350.656 271.577C349.695 271.577 348.733 271.644 347.823 271.754C344.516 272.15 341.28 273.095 338.094 274.044C335.117 274.933 332.096 275.538 329.064 275.538C327.424 275.538 325.784 275.362 324.14 274.956C321.928 274.41 319.774 274.124 317.671 274.124C314.262 274.124 310.982 274.876 307.777 276.5C307.165 276.803 306.448 276.97 305.765 277.123C304.317 277.472 302.917 277.665 301.575 277.665C298.672 277.665 296.04 276.76 293.788 274.546C293.396 274.134 292.874 273.827 292.403 273.478C292.097 273.554 291.811 273.631 291.528 273.708C291.795 274.62 291.866 275.641 292.427 276.404C293.823 278.328 295.91 279.579 298.558 280.158C299.786 280.421 300.991 280.544 302.171 280.544C305.216 280.544 308.107 279.742 310.837 278.511C313.062 277.495 315.251 276.993 317.538 276.993C318.852 276.993 320.202 277.159 321.606 277.489C324.128 278.088 326.643 278.387 329.138 278.387C332.79 278.387 336.411 277.748 339.969 276.48C341.621 275.884 343.312 275.352 345.003 274.836C346.956 274.253 348.992 273.711 351.005 273.711C352.17 273.711 353.331 273.894 354.461 274.36C356.787 275.322 359.063 275.765 361.31 275.765C363.947 275.765 366.54 275.159 369.133 274.07C370.298 273.581 371.381 273.338 372.416 273.338C374.001 273.338 375.476 273.907 376.991 275.032C378.858 276.41 380.965 277.123 383.209 277.123C384.46 277.123 385.755 276.9 387.073 276.45C390.074 275.428 393.063 274.393 396.048 273.338C397.163 272.959 399.104 272.972 398.657 271.494C398.383 270.632 397.716 270.386 396.947 270.386V270.386Z" fill="black"/>
<path fill-rule="evenodd" clip-rule="evenodd" d="M318.629 288.599C317.055 288.599 315.439 289.032 313.897 289.708C312.564 290.287 311.273 290.963 309.939 291.555C307.099 292.837 304.933 293.496 302.917 293.496C300.418 293.496 298.151 292.477 295.122 290.363C294.942 290.26 294.82 290.061 294.62 290.031C294.043 289.924 293.451 289.861 292.855 289.784C292.788 290.35 292.392 291.082 292.678 291.435C294.891 294.178 297.794 296.784 301.771 296.784C302.544 296.784 303.36 296.684 304.219 296.468C307.907 295.539 311.489 294.241 314.937 292.823C316.192 292.314 317.377 291.998 318.53 291.998C319.629 291.998 320.704 292.281 321.787 292.956C325.337 295.173 329.142 296.122 333.183 296.122C334.874 296.122 336.612 295.955 338.385 295.642C340.472 295.276 342.559 295.06 344.661 295.06C346.395 295.06 348.141 295.206 349.91 295.539C353.684 296.228 357.596 296.694 361.444 296.694C361.503 296.694 361.562 296.694 361.62 296.694C367.207 296.694 372.821 296.268 378.376 295.812C382.836 295.446 387.022 294.195 390.98 292.424C390.98 292.164 390.964 291.905 390.964 291.662C389.909 291.662 388.854 291.605 387.806 291.605C387.226 291.605 386.649 291.622 386.072 291.675C381.235 292.134 376.418 292.883 371.581 293.186C368.309 293.382 365.037 293.565 361.77 293.565C357.388 293.565 353.017 293.239 348.671 292.181C347.474 291.891 346.176 291.768 344.865 291.768C343.555 291.768 342.233 291.891 340.993 292.088C338.53 292.497 336.117 292.78 333.763 292.78C329.856 292.78 326.098 291.998 322.508 289.694C321.308 288.922 319.986 288.599 318.629 288.599V288.599Z" fill="black"/>
<path fill-rule="evenodd" clip-rule="evenodd" d="M325.419 121.265C325.906 121.588 326.573 121.817 326.804 122.223C327.185 122.852 327.401 123.615 327.452 124.317C327.738 128.511 328.044 132.705 328.118 136.905C328.134 138.034 327.271 139.175 326.824 140.304L326.02 140.217C325.765 139.435 325.333 138.673 325.278 137.881C325.015 132.768 324.792 127.659 324.615 122.546C324.615 122.12 325.153 121.691 325.419 121.265V121.265ZM335.505 133.377C336.098 133.73 337 133.99 337.251 134.476C337.792 135.514 338.346 136.689 338.275 137.787C338.095 141.096 337.667 144.408 337.196 147.703C337.141 148.116 336.294 148.452 335.811 148.818C335.58 148.362 335.129 147.903 335.109 147.43C335.019 145.659 335.074 143.905 335.074 142.135H335.184C335.003 139.758 334.772 137.391 334.682 135.015C334.662 134.476 335.219 133.926 335.505 133.377V133.377ZM327.616 146.834C328.224 147.367 329.142 147.813 329.358 148.439C329.754 149.594 329.794 150.845 329.884 152.05C330.06 154.247 330.151 156.434 330.256 158.627C330.311 158.627 330.362 158.631 330.421 158.644C330.241 159.786 330.151 160.944 329.825 162.062C329.703 162.505 329.072 162.841 328.656 163.221C328.224 162.855 327.542 162.532 327.432 162.106C327.04 160.505 326.683 158.87 326.592 157.239C326.408 154.387 326.377 151.518 326.443 148.648C326.467 148.039 327.201 147.444 327.616 146.834V146.834ZM381.659 101.097C381.373 101.097 381.051 101.104 380.69 101.114C371.844 101.31 363.013 101.573 354.183 101.846C342.622 102.226 331.492 104.649 320.363 107.138C318.26 107.598 317.377 108.646 317.362 110.57C317.307 115.866 317.02 121.175 316.875 126.48C316.283 147.647 317.452 168.653 324.317 189.173C325.506 192.725 326.745 196.266 327.973 199.804C331.586 194.449 334.697 189.11 337.785 183.771C338.667 182.243 339.444 180.655 340.393 179.161C341.1 178.053 341.802 177.483 342.571 177.483C343.206 177.483 343.889 177.876 344.658 178.688C347.91 182.09 350.734 185.781 354.026 189.14C357.89 193.061 362.064 196.736 366.109 200.52C366.324 200.427 366.521 200.337 366.736 200.247C366.776 199.788 366.917 199.315 366.866 198.859C366.615 195.807 366.309 192.768 366.054 189.736C365.104 177.636 363.845 165.551 363.288 153.438C362.821 143.16 364.422 132.981 367.98 123.109C369.992 117.527 373.629 112.98 380.926 111.512C381.863 111.332 382.848 111.302 384.201 111.163C384.201 108.696 384.252 106.33 384.182 103.95C384.103 101.48 383.978 101.097 381.659 101.097V101.097Z" fill="#FEB8B3"/>
<path fill-rule="evenodd" clip-rule="evenodd" d="M369.663 52.4874C369.651 52.4874 369.643 52.4874 369.635 52.4874C367.242 52.5007 365.32 54.378 365.336 56.7013C365.336 59.9799 367.368 62.2367 370.337 62.2832C370.373 62.2832 370.408 62.2832 370.443 62.2832C373.303 62.2832 375.496 60.5158 375.535 58.1659C375.586 55.1502 372.813 52.4874 369.663 52.4874V52.4874Z" fill="#FEB8B3"/>
<path fill-rule="evenodd" clip-rule="evenodd" d="M363.68 34.9894C363.107 34.9894 362.519 35.1991 362.009 35.6717C359.635 37.8985 358.345 40.8742 360.969 43.9398C361.836 44.9617 362.958 45.4609 364.053 45.4609C365.32 45.4609 366.548 44.7952 367.297 43.4838C367.729 42.7415 367.819 41.8661 368.07 41.0606L368.392 40.8309C367.532 39.2333 366.869 37.5057 365.732 36.0212C365.245 35.3855 364.476 34.9894 363.68 34.9894V34.9894Z" fill="black"/>
<path fill-rule="evenodd" clip-rule="evenodd" d="M352.193 59.7369C351.53 59.7503 350.628 60.0398 350.267 60.4692C349.639 61.1981 349.333 62.1002 348.973 62.9689C348.549 64.0374 347.694 64.6731 346.611 64.6731C346.368 64.6731 346.109 64.6399 345.846 64.5732C344.442 64.1872 343.131 63.4249 341.927 62.6793C341.205 62.22 340.844 61.3679 340.142 60.8786C339.875 60.6822 339.42 60.5824 339 60.5824C338.804 60.5824 338.612 60.6057 338.459 60.6523C338.184 60.7288 337.933 61.5676 338.114 61.9038C339.742 65.0392 341.735 67.4092 346.168 67.4092C346.195 67.4092 346.226 67.4092 346.258 67.4092C346.266 67.4092 346.274 67.4092 346.281 67.4092C349.977 67.4092 353.751 63.9408 353.272 60.862C353.198 60.4392 352.574 59.7369 352.193 59.7369V59.7369Z" fill="black"/>
<path fill-rule="evenodd" clip-rule="evenodd" d="M344.673 47.0553C344.081 47.0553 343.179 47.3283 343.057 47.6411C342.429 49.3021 341.837 51.0096 341.676 52.7338C341.621 53.3429 342.716 54.4113 343.528 54.6244C344.277 54.8307 345.097 54.9073 345.925 54.9073C346.541 54.9073 347.16 54.864 347.753 54.8074C348.29 54.7475 348.726 53.952 349.208 53.496C348.632 53.1298 348.094 52.5773 347.447 52.4309C347.106 52.3543 346.748 52.3343 346.364 52.3343C345.799 52.3343 345.175 52.3809 344.477 52.3809C344.877 50.8565 345.285 49.6216 345.466 48.3834C345.54 47.944 345.093 47.072 344.803 47.0586C344.763 47.0553 344.716 47.0553 344.673 47.0553V47.0553Z" fill="black"/>
<path fill-rule="evenodd" clip-rule="evenodd" d="M334.945 94.5067C334.576 94.5067 334.183 94.5899 333.724 94.7497C325.455 97.6755 317.13 100.531 308.837 103.46C306.232 104.392 303.733 105.517 301.591 106.386C303.514 108.174 305.224 109.805 306.985 111.379C307.248 111.599 307.77 111.718 308.186 111.718C308.229 111.718 308.276 111.718 308.315 111.715C310.155 111.575 312.003 111.362 313.804 111.196C314.561 106.543 314.361 105.534 320.869 104.056C329.284 102.149 337.734 100.421 346.384 99.4762L346.274 98.8238C345.799 98.8471 345.321 98.8671 344.85 98.8671C343.881 98.8671 342.955 98.7805 342.194 98.441C340.221 97.559 338.389 96.4805 336.729 95.219C336.09 94.733 335.553 94.5067 334.945 94.5067V94.5067Z" fill="#FED58A"/>
<path fill-rule="evenodd" clip-rule="evenodd" d="M335.509 133.377C335.223 133.926 334.662 134.476 334.686 135.011C334.772 137.391 335.007 139.755 335.184 142.135H335.074C335.074 143.902 335.023 145.659 335.113 147.43C335.129 147.9 335.58 148.362 335.811 148.818C336.298 148.452 337.145 148.113 337.196 147.703C337.667 144.408 338.095 141.096 338.275 137.787C338.346 136.689 337.792 135.514 337.251 134.476C337 133.986 336.106 133.73 335.509 133.377V133.377Z" fill="black"/>
<path fill-rule="evenodd" clip-rule="evenodd" d="M333.053 37.8353C331.978 37.8353 330.919 38.3745 330.346 39.4297C329.268 41.3968 329.158 43.5338 330.437 45.4077C330.958 46.1866 332.449 46.9055 333.508 46.9055C334.442 46.9055 335.595 46.0202 336.243 45.2746C336.8 44.6621 336.764 43.6702 337.07 42.5419C336.674 41.5499 336.403 40.2552 335.666 39.2033C335.023 38.2847 334.03 37.8353 333.053 37.8353V37.8353Z" fill="black"/>
<path fill-rule="evenodd" clip-rule="evenodd" d="M324.274 51.9683C321.477 51.9683 319.613 54.185 319.664 57.477C319.719 60.2862 321.842 62.2201 324.894 62.24C328.726 62.24 331.351 60.436 331.316 57.8431C331.296 54.914 327.863 52.0315 324.356 51.9683C324.329 51.9683 324.301 51.9683 324.274 51.9683V51.9683Z" fill="#FEB8B3"/>
<path fill-rule="evenodd" clip-rule="evenodd" d="M327.616 146.834C327.196 147.443 326.463 148.039 326.443 148.648C326.376 151.514 326.408 154.383 326.592 157.239C326.682 158.87 327.039 160.505 327.432 162.106C327.541 162.532 328.224 162.855 328.656 163.221C329.071 162.835 329.703 162.502 329.825 162.059C330.15 160.944 330.24 159.789 330.417 158.641C330.374 158.631 330.331 158.627 330.284 158.627C330.276 158.627 330.268 158.627 330.256 158.627C330.15 156.43 330.06 154.25 329.876 152.05C329.785 150.845 329.754 149.594 329.358 148.432C329.142 147.81 328.224 147.367 327.616 146.834V146.834Z" fill="black"/>
<path fill-rule="evenodd" clip-rule="evenodd" d="M325.415 121.265C325.148 121.691 324.611 122.12 324.611 122.546C324.784 127.659 325.007 132.768 325.274 137.881C325.329 138.673 325.76 139.438 326.015 140.211L326.824 140.304C327.271 139.175 328.134 138.03 328.118 136.902C328.044 132.705 327.738 128.511 327.447 124.314C327.396 123.611 327.181 122.849 326.8 122.223C326.569 121.814 325.902 121.581 325.415 121.265V121.265Z" fill="black"/>
<path fill-rule="evenodd" clip-rule="evenodd" d="M264.523 282.142C264.503 282.142 264.479 282.142 264.464 282.142C264.228 282.159 263.852 282.811 263.871 283.164C263.981 288.643 264.123 294.105 264.354 299.58C264.389 300.406 264.986 301.211 265.311 302.023C265.668 302.037 266.029 302.037 266.386 302.05C266.712 300.998 267.324 299.943 267.308 298.894C267.269 294.391 267.108 289.891 266.873 285.387C266.818 284.459 266.351 283.513 265.884 282.645C265.731 282.352 265.009 282.142 264.523 282.142V282.142Z" fill="black"/>
<path fill-rule="evenodd" clip-rule="evenodd" d="M249.572 277.575C248.937 277.575 248.274 277.665 247.595 277.838C244.79 278.574 242.02 279.456 239.235 280.205C237.638 280.641 236.03 280.914 234.449 280.914C232.644 280.914 230.875 280.554 229.22 279.669C227.203 278.587 225.269 278.101 223.371 278.101C221.013 278.101 218.702 278.847 216.344 280.115C213.998 281.366 211.535 282.036 209.016 282.036C207.157 282.036 205.27 281.669 203.379 280.907C201.547 280.152 199.738 279.805 197.926 279.805C196.216 279.805 194.501 280.115 192.756 280.674C189.692 281.663 186.632 282.235 183.599 282.235C180.441 282.235 177.307 281.613 174.216 280.192C172.603 279.446 171.014 279.076 169.469 279.076C167.535 279.076 165.663 279.652 163.894 280.781C162.8 281.476 161.76 281.763 160.732 281.763C159.598 281.763 158.48 281.416 157.331 280.887C156.382 280.461 155.515 279.882 154.565 279.486C153.361 278.967 152.098 278.571 150.556 278.021C149.136 278.63 147.657 279.213 146.296 279.912C145.57 280.291 145.032 280.907 144.405 281.406C143.632 282.032 141.98 282.462 142.969 283.62C143.33 284.049 143.722 284.206 144.118 284.206C144.868 284.206 145.648 283.657 146.362 283.33C146.617 283.224 146.814 283.027 147.029 282.874C148.755 281.636 149.587 281.044 150.485 281.044C151.329 281.044 152.231 281.563 153.989 282.568C156.338 283.906 158.692 284.931 161.136 284.931C162.843 284.931 164.592 284.429 166.413 283.181C167.354 282.538 168.339 282.272 169.371 282.272C170.367 282.272 171.411 282.521 172.489 282.921C175.169 283.88 177.978 284.782 180.834 285.238C181.85 285.397 182.858 285.471 183.858 285.471C187.342 285.471 190.747 284.622 194.14 283.756C195.435 283.43 196.961 283.144 198.358 283.144C199.154 283.144 199.911 283.237 200.558 283.47C203.485 284.535 206.309 285.084 209.063 285.084C212.735 285.084 216.274 284.106 219.761 282.065C220.93 281.386 222.1 281.027 223.284 281.027C224.41 281.027 225.552 281.35 226.736 282.032C229.251 283.473 231.911 284.086 234.653 284.086C236.54 284.086 238.462 283.796 240.4 283.287C242.381 282.754 244.358 282.159 246.265 281.486C247.367 281.087 248.438 280.817 249.525 280.817C250.349 280.817 251.184 280.974 252.051 281.347C252.193 281.41 252.361 281.436 252.542 281.436C253.052 281.436 253.683 281.24 254.213 281.193C254.048 280.528 254.123 279.682 253.676 279.226C252.542 278.105 251.13 277.575 249.572 277.575V277.575Z" fill="black"/>
<path fill-rule="evenodd" clip-rule="evenodd" d="M230.028 194.755C231.378 194.755 232.727 195.101 233.374 195.837C234.434 197.055 234.959 198.609 235.332 199.315C235.155 202.55 233.967 204.518 231.809 206.009C230.848 206.671 229.84 206.984 228.894 206.984C227.2 206.984 225.717 205.982 225.105 204.181C224.151 201.296 225.03 198.609 226.47 196.063C226.949 195.208 228.486 194.755 230.028 194.755V194.755ZM220.283 210.902C221.217 210.902 222.123 211.244 222.982 211.904C224.96 213.381 226.717 215.012 225.964 217.562C225.066 220.618 221.582 222.948 217.91 222.948C217.898 222.948 217.887 222.948 217.871 222.948C214.203 222.948 211.253 220.891 210.931 218.095C210.554 214.783 212.622 212.619 216.706 212.023C217.047 211.98 217.459 211.947 217.714 211.777C218.577 211.185 219.44 210.902 220.283 210.902V210.902ZM231.837 226.419C232.817 226.419 233.869 226.875 235.155 227.614C237.419 228.929 238.894 230.393 238.914 231.751C238.929 235.652 236.842 237.503 233.504 237.503C233.492 237.503 233.476 237.503 233.465 237.503C229.365 237.487 226.344 235.429 226.776 232.544C227.011 230.896 227.855 229.079 229.075 227.814C230.024 226.835 230.899 226.419 231.837 226.419V226.419ZM200.841 149.743C198.562 149.743 196.286 149.753 194.007 149.777C177.182 149.96 160.332 150.845 143.479 151.424C141.431 161.616 143.267 171.365 143.067 181.175C154.687 179.221 165.42 175.822 175.762 171.489C176.248 171.289 176.676 170.923 177.001 170.557C179.857 167.338 182.627 164.069 185.557 160.927C186.424 159.995 187.628 159.19 188.868 158.641C189.449 158.388 190.002 158.268 190.512 158.268C191.928 158.268 192.976 159.193 193.148 160.731C193.238 161.66 193.164 162.591 193.164 163.37C196.871 162.269 200.304 161.05 203.878 160.242C204.709 160.052 205.584 159.962 206.471 159.962C210.684 159.962 215.203 161.996 216.972 165.184L218.946 165.567C218.498 162.974 219.864 160.761 222.602 160.042C225.191 159.376 227.906 158.99 230.581 158.67C231.064 158.611 231.491 158.581 231.872 158.581C234.018 158.581 234.575 159.569 234.485 161.966C234.394 164.439 234.288 167.002 234.916 169.395C236.878 177.027 235.022 183.771 228.675 189.353C226.266 191.486 222.939 192.874 219.864 194.692C220.519 197.055 217.365 199.824 214.062 199.824C213.634 199.824 213.206 199.778 212.783 199.681C212.477 200.427 212.296 201.222 211.865 201.908C208.562 207.031 205.466 212.283 201.798 217.226C197.785 222.625 193.223 227.737 188.958 233.016C184.251 238.841 178.512 243.861 171.897 248.105C170.403 249.063 168.245 249.522 166.338 249.672C166.115 249.692 165.899 249.702 165.691 249.702C163.035 249.702 161.419 248.204 161.235 245.814C161.105 244.243 161.144 242.626 161.466 241.088C162.831 234.631 166.213 228.862 170.026 223.22C175.314 215.378 180.689 207.6 187.864 200.856C190.539 198.32 193.454 195.957 196.314 193.483C195.161 190.864 195.506 189.749 198.075 187.888C198.385 187.659 198.758 187.369 198.813 187.066C199.119 185.295 199.335 183.525 199.55 181.97C197.122 181.97 194.678 181.967 192.222 181.967C189.77 181.967 187.303 181.97 184.839 181.983C184.533 181.983 184.121 182.137 183.945 182.336C180.834 185.738 176.37 187.552 172.023 189.356C165.715 191.996 159.328 194.539 152.765 196.676C148.63 198.017 144.425 199.209 140.18 200.337L140.447 201.056C140.918 201.712 141.781 202.337 141.816 202.993C142.047 207.876 142.247 212.742 142.192 217.622C142.087 230.177 141.832 242.752 141.635 255.307C141.6 257.181 141.635 259.075 141.635 261.362C147.171 261.462 152.659 261.688 158.143 261.688C158.465 261.688 158.791 261.685 159.112 261.685C185.922 261.532 212.732 261.302 239.541 261.166C240.604 261.166 242.617 261.944 242.617 262.294L244.92 262.261C244.453 261.622 243.872 261.013 243.531 260.327C243.331 259.914 243.531 259.362 243.547 258.876C243.653 255.214 243.959 251.569 243.853 247.905C243.456 235.107 242.719 222.308 242.487 209.507C242.362 201.588 242.935 193.657 243.166 185.721C243.456 176.628 243.711 167.554 244.033 158.457C244.123 155.741 244.41 153.025 244.61 150.343C229.903 150.156 215.36 149.743 200.841 149.743V149.743Z" fill="#FEB8B3"/>
<path fill-rule="evenodd" clip-rule="evenodd" d="M140.447 201.056C139.921 201.682 139.348 202.291 138.881 202.946C138.717 203.173 138.826 203.542 138.807 203.845C138.505 222.322 138.203 240.798 137.897 259.272C137.897 260.11 137.822 261.042 138.203 261.791C138.524 262.434 139.368 263.226 140.109 263.303C143.22 263.682 146.382 264.002 149.548 264.002C159.74 263.968 169.94 263.729 180.147 263.695C199.911 263.639 219.691 263.665 239.451 263.639C239.765 263.639 240.11 263.652 240.451 263.652C241.503 263.652 242.534 263.506 242.617 262.307V262.294C242.617 261.944 240.604 261.166 239.537 261.162C212.732 261.302 185.918 261.532 159.108 261.682C158.747 261.682 158.387 261.685 158.026 261.685C152.58 261.685 147.131 261.462 141.631 261.362C141.631 259.075 141.596 257.181 141.631 255.307C141.828 242.752 142.083 230.177 142.189 217.622C142.243 212.742 142.047 207.876 141.812 202.99C141.777 202.337 140.914 201.708 140.447 201.056V201.056Z" fill="black"/>
<path fill-rule="evenodd" clip-rule="evenodd" d="M231.684 228.623C231.954 228.669 232.245 228.713 232.527 228.763C233.335 229.585 234.418 230.33 234.869 231.276C235.258 232.055 235.242 233.719 234.83 233.889C234.21 234.122 233.445 234.241 232.688 234.241C232.127 234.241 231.574 234.175 231.091 234.042C230.44 233.855 229.761 232.574 229.903 231.901C230.158 230.76 231.056 229.721 231.684 228.623V228.623ZM231.837 226.419C230.899 226.419 230.024 226.835 229.075 227.814C227.855 229.079 227.011 230.893 226.776 232.54C226.344 235.423 229.365 237.483 233.465 237.503C233.476 237.503 233.492 237.503 233.504 237.503C236.842 237.503 238.929 235.656 238.914 231.752C238.894 230.394 237.419 228.929 235.155 227.611C233.869 226.872 232.817 226.419 231.837 226.419V226.419Z" fill="black"/>
<path fill-rule="evenodd" clip-rule="evenodd" d="M228.608 195.867C232.347 197.88 232.759 201.312 230.099 203.466C229.656 203.822 229.2 204.028 228.828 204.028C228.381 204.028 228.063 203.725 228.051 203.02C228.031 200.733 228.392 198.43 228.608 195.867V195.867ZM230.028 194.755C228.487 194.755 226.949 195.211 226.47 196.066C225.03 198.613 224.152 201.296 225.101 204.181C225.709 205.982 227.196 206.984 228.891 206.984C229.836 206.984 230.848 206.671 231.809 206.009C233.963 204.518 235.152 202.55 235.332 199.315C234.956 198.613 234.434 197.055 233.375 195.837C232.727 195.104 231.378 194.755 230.028 194.755V194.755Z" fill="black"/>
<path fill-rule="evenodd" clip-rule="evenodd" d="M230.715 161.28C226.529 161.769 221.923 161.786 218.957 165.571L216.98 165.188C217.404 165.937 217.655 166.742 217.733 167.568C217.914 169.472 216.388 171.046 217.357 173.226C218.345 175.423 218.385 176.342 221.291 176.521C224.206 176.705 226.58 177.607 227.961 179.927C228.129 180.196 228.329 180.452 228.557 180.689C229.059 181.205 229.549 181.471 229.985 181.471C230.495 181.471 230.926 181.102 231.197 180.353C231.648 179.101 232.08 177.726 231.989 176.432C231.684 171.412 231.162 166.393 230.715 161.28V161.28Z" fill="#FED58A"/>
<path fill-rule="evenodd" clip-rule="evenodd" d="M218.871 213.232C218.993 213.232 219.11 213.245 219.22 213.275C220.66 213.654 222.131 215.229 222.633 216.54C223.21 218.078 220.189 220.082 217.82 220.108C217.788 220.108 217.757 220.108 217.726 220.108C215.368 220.108 213.744 219.02 213.916 217.349C214.007 216.554 214.364 215.548 215.031 215.106C216.164 214.337 217.765 213.232 218.871 213.232V213.232ZM220.283 210.902C219.44 210.902 218.577 211.185 217.714 211.777C217.459 211.947 217.047 211.977 216.706 212.023C212.622 212.619 210.558 214.783 210.935 218.095C211.257 220.891 214.203 222.948 217.871 222.948C217.887 222.948 217.898 222.948 217.91 222.948C221.582 222.948 225.066 220.614 225.964 217.562C226.721 215.012 224.96 213.381 222.982 211.904C222.123 211.245 221.217 210.902 220.283 210.902V210.902Z" fill="black"/>
<path fill-rule="evenodd" clip-rule="evenodd" d="M127.042 129.227C127.034 129.227 127.026 129.227 127.018 129.227C123.621 129.227 120.094 132.172 120.18 134.938C120.255 137.601 123.389 139.695 127.301 139.695C127.332 139.695 127.363 139.695 127.391 139.695C130.576 139.665 132.895 137.741 132.934 135.131C132.969 132.042 130.176 129.227 127.042 129.227V129.227Z" fill="#FED58A"/>
<path fill-rule="evenodd" clip-rule="evenodd" d="M137.516 194.938C135.249 195.258 133.472 195.454 131.726 195.807C131.294 195.897 130.898 196.433 130.702 196.842C130.616 197.012 131.008 197.501 131.314 197.634C131.573 197.754 131.906 197.811 132.279 197.811C134.013 197.811 136.677 196.616 137.516 194.938V194.938Z" fill="black"/>
<path fill-rule="evenodd" clip-rule="evenodd" d="M129.152 192.658C129.133 192.658 129.109 192.662 129.09 192.662C127.917 192.861 126.732 193.138 125.614 193.53C125.222 193.67 124.79 194.296 124.841 194.632C124.88 194.922 125.633 195.121 126.1 195.394C127.379 195.015 128.564 194.755 129.643 194.309C130 194.159 130.129 193.547 130.345 193.138C129.953 192.978 129.517 192.658 129.152 192.658V192.658Z" fill="black"/>
<path fill-rule="evenodd" clip-rule="evenodd" d="M111.664 82.6905C113.61 82.6905 115.61 83.1265 117.631 83.8355C119.463 84.4779 121.35 85.8226 122.268 87.2739C123.08 88.5554 120.13 91.7441 117.862 92.4264C113.998 93.618 110.048 94.6266 105.991 94.6266C104.689 94.6266 103.378 94.5234 102.056 94.2904C100.55 94.0241 99.1141 93.891 97.745 93.891C92.2489 93.891 87.8552 96.0212 84.2382 100.222C81.0135 103.976 76.5217 105.884 71.0098 105.884C70.9 105.884 70.7902 105.88 70.6803 105.88C69.9624 105.867 69.2445 105.867 68.5227 105.867C61.2063 105.867 56.1692 110.367 57.303 116.515C57.9346 119.947 56.9263 122.173 53.8311 124.267C52.6111 125.089 51.7833 126.813 51.6382 128.201C51.3165 131.297 52.4463 134.196 54.7138 136.576C52.8268 137.112 51.1008 137.598 49.3589 138.087C49.1314 138.14 48.8842 138.273 48.6802 138.273C48.6411 138.273 48.6018 138.267 48.5665 138.257C45.0594 137.079 41.3207 136.196 39.2847 133.068C37.8293 130.828 37.9195 129.223 40.1321 127.499C41.6071 126.357 43.3175 125.409 45.024 124.543C48.2958 122.892 49.0687 121.381 47.8642 118.316C47.4642 117.34 47.0052 116.385 46.4795 115.45C44.9692 112.767 45.7616 110.507 48.0055 108.413C50.9006 105.717 54.6079 104.386 58.6917 103.61C60.4335 103.274 62.191 102.971 63.921 102.572C67.8755 101.643 70.7902 99.7359 72.3712 96.3774C74.0267 92.9024 77.1533 90.9785 81.6686 90.8387C82.7239 90.7988 83.7792 90.7522 84.8266 90.7522C85.3523 90.7522 85.874 90.7655 86.3958 90.7955C87.0863 90.8354 87.7728 90.8554 88.4475 90.8554C94.4301 90.8554 99.7614 89.2577 104.128 85.5164C106.478 83.496 109.02 82.6905 111.664 82.6905V82.6905ZM124.892 89.7303C126.402 92.0037 125.849 94.8829 123.166 97.4791C119.463 101.094 114.735 103.341 109.377 104.605C99.3417 106.969 89.24 109.076 79.2246 111.532C75.8234 112.371 72.5869 113.792 69.3701 115.117C64.7841 116.994 62.2498 120.426 61.7281 124.5C61.2574 128.131 61.8732 131.853 62.0891 135.547C62.2303 138.06 62.5715 140.58 62.6618 143.113C62.6775 143.556 61.9243 144.012 61.5124 144.455C61.0612 144.118 60.3786 143.845 60.1629 143.416C58.0954 139.299 55.9378 135.211 54.1371 131.001C53.1289 128.651 53.5448 126.424 56.334 124.713C59.2606 122.916 60.4884 120.459 59.7666 117.194C59.39 115.453 59.8215 113.409 60.5591 111.699C61.6339 109.242 64.0976 107.947 67.2831 107.854C67.9657 107.834 68.6482 107.831 69.3308 107.831C69.6682 107.831 70.0095 107.831 70.3508 107.831C70.6882 107.831 71.0295 107.831 71.3669 107.827C77.4279 107.764 82.3512 105.721 86.1252 101.693C87.0078 100.748 87.9611 99.8157 88.9301 98.9304C91.4211 96.677 94.3242 95.9813 97.4077 95.9813C99.0199 95.9813 100.683 96.171 102.362 96.4273C103.716 96.6304 105.05 96.7236 106.368 96.7236C110.816 96.7236 115.085 95.6717 119.157 94.2005C121.385 93.405 122.97 91.2847 124.892 89.7303V89.7303ZM111.781 80.6268C108.58 80.6268 105.556 81.5289 103.386 83.506C99.2044 87.3371 93.9083 88.8416 88.0395 88.8416C87.2706 88.8416 86.4978 88.815 85.7132 88.7651C85.4896 88.7517 85.2621 88.7484 85.0385 88.7484C84.654 88.7484 84.2656 88.7617 83.8812 88.7617C83.7007 88.7617 83.5202 88.7584 83.3398 88.7517C83.0495 88.7384 82.7592 88.7351 82.4728 88.7351C76.5138 88.7351 72.3045 91.1716 69.8173 95.8615C68.6836 98.0416 66.7064 99.3398 64.1565 100.042C62.5872 100.471 60.971 100.788 59.3508 101.081C54.4275 101.979 49.8375 103.384 46.2402 106.599C42.9566 109.515 42.1445 112.597 43.9609 116.302C44.3925 117.144 44.8593 117.983 45.2163 118.838C46.0833 120.912 45.793 121.461 43.5843 122.56C42.1642 123.262 40.7049 123.948 39.4495 124.833C35.8011 127.396 35.5461 133.254 38.7473 136.243C40.9952 138.333 43.7452 139.602 46.4089 139.878C46.299 142.314 45.687 144.561 46.2127 146.571C47.574 151.821 52.411 154.813 58.9938 154.856C60.3825 154.869 61.1004 155.192 61.4222 156.324C62.5912 160.272 63.925 164.193 64.8939 168.19C65.1803 169.335 65.6315 169.808 66.6553 169.914C66.7966 169.921 66.9379 169.924 67.0791 169.924C67.2203 169.924 67.3615 169.921 67.5027 169.914C67.7341 164.516 66.7064 159.466 63.6308 154.783C63.2894 154.28 62.7284 153.744 62.1204 153.545C59.8372 152.766 57.5384 152.05 55.1846 151.471C51.2066 150.496 49.3197 148.083 48.7077 144.847C48.1703 142.028 50.2926 139.418 53.1878 139.022C53.4232 138.989 53.6389 138.972 53.8429 138.972C54.6903 138.972 55.2591 139.289 55.6475 140.211C56.334 141.878 57.2324 143.479 58.1817 145.05C58.9153 146.235 60.1275 146.924 61.7006 146.924C61.8262 146.924 61.9556 146.921 62.0851 146.911C63.9407 146.771 64.7998 145.659 65.3765 144.348C65.6079 143.769 65.9139 143.143 65.8472 142.577C65.4824 139.695 65.4824 136.702 64.4938 133.973C63.313 130.661 63.2738 127.472 64.1722 124.254C64.89 121.614 66.1179 119.018 69.1386 117.647C72.4104 116.152 75.7174 114.594 79.2403 113.636C84.7599 112.125 90.4954 111.133 96.1052 109.818C103.783 108.054 111.695 106.862 118.635 103.277C120.039 102.558 121.408 101.813 122.793 101.094L122.829 101.064C123.546 100.288 124.304 99.5228 125.037 98.7606C127.646 96.1211 129.066 93.0688 127.591 89.757C125.088 84.1218 118.09 80.6268 111.781 80.6268V80.6268Z" fill="black"/>
<path fill-rule="evenodd" clip-rule="evenodd" d="M124.716 197.271C124.7 197.271 124.68 197.271 124.665 197.275C122.307 197.408 119.953 197.638 117.611 197.947C117.164 198.004 116.52 198.463 116.466 198.799C116.407 199.149 116.854 199.711 117.274 199.928C117.772 200.217 118.478 200.231 119.376 200.427C121.169 200.064 123.205 199.728 125.163 199.209C125.634 199.086 125.881 198.383 126.226 197.957C125.724 197.721 125.202 197.271 124.716 197.271V197.271Z" fill="black"/>
<path fill-rule="evenodd" clip-rule="evenodd" d="M122.828 101.064L122.793 101.094L122.754 101.127C122.762 101.127 122.773 101.127 122.781 101.127C122.808 101.127 122.836 101.13 122.859 101.14C122.843 101.117 122.832 101.09 122.828 101.064V101.064Z" fill="#2F3656"/>
<path fill-rule="evenodd" clip-rule="evenodd" d="M112.154 142.78C112.644 142.78 113.119 142.85 113.46 143.033C113.817 143.236 113.692 144.395 113.46 145.034C111.985 149.061 107.329 151.561 101.374 151.777C99.8122 151.428 98.1371 151.228 96.6817 150.649C95.7441 150.279 94.524 149.397 94.4887 148.695C94.4535 148.026 95.6382 147.124 96.5366 146.668C97.6742 146.072 99.0355 145.736 100.334 145.413C103.845 144.544 107.344 143.692 110.887 142.913C111.267 142.833 111.718 142.78 112.154 142.78V142.78ZM112.782 140.051C112.495 140.051 112.201 140.071 111.895 140.107C111.267 140.184 110.636 140.35 110.004 140.487C106.697 141.219 103.335 141.845 100.059 142.73C97.7606 143.356 95.3871 144.055 93.4099 145.183C90.1185 147.061 90.1892 150.556 93.6061 152.25C95.9442 153.425 98.7138 153.971 100.746 154.63C103.567 154.14 105.654 153.957 107.615 153.408C112.668 152.003 115.83 149.048 116.928 144.608C117.587 141.948 115.743 140.051 112.782 140.051V140.051Z" fill="black"/>
<path fill-rule="evenodd" clip-rule="evenodd" d="M108.749 111.615C108.71 111.615 108.675 111.615 108.643 111.619C105.87 111.738 103.641 112.93 101.77 114.474C100.276 115.693 101.017 117.204 103.104 117.204C103.163 117.204 103.222 117.207 103.277 117.207C105.395 117.207 107.584 116.948 109.648 116.518C111.319 116.182 113.496 115.726 113.1 113.696C112.739 111.825 110.656 111.758 108.855 111.619C108.82 111.615 108.784 111.615 108.749 111.615V111.615Z" fill="black"/>
<path fill-rule="evenodd" clip-rule="evenodd" d="M108.188 118.106C106.693 118.106 105.618 119.078 105.889 120.579C106.101 121.751 106.717 122.896 107.325 123.981C107.823 124.849 108.545 125.811 109.612 125.811C109.863 125.811 110.13 125.761 110.416 125.642C111.57 125.172 112.327 123.947 113.241 123.065C112.829 120.972 111.338 118.971 109.483 118.332C109.035 118.179 108.596 118.106 108.188 118.106V118.106Z" fill="black"/>
<path fill-rule="evenodd" clip-rule="evenodd" d="M45.0985 234.677C44.4866 236.342 43.6549 238.355 43.0664 240.416C42.9213 240.948 43.349 241.957 43.8707 242.183C45.9577 243.099 48.1154 243.984 50.3632 244.546C59.3743 246.793 68.6325 247.815 77.985 248.224C84.7795 248.531 91.6095 248.607 98.4276 248.607C102.221 248.607 105.995 248.228 110.004 248.011V237.823C104.587 238.402 99.2004 238.642 93.8299 238.642C77.5298 238.642 61.3946 236.421 45.0985 234.677V234.677Z" fill="#FEB8B3"/>
<path fill-rule="evenodd" clip-rule="evenodd" d="M44.8828 245.954C31.6467 276.437 18.285 307.192 4.80167 338.224C12.2985 342.864 21.7215 343.487 30.713 346.372C37.1114 335.142 43.3685 324.175 49.6453 313.157C44.5886 311.846 43.0116 310.062 43.2077 305.804C43.4235 301.364 45.0594 297.333 48.2958 293.782C50.1239 291.768 52.3953 290.673 55.1415 290.673C55.6671 290.673 56.2046 290.713 56.7616 290.793C58.2053 291.003 59.5665 291.585 61.1005 292.041C61.3476 291.585 61.6222 291.032 61.9243 290.487C64.2467 286.289 66.5455 282.095 68.8836 277.915C70.7549 274.556 72.6615 271.218 74.5445 267.876C75.7881 265.679 76.8316 263.389 78.3066 261.315C78.95 260.4 80.3545 259.531 81.5785 259.315C84.3128 258.859 87.1373 258.786 89.9187 258.633C91.6566 258.529 93.4965 258.217 95.2186 258.217C96.0463 258.217 96.8506 258.29 97.5999 258.493C98.8827 258.846 100.118 258.982 101.323 258.982C103.786 258.982 106.132 258.413 108.533 257.93C108.965 257.84 109.577 257.351 109.592 257.015C109.683 254.985 109.647 252.954 109.647 250.957C103.182 251.386 96.7446 251.639 90.358 251.639C74.8269 251.639 59.5822 250.135 44.8828 245.954V245.954Z" fill="#A6DFDA"/>
<path fill-rule="evenodd" clip-rule="evenodd" d="M49.5708 221.13C48.4018 224.715 47.323 228.044 46.0088 232.024C62.1126 233.096 77.828 235.45 93.6848 235.45C99.0593 235.45 104.453 235.18 109.879 234.498C109.718 233.046 109.577 231.598 109.392 230.164C109.196 228.666 109 227.175 108.8 225.787C106.58 225.8 104.363 225.81 102.151 225.81C84.403 225.81 66.8516 225.201 49.5708 221.13V221.13Z" fill="#FED58A"/>
<path fill-rule="evenodd" clip-rule="evenodd" d="M104.622 131.11C103.622 131.11 102.621 131.15 101.629 131.21C101.123 131.243 100.636 131.746 100.15 132.036C100.621 132.325 101.068 132.781 101.57 132.845C102.904 133.014 104.253 132.994 105.96 133.058C105.026 134.169 104.194 134.948 103.692 135.863C103.465 136.319 103.857 137.025 103.947 137.621C104.591 137.494 105.473 137.571 105.854 137.238C106.905 136.256 107.847 135.184 108.659 134.049C109.698 132.568 109 131.363 106.984 131.194C106.199 131.134 105.411 131.11 104.622 131.11V131.11Z" fill="black"/>
<path fill-rule="evenodd" clip-rule="evenodd" d="M54.5333 209.627C53.1525 212.799 51.8187 215.851 50.5044 218.877C67.3536 222.096 84.1126 222.914 101.083 222.914C103.496 222.914 105.913 222.898 108.337 222.868C108.066 220.202 107.831 217.925 107.58 215.488C105.105 215.488 102.692 215.592 100.319 215.592C98.867 215.592 97.4273 215.552 95.9992 215.425C87.0117 214.633 78.0752 213.521 69.0994 212.589C64.1565 212.083 59.1036 212.053 54.5333 209.627V209.627Z" fill="#FEB8B3"/>
<path fill-rule="evenodd" clip-rule="evenodd" d="M57.5735 200.154C56.9419 202.427 56.2083 205.02 55.4315 207.706C62.0457 209.893 90.7149 212.756 102.676 212.756C104.896 212.756 106.544 212.656 107.364 212.436V207.28L105.151 207.277C96.9877 207.17 88.8044 207.081 80.6445 206.941C79.6521 206.927 78.3418 206.898 77.7651 206.395C75.4819 204.424 72.3907 205.113 69.8171 204.305C65.6824 203.04 61.6534 201.542 57.5735 200.154V200.154Z" fill="#FED58A"/>
<path fill-rule="evenodd" clip-rule="evenodd" d="M109.541 260.966C105.493 261.149 101.789 261.362 98.0822 261.455C97.9252 261.459 97.7683 261.459 97.6114 261.459C95.8578 261.459 94.1043 261.252 92.3585 261.252C92.2056 261.252 92.0486 261.252 91.8956 261.259C90.3186 261.282 88.6984 261.738 87.1724 261.738C86.8193 261.738 86.4662 261.712 86.125 261.652C85.5797 261.559 85.0853 261.515 84.6342 261.515C81.5154 261.515 80.4484 263.596 79.4912 265.846C79.0596 266.854 78.9184 267.986 78.8439 269.068C78.2319 278.391 77.7455 287.711 77.0786 297.017C75.7172 315.843 75.4819 334.699 75.9487 353.542C75.9801 354.651 76.341 355.226 77.5924 355.226C77.6552 355.226 77.7179 355.223 77.7807 355.22C83.8457 354.93 89.8831 354.654 95.5323 354.394C97.6899 343.257 99.7573 332.503 101.825 321.748C95.8735 319.871 92.6175 315.737 92.9627 310.381C93.4492 302.786 97.7801 298.102 106.191 296.315C107.305 284.552 108.427 272.712 109.541 260.966V260.966Z" fill="#A6DFDA"/>
<path fill-rule="evenodd" clip-rule="evenodd" d="M86.435 177.547C85.8231 180.978 85.7485 181.404 89.2557 182.213C94.0574 183.308 99.0356 183.798 104.434 184.623C103.928 183.112 103.716 182.23 103.32 181.404C103.08 180.932 102.578 180.319 102.076 180.229C96.933 179.284 91.7585 178.442 86.435 177.547V177.547Z" fill="#FED58A"/>
<path fill-rule="evenodd" clip-rule="evenodd" d="M80.7938 126.95C80.3034 126.95 79.8445 127.026 79.5267 127.196C78.8441 127.579 78.3223 128.784 78.4674 129.516C78.7185 130.844 79.405 132.156 80.1583 133.377C80.6879 134.239 81.4921 135.201 82.5866 135.201C82.869 135.201 83.1672 135.138 83.4811 134.995C84.5285 134.522 85.0502 133.211 85.4268 132.735C85.2464 130.065 84.6697 128.218 82.4768 127.259C82.0295 127.066 81.3901 126.95 80.7938 126.95V126.95Z" fill="black"/>
<path fill-rule="evenodd" clip-rule="evenodd" d="M75.9059 142.135C75.8707 142.135 75.8393 142.135 75.8079 142.135C72.3556 142.151 69.9077 144.651 69.8567 148.189C69.8214 150.842 72.3556 152.796 75.8471 152.796C79.8171 152.782 82.6574 150.496 82.6731 147.277C82.6926 144.172 80.0015 142.135 75.9059 142.135V142.135Z" fill="#FED58A"/>
<path fill-rule="evenodd" clip-rule="evenodd" d="M77.2079 120.958C73.8263 120.958 69.7465 125.339 70.5585 128.068C70.8292 128.97 71.6727 129.619 72.5122 129.619C72.8377 129.619 73.1594 129.519 73.4537 129.303C75.5917 127.735 77.7298 126.068 79.3853 124.131C80.6249 122.683 79.2401 120.958 77.2079 120.958V120.958Z" fill="black"/>
<path fill-rule="evenodd" clip-rule="evenodd" d="M65.4862 172.477C64.2819 172.477 63.1481 172.883 62.1399 173.725C57.9345 177.207 55.8631 181.584 55.1257 186.377C54.086 193.197 55.973 195.514 62.7519 198.902C66.6552 200.856 71.1511 201.968 75.6428 203.556C78.7537 194.875 81.7391 186.454 84.7441 178.079C81.7941 177.011 79.6011 176.109 77.318 175.423C73.8657 174.401 70.3939 173.469 66.8711 172.647C66.4002 172.534 65.9374 172.477 65.4862 172.477V172.477Z" fill="#FEB8B3"/>
</svg>
