<svg width="109" height="88" viewBox="0 0 109 88" fill="none" xmlns="http://www.w3.org/2000/svg">
<path fill-rule="evenodd" clip-rule="evenodd" d="M51.377 11.6271C50.2375 11.6271 49.091 12.1378 48.3023 13.3746C46.5582 16.1158 44.5779 17.9225 41.7533 19.5241C38.7376 21.2335 39.759 25.3157 42.6462 26.3962C50.8211 29.4501 59.1386 32.7125 67.7687 34.2273C68.5365 34.3627 69.2765 34.4253 69.9957 34.4253C74.9257 34.4253 78.7265 31.4026 82.0306 27.4177C83.872 25.1941 83.1945 22.0951 80.3699 21.1327C73.3171 18.7285 66.2643 16.3312 59.1629 14.073C57.6655 13.5935 56.0187 13.1036 54.4379 12.9647C53.6666 12.1447 52.5235 11.6271 51.377 11.6271V11.6271Z" fill="#A6DFDA"/>
<path fill-rule="evenodd" clip-rule="evenodd" d="M98.8496 4.09485C97.8977 5.61658 97.4669 7.39886 97.5155 9.24371C97.5294 9.90036 98.0158 10.2617 98.5613 10.2617C98.735 10.2617 98.9156 10.2269 99.0894 10.1505C100.681 9.45218 102.286 9.00052 104.023 8.90323C104.172 8.8963 104.318 8.89282 104.468 8.89282C104.978 8.89282 105.482 8.93451 105.986 8.96231C102.115 10.9009 98.9399 14.8269 97.175 18.6312C93.7459 16.8385 89.9312 15.487 86.7557 14.2745C88.2392 12.1308 89.5733 10.0046 91.5953 8.22229C93.7772 6.30099 96.2057 5.09543 98.8496 4.09485V4.09485ZM46.9509 2.39243C56.2897 5.59573 65.6772 8.57318 74.8736 12.1934C80.4325 14.3857 85.9357 16.7273 91.3695 19.2184C96.7998 21.706 103.425 23.8739 103.644 30.7842C103.835 36.7704 98.6412 41.9332 95.0557 46.2448C91.8211 50.129 88.5484 53.9855 85.2478 57.8176C79.352 64.648 73.3171 71.343 67.2406 78.0101C67.2302 77.0686 67.06 76.1305 66.7369 75.248C66.0941 71.5931 63.5475 69.5398 60.5422 67.5803C54.6637 63.7378 48.2398 60.5518 41.8298 57.7064C31.1846 52.9745 19.8897 49.0103 8.32035 47.3496C8.18833 47.1967 8.01115 47.0717 7.82006 47.0056C21.2447 32.5248 33.6756 17.0574 46.937 2.41675C46.9404 2.40634 46.9474 2.3959 46.9509 2.39243V2.39243ZM9.10207 49.2709C18.1282 51.7307 27.1058 54.1071 35.8088 57.6404C41.2218 59.8396 46.5096 62.3411 51.6516 65.1275C56.1195 67.549 63.676 70.5196 64.5272 76.0749C64.5481 76.2452 64.6141 76.405 64.7148 76.5405C65.6251 82.7143 61.4004 84.6807 55.581 84.6807C46.857 84.6807 34.5477 80.2649 30.5523 78.969C21.1404 75.9082 12.1907 71.9058 3.00471 68.303C8.82066 63.9879 11.1727 56.1499 9.10207 49.2709V49.2709ZM47.1454 0.262695C46.9404 0.262695 46.7389 0.325256 46.5687 0.450317C46.3915 0.349548 46.1935 0.287018 45.992 0.287018C45.7175 0.287018 45.4361 0.398193 45.1859 0.672668C31.4695 15.6364 17.2354 30.7356 5.17614 47.0995C4.68626 47.763 5.36723 48.5135 6.04818 48.5135C6.10029 48.5135 6.15241 48.51 6.20452 48.4996C8.87276 55.5002 6.55889 62.7129 0.840232 67.4101C0.795066 67.4518 0.760322 67.5004 0.729057 67.549C0.0446238 67.688 -0.261117 68.8033 0.46154 69.2132C14.5532 77.1971 31.0421 82.5267 46.7181 86.3379C49.4871 87.0119 52.5167 87.6686 55.4594 87.6686C58.4056 87.6686 61.2614 87.0085 63.676 85.0385C64.225 84.5835 64.7253 84.0762 65.1734 83.5168C65.1769 83.5168 65.1839 83.5168 65.1908 83.5168C65.5243 83.5168 65.837 83.3744 66.0559 83.1277C75.1064 73.4866 83.8547 63.5432 92.3944 53.447C97.7379 47.1377 108.067 38.0003 106.347 28.6476C105.628 24.7564 102.723 21.9248 99.0824 19.7117C100.152 17.6584 101.351 15.7476 102.935 14.0382C104.464 12.3845 106.25 11.1198 107.938 9.64325C108.171 9.43826 108.188 9.13254 108.088 8.8685C108.668 8.66351 108.63 7.84012 108.168 7.52048C107.216 6.86731 106.007 6.6102 104.725 6.6102C103.012 6.6102 101.163 7.06882 99.6209 7.64902C99.7807 6.14117 100.368 4.7897 101.285 3.46252C101.615 2.98654 101.25 2.49319 100.792 2.37506C100.681 1.91992 100.291 1.52386 99.7078 1.52386C99.6348 1.52386 99.5549 1.53082 99.4715 1.54471C93.6521 2.5314 86.8043 7.61777 85.1089 13.6283C84.7927 13.5032 84.4626 13.3677 84.1639 13.2426C72.2505 8.18753 59.9898 3.49377 47.4303 0.304382C47.3365 0.276611 47.2427 0.262695 47.1454 0.262695V0.262695Z" fill="black"/>
<path fill-rule="evenodd" clip-rule="evenodd" d="M50.109 12.096C61.3031 15.4591 72.122 19.4511 82.9166 23.9225C80.971 25.8854 79.1922 28.0291 77.257 30.0129C75.7665 31.5416 74.1162 32.9973 72.7335 34.6441C72.5806 34.4773 72.3756 34.3592 72.1602 34.3036C61.3205 31.4408 50.6996 27.9804 40.0405 24.5235C43.4974 20.6393 46.996 16.55 50.0082 12.3149C50.0534 12.2454 50.0881 12.1725 50.109 12.096V12.096ZM50.0777 10.7202C49.765 10.7202 49.5496 10.9356 49.4628 11.1858C49.4037 11.1719 49.3412 11.1649 49.2786 11.1649C49.091 11.1649 48.9069 11.2344 48.761 11.356C44.8246 14.8199 41.2148 19.0585 38.0671 23.252C37.6607 23.787 37.9177 24.395 38.3763 24.7389C38.1193 25.2357 38.2374 25.9758 38.9079 26.2502C49.4732 30.6 60.4137 33.918 71.4549 36.8294C71.5592 36.8572 71.6669 36.8711 71.7711 36.8711C71.917 36.8711 72.0595 36.8433 72.195 36.7912C72.3513 36.885 72.532 36.9406 72.7092 36.9406C72.8412 36.9406 72.9697 36.9128 73.0913 36.8468C75.4538 35.5474 77.4585 33.4073 79.3416 31.5103C81.2733 29.5543 83.2362 27.5461 84.8657 25.3261C85.3868 24.6034 84.8483 23.8252 84.1465 23.6063C84.4766 23.1234 84.4939 22.3834 83.8755 22.0915C73.1469 17.0782 61.7999 13.3259 50.2514 10.7411C50.1924 10.7272 50.1333 10.7202 50.0777 10.7202V10.7202Z" fill="black"/>
<path fill-rule="evenodd" clip-rule="evenodd" d="M8.40724 66.1489C7.93474 66.1489 7.66026 66.8924 8.15013 67.1287C22.6865 74.1988 38.96 78.7188 54.5283 82.8741C54.6186 82.8984 54.7055 82.9088 54.7854 82.9088C55.7443 82.9088 56.0778 81.3767 55.0182 81.0953C39.2102 76.9192 24.1144 71.0511 8.55662 66.1698C8.50451 66.1559 8.45587 66.1489 8.40724 66.1489V66.1489Z" fill="black"/>
<path fill-rule="evenodd" clip-rule="evenodd" d="M11.6939 61.9624C11.1032 61.9624 10.9365 62.8727 11.5653 63.1124C20.6749 66.6075 29.8226 70.2694 39.0225 73.504C39.1059 73.5318 39.1823 73.5457 39.2588 73.5457C39.9536 73.5457 40.3567 72.42 39.6305 72.076C30.8232 67.9208 21.2342 64.6272 11.8745 61.9867C11.812 61.9694 11.7494 61.9624 11.6939 61.9624V61.9624Z" fill="black"/>
<path fill-rule="evenodd" clip-rule="evenodd" d="M11.6904 57.4181C11.0929 57.4181 10.8983 58.3353 11.5445 58.5403C26.3554 63.2271 40.7528 68.5392 55.2579 74.0738C55.3447 74.105 55.4281 74.119 55.508 74.119C56.2237 74.119 56.6372 72.9307 55.8867 72.5833C41.9306 66.0795 26.8001 61.0557 11.8503 57.4389C11.7947 57.425 11.7426 57.4181 11.6904 57.4181V57.4181Z" fill="black"/>
<path fill-rule="evenodd" clip-rule="evenodd" d="M19.2504 53.9438C18.6807 53.9438 18.5104 54.802 19.1184 55.0244C28.228 58.2902 36.938 61.8513 45.4882 66.4061C45.6237 66.479 45.7592 66.5103 45.8843 66.5103C46.6173 66.5103 47.1003 65.4333 46.3151 64.9886C37.9421 60.2427 28.763 56.2786 19.4103 53.9647C19.3547 53.9508 19.3026 53.9438 19.2504 53.9438V53.9438Z" fill="black"/>
</svg>
